<svg id="Layer_1" data-name="Layer 1" xmlns="http://www.w3.org/2000/svg" width="1683.78" height="762.44" viewBox="0 0 1683.78 762.44">
  <defs>
    <style>
      .cls-1 {
        fill: #5e9af2;
      }

      .cls-2 {
        fill: #2e49d2;
      }

      .cls-3 {
        fill: #d2e9ff;
      }

      .cls-4 {
        fill: #263252;
      }

      .cls-5 {
        fill: #153cbb;
      }

      .cls-6 {
        fill: #003261;
      }

      .cls-7 {
        fill: #1f3765;
      }

      .cls-8 {
        fill: #ff5549;
      }

      .cls-9 {
        fill: #ff7469;
      }

      .cls-10 {
        fill: #ff9490;
      }

      .cls-11 {
        fill: #00448c;
      }

      .cls-12 {
        fill: #ff8484;
      }

      .cls-13 {
        fill: #438ad7;
      }

      .cls-14 {
        fill: #5ab6ff;
      }

      .cls-15 {
        fill: #b1d8ff;
      }

      .cls-16 {
        fill: #8fc1f5;
      }

      .cls-17 {
        fill: #4c9ad5;
      }

      .cls-18 {
        fill: #2c88be;
      }

      .cls-19 {
        fill: #5ea4e7;
      }

      .cls-20 {
        fill: #a2cdfc;
      }
    </style>
  </defs>
  <g>
    <path class="cls-1" d="M1578.65,622.06a191.75,191.75,0,0,1-1.32,23.63,174.59,174.59,0,0,1-8.79,38,156.56,156.56,0,0,1-11.34,24.95c-1.3,2.3-2.66,4.55-4.08,6.78H178.34S53.14,428.72,223.71,289.9c2.13-1.73,4.27-3.44,6.42-5.1q3-2.3,6-4.51c1.93-1.44,3.89-2.84,5.84-4.22,51.42-36.32,107.71-54.28,166.77-65.41,2.08-.4,4.16-.78,6.26-1.16s4-.71,5.95-1.05c47.88-8.25,97.45-12.6,147.6-19,17.46-2.25,35-4.76,52.54-7.77,70.25-12.06,140.87-32.3,208.86-77a392.84,392.84,0,0,1,64.67-34.53q2.22-.93,4.45-1.82c1.46-.59,2.9-1.16,4.36-1.72A341.11,341.11,0,0,1,1027.86,43c1.56,0,3.11,0,4.67,0s3,.06,4.44.11a317,317,0,0,1,36.84,3.29c5,.75,10,1.6,14.83,2.58q10.75,2.13,21.06,5c88.27,24.23,150.77,85.07,154.35,148,2.42,42.41,7.45,83.16,18.59,118.51a215.07,215.07,0,0,0,19.76,45.28q3.31,5.59,7,10.84c24.32,34.43,61.26,57.12,117.57,60.89,39.13,2.63,72.1,20.16,97.19,46.11l.71.73C1559.05,520.13,1578.44,571.58,1578.65,622.06Z"/>
    <path class="cls-2" d="M846.45,535.31c-1.49-11.22-18.84-14.91-22.76-17.73-2.35-1.69-7.79-9.14-11.56-14.56l.84-.59c-11-33.78-20.05-61.44-27.52-84.1a28.85,28.85,0,0,0,2.41-8.19c2.7-15.58-10.88-21.49-10.88-21.49l-.21-.12c8.09-68.08-11.38-72.71-11.38-72.71a37.8,37.8,0,0,0-15.45-1.29c-2.87-6.92-8.61-11.17-18.1-11.71a22.14,22.14,0,0,0-9.28,1.78c.44-.77.87-1.55,1.3-2.34,2-1.36,18.62-13.33,17.18-27.73a19.23,19.23,0,0,0-1.68-6.63,28.26,28.26,0,0,0-.86-3.27c1.47-7.24,1.56-13.11-.12-16.48-3.07-6.13-8.8-10.42-13.11-13a8.42,8.42,0,0,1,4.18.62c-2.32-2.11-9.78-3.41-9.78-3.41-26.56-37.8-67.53,11.16-75,23.91s-16.82,26.92-42.06,25.92c-49.67-1.95-52.83,48-42.66,73.58.14.35,24.48,43.47,24.48,43.47a22.9,22.9,0,0,1,2.25-3.16c-1.67,18-2.47,32.74-5.22,36.88-5.78,8.66-33.05,60.25-9.46,84.34-18.61-6.11-44.93,16.76-48.11,19.6h-.32v178.5H855.81V537C853,536.41,849.89,535.86,846.45,535.31ZM697.71,504c2.22-3.35,10.41-18.65,20.44-39.13-.3,20.57-.43,35.48-.43,35.48a7.28,7.28,0,0,0,2.6,6.66c-1.14,2.63-2.57,5.18-3.69,7.66a25.55,25.55,0,0,0-2,8.64c-18.72-.88-32.93-1-37.61-.19-.82.15-1.78.31-2.85.46C685.34,518.28,693.09,510.91,697.71,504Zm76.62,23.32c-4.18-7.63-18.42-6.95-21.7-9.71a21.38,21.38,0,0,1-5.3-6.5c1-.09,1.58-.16,1.58-.16,4.26-14.25,8-27.45,11.16-39.69C772.3,491.79,782.41,507,782.41,507a7.56,7.56,0,0,0,6.16,4.9,11.61,11.61,0,0,1-.87,2.77c-2.13,4.7-2.17,10.4-2,13.64Q780.06,527.77,774.33,527.29Z"/>
    <path class="cls-3" d="M1578.65,622.06a235,235,0,0,1-1.32,23.63,214.86,214.86,0,0,1-6.21,33.39q-1.18,4.41-2.58,8.74a183.82,183.82,0,0,1-11.34,27.63H1088.64V49q10.75,2.13,21.06,5,12.58,3.47,24.43,7.87C1183,80,1221.86,109.74,1244,143.94c11.9,18.41,19,38.13,20.08,58.07,2.42,42.41,7.45,83.16,18.59,118.51a215.07,215.07,0,0,0,19.76,45.28q3.31,5.59,7,10.84c24.32,34.43,61.26,57.12,117.57,60.89,39.13,2.63,72.1,20.16,97.19,46.11l.71.73C1559.05,520.13,1578.44,571.58,1578.65,622.06Z"/>
    <rect class="cls-4" x="70.16" y="715.45" width="1570.07" height="4.16" rx="0.08"/>
    <g>
      <path class="cls-5" d="M1033.38,509.27,964,503.83s-1.66-10.58,2-18.6c3.47-7.69-1.3-13.26-6.06-22.43,4.41,4.54,19.59,3.87,29.62,2.52,1.23,2,13.6,20.33,17.71,23.28C1011.77,491.86,1032,496.14,1033.38,509.27Z"/>
      <path class="cls-5" d="M951.91,503.83H882.54s-1.66-10.58,2-18.6c3.47-7.69,9.52-16,4.77-25.12,4.41,4.54,18.33,4,28.36,2.69,1.23,2-4.64,15,8.14,25.8C930,492.2,950.51,490.7,951.91,503.83Z"/>
      <path class="cls-6" d="M940.4,257.3s-33-11.27-45.71,22.29c-60.5,49-147,174.16-154.32,182.91-14.63,17.52-3.32,41.91,56.48,41.33,35-.34,56.37-16.4,65.95-30.83,2.55-3.85,11.94-21.38,23.43-44.86-.34,23.58-.48,40.68-.48,40.68C884,485.53,921.5,481,921.5,481,985.19,267.94,940.4,257.3,940.4,257.3Z"/>
      <path class="cls-7" d="M909.43,179.72c-3.51-7-10.08-11.95-15-14.85a9.63,9.63,0,0,1,4.79.71c-2.66-2.42-11.21-3.91-11.21-3.91-30.45-43.33-77.42,12.79-86,27.42s-19.29,30.85-48.22,29.71c-56.94-2.24-56.86,53.81-48.91,84.35,4.2,16.14,29.73,53.89,29.73,53.89,6.57-12,64-67.21,103.36-66.83,13.21-5.34,27.17-21,28.26-22.29-10.34,12.94-17.84,19.06-22.84,22C880.79,284.12,918.75,198.36,909.43,179.72Z"/>
      <path class="cls-8" d="M840.32,290.2c.11.14-5.14,19.56-20.91,11-10.36-5.59-27-29.44-20.57-37.52,3-3.85,16.45-11.14,30.41-35.86l1.68,1.44,28.17,24.37s-6.41,9.59-11.79,19C842.78,280.55,839,288.32,840.32,290.2Z"/>
      <path class="cls-7" d="M829.89,223.2s.53-20,6.45-33.5c4.23-9.61,29.93-38.5,58.85-12.48a52.33,52.33,0,0,1,13.45,18.89c3.8,9.34,7,26.18-22.78,46.45l-9.2,7.43Z"/>
      <path class="cls-9" d="M792,253.13s10.35,2,14.73-3.89,13.9-18.27,16.13-11.15,23.24,27.81,28.1,28.36,8.27,1.9,5.52,4.42-1.61,12.61-4.36,13.52S798.35,252.57,792,253.13Z"/>
      <path class="cls-10" d="M857.1,267.28S816.47,241,833.22,216s22.78-45.31,49.44-29.6,25.25,28.61,21.69,38.33S868.1,273.47,857.1,267.28Z"/>
      <path class="cls-9" d="M859.1,287.6S790.29,236.89,766.21,256c-35.53,28.17-28.42,123.28-36.67,135.66S674.8,492.76,750.41,501.79s93-38.64,96.46-74.39S859.1,287.6,859.1,287.6Z"/>
      <path class="cls-8" d="M768.56,287S748.74,396.51,788,426.43,847,283.58,768.56,287Z"/>
      <path class="cls-8" d="M808.08,269.46s.75-12.8,12-7.9,32.19,12.23,40.28,9.22-13,37.45-32.29,23.9S808.08,269.46,808.08,269.46Z"/>
      <path class="cls-7" d="M901.37,198s-30.69,22-50.48,15-24.09-16.41-24.09-16.41a57.55,57.55,0,0,0,34.57-17.77S902.44,178.46,901.37,198Z"/>
      <path class="cls-10" d="M953.69,340.79s15.56,6.78,12.47,24.63-9.29,11.88-9.29,11.88Z"/>
      <path class="cls-7" d="M897.05,198.56s3.82,12.07,1.55,19.79-10.16,21.44-6,23.56c0,0,21.67-14.41,19.92-31.95C910.63,191.37,897.05,198.56,897.05,198.56Z"/>
      <path class="cls-11" d="M923.26,257.3h0c-3.06-8.81-9.77-14.26-21.31-14.91-50.44-2.86-171.7,209.09-180.89,220.1-14.62,17.52-3.32,41.91,56.48,41.33,35-.34,48.76-17.08,58.34-31.52,4.39-6.6,36.18-57.11,60.63-109.12C917,412,959.91,476.44,959.91,476.44c6.38,15.55,35-5.21,35-5.21C926.28,260.12,923.26,257.3,923.26,257.3Z"/>
      <path class="cls-12" d="M762.87,263.74s-18.13,28,38.24,53.69,63,32,74,34.25c17.12,3.57,82.91,3.07,82.91,3.07s1.73-10.43-4.33-14C944,335.15,888,326,880.4,323S792.33,233.4,762.87,263.74Z"/>
      <path class="cls-9" d="M778.86,251.74s28.8,1.16,88.86,56.49c0,0,9.19,11.16,13.76,11.91s17,4,17.23,7.15-15.25,42.68-35,43.81-115-69.28-108.45-92.15S778.86,251.74,778.86,251.74Z"/>
    </g>
    <g>
      <rect class="cls-13" x="663.18" y="510.81" width="253.92" height="204.64"/>
      <rect class="cls-2" x="814.32" y="510.82" width="229.74" height="204.63"/>
      <g>
        <path class="cls-11" d="M852.58,550.17a4.21,4.21,0,1,1,4.21,4.08A4.14,4.14,0,0,1,852.58,550.17Z"/>
        <path class="cls-11" d="M1007.09,550.17a4.22,4.22,0,1,1,4.22,4.08A4.15,4.15,0,0,1,1007.09,550.17Z"/>
        <path class="cls-11" d="M852.58,679.08a4.21,4.21,0,1,1,4.21,4.07A4.14,4.14,0,0,1,852.58,679.08Z"/>
        <path class="cls-11" d="M1007.09,679.08a4.22,4.22,0,1,1,4.22,4.07A4.15,4.15,0,0,1,1007.09,679.08Z"/>
      </g>
      <g>
        <path class="cls-2" d="M687.09,550.17c0-2.25,1.17-4.07,2.61-4.07s2.6,1.82,2.6,4.07-1.16,4.08-2.6,4.08S687.09,552.42,687.09,550.17Z"/>
        <path class="cls-2" d="M782.79,550.17c0-2.25,1.17-4.07,2.61-4.07s2.61,1.82,2.61,4.07-1.17,4.08-2.61,4.08S782.79,552.42,782.79,550.17Z"/>
        <path class="cls-2" d="M687.09,679.08c0-2.25,1.17-4.07,2.61-4.07s2.6,1.82,2.6,4.07-1.16,4.07-2.6,4.07S687.09,681.33,687.09,679.08Z"/>
        <path class="cls-2" d="M782.79,679.08c0-2.25,1.17-4.07,2.61-4.07s2.61,1.82,2.61,4.07-1.17,4.07-2.61,4.07S782.79,681.33,782.79,679.08Z"/>
      </g>
      <path class="cls-11" d="M663.18,511.15s34.5-31.88,57.26-22.16c30,12.8,100.82,9.23,118.69,5.93s157.52,6.56,204.93,15.9Z"/>
      <path class="cls-14" d="M1044.06,661.77v53.68H814.32V510.82h38.54l.76.32S874.24,650,1044.06,661.77Z"/>
    </g>
    <g>
      <path class="cls-15" d="M415,209.51v143.4H236.09V280.29q-3,2.22-6,4.51v74.07H420.92V208.45C418.93,208.8,417,209.14,415,209.51Z"/>
      <path class="cls-15" d="M408.71,210.66v136H241.94V276.06C293.36,239.75,349.66,221.79,408.71,210.66Z"/>
    </g>
    <g>
      <path class="cls-15" d="M1032.53,43.06v66.75H899V68.29q-2.24.88-4.45,1.82v44.15H1037V43.17C1035.49,43.12,1034,43.08,1032.53,43.06Z"/>
      <path class="cls-15" d="M1027.86,43v62.1H903.4V66.57A341.11,341.11,0,0,1,1027.86,43Z"/>
    </g>
    <path class="cls-16" d="M1525.37,694.94s27.27-145.2-7.88-148S1525.37,694.94,1525.37,694.94Z"/>
    <path class="cls-16" d="M1520.55,698.35s-51.4-93.82-80.7-90.36S1520.55,698.35,1520.55,698.35Z"/>
    <path class="cls-2" d="M482.43,427.26c-7.31-29.32-52.86-20.16-52.86-20.16s-30.93,51.31-39.93,52.53,18.56-49.48,18.56-49.48c-17.44-1.83-61.86,21.38-61.86,21.38s2.81,59.87-6.19,58.65,0-53.15,0-53.15c-16.87,5.5-32.62,26.88-32.62,26.88-19.68,34.82,22.5,60.47,22.5,60.47s.56,20.77-11.25,44.6a91.38,91.38,0,0,0-10.09,56.16H295.63a69.45,69.45,0,0,0-8-40.09c-9-18.07-8.54-33.83-8.54-33.83s32-19.46,17.07-45.87c0,0-11.95-16.22-24.75-20.39,0,0,6.83,39.39,0,40.31s-4.69-44.48-4.69-44.48-33.7-17.61-46.93-16.22c0,0,20.91,38.46,14.08,37.53s-30.29-39.85-30.29-39.85-34.56-6.95-40.1,15.29,3.41,33.37,8.53,34.76,38,.93,37.12,5.56-23,12-35.41,7.88c0,0,13.65,36.61,31.57,34.75s23.46-13.9,34.55-14.83,19.2,2.32,13.66,5.56-24.32,1.07-33.28,9.34-16.21,13.37.43,17.08,46.5,1.39,52.47-12.51l.75-1.74a7.48,7.48,0,0,1-.75,1.74c3.07,1.94,7.67,11.22,10.87,18.33.45,1.21,1.17,2.89,2.24,5.16h0c.44,1,.78,1.87,1,2.46,3.69,10,3.83,24.6,3.43,34.06H243.27v2.75H246c.93,33.46,18.72,62.32,44.45,76.88h-32c-5.43,0-9.83,4.78-9.83,10.68H408.14c0-5.9-4.4-10.68-9.83-10.68H366.73c25.74-14.56,43.53-43.42,44.45-76.88h1.92v-2.75H325.05a52.86,52.86,0,0,1,7.29-12.9l1.47-1.63c1.44-1.45,2.45-2.53,3.13-3.35,4.43-4.62,10.57-10.53,13.52-11.1a6.66,6.66,0,0,1-.13-1.61c0,.52.09,1.05.13,1.61,1,12.89,24,24.14,38.17,26.45s9.78-4,4.91-13.38-20.32-13.56-23.84-17.88,3.76-4.32,12.29-.09,9.7,15.51,23.38,22.63,34.27-17.55,34.27-17.55c-10.91-.6-26.48-13.46-25.91-17.4s26.43,6.79,30.85,7.31,14.48-5.46,16-24.81S433,536.7,433,536.7s-6.74,5.43-14.34,10.91a50.13,50.13,0,0,0-6.79-7.07c2.51-2.41,4.77-4.49,6.18-5.77a50.61,50.61,0,0,0,9.29,1.83c23.62,2.44,41.61-45.81,41.61-45.81-16.31,5.49-45.55-4.28-46.67-10.39s42.17-5.5,48.92-7.33S489.74,456.58,482.43,427.26Zm-120,137.91c-1.34-.75-1.25-3.28-.39-6.6,1.87.46,3.78.85,5.73,1.19C365.83,563.6,363.93,566,362.46,565.17Zm-28.8,42.18a53.73,53.73,0,0,0-13.15,17.79h-5.59c-.69-12.13-1-33.78,4.35-48.22.32-.77.77-1.88,1.35-3.24,1.41-3,2.36-5.21,3-6.8,4.21-9.38,10.27-21.61,14.32-24.17a10,10,0,0,1-1-2.29l1,2.29a19.25,19.25,0,0,0,4.45,6.28c-7.69,15.55,7.1,34.29,7.1,34.29A62.87,62.87,0,0,1,333.66,607.35Zm62.11-76.9c-12.09-3.63-26.67-3-32-6.07-7.31-4.27,3.37-8.55,18-7.33,9.83.82,16.36,8.28,26.77,13.81A122,122,0,0,0,395.77,530.45Z"/>
    <g>
      <path class="cls-1" d="M1363.7,600.18c-1,1.75-.68,3.85.77,4.7s3.45.12,4.47-1.63,1.65-8.81,1.65-8.81S1364.73,598.43,1363.7,600.18Z"/>
      <path class="cls-1" d="M1313.58,568.35c-1,1.75-.67,3.85.77,4.7s3.45.12,4.47-1.63,1.65-8.81,1.65-8.81S1314.61,566.61,1313.58,568.35Z"/>
      <path class="cls-1" d="M1306.05,625.8c-1,1.74-.68,3.85.77,4.69s3.45.12,4.47-1.62,1.65-8.82,1.65-8.82S1307.07,624.05,1306.05,625.8Z"/>
      <path class="cls-1" d="M1446.89,522c-1.18,2-.78,4.41.88,5.39s4,.13,5.13-1.87,1.89-10.11,1.89-10.11S1448.06,520,1446.89,522Z"/>
      <path class="cls-1" d="M1442.6,571c-1.17,2-.78,4.42.88,5.39s4,.14,5.13-1.87,1.89-10.11,1.89-10.11S1443.77,569,1442.6,571Z"/>
      <path class="cls-1" d="M1378.72,529.26c-1.17,2-.78,4.42.88,5.39s4,.13,5.13-1.87,1.89-10.11,1.89-10.11S1379.9,527.26,1378.72,529.26Z"/>
      <path class="cls-1" d="M1312.64,499.6c-1.33,2.27-.88,5,1,6.1s4.48.16,5.81-2.11,2.14-11.46,2.14-11.46S1314,497.33,1312.64,499.6Z"/>
      <path class="cls-1" d="M1211.59,491.89c-1.33,2.27-.88,5,1,6.11s4.48.15,5.81-2.12,2.14-11.45,2.14-11.45S1212.92,489.62,1211.59,491.89Z"/>
      <path class="cls-1" d="M1280,432.8c-1.33,2.27-.88,5,1,6.1s4.48.15,5.81-2.12,2.14-11.45,2.14-11.45S1281.31,430.53,1280,432.8Z"/>
      <path class="cls-1" d="M1223.93,419.75c-1,1.78-.69,3.92.78,4.79s3.52.12,4.56-1.66,1.68-9,1.68-9S1225,418,1223.93,419.75Z"/>
      <path class="cls-1" d="M1228.88,377c-1,1.78-.69,3.92.78,4.79s3.52.12,4.57-1.66,1.67-9,1.67-9S1229.92,375.19,1228.88,377Z"/>
      <path class="cls-1" d="M1181,438.2c-1,1.78-.7,3.93.78,4.79s3.52.13,4.56-1.66,1.68-9,1.68-9S1182,436.42,1181,438.2Z"/>
      <path class="cls-1" d="M1229.33,290.69c1.54-2.63,2.48-13.28,2.48-13.28s-8.84,6-10.38,8.66-1,5.8,1.15,7.08S1227.78,293.33,1229.33,290.69Z"/>
      <path class="cls-1" d="M1180.57,224c-1.54,2.63-1,5.8,1.16,7.08s5.2.18,6.74-2.45,2.48-13.29,2.48-13.29S1182.12,221.36,1180.57,224Z"/>
      <path class="cls-1" d="M1163.58,350.89c-1.54,2.63-1,5.8,1.16,7.08s5.2.18,6.74-2.45,2.48-13.29,2.48-13.29S1165.12,348.26,1163.58,350.89Z"/>
    </g>
    <g>
      <g>
        <g>
          <path class="cls-17" d="M469.05,568.75s-24.25-28.29-1.5-46.26c0,0,16.62-10.06,30.18-9.25,0,0-19.21,32.2-13,35.41s18.81-37.43,18.81-37.43,37.82-3.67,50,2.18c0,0-32.34,26.47-25.52,28S569.75,517,569.75,517s35.2,6,33.33,27.47-14,28.11-19.34,27.54-36.52-12.48-37.2-8.11,18.1,18.64,31.24,19.31c0,0-24.82,27.37-41.31,19.47s-17.91-20.42-28.19-25.12-19.06-4.68-14.81.11,22.85,9.44,28.73,19.85,11.16,17.41-5.91,14.84-44.81-15-46-29.35Z"/>
          <g>
            <path class="cls-18" d="M585.78,545.09s-95.62-3.69-116.73,23.66c0,0-4.67,14-19,26.72l-2.24,6.11s16.57-17.47,22.5-18.53C470.27,583.05,461,549.17,585.78,545.09Z"/>
            <path class="cls-18" d="M450,595.47s-20.52,15.18-21.95,42.3l3.73.33s6.55-28,18.4-39S450,595.47,450,595.47Z"/>
          </g>
        </g>
        <g>
          <path class="cls-19" d="M384.26,533.17s38.58-21.6,20.58-50.92c0,0-14.41-18-29.84-22.63,0,0,8.23,43.72,0,44.75S369.35,455,369.35,455s-40.64-19.55-56.58-18c0,0,25.2,42.69,17,41.66s-36.52-44.23-36.52-44.23-41.66-7.72-48.35,17,4.12,37,10.29,38.57,45.78,1,44.75,6.18-27.78,13.37-42.69,8.74c0,0,16.46,40.63,38.06,38.58S323.57,528,336.94,527s23.15,2.57,16.46,6.17-29.32,1.18-40.12,10.36-19.54,14.84.52,19,56.06,1.54,63.26-13.89Z"/>
          <g>
            <path class="cls-17" d="M263.9,459.1s108,35,120.36,74.07c0,0-.51,17.49,10.29,37.55v7.71s-11.32-26.23-17.49-29.83C377.06,548.6,401.23,514.65,263.9,459.1Z"/>
            <path class="cls-17" d="M394.55,570.72s16.66,25.29,7.16,56.08l-4.29-1.15s4.16-33.91-4.55-51S394.55,570.72,394.55,570.72Z"/>
          </g>
        </g>
        <g>
          <path class="cls-16" d="M445.63,503.38s-50.85-28.48-27.12-67.13c0,0,19-23.73,39.33-29.83,0,0-10.85,57.63,0,59s7.45-65.09,7.45-65.09,53.57-25.76,74.59-23.73c0,0-33.23,56.28-22.38,54.92s48.14-58.31,48.14-58.31,54.92-10.17,63.73,22.37-5.42,48.82-13.56,50.86-60.34,1.35-59,8.13,36.61,17.63,56.27,11.53c0,0-21.7,53.56-50.17,50.85S525.64,496.6,508,495.24s-30.51,3.39-21.7,8.14S525,504.93,539.2,517s25.76,19.56-.68,25-73.9,2-83.39-18.3Z"/>
          <g>
            <path class="cls-16" d="M604.29,405.74s-142.38,46.11-158.66,97.64c0,0,.68,23-13.56,49.49V563s14.92-34.58,23.06-39.32C455.13,523.72,423.26,479,604.29,405.74Z"/>
            <path class="cls-16" d="M432.07,552.87s-21.95,33.34-9.44,73.93l5.65-1.51s-5.48-44.71,6-67.19S432.07,552.87,432.07,552.87Z"/>
          </g>
        </g>
        <path class="cls-19" d="M443.92,714.82a99.61,99.61,0,0,0,99.61-99.61H344.31A99.61,99.61,0,0,0,443.92,714.82Z"/>
        <path class="cls-20" d="M468.43,714.06a99.69,99.69,0,0,1-112-98.85H381.2A99.63,99.63,0,0,0,468.43,714.06Z"/>
        <rect class="cls-19" x="341.04" y="615.21" width="204.76" height="3.06"/>
      </g>
      <path class="cls-19" d="M539.8,715.45H347.55a11.85,11.85,0,0,1,11.86-11.85H528a11.84,11.84,0,0,1,11.85,11.85Z"/>
    </g>
    <path class="cls-16" d="M1244,143.94c-12.61,4.24-23.13,9.46-29.32,15.87-27.64,28.64-80.52,24.95-80.52,24.95V61.88C1183,80,1221.86,109.74,1244,143.94Z"/>
    <path class="cls-15" d="M1134.13,679.08V61.88Q1122.3,57.47,1109.7,54q-10.31-2.84-21.06-5V715.45H1557.2a183.82,183.82,0,0,0,11.34-27.63q1.39-4.34,2.58-8.74Z"/>
    <g>
      <path class="cls-6" d="M1096.8,545.85s-44.21-6.27-46.77-13.4c0,0,3.07-6.45-1.79-8.13-1.3-.46-3.48-1.29-4.46-.05l.06,13.15a78.67,78.67,0,0,1,7.44,8.39c1.47,2.07,30,14,30,14Z"/>
      <path class="cls-6" d="M1187.89,642.37c4.19-6.06-.17-48.84-30.34-35.85-6.41,1.94-14.13,6.57-23.36,15,0,0-13.26,31.24,39,51.9,0,0,5.18,2.24,5.92,7s1.56,26.26-.21,26.91-4.4-1.81-6.32.9-1.24,7.19-1.24,7.19h19s9.08-48.24,8.57-52.08S1182.91,649.55,1187.89,642.37Z"/>
      <path class="cls-5" d="M1113.36,467.51s10.05,21.08,4.5,27.4l-15.62-12.54S1102.16,476.16,1113.36,467.51Z"/>
      <path class="cls-2" d="M1221.07,581.05c-4.1-7.44-10.25-19.87-2.13-24.95,6.91-4.32,4.26-13.34.26-15.5-8.42-4.54-17,1.2-21,6.82-7.63,10.68,2.51,27.37,2.51,27.37,9.57,20.62-10.14,31.36-19.65,35.19a111,111,0,0,0-16-18.87c-3.28-3.1-6.28-5.64-8.81-7.79-26.76-22.88-20.28-31.24-26.63-41.53-1.25-2-6.18-7.58-7.48-9.35s-1.77-8-1.92-13.53a9.25,9.25,0,0,0,3.34-5.43,5.51,5.51,0,0,1,0,2.36c3.12-2.53,2.42-8.36,2.42-8.36a7,7,0,0,1,1,2.65c1.57-9.07-4-16.47-4.06-16.53,1-8.52-6.08-23.34-6.08-23.34s.5,11,1.57,16.59a22.66,22.66,0,0,0-6.24-4.57c-5.58-2.77-13.2-5.38-21.28,2.54-1.83,1.8-7.26,3.25-9.82,2.92-1.42-.18-4.63,6.89-4.75,7.86-1.41,10.7,2,16,8.1,21.46.86,2.41,1.51,5.65,0,7.83,0,0,1.29-.53,1.45-.94-.11.57-.81,3.93-2.65,5.44a5.68,5.68,0,0,0,1.25-.29c-1.61,2-7.7,10.46-7.62,20.83-12.82.11-25-.68-26.2-4,0,0,2.77-5.41-1.78-8.13a10,10,0,0,0-5-1.16l-.22,14.78s5.57,4.13,8.24,7.87c.92,1.29,18.86,9.39,32.27,15.32,7.82,33.86,32.91,53.44,41.21,59.11,1.2,10.35,7.34,23.81,25,39.49,0,0,4.09,3.88,3.15,8.61s-7.56,25.19-9.45,25.19-8.19-2.73-10.92-.84,1.05,9.24,1.05,9.24h19.22s23.72-39.05,24.56-42.83-10.28-18.48-3.15-23.52c3.07-2.16,7.31-14,6.43-24.89C1190.57,620.94,1233.91,604.33,1221.07,581.05Z"/>
      <path class="cls-2" d="M1105.66,485.13l15.63,12.54a7.35,7.35,0,0,0,1.57-4.07c1-8.51-6.08-23.34-6.08-23.34C1105.58,478.91,1105.66,485.13,1105.66,485.13Z"/>
      <path class="cls-6" d="M1080.55,487.8a1.88,1.88,0,0,1,1.8-.13s-.24,3.55-3.72,3.77C1078.63,491.44,1079.63,488.36,1080.55,487.8Z"/>
      <path class="cls-6" d="M1086.94,495.78c.13.05,13.16,4.91,22.5,15.63h0a64.75,64.75,0,0,0-22.36-16.05Z"/>
      <path class="cls-6" d="M1085.73,496.7c.14.09,13.79,9.38,21.53,24.4h0c-7.87-15.28-21.11-24.76-21.25-24.85Z"/>
      <path class="cls-6" d="M1084.32,497.81c.1.1,9.71,10.16,13.43,23.88h0a65,65,0,0,0-13.12-24.2Z"/>
    </g>
  </g>
</svg>
