<svg xmlns="http://www.w3.org/2000/svg" width="1000" height="608.67" viewBox="0 0 1000 608.67">
  <defs>
    <style>
      .cls-1 {
        fill: #447683;
      }

      .cls-2 {
        fill: #ddc8ac;
      }

      .cls-3 {
        fill: #e0e0e1;
      }

      .cls-4 {
        fill: #1a3151;
      }

      .cls-5 {
        fill: #b77858;
      }

      .cls-6 {
        fill: #ebb044;
      }

      .cls-7 {
        fill: #b5d6ca;
      }

      .cls-8 {
        fill: #eac5b0;
      }

      .cls-9 {
        fill: #3ababa;
      }

      .cls-10 {
        fill: #3cafac;
      }

      .cls-11 {
        fill: #fff;
      }
    </style>
  </defs>
  <g id="object">
    <g>
      <path class="cls-1" d="M463.23,507.15c-26.13.05-52.25.45-78.33,2.28-9.83.69-19.46,2.2-29.31,2.81-19.69,1.23-39,3.5-58.77,4.56-15.91.84-31.88,1.34-47.75,2.41a265.64,265.64,0,0,1-46.09-.88c-10.92-1.24-21.9-1.93-32.64-3.91a206.38,206.38,0,0,0-37.58-3.73c-17.86.08-35.24.09-52.33,4-6,1.37-13.33,3.63-17.89,6.51-10.42,6.59-11.83,23-1.43,29.86,17.54,11.5,55,16,79.53,16.23,26.93.23,53.09-1,80.06-1.77,25.06-.69,50.06-1.67,75.16-1.64,51.27.07,102.54,0,153.72-2.15,48.08-2,96.28-1.34,144.46-1.34,49.42,0,98.49.25,147.55,4.39,21.37,1.8,43.15,2.43,64.63,3.7,19.24,1.13,37.73,0,56.89-1.07a201.27,201.27,0,0,0,46.69-7.89c11.57-3.48,32.2-14.31,35.75-22.63,10-23.32-140.2-22.76-163.25-22.71-25.79.06-51.78.6-77.55,0a284.49,284.49,0,0,1-32.1-3.06c-10.54-1.46-21.15-1.09-31.84-1.7-44.56-2.56-89.22-2.18-133.93-2.18C492.34,507.21,477.78,507.13,463.23,507.15Z"/>
      <g>
        <g>
          <polygon class="cls-2" points="739.46 137.88 731.65 133.31 729.63 125.33 727.79 124.92 727.22 127.27 723.72 121.15 718.51 119.22 712.48 123.62 710.24 131.22 715.06 137.02 723.32 139.99 733.75 146.73 739.46 137.88"/>
          <polygon class="cls-3" points="740.2 132.69 728.49 147.18 771.84 191.16 783.52 195.1 833.3 153.59 819.99 125.17 782.87 158.16 740.2 132.69"/>
        </g>
        <g>
          <g>
            <polygon class="cls-4" points="910.11 518.37 911.85 526.71 898.07 538.59 888.58 532.02 894.6 521.91 908.37 510.04 910.11 518.37"/>
            <polygon class="cls-4" points="861.93 261.98 877.3 299.05 878.75 403.33 910.36 515.5 895.66 522.32 831.17 392.07 823.83 350.82 820.91 263.94 861.93 261.98"/>
          </g>
          <g>
            <polygon class="cls-4" points="787.51 270.29 786.3 379.58 806 520.49 821.14 520.49 830.71 390.47 851.43 260.45 787.51 270.29"/>
            <polygon class="cls-4" points="821.05 518.61 821.05 527.17 804.68 535.73 796.49 527.17 804.68 518.61 821.05 518.61"/>
          </g>
        </g>
        <path class="cls-3" d="M817.33,122.3l40.23-1.55s24.07,22.08,36.5,79.45c12.67,58.43-2.34,142.53-2.34,142.53s-107.92-15-125.61-17.36L793.1,210Z"/>
        <g>
          <path class="cls-5" d="M831.75,126.6l14.09-1.44a77.3,77.3,0,0,0-.75-11.77c3.92-1.43,8.45-3.58,9.14-7.86a13,13,0,0,0-.23-4.08q-1.37-8.36-2.74-16.7a15.37,15.37,0,0,0-1.65-5.57c-1.75-2.89-5.16-4.16-8.39-4.76-8.25-1.5-17.23.35-23.63,6a13.2,13.2,0,0,0-4,5.5c-1.16,3.38-.3,7.11.57,10.58l2.4,9.62c.92,3.69,2.25,7.88,5.65,9.27,1.8.74,3.93.53,5.56,1.62C830.65,118.92,830.26,123.39,831.75,126.6Z"/>
          <path class="cls-4" d="M785.86,70.94A48.91,48.91,0,0,1,787,59.78c1.25-6,8-8.67,13.84-9.1,12.62-.91,24.8-6.89,37.12-2.28,7,2.64,16.51,3.28,22.88,7a19.27,19.27,0,0,1,6.44,6.65,30.82,30.82,0,0,1,0,31.36,42.56,42.56,0,0,1-4.42,5.81c-3.33,3.77-7.32,8.42-11.89,9.81-.11-4.28,3.64-17.77.5-21.28-5-5.57-16.26-3.64-22.44-2.28C822.33,87,816.31,91.94,809.62,93c-4.82.76-11-1.72-15-4.32C788.16,84.59,786,77.84,785.86,70.94Z"/>
        </g>
        <path class="cls-6" d="M828.43,127.51,786.14,304.39l-3.47,23.2,52.69,7.25s-2.08-84.7-1.38-96,8.5-35.72,9.7-62c.69-15.22,5.32-42.57,2.08-51.47Z"/>
      </g>
      <path class="cls-7" d="M760.91,239.26c1.61-42.91-6.36-78.39-25.14-107.4-38.51-59.53-92.44-86.64-155.12-91.68-32.15-2.58-63.35,6.24-93,21.44-6.48,3.33-12.86,7-19.18,10.71C424.08,98.6,399.4,138.93,401.5,198c1.17,33.17-12.95,57.31-33.81,77.6-4.56,4.43-9.1,8.82-12.46,14.56-5.74,9.81-4.56,17.1,4,23.27,5.48,4,11.27,7.35,16.08,12.48,7.33,7.83,7.8,12.45,2.21,22.13-6.31,10.9-6.27,11.35,3.41,19.09,2.6,2.08,5.35,3.64,1.7,7.58-5.37,5.78-3.45,11.43,1.18,15.65,6.49,5.92,7.47,13.51,6.25,22-1.07,7.41-2.64,14.72-4,22.08-3.58,19.86,1.4,29.07,18.56,34.29,17.91,5.45,35.73.73,53.59-1.07,12-1.21,23.75-5.56,36-2.4,7.95,2.06,12.34,7.15,13.36,16.46,1.49,13.57,5.35,26.55,7.56,39.91,1.8,10.9,6.34,14.3,15.72,13.86,38.29-1.8,149.68-.29,167.05-1.27,11.21-.64,11.18-1,7.61-13-6.4-21.58-13.71-42.79-19.06-64.81-7-28.74-3.43-60.3,11.6-84.94,7-11.54,15.48-21.64,23.65-32C745.78,308.92,758.86,273.06,760.91,239.26Z"/>
      <g>
        <path class="cls-8" d="M271.08,105.78l5.35-3.76,6.11,2.84,3.06,6-2.16,4.53L278,117.88l1.9.77-.53,1.62-8.49,2.92c-1.72-2.34-8.1-4.72-9-6l5.91-4.23Z"/>
        <g>
          <polygon class="cls-4" points="158.08 324.33 98.8 301.54 111.02 410.12 103.94 503.81 103.75 504.43 103.89 504.45 103.38 511.15 114.96 510.08 114.96 510.08 114.96 510.08 142.11 422.39 155.93 333.48 155.93 333.48 158.08 324.33"/>
          <polygon class="cls-4" points="114.96 510.08 102.83 509.76 99.73 520.46 100.04 520.56 99.96 520.57 120.01 532.99 129.55 534.1 130.76 522.71 128.18 520.73 114.96 510.08"/>
        </g>
        <g>
          <polygon class="cls-4" points="198.45 326.19 180.05 518.5 169.68 519.03 157.14 412.28 136.71 312.3 198.45 326.19"/>
          <polygon class="cls-4" points="180.63 516.43 196.18 525.65 194.72 533.32 166.95 528.94 168.58 517.89 180.63 516.43"/>
        </g>
        <path class="cls-3" d="M226.25,372.89c3.75-2.73,3.83-7.47,3.82-12.22,0-8.92-1.55-18-3.5-26.7-3.72-16.26-7.94-35.84-9.8-56.91-4.79-54.45-21.24-91-21.24-91l-5.3-14.8c-1.06-1.92-2.15-3.83-3.29-5.7-6.63-10.87-18.14-29.35-30.44-32.38l-.78-.18c-12.94-3-29.52-1.59-41.21,5a40.51,40.51,0,0,0-6.15,4.57C102.64,147.39,98,150,95.52,157.35c-2.14,6.38-2.64,13.34-3.82,20-2.4,13.43-3.83,27-5.74,40.54-3.59,25.34-6.64,50.76-10.48,76.06-2,13-4,26.07-4.9,39.23-.83,11.63-10.86,23.44-16.5,33.87-2,3.63,26.22,13,28.75,13.64,11.69,2.85,24.13,2.12,36.18,2.18q39.61.19,79.19-2.55c8.76-.61,19.55-2.36,27.32-6.92C225.78,373.21,226,373.05,226.25,372.89Z"/>
        <path class="cls-9" d="M141.21,131.53s-14.88-4.2-16.93,30.9-5.48,124-10.28,148.31-12,72.13-12,72.13l45.56,1.66,52.07-4.3s-17.81-34.39-20.55-58.75,2-116.06-9.59-150.45S155.41,132.15,141.21,131.53Z"/>
        <polygon class="cls-3" points="172.34 172.56 205.54 191.44 225.56 184.27 276.76 125.4 263.16 112.54 208.81 156.97 166.03 137.45 172.34 172.56"/>
        <g>
          <g>
            <path class="cls-4" d="M162,103.72c2.26,7.06-1,14.6-3.86,21-2.54,5.71-3.42,9.47,3,11,3.63.86,10.06,2.48,13.25-.42,2.4-2.2,1-9-.12-11.7-.9-2.06-3.27-3.1-4.11-5.19a7.47,7.47,0,0,1-.41-2.75,39.73,39.73,0,0,1,1.49-11.28,39.2,39.2,0,0,0,1.87-7.5c.31-3.74-2.22-8.09-3.55-11.53-2.47-6.39-11.07-15-18.28-10a11.09,11.09,0,0,0-3.39,5,9.56,9.56,0,0,0-1,3.53c0,4.91,4.23,5.74,7.19,8.07A24.51,24.51,0,0,1,162,103.72Z"/>
            <path class="cls-8" d="M148.26,131.3c6.25-1.54,11.14-7,13.48-13.28s2.48-13.17,1.83-19.85C161.41,75.94,135,77.37,126,94.4,118.21,109.25,130.09,135.77,148.26,131.3Z"/>
          </g>
          <path class="cls-8" d="M148.26,128.9c-.11,2.53-.21,5.07-.32,7.6a1.55,1.55,0,0,1-.29,1,1.42,1.42,0,0,1-1.14.29l-5.92-.21a6.19,6.19,0,0,1-2.86-.57c-1.89-1.05-2.28-3.73-2-6s1.06-4.45.61-6.64c4.07,2.1,7.94-2.64,12-.54Z"/>
        </g>
        <path class="cls-4" d="M139.73,59.64c-6.94,2.46-11.39,9.81-18.17,12.74-3.88,1.68-8.48,1.89-11.65,4.78-7.1,6.48-1.4,20.06-7.23,27.8-1.21,1.61-2.85,2.82-4.07,4.43-2.63,3.46-3,8.18-3.21,12.59a14.44,14.44,0,0,0,.11,3.08c.91,10.19,15.06,9.54,20.67,8.89,6.17-.72,4.11-4.3,4.11-4.3l-.22-.29a12.64,12.64,0,0,1,4.14-11.18c1.16-1,2.52-1.76,3.34-3.06,1.82-2.92.08-6.78.35-10.25,1.08-14,23.53-11,29.87-21C165.54,71.7,152.84,55,139.73,59.64Z"/>
      </g>
      <path class="cls-10" d="M598.48,331.67c.95-26.18,4.45-49.68-19-66-16.37-11.39-39.36-8.31-58-11.63-39-6.94-95.62,2.36-93.23-59.54,1-25.57,13.11-33.15,26.43-52,12.71-17.94,16.38-33.23,37.85-42.58,9.27-4,18.16-5,27.41-9.33,13.38-6.18,16-12.57,33.17-11.3,9,.66,15.55,3.84,24.37,2.9C589,81,594,73,607.3,75c9,1.35,14.7,8.3,22.62,10.91,8.33,2.75,17.32,2,25.36,4.63,22,7.24,24.9,17.37,39.74,33.92,17.52,19.56,24.86,25.16,29.05,53.8,3.62,24.68,12.39,49.17,3.11,73-7.09,18.24-17,42.57-29.54,57.16-13.21,15.31-31.59,20.76-41.16,40.1-9.35,18.88-6.27,35-30.85,23.2C610.92,364.71,597.89,347.92,598.48,331.67Z"/>
      <g>
        <path class="cls-6" d="M343.05,50.46c-19.34-2-43.89,8.37-50,25.56-5.54-17.4-35.08-28.58-54.48-27.28C187.39,52.18,169.1,111.48,190.12,152c11.31,21.78,27.76,40.95,45.77,58.22C251,224.64,290,255.44,290.1,255.34c.12.1,40.12-29.27,55.67-43.18,18.57-16.61,35.64-35.17,47.66-56.54C415.77,115.92,394.1,55.73,343.05,50.46Z"/>
        <polygon class="cls-11" points="334.44 135.63 302.72 135.63 302.72 102.46 281.03 102.46 281.03 135.63 249.31 135.63 249.31 158.32 281.03 158.32 281.03 191.48 302.72 191.48 302.72 158.32 334.44 158.32 334.44 135.63"/>
      </g>
      <g>
        <polygon class="cls-3" points="863.9 154.42 812.43 205.24 736.08 181.44 730.61 199.4 814.53 239.55 836.62 239.55 883.28 198.04 863.9 154.42"/>
        <polygon class="cls-5" points="731.11 197.78 717.82 198.04 709.7 186.06 730.33 174.07 736.08 181.44 731.11 197.78"/>
      </g>
      <g>
        <polygon class="cls-8" points="234.06 207.93 234.67 216.01 248.81 219.6 255.98 212.49 254.99 203.12 247.38 203.55 246.92 201.52 244.27 200.14 234.06 207.93"/>
        <path class="cls-3" d="M114.25,160.89l61.34,43.38,59.64-5.71s.43,27,.22,24.8-65.21,14.32-65.21,14.32l-63.09-36.43Z"/>
      </g>
    </g>
  </g>
</svg>
