<svg xmlns="http://www.w3.org/2000/svg" width="16.67in" height="16.67in" viewBox="0 0 1200 1200">
  <defs>
    <style>
      .cls-1 {
        fill: #515a6a;
      }

      .cls-2 {
        fill: #bbddde;
      }

      .cls-3 {
        fill: #fff;
      }

      .cls-4 {
        fill: #e8ebef;
      }
    </style>
  </defs>
  <g id="Design">
    <g>
      <path class="cls-1" d="M600,1063.54c-5.47,0-11-.09-16.46-.28a4,4,0,0,1,.28-8.09c10.58.37,21.29.37,31.82,0a4,4,0,1,1,.27,8.09Q608,1063.54,600,1063.54Zm47.78-2.45a4,4,0,0,1-.41-8.07c10.52-1.09,21.12-2.55,31.51-4.37a4.05,4.05,0,0,1,1.39,8c-10.57,1.84-21.36,3.34-32.07,4.44Zm-96.11,0-.42,0c-10.7-1.11-21.49-2.62-32.06-4.48a4,4,0,1,1,1.4-8c10.39,1.83,21,3.31,31.5,4.4a4.05,4.05,0,0,1-.42,8.08Zm159.3-11a4.05,4.05,0,0,1-1-8c10.25-2.54,20.54-5.47,30.59-8.73a4,4,0,0,1,2.49,7.7c-10.23,3.31-20.7,6.3-31.13,8.89A4.17,4.17,0,0,1,711,1050.07Zm-222.47-.13a4.17,4.17,0,0,1-1-.12c-10.43-2.6-20.9-5.6-31.12-8.93a4,4,0,1,1,2.5-7.69c10,3.26,20.33,6.21,30.58,8.76a4.05,4.05,0,0,1-1,8ZM772,1030.29a4,4,0,0,1-1.52-7.8c9.8-4,19.59-8.31,29.1-13a4,4,0,1,1,3.54,7.27c-9.67,4.72-19.63,9.16-29.61,13.18A4,4,0,0,1,772,1030.29Zm-344.54-.19a3.89,3.89,0,0,1-1.52-.3c-10-4-19.88-8.46-29.53-13.18a4,4,0,1,1,3.55-7.27c9.48,4.64,19.24,9,29,12.95a4,4,0,0,1-1.52,7.8Zm402.25-28a4,4,0,0,1-2-7.55c9.15-5.29,18.23-11,27-16.88a4,4,0,1,1,4.53,6.71c-8.92,6-18.16,11.8-27.47,17.17A4,4,0,0,1,829.75,1002.14ZM369.92,1002a4,4,0,0,1-2-.55c-9.29-5.37-18.52-11.15-27.42-17.17a4,4,0,0,1,4.53-6.71c8.75,5.92,17.82,11.6,26.94,16.88a4,4,0,0,1-2,7.55Zm513-35.72a4,4,0,0,1-2.49-7.23c8.32-6.51,16.52-13.39,24.37-20.46a4.05,4.05,0,0,1,5.42,6c-8,7.19-16.34,14.19-24.81,20.81A4,4,0,0,1,883,966.23ZM316.81,966a4,4,0,0,1-2.5-.86c-8.46-6.62-16.8-13.63-24.78-20.82a4,4,0,1,1,5.42-6c7.84,7.06,16,13.95,24.35,20.46a4,4,0,0,1-2.49,7.23Zm613.83-42.73a4.05,4.05,0,0,1-2.91-6.86c7.35-7.59,14.52-15.54,21.31-23.62a4,4,0,1,1,6.19,5.21c-6.91,8.22-14.2,16.31-21.68,24A4,4,0,0,1,930.64,923.31Zm-661.48-.21a4,4,0,0,1-2.92-1.24c-7.46-7.72-14.75-15.82-21.67-24.05a4,4,0,0,1,6.2-5.21c6.79,8.09,14,16,21.3,23.64a4.05,4.05,0,0,1-2.91,6.86Zm702.76-48.87a4.05,4.05,0,0,1-3.27-6.43c6.22-8.54,12.22-17.4,17.83-26.34a4,4,0,1,1,6.85,4.3c-5.71,9.1-11.81,18.12-18.14,26.8A4,4,0,0,1,971.92,874.23Zm-744-.27a4,4,0,0,1-3.27-1.66c-6.34-8.71-12.44-17.74-18.14-26.84a4,4,0,0,1,6.86-4.3c5.6,9,11.6,17.82,17.82,26.38a4,4,0,0,1-3.27,6.42ZM1006,819.91a4,4,0,0,1-1.9-.48,4,4,0,0,1-1.66-5.47c5-9.31,9.67-18.91,14-28.54a4,4,0,1,1,7.39,3.3c-4.38,9.8-9.17,19.57-14.23,29A4,4,0,0,1,1006,819.91Zm-812.15-.35a4,4,0,0,1-3.57-2.15c-5.06-9.5-9.85-19.29-14.23-29.12a4,4,0,0,1,7.39-3.29c4.3,9.65,9,19.27,14,28.61a4,4,0,0,1-1.67,5.47A4.09,4.09,0,0,1,193.83,819.56Zm838.3-58.15a4.24,4.24,0,0,1-1.39-.24,4,4,0,0,1-2.41-5.19c3.62-9.92,6.94-20.1,9.85-30.24A4,4,0,0,1,1046,728c-3,10.33-6.34,20.68-10,30.78A4,4,0,0,1,1032.13,761.41Zm-864.44-.51a4.05,4.05,0,0,1-3.81-2.66c-3.67-10.09-7-20.46-10-30.8a4,4,0,0,1,7.78-2.22c2.9,10.16,6.21,20.34,9.82,30.25a4.05,4.05,0,0,1-2.42,5.19A4,4,0,0,1,167.69,760.9Zm882.16-61.13a4.17,4.17,0,0,1-.85-.09,4,4,0,0,1-3.11-4.8c2.19-10.32,4-20.86,5.52-31.33a4,4,0,0,1,8,1.13c-1.49,10.66-3.38,21.38-5.62,31.88A4,4,0,0,1,1049.85,699.77ZM150,699.23a4.05,4.05,0,0,1-4-3.21c-2.22-10.5-4.09-21.23-5.58-31.88a4,4,0,0,1,8-1.12c1.46,10.47,3.3,21,5.48,31.33a4.05,4.05,0,0,1-3.12,4.8A4,4,0,0,1,150,699.23Zm908.73-63h-.29a4.06,4.06,0,0,1-3.75-4.32c.74-10.51,1.12-21.2,1.13-31.8a4,4,0,0,1,4.05-4h0a4,4,0,0,1,4,4c0,10.78-.4,21.67-1.15,32.36A4,4,0,0,1,1058.77,636.25Zm-917.58-.54a4,4,0,0,1-4-3.77c-.74-10.69-1.11-21.57-1.11-32.35v-1.08a4,4,0,0,1,8.09,0v1.05c0,10.59.37,21.29,1.09,31.79a4,4,0,0,1-3.76,4.32Zm917.65-63.6a4.06,4.06,0,0,1-4-3.78c-.71-10.55-1.8-21.2-3.24-31.64a4,4,0,1,1,8-1.1c1.47,10.62,2.58,21.46,3.31,32.2a4.06,4.06,0,0,1-3.76,4.31ZM141.27,570.5H141a4.06,4.06,0,0,1-3.75-4.33c.77-10.73,1.92-21.56,3.42-32.18a4,4,0,0,1,8,1.13c-1.48,10.44-2.61,21.08-3.36,31.63A4.06,4.06,0,0,1,141.27,570.5Zm908.79-61.93a4,4,0,0,1-4-3.21c-2.17-10.33-4.74-20.72-7.63-30.88a4,4,0,0,1,7.78-2.22c2.94,10.34,5.56,20.92,7.77,31.43a4,4,0,0,1-3.13,4.79A4,4,0,0,1,1050.06,508.57ZM150.27,507a4.17,4.17,0,0,1-.85-.09,4.05,4.05,0,0,1-3.11-4.81c2.25-10.51,4.9-21.07,7.88-31.4a4,4,0,1,1,7.77,2.24c-2.92,10.15-5.53,20.53-7.74,30.85A4,4,0,0,1,150.27,507Zm882.23-60.12a4,4,0,0,1-3.81-2.67c-3.6-9.93-7.6-19.87-11.9-29.54a4,4,0,0,1,7.4-3.28c4.37,9.84,8.45,19.95,12.11,30.06a4,4,0,0,1-2.42,5.19A4.18,4.18,0,0,1,1032.5,446.88Zm-864.45-1.51a4,4,0,0,1-1.39-.25,4.05,4.05,0,0,1-2.41-5.19c3.7-10.08,7.8-20.15,12.19-29.95a4,4,0,1,1,7.38,3.31c-4.31,9.62-8.34,19.52-12,29.42A4.05,4.05,0,0,1,168.05,445.37Zm838.38-57.17a4.05,4.05,0,0,1-3.58-2.15c-5-9.33-10.31-18.61-15.91-27.58a4,4,0,0,1,6.87-4.28c5.7,9.13,11.15,18.57,16.19,28.06a4.06,4.06,0,0,1-3.57,5.95Zm-812.17-1.3a4,4,0,0,1-1.9-.48,4.05,4.05,0,0,1-1.66-5.48c5.06-9.45,10.53-18.87,16.26-28a4,4,0,0,1,6.85,4.31c-5.63,8.94-11,18.19-16,27.48A4,4,0,0,1,194.26,386.9Zm778.17-53.15a4,4,0,0,1-3.28-1.67c-6.2-8.55-12.79-17-19.58-25.09a4,4,0,0,1,6.21-5.2c6.9,8.24,13.6,16.83,19.92,25.54a4,4,0,0,1-3.27,6.42Zm-744-1.13a4,4,0,0,1-3.27-6.43c6.34-8.67,13.07-17.24,20-25.45A4,4,0,1,1,251.3,306c-6.81,8.08-13.42,16.49-19.64,25A4,4,0,0,1,228.39,332.62Zm702.83-48.05a4.08,4.08,0,0,1-2.92-1.24c-7.32-7.61-15-15.05-22.85-22.13a4,4,0,0,1,5.42-6c8,7.21,15.81,14.79,23.26,22.52a4.05,4.05,0,0,1-2.91,6.86Zm-661.49-1a4,4,0,0,1-2.9-6.86c7.48-7.71,15.32-15.27,23.32-22.45a4,4,0,1,1,5.41,6c-7.86,7.06-15.57,14.48-22.92,22.06A4,4,0,0,1,269.73,283.58Zm613.88-42a4,4,0,0,1-2.49-.86c-8.31-6.52-17-12.83-25.69-18.75a4,4,0,0,1,4.54-6.7c8.89,6,17.68,12.45,26.14,19.08a4,4,0,0,1-2.5,7.23Zm-566.13-.85a4,4,0,0,1-2.49-7.24c8.49-6.61,17.31-13,26.22-19a4,4,0,0,1,4.52,6.71c-8.76,5.9-17.43,12.18-25.77,18.69A4,4,0,0,1,317.48,240.72ZM830.53,205.6a4.05,4.05,0,0,1-2-.55c-9.12-5.29-18.55-10.34-28-15A4,4,0,1,1,804,182.8c9.64,4.73,19.24,9.86,28.53,15.25a4.05,4.05,0,0,1-2,7.55Zm-459.81-.72a4,4,0,0,1-2-7.55c9.32-5.38,18.95-10.49,28.62-15.19a4,4,0,0,1,3.54,7.28c-9.5,4.62-19,9.64-28.12,14.92A4.11,4.11,0,0,1,370.72,204.88ZM773,177.38a3.93,3.93,0,0,1-1.53-.3c-9.78-4-19.83-7.65-29.87-10.92a4,4,0,0,1,2.51-7.7c10.22,3.34,20.45,7.08,30.41,11.13a4,4,0,0,1-1.52,7.79Zm-344.54-.59A4,4,0,0,1,427,169c10-4,20.24-7.72,30.48-11a4,4,0,1,1,2.49,7.7c-10.07,3.25-20.14,6.9-29.95,10.84A4,4,0,0,1,428.46,176.79ZM712,157.47a3.7,3.7,0,0,1-1-.12c-10.24-2.56-20.7-4.79-31.11-6.63a4,4,0,1,1,1.41-8c10.59,1.87,21.24,4.14,31.66,6.75a4,4,0,0,1-1,8Zm-222.48-.38a4,4,0,0,1-1-8c10.42-2.57,21.08-4.8,31.68-6.64a4,4,0,1,1,1.38,8c-10.41,1.81-20.88,4-31.13,6.53A4,4,0,0,1,489.54,157.09ZM648.87,146.3l-.43,0c-10.49-1.11-21.16-1.86-31.73-2.24A4,4,0,0,1,617,136c10.76.39,21.62,1.15,32.29,2.28a4,4,0,0,1-.42,8.07Zm-96.13-.17a4,4,0,0,1-.41-8.07c10.67-1.09,21.54-1.82,32.3-2.17a4,4,0,0,1,.26,8.09c-10.57.35-21.25,1.06-31.74,2.13A2.88,2.88,0,0,1,552.74,146.13Z"/>
      <g>
        <circle class="cls-2" cx="600" cy="140.47" r="90.82"/>
        <path class="cls-3" d="M615.9,191.74V156.36h35.37a5.65,5.65,0,0,0,5.65-5.64v-20.5a5.65,5.65,0,0,0-5.65-5.65H615.9V89.19a5.64,5.64,0,0,0-5.65-5.64h-20.5a5.64,5.64,0,0,0-5.65,5.64v35.38H548.73a5.65,5.65,0,0,0-5.65,5.65v20.5a5.65,5.65,0,0,0,5.65,5.64H584.1v35.38a5.65,5.65,0,0,0,5.65,5.65h20.5A5.65,5.65,0,0,0,615.9,191.74Z"/>
      </g>
      <circle class="cls-2" cx="1059.52" cy="599.98" r="90.82"/>
      <circle class="cls-2" cx="140.48" cy="599.98" r="90.82"/>
      <path class="cls-3" d="M193.43,569.05a37.82,37.82,0,0,0-29.28-13.95h0a37.69,37.69,0,0,0-23.64,8.36A37.41,37.41,0,0,0,113,555.2c-13,1.37-24.47,9.51-30.59,21.78a44.4,44.4,0,0,0-.52,38.56c6.13,12.92,17.28,18.75,28.42,23.11l1.5.59c8.87,3.46,17.26,6.73,20.87,14.36a8.09,8.09,0,0,0,7.32,4.63c.15,0,.31-.05.46-.06s.31.06.46.06a8.11,8.11,0,0,0,7.31-4.62c3.6-7.56,11.78-10.78,20.45-14.19,1.16-.46,2.32-.91,3.45-1.37,9.66-3.93,23.13-11,28.61-26.7A44.72,44.72,0,0,0,193.43,569.05Z"/>
      <g>
        <path class="cls-3" d="M1059.52,572.38a27.6,27.6,0,1,0,27.6,27.6A27.64,27.64,0,0,0,1059.52,572.38Zm0,48.94A21.34,21.34,0,1,1,1080.86,600,21.37,21.37,0,0,1,1059.52,621.32Z"/>
        <path class="cls-3" d="M1117.44,609.11V590.86H1105a46,46,0,0,0-6.88-16.57l8.81-8.81L1094,552.57l-8.81,8.81a46,46,0,0,0-16.57-6.88V542.06h-18.25V554.5a46,46,0,0,0-16.57,6.88l-8.81-8.81-12.91,12.91,8.82,8.81a46,46,0,0,0-6.89,16.57h-12.44v18.25H1014a46,46,0,0,0,6.89,16.57l-8.82,8.81,12.91,12.9,8.81-8.81a46.22,46.22,0,0,0,16.57,6.89v12.44h18.25V645.47a46.15,46.15,0,0,0,16.57-6.89l8.81,8.81,12.91-12.9-8.81-8.81a46,46,0,0,0,6.88-16.57Zm-24-9.13a33.88,33.88,0,1,1-33.87-33.87A33.91,33.91,0,0,1,1093.39,600Z"/>
      </g>
      <path class="cls-4" d="M362.22,618.38c-.46,24.63,10.81,47.38,30.16,60.86,4.84,3.37,19.29,12.42,34.78,12.42a36.45,36.45,0,0,0,6.56-.59c-1.81,13.17,1.64,27.69,9.71,40.89,13.42,22,31.91,37.47,50.73,42.55a100.85,100.85,0,0,0,26.26,3.59c15.34,0,29.4-3.87,40-11.35,9.41-6.63,17.61-23.21,17-34.31,0,0,0,0,0,0V697.28a4.08,4.08,0,0,0,0-1.84V529.58h0v-145a2.13,2.13,0,0,0,0-.25c0-13.29-8.08-26.45-20.94-33.87-13.9-8-29.58-7.92-40.28-6.44-17.65,2.46-33,10.11-43.21,21.56-10.64,11.92-15.2,28.06-12.31,42.36-21.24-3.44-43.76,3.42-60.56,18.88-18.07,16.64-25.9,40.22-20.94,63.06,2.79,12.84,10.28,23.6,20.39,29.61A45.76,45.76,0,0,0,392.48,538a48,48,0,0,0,1.34,21.39C374.49,572.16,362.69,594.13,362.22,618.38Z"/>
      <path class="cls-2" d="M805.63,595.33A48,48,0,0,0,807,574a45.76,45.76,0,0,0-7.12-18.52c10.11-6,17.6-16.77,20.39-29.61,5-22.84-2.87-46.42-20.94-63.06-16.8-15.46-39.33-22.32-60.57-18.88,2.89-14.31-1.66-30.44-12.3-42.36-10.22-11.45-25.56-19.11-43.21-21.56-10.71-1.48-26.38-1.57-40.28,6.44C630.08,393.82,622,407,622,420.27a2,2,0,0,0,0,.24v145h0V731.38a4.08,4.08,0,0,0,0,1.84v35.16c-.58,11.1,7.62,27.68,17,34.31,10.62,7.48,24.68,11.35,40,11.35a100.85,100.85,0,0,0,26.26-3.59c18.82-5.09,37.31-20.6,50.73-42.55,8.07-13.2,11.52-27.72,9.71-40.89a37.39,37.39,0,0,0,6.56.59c15.49,0,29.94-9.05,34.78-12.42,19.35-13.48,30.62-36.23,30.15-60.87C836.76,630.06,825,608.1,805.63,595.33Z"/>
      <g>
        <path class="cls-1" d="M594.81,716.64a4.58,4.58,0,0,0,0-1.95V548.88h0v-145c0-.08,0-.16,0-.24,0-13.44-8.16-26.73-21.14-34.22-14-8.07-29.77-8-40.54-6.49-17.74,2.47-33.17,10.17-43.46,21.69-10.57,11.85-15.19,27.86-12.51,42.14-21.19-3.24-43.59,3.67-60.33,19.08-18.18,16.73-26.05,40.45-21.06,63.43,2.78,12.81,10.2,23.57,20.22,29.67A46.25,46.25,0,0,0,409,557.25a48.47,48.47,0,0,0,1.26,21.29c-19.29,12.87-31.06,34.86-31.52,59.14-.47,24.76,10.87,47.64,30.33,61.2,4.86,3.39,19.4,12.49,35,12.49a37.1,37.1,0,0,0,6.11-.49c-1.65,13.12,1.81,27.5,9.81,40.6,13.47,22,32.05,37.61,51,42.73a101.61,101.61,0,0,0,26.36,3.6c15.43,0,29.57-3.89,40.25-11.42,9.51-6.69,17.78-23.42,17.21-34.64V716.64Zm-22.34,62.47c-14.45,10.18-36.57,12.61-59.17,6.51-16.74-4.53-33.4-18.66-45.7-38.78-7.05-11.54-10.08-24.08-8.53-35.33,1.71-12.42,9.44-23.29,19.7-27.69l.11-.07a38.56,38.56,0,0,0,8.4,4.93A40.14,40.14,0,0,0,503,691.81a41.18,41.18,0,0,0,23-6.9,4.45,4.45,0,1,0-5-7.36A31.69,31.69,0,0,1,481.79,628a4.45,4.45,0,1,0-6-6.56,41.55,41.55,0,0,0-12.61,36.78,40.87,40.87,0,0,0,8.93,19c-8.92,4.92-16,13.64-19.61,23.94-12.29,4-27.77-2.22-38.33-9.57-17-11.86-26.93-31.94-26.51-53.73.39-20.77,10.13-39.59,26.18-51a36,36,0,0,0,20.11,16.89,31.31,31.31,0,0,0,9.58,1.5,29.42,29.42,0,0,0,18.78-6.57,4.45,4.45,0,1,0-5.67-6.85c-5.21,4.31-13.05,5.66-20,3.45A27.86,27.86,0,0,1,420.72,581a37.82,37.82,0,0,1-2.92-22.33c1.43-9,5.7-16.83,11.72-21.55,6.54-5.12,15.42-6.46,22.1-3.32a4.45,4.45,0,1,0,3.79-8c-9.64-4.53-22.26-2.78-31.38,4.37-.76.59-1.47,1.24-2.18,1.9-8.58-4.67-15-13.66-17.41-24.61-4.38-20.17,2.32-40.21,18.39-55C438.22,438.21,459,432.21,478.21,436a28.42,28.42,0,0,0-.1,28.09,4.45,4.45,0,0,0,7.67-4.51,18.8,18.8,0,0,1,26.39-25.33,4.45,4.45,0,0,0,4.82-7.48,28.41,28.41,0,0,0-30.65.47c-3.13-12.1.64-26.27,9.94-36.69,8.88-9.95,22.39-16.63,38.05-18.8,9.38-1.31,23-1.43,34.86,5.38,10.48,6.05,17.19,17.17,16.69,27.69a4.19,4.19,0,0,0,0,.5V465.7c-9.8,2-19.52,1.29-27.64-2.18-9.4-4-16.75-12.08-19.2-21-2.57-9.42.5-20,7.47-25.76a4.45,4.45,0,1,0-5.67-6.86c-9.72,8-13.9,22.08-10.38,35,3.19,11.67,12.26,21.71,24.28,26.86a52,52,0,0,0,20.54,4,61.87,61.87,0,0,0,10.6-1V548c-4.62,10.4-17.58,18.29-28.76,17.34S535.89,555.75,533,545a40.75,40.75,0,0,0,10-16.11,41.9,41.9,0,0,0-10.86-42.72,4.45,4.45,0,0,0-6.11,6.47,32.28,32.28,0,1,1-49.4,40.81,4.45,4.45,0,0,0-7.51,4.78,42,42,0,0,0,35,19A38.42,38.42,0,0,0,509,557a40.8,40.8,0,0,0,16.57-6c5,12.63,17.17,22.08,30.83,23.24.85.07,1.7.1,2.55.1,9.63,0,19.67-4.48,27-11.4V704.72c-10.87-8.13-26.06-10.73-38.7-5.67-16.3,6.53-26.93,25.24-24.2,42.6a4.45,4.45,0,0,0,4.39,3.75,5.62,5.62,0,0,0,.7,0,4.45,4.45,0,0,0,3.7-5.09c-2.11-13.42,6.11-27.9,18.72-33,12.15-4.87,27.37-.58,35.39,9.72v34.68s0,.1,0,.15a.75.75,0,0,0,0,.15C586.42,759.43,580.18,773.68,572.47,779.11Z"/>
        <path class="cls-1" d="M540.9,648.32A33.81,33.81,0,0,0,568,593.94a4.45,4.45,0,0,0-7.06,5.42,24.91,24.91,0,1,1-43.43,23,4.45,4.45,0,1,0-8.45,2.79,34.73,34.73,0,0,0,29,23.08C539,648.28,539.94,648.32,540.9,648.32Z"/>
        <path class="cls-1" d="M789.73,578.54A48.47,48.47,0,0,0,791,557.25a46.25,46.25,0,0,0-7-18.31c10-6.1,17.44-16.86,20.22-29.67,5-23-2.88-46.7-21.06-63.43-16.74-15.41-39.14-22.32-60.33-19.08,2.68-14.28-1.94-30.29-12.51-42.14-10.29-11.52-25.72-19.22-43.46-21.69-10.77-1.49-26.54-1.58-40.54,6.49-13,7.49-21.12,20.78-21.14,34.22a2,2,0,0,0,0,.24v145h0V714.69a4.58,4.58,0,0,0,0,1.95v35.11c-.57,11.22,7.7,28,17.21,34.64,10.69,7.53,24.82,11.42,40.25,11.42a101.67,101.67,0,0,0,26.36-3.6c18.92-5.12,37.5-20.69,51-42.73,8-13.1,11.46-27.49,9.81-40.6a37.1,37.1,0,0,0,6.11.49c15.61,0,30.15-9.1,35-12.49,19.46-13.56,30.8-36.44,30.33-61.2C820.79,613.4,809,591.41,789.73,578.54Zm-3.89,113c-10.56,7.35-26.05,13.6-38.33,9.57-3.62-10.31-10.69-19-19.61-23.94a40.87,40.87,0,0,0,8.93-19,41.55,41.55,0,0,0-12.61-36.78,4.45,4.45,0,1,0-6,6.56A31.69,31.69,0,0,1,679,677.55a4.45,4.45,0,0,0-5,7.36,41.18,41.18,0,0,0,23,6.9,40.14,40.14,0,0,0,15.69-3.13,38.79,38.79,0,0,0,8.4-4.93l.11.07c10.26,4.4,18,15.27,19.7,27.69,1.55,11.25-1.48,23.79-8.53,35.33-12.3,20.12-29,34.25-45.7,38.78-22.6,6.1-44.72,3.67-59.17-6.51-7.71-5.43-13.95-19.68-13.45-27.1a.75.75,0,0,0,0-.15c0-.05,0-.1,0-.15V717c8-10.31,23.24-14.59,35.39-9.72,12.61,5.05,20.83,19.53,18.72,33a4.46,4.46,0,0,0,3.7,5.09,5.62,5.62,0,0,0,.7,0,4.45,4.45,0,0,0,4.39-3.75c2.73-17.36-7.9-36.07-24.2-42.6-12.64-5.06-27.83-2.46-38.7,5.67V562.9c7.29,6.93,17.33,11.4,27,11.4.85,0,1.7,0,2.55-.1,13.66-1.16,25.87-10.61,30.83-23.24A40.8,40.8,0,0,0,691,557a38.42,38.42,0,0,0,4.91.31,42,42,0,0,0,35-19,4.45,4.45,0,0,0-7.51-4.78A32.28,32.28,0,1,1,674,492.66a4.45,4.45,0,1,0-6.11-6.47A41.9,41.9,0,0,0,657,528.91,40.75,40.75,0,0,0,667,545c-2.91,10.73-13.08,19.37-24.17,20.31s-24.14-6.94-28.76-17.34V474.78a60.88,60.88,0,0,0,10.6,1,52.22,52.22,0,0,0,20.54-4c12-5.15,21.09-15.19,24.28-26.86,3.52-12.88-.65-26.93-10.38-35a4.45,4.45,0,1,0-5.67,6.86c7,5.75,10,16.34,7.47,25.76-2.45,8.94-9.8,17-19.2,21-8.12,3.47-17.85,4.2-27.64,2.18V405.32a4.19,4.19,0,0,0,0-.5c-.5-10.52,6.21-21.64,16.69-27.69,11.81-6.81,25.48-6.69,34.86-5.38,15.66,2.17,29.17,8.85,38.05,18.8,9.3,10.42,13.07,24.59,9.94,36.69a28.41,28.41,0,0,0-30.65-.47,4.45,4.45,0,1,0,4.82,7.48,18.8,18.8,0,0,1,26.39,25.33,4.44,4.44,0,0,0,1.58,6.09,4.35,4.35,0,0,0,2.25.61,4.45,4.45,0,0,0,3.84-2.19,28.42,28.42,0,0,0-.1-28.09c19.24-3.79,40,2.21,55.38,16.38,16.07,14.8,22.77,34.84,18.39,55-2.38,11-8.83,19.94-17.41,24.61-.71-.66-1.42-1.31-2.18-1.9-9.13-7.15-21.74-8.9-31.38-4.37a4.45,4.45,0,1,0,3.79,8c6.67-3.14,15.56-1.8,22.1,3.32,6,4.72,10.29,12.57,11.72,21.55A37.82,37.82,0,0,1,779.28,581a27.86,27.86,0,0,1-15.93,14.33c-6.93,2.21-14.77.86-20-3.45a4.45,4.45,0,1,0-5.67,6.85,29.4,29.4,0,0,0,18.78,6.57,31.31,31.31,0,0,0,9.58-1.5,36,36,0,0,0,20.11-16.89c16,11.37,25.79,30.19,26.18,51C812.77,659.64,802.85,679.72,785.84,691.58Z"/>
        <path class="cls-1" d="M688.12,619.49a4.45,4.45,0,0,0-5.62,2.83,24.91,24.91,0,1,1-43.43-23,4.45,4.45,0,1,0-7.06-5.42,33.81,33.81,0,0,0,27.09,54.38c1,0,1.93,0,2.89-.13a34.73,34.73,0,0,0,29-23.08A4.45,4.45,0,0,0,688.12,619.49Z"/>
      </g>
      <g>
        <circle class="cls-2" cx="600" cy="1059.86" r="90.82" transform="translate(-573.7 734.69) rotate(-45)"/>
        <circle class="cls-3" cx="600" cy="1040.25" r="42.45" transform="translate(-175.98 123.75) rotate(-10.28)"/>
        <path class="cls-3" d="M619.17,1085.29H580.83a3.07,3.07,0,1,0,0,6.14h38.34a3.07,3.07,0,1,0,0-6.14Z"/>
        <path class="cls-3" d="M619.17,1093.4H580.83a3.07,3.07,0,0,0,0,6.14h38.34a3.07,3.07,0,1,0,0-6.14Z"/>
        <path class="cls-3" d="M583.56,1109.39a12.53,12.53,0,0,0,12.53,12.53h7.82a12.53,12.53,0,0,0,12.53-12.53v-6.71H583.56Z"/>
      </g>
    </g>
  </g>
</svg>
