<svg id="Ñëîé_1" data-name="Ñëîé 1" xmlns="http://www.w3.org/2000/svg" width="595" height="328.67" viewBox="0 0 595 328.67">
  <defs>
    <style>
      .cls-1, .cls-18, .cls-19, .cls-3, .cls-5, .cls-7, .cls-8 {
        fill: none;
      }

      .cls-1, .cls-17 {
        stroke: #8fb2ee;
      }

      .cls-1, .cls-15, .cls-17, .cls-18, .cls-19, .cls-3, .cls-5, .cls-7, .cls-8 {
        stroke-miterlimit: 22.93;
      }

      .cls-1, .cls-15, .cls-17, .cls-19, .cls-3, .cls-5, .cls-7, .cls-8 {
        stroke-width: 0.57px;
      }

      .cls-1, .cls-10, .cls-11, .cls-12, .cls-14, .cls-15, .cls-17, .cls-18, .cls-19, .cls-2, .cls-4, .cls-5, .cls-6, .cls-8, .cls-9 {
        fill-rule: evenodd;
      }

      .cls-2 {
        fill: #e6e8f6;
      }

      .cls-3, .cls-5 {
        stroke: #fff;
      }

      .cls-13, .cls-15, .cls-17, .cls-4 {
        fill: #fff;
      }

      .cls-6 {
        fill: #c3714e;
      }

      .cls-15, .cls-18, .cls-19, .cls-7, .cls-8 {
        stroke: #2f2e6b;
      }

      .cls-9 {
        fill: #8fb2ee;
      }

      .cls-10, .cls-16 {
        fill: #2f2e6b;
      }

      .cls-11 {
        fill: #f66f82;
      }

      .cls-12 {
        fill: #edba68;
      }

      .cls-14 {
        fill: #936;
      }

      .cls-18 {
        stroke-width: 0.43px;
      }

      .cls-19 {
        stroke-linecap: round;
      }
    </style>
  </defs>
  <g>
    <path class="cls-1" d="M476.18,123.13C518.78,169,501,212.2,455.37,233.52c-33.19,15.5-74.37,1-106.86,18.39s-93.76,31.9-139.11,7.82c-55.9-29.68-2.21-64.94-7.18-94.76S154.89,82.54,197,54c40.36-27.37,92.39,25,149.19,30.92S436.18,80,476.18,123.13Z"/>
    <path class="cls-2" d="M337,131.15c34.52,52,20.13,100.9-16.87,125.06-26.88,17.56-60.25,1.14-86.58,20.83s-76,36.14-112.71,8.86c-45.29-33.63-1.79-73.57-5.81-107.36s-38.35-93.38-4.26-125.7c32.7-31,74.86,28.37,120.88,35S304.63,82.32,337,131.15Z"/>
    <g>
      <rect class="cls-3" x="151.15" y="40.54" width="111.03" height="259.7"/>
      <rect class="cls-3" x="151.15" y="40.54" width="111.03" height="55.47"/>
      <rect class="cls-3" x="151.15" y="96.01" width="111.03" height="55.47"/>
      <rect class="cls-3" x="118.47" y="40.54" width="32.67" height="259.7"/>
      <path class="cls-4" d="M147.52,160.35l41-.27c3.3,0,5.57,2.84,6.58,6l10.83,34c1,3.16-2.13,5.94-5.44,6l-52.15,1.08c-3.31.07-5.54-2.86-6.58-6l-8.39-25.34C130.67,167.57,134.18,160.44,147.52,160.35Z"/>
      <path class="cls-5" d="M207.9,191.28c9.19-.43,34.53.39,41.82.77s15.35,7.29,21.87,22.26,16.12,54.87,8.06,61.4-51.82,2.87-62.55,0-15.34-19.19-18.8-32.62S181.32,192.54,207.9,191.28Z"/>
      <path class="cls-5" d="M145.18,154.29l58.09-.39c4.67,0,7.89,4,9.31,8.51l15.33,48.15c1.43,4.47-3,8.4-7.69,8.5L146.4,220.6c-4.67.09-7.84-4-9.31-8.51l-11.88-35.87C121.33,164.51,126.31,154.41,145.18,154.29Z"/>
      <path class="cls-5" d="M150.28,222.68l66-.42a7.06,7.06,0,0,1,7.05,7.06h0a7.1,7.1,0,0,1-7.05,7.06l-66,.41a7.05,7.05,0,0,1-7.05-7.06h0A7.08,7.08,0,0,1,150.28,222.68Z"/>
      <rect class="cls-3" x="229.67" y="123.59" width="44.98" height="9.78" transform="translate(80.36 353.36) rotate(-79.62)"/>
      <rect class="cls-3" x="219.72" y="123.59" width="44.98" height="9.78" transform="matrix(0.18, -0.98, 0.98, 0.18, 72.2, 343.57)"/>
      <rect class="cls-3" x="207.95" y="123.89" width="50.81" height="4.89" transform="translate(49.47 317.65) rotate(-74.57)"/>
      <path class="cls-5" d="M155.37,88.86h40a7.28,7.28,0,0,0,0,7.15h-40A6.24,6.24,0,0,1,155.37,88.86Z"/>
      <path class="cls-5" d="M155.52,88.86h45.21c-1.41-1.69-1.42-3.27,0-4.73H155.52C153.81,85.76,153.83,87.34,155.52,88.86Z"/>
      <path class="cls-5" d="M157.45,77h40a7.25,7.25,0,0,0,0,7.15h-40A6.21,6.21,0,0,1,157.45,77Z"/>
      <line class="cls-3" x1="276.9" y1="79.15" x2="276.9" y2="270.76"/>
    </g>
    <g>
      <g>
        <path class="cls-6" d="M231.3,169.15c.12-.61,1.38-4.62,1.48-5s1.71-1.55,2-1.72a7.92,7.92,0,0,0,1.92-1.68,3.9,3.9,0,0,1,1.52-1.25c.4.13.26,1.71-.34,2.34s-1.15,1-1.43,1.32a2.42,2.42,0,0,0-.34,1l.93.28s2.14-.61,2.43-.61a9.71,9.71,0,0,0,1.75-.75s.59-1.42.94-1.4c.18-.06.34-.12.52.16a1.94,1.94,0,0,1,1.31-1.63c.14.06.32.4.32.4.08-.16.63-.58.83-.53a.37.37,0,0,1,.25.26c.36-.58.74-.87,1.18-.75a7.14,7.14,0,0,1-.54,1.87c-.33.84-1.35,2.62-1.35,2.62l-.64,1.59s-2.16,1.65-2.45,1.78-.7,1.4-1.17,1.56a51.2,51.2,0,0,0-5.44,2.21,3.78,3.78,0,0,0-.73,1.24C234.16,172.68,231.29,169,231.3,169.15Z"/>
        <line class="cls-7" x1="245.63" y1="160.43" x2="244.02" y2="165.04"/>
        <polyline class="cls-8" points="244.32 160.72 243.29 164.01 241.83 166.57"/>
        <path class="cls-8" d="M236.2,167.5a3,3,0,0,1,1.63-.61c.36,0,1.63.06,1.63.06l1.09-1.27s.61-2.12.67-2.42a3.35,3.35,0,0,1,.91-1.63"/>
      </g>
      <path class="cls-9" d="M202.51,158.52c2.1,1.82,3.76,5.6,9.29,17.36s7.5,15.92,8.3,17.54c1,2-1.51,4.63-5.41,7.15-.87.55-4.17-5-5.63-7.09a120.94,120.94,0,0,1-9-15.87C198.38,174,193.94,160.4,202.51,158.52Z"/>
      <polygon class="cls-4" points="230.97 168.62 236.46 171.96 234.81 174.82 229.32 171.48 230.97 168.62"/>
      <path class="cls-9" d="M215.09,191c.48-3.2-.42-3.41,2.91-7.61,5-6.27,11-12.6,11.33-13a51.94,51.94,0,0,1,6.56,4.07c-2.23,6.33-16.09,23.72-21.2,26.07C213,201.33,214.34,196.05,215.09,191Z"/>
    </g>
    <path class="cls-9" d="M203.78,205.12l-30.24,5.58c.51-6.91.24-7.57,1.17-18.26.64-7.28-3.19-23.41-4.79-35.12,4.68-2.61,3.37-1.89,9.58-2.63a62,62,0,0,1,7.32-.42c3.35,0,4.49-.1,7.43.81,5,1.47,3.57-.16,8.26,3.44,1.58,12.65-1.43,22.59-2.27,31.73C199.48,198.6,203.32,202.82,203.78,205.12Z"/>
    <path class="cls-9" d="M169.92,157.32c-2.29.37-4.08,5.5-10,17.06s-8.58,21-9.44,22.56c6.87-2.27,8.72-3.15,11.94-5a112.56,112.56,0,0,0,9.34-15.47C173.49,172.9,178.42,159.52,169.92,157.32Z"/>
    <polygon class="cls-4" points="176.6 154.97 189.12 187.26 198.03 155.85 192.01 154.41 182.59 154.34 176.6 154.97"/>
    <polyline class="cls-8" points="189.44 186.13 200.39 170.65 198.86 167.16 202.51 164.61 199.25 155.4"/>
    <polyline class="cls-8" points="189.09 187.27 176.44 170.63 177.38 167.15 173.3 164.59 175.63 155.4"/>
    <g>
      <path class="cls-6" d="M220.81,204.25c5.88,22.72,11.58,57.57,17.72,77.17l5.8-2.92c-2.48-19.75-2.75-50.81-6.27-73.76Z"/>
      <g>
        <polygon class="cls-6" points="238.88 283.98 241.05 286.4 252.8 284.9 252.24 282.94 244.59 280.53 243.18 269.62 236.34 270.55 238.88 283.98"/>
        <path class="cls-10" d="M239.48,288l18.35-2.76a1,1,0,0,0-.91-1.2l-4.68-1.06c-.38,1.25-9.84,2.67-11.43,1.93l-1.93-.89Z"/>
      </g>
    </g>
    <g>
      <polygon class="cls-6" points="223.64 222.98 216.73 285.19 223.66 287.26 241.44 221.3 223.64 222.98"/>
      <polygon class="cls-6" points="215.38 293.13 216 296.32 226.84 301.07 227.37 299.11 222.05 293.11 225.27 281.41 217.4 281.25 215.38 293.13"/>
      <path class="cls-10" d="M213.84,296.85l12,4.94,1.53-2.68c-1,.87-9.81-2.77-10.8-4.22l-1.19-1.76Z"/>
      <path class="cls-10" d="M225.84,301.79h6.6s.4-.91-.84-1.31l-4.23-1.37Z"/>
    </g>
    <path class="cls-11" d="M210,232.81c14.7.49,16.8-.94,31.27,1.07.2-3.24-.26-16.7-.27-19.92,0-7.05-.67-9.64-4.5-10.19-21.84-3.2-48.36,4.14-62.93,6.93C174.27,229.74,188.41,233.68,210,232.81Z"/>
    <g>
      <polygon class="cls-6" points="184.74 188.92 188 185.33 188.61 187.6 184.74 188.92"/>
      <path class="cls-10" d="M191.84,177l13.76.07a1.3,1.3,0,0,1,1.29,1.7L202.31,198a2.3,2.3,0,0,1-2.11,1.69l-13.76-.07a1.31,1.31,0,0,1-1.29-1.71l4.58-19.23A2.28,2.28,0,0,1,191.84,177Z"/>
      <g>
        <path class="cls-12" d="M193.71,191.45a1.29,1.29,0,0,0,.66-.68,21.45,21.45,0,0,0-3.16-1.26S193,191.36,193.71,191.45Z"/>
        <path class="cls-6" d="M181.33,191.37c.94-.66,5.81-4.53,6-4.63s4-.27,4-.27l4.06,2.25a8,8,0,0,1-1.84.23,7.94,7.94,0,0,1-1.69-.86l-1.92.31,1.64.78s4.42,2.71,4.66,2.77-1,.55-1.63.4a21.25,21.25,0,0,1-2.62-1s2.31,1.68,2.57,1.9a1.16,1.16,0,0,1-1.09.33l.13.18a3.18,3.18,0,0,1-1.7.45,3.26,3.26,0,0,1-1.5-.4s-1.83.38-2.15.41a14.82,14.82,0,0,0-2.42.9,10.77,10.77,0,0,1-3.31.77,5.58,5.58,0,0,1-1.24-.69Z"/>
        <path class="cls-8" d="M189.34,189.77a10.73,10.73,0,0,1,1.61.82,9.56,9.56,0,0,1,1.36,1"/>
        <path class="cls-8" d="M193.49,193.57c-.78-.25-2.27-.94-2.66-1.07a18.72,18.72,0,0,0-2.47-.08"/>
      </g>
      <rect class="cls-13" x="179.35" y="189.82" width="2.65" height="6.37" transform="translate(-4.88 4.69) rotate(-1.47)"/>
      <path class="cls-9" d="M157.15,191c7.12-1.3,15.26-.93,22.9-1.39-.19,3.43-.37,3.79-.56,7.22-8.67,1.28-12.68,1.84-21.36,3.12-2.55.37-4.85-.69-7.46-2.59C151.71,195.25,154.93,191.34,157.15,191Z"/>
    </g>
    <path class="cls-8" d="M201.87,230.14c3.08-1,17.49-5.74,25.89-13.33"/>
    <path class="cls-8" d="M194.2,226.29a61.29,61.29,0,0,0,19.66-5.43"/>
    <g>
      <path class="cls-4" d="M149.66,303c4-11.57,6.37-18.61,6.37-18.61h7.38l-9.73,18.28Z"/>
      <path class="cls-4" d="M213.89,303c-4-11.57-6.37-18.61-6.37-18.61h-7.38l9.73,18.28Z"/>
      <path class="cls-5" d="M142.56,199.54c9.2-.43,34.54.39,41.83.77s15.35,7.29,21.87,22.26,16.31,56.21,8.25,62.73-51.82,2.87-62.55,0-15.34-19.19-18.8-32.62S116,200.8,142.56,199.54Z"/>
      <path class="cls-4" d="M149.64,217.33c6.45-.31,24.22.26,29.33.53s10.76,5.12,15.33,15.61,11.3,38.47,5.65,43-36.33,2-43.85,0-10.76-13.46-13.18-22.87S131,218.21,149.64,217.33Z"/>
    </g>
    <path class="cls-1" d="M406.07,100.75c18,.26,20.33-6.49,16.72-15.81s-11.23-36-26.92-26.49-23,24.4-13.29,30.44,38.36,3.9,32.89-6.62-16.29-29.43-18.08-11.46,8.34,32,15.71,35.78S451.39,73.2,444.44,69,405.52,62.89,397,63.33s-8.13,7.92-7.52,20.22,10,29,16.06,24.62S430,94,425.23,79.79s3-29.07-9.24-23.05S400.55,80.1,392,79.47c-32.54-2.4-3.53-39.83,7.23-17,7,14.9,14.23,23.95,9.8,25.22s-4.28,22-15.85,15.34-6.88-20.75-6.88-20.75,26-10.33,33.75-7.62,20.66,9,16.42,14c-24.37,28.82,16.26,18-24.34-1.8-25.78-12.55-36-19.16-31.74-6.07s12.42,23.82,15,12.29-2.56-24.15,1.57-31.3,20.81-5.92,25.93-2.35,20.92,5.27,12.87,14.8S428.21,103.45,419,98.51s-12.45,11.33-19,6-10.29-8.22-16.13-17.17S383.6,64.47,385,56.58s5.93-16.07,12.19-7.62S407.32,63,411.8,62.82,433.62,50.05,418,51.56s-30.19,15.88-21.65,25,19.2,15.8,25,6.65A32,32,0,0,1,435.56,71"/>
    <path class="cls-1" d="M197,54.16a2.18,2.18,0,1,0-4.35,0,4.35,4.35,0,1,0,8.7,0,6.52,6.52,0,1,0-13,0,8.7,8.7,0,1,0,17.39,0,10.88,10.88,0,1,0-21.74,0,13,13,0,1,0,26.08,0,15.22,15.22,0,1,0-30.43,0c0,9.92,7.79,18,17.39,18s17.39-8,17.39-18C214.42,43,205.66,34,194.86,34s-19.57,9-19.57,20.19c0,12.4,9.74,22.44,21.74,22.44s21.74-10,21.74-22.44c0-13.63-10.71-24.68-23.91-24.68S171,40.53,171,54.16C171,69,182.62,81.09,197,81.09s26.09-12,26.09-26.93c0-16.11-12.66-29.17-28.26-29.17S166.6,38.05,166.6,54.16c0,17.35,13.62,31.42,30.43,31.42s30.43-14.07,30.43-31.42c0-18.58-14.59-33.65-32.6-33.65s-32.61,15.07-32.61,33.65c0,19.83,15.57,35.91,34.78,35.91S231.81,74,231.81,54.16"/>
    <g>
      <g>
        <path class="cls-10" d="M404.68,126.66a3.1,3.1,0,0,0-3.35-4.37c-3.07.56-2.05,1.76-4.47,1.39-2.13-.33-3.24-2.75-6.23-1-2.35,1.35-1.6,3.18-3.17,4.75-1.39,1.39-4.3-.14-6,2.69-1.64,2.67,1.12,3.08.47,4.47s-3.91,1.77-4.47,4.47,2,2.51,1.77,4-3.59-.22-3.82,3.82c-.09,1.67,2,3,2,3a3.48,3.48,0,0,0,2.51,4.74c1.74.56,3.35-.65,4.75.28s.28,2,2.88,2.33,8.94,1.77,11.36-2.52S404.68,126.66,404.68,126.66Z"/>
        <path class="cls-10" d="M393.79,124c-1.06-1.69.32-5.61,3.81-5s2.33,2,5.09,1.59c2.43-.38,3.69-3.14,7.09-1.17,2.68,1.54,1.83,3.62,3.61,5.4,1.58,1.59,4.89-.16,6.88,3.07,1.87,3-1.27,3.5-.53,5.09s4.45,2,5.09,5.08-2.23,2.86-2,4.56,4.09-.25,4.35,4.34c.1,1.91-2.23,3.39-2.23,3.39a4,4,0,0,1-2.86,5.4c-2,.64-3.81-.74-5.4.32s-.32,2.33-3.28,2.65-10.17,2-12.93-2.86S393.79,124,393.79,124Z"/>
      </g>
      <g>
        <path class="cls-1" d="M434.94,71.48c.24,21.8-6.62,25.49-16.09,22.25S382.3,84.5,392,64.28s24.83-31,31-19.88,3.89,46.11-6.79,40.77S386.26,69,404.54,64.61,446,87.09,440.87,79.3c-6.59-10.11-61.19,83.9-43.94-14.23,1.8-10.24,8.06-10.85,20.56-11.61s29.42,8.57,25,16.47S428,101.35,413.62,97.32s-29.55,7.25-23.42-8.39S414,67.3,413.34,57C411,17.75,372.87,57.59,396,67.85c15.13,6.72,24.32,14.33,25.62,8.8s22.42-7.9,15.62-21.12-21.08-5.81-21.08-5.81-10.54,32.81-7.81,41.92,9.1,24,14.2,18.22c29.33-33.14,18.24,17.53-1.79-29.34-12.71-29.76-19.42-41.35-6.11-37.79s24.18,12.15,12.46,16.69-24.54-.15-31.82,5.75-6.05,26-2.43,31.77,5.33,24.76,15,13.81S437.65,98,432.64,87.43s11.54-16.51,6.19-23.82-8.33-11.49-17.42-17.48-23.3,2.51-31.31,5.18-16.35,9.17-7.77,15.74,14.27,10.58,14.06,16-13,28.05-11.45,8.87,16.19-38.61,25.47-29.36,16,21.38,6.71,29.59A45.25,45.25,0,0,0,404.63,111"/>
        <path class="cls-1" d="M406.62,100.75c18,.26,20.33-6.49,16.72-15.81S412.1,49,396.41,58.45s-23,24.4-13.29,30.44,38.37,3.9,32.9-6.62-16.29-29.43-18.09-11.46,8.35,32,15.72,35.78S451.94,73.2,445,69s-38.92-6.07-47.43-5.63-8.14,7.92-7.52,20.22,10,29,16,24.62S430.53,94,425.78,79.79s3-29.07-9.24-23.05-15.45,23.36-24,22.73c-32.55-2.4-3.53-39.83,7.23-17,7,14.9,14.22,23.95,9.8,25.22s-4.29,22-15.85,15.34-6.88-20.75-6.88-20.75,26-10.33,33.75-7.62,20.65,9,16.42,14c-24.38,28.82,16.25,18-24.34-1.8-25.78-12.55-36-19.16-31.74-6.07s12.42,23.82,15,12.29-2.56-24.15,1.58-31.3,20.81-5.92,25.92-2.35,20.93,5.27,12.87,14.8-7.51,29.27-16.74,24.33-12.45,11.33-19,6-10.29-8.22-16.13-17.17-.25-22.92,1.15-30.81,5.93-16.07,12.19-7.62S407.87,63,412.35,62.82s21.81-12.77,6.17-11.26-30.19,15.88-21.64,25,19.2,15.8,25,6.65A31.9,31.9,0,0,1,436.11,71"/>
      </g>
      <g>
        <path class="cls-2" d="M449.28,166l-41-.28c-3.31,0-5.58,2.85-6.58,6l-10.83,34c-1,3.16,2.13,5.94,5.43,6l52.16,1.09c3.3.07,5.54-2.86,6.58-6l8.39-25.35C466.13,173.24,462.61,166.1,449.28,166Z"/>
        <path class="cls-1" d="M388.9,197c-9.2-.43-34.53.39-41.83.77S331.73,205,325.2,220s-16.11,54.87-8.06,61.39,51.83,2.88,62.55,0,15.35-19.18,18.8-32.61S415.48,198.21,388.9,197Z"/>
        <path class="cls-1" d="M451.61,160l-58.08-.38c-4.68,0-7.89,4-9.31,8.5l-15.33,48.16c-1.43,4.47,3,8.4,7.69,8.5l73.81,1.53c4.68.1,7.84-4,9.32-8.5l11.87-35.87C475.46,170.18,470.49,160.08,451.61,160Z"/>
        <path class="cls-1" d="M446.51,228.34l-66-.41a7.06,7.06,0,0,0-7.06,7.06h0a7.09,7.09,0,0,0,7.06,7l66,.42a7.07,7.07,0,0,0,7.06-7.06h0A7.1,7.1,0,0,0,446.51,228.34Z"/>
      </g>
      <polygon class="cls-6" points="387.02 300.76 386.35 303.94 375.44 308.54 374.94 306.57 380.35 300.65 370.95 278.54 382.35 283.98 387.02 300.76"/>
      <path class="cls-6" d="M385.06,163c-2.1,1.82-3.22,5.59-8.12,17.36s-6.44,16.88-7.25,18.49c2,2.41,2,2.12,5.95,4.63,4.82-4,9.39-15.75,11.91-21.39C389.19,178.39,393.63,164.83,385.06,163Z"/>
      <polygon class="cls-6" points="372.21 298.26 372.05 301.51 361.98 307.74 361.19 305.88 365.61 299.19 352.89 278.8 362.3 276.61 372.21 298.26"/>
      <path class="cls-10" d="M374.26,301.73l-11.18,6.58-1.89-2.44c1.07.74,9.32-4.12,10.09-5.7l.93-1.91Z"/>
      <path class="cls-10" d="M363.08,308.31l-6.6,0s-.42-.95.84-1.32l3.87-1.15Z"/>
      <path class="cls-11" d="M344.33,229.23c5.72,13.52,10.65,27.92,18.41,48.22l-9.95,4L328,237.75Z"/>
      <path class="cls-11" d="M370.39,235.49c-14.69.49-28,2.44-42.4,2.26a19.42,19.42,0,0,1-2.11-9.66c.14-7.56,3.73-10.09,7.56-10.65,21.84-3.19,38.27-6.54,61.27-7.28C394,229.21,392,236.36,370.39,235.49Z"/>
      <path class="cls-14" d="M368.8,234.9c-7.44.25-14.95,1.61-21.3,2.09-6.41-7.72-15.87-12.53-20.5-14.77a7.85,7.85,0,0,1,6.44-4.78c19.71-2.88,34.41-5.71,54.12-6.81a14.37,14.37,0,0,0,.46-3.51c0,.79,24.39-.15,24.35.59C411.42,225,389.47,235.74,368.8,234.9Z"/>
      <path class="cls-11" d="M395,234.88c-14.7.49-27.15,3.06-41.58,2.88-1.5-3.87-2.6-6.26-3.69-9.87-2.18-7.23,3-9.22,9.09-10.45,21.64-4.34,34.24-8.65,57.24-9.38C420,223.24,417,231.11,395,234.88Z"/>
      <path class="cls-14" d="M362.74,277.45c-14.35-24.79-18.56-30-25.91-44.31-2-3.21-1.24-3.08-7.06-10.21,1.5-.78,10.92,3.88,13.56,6.82a25.35,25.35,0,0,1,3.83,6.37C351.78,247.74,356.28,260.55,362.74,277.45Z"/>
      <path class="cls-15" d="M402.59,208.06H388.37a121.52,121.52,0,0,0,1.36-22.93c-1.62-2.51-3.22-3.75-3.83-6-.65-2.41.13-6.53.59-8-.4-2-.92-5.68-1.17-7.72a25.54,25.54,0,0,1,34.53,0c-1,8.11-3.57,15.62-4.56,23.72-.24,7.43-.43,13.71.77,20.93Z"/>
      <path class="cls-6" d="M419.34,162.88c6.7,3.68,6.67,33.56,6.71,39.59l-5.9,2.7c-3.44-6.45-6.49-30.89-6.49-30.89C412.06,168.85,414.33,160.13,419.34,162.88Z"/>
      <rect class="cls-16" x="387.78" y="205.53" width="28.76" height="2.88"/>
      <path class="cls-8" d="M408.13,186.91a80.77,80.77,0,0,0-14.95-2.58"/>
      <path class="cls-11" d="M370.79,232.22c6.61,23.34,8.55,35.4,13.26,55.7l-10,.47c-8.2-19.89-13.59-32.26-22.53-55.47Z"/>
      <path class="cls-6" d="M374,194.45c-8.66-8.92-14.63-12.5-20.09-17.6-.28.06-1.18.17-3.11,2,3.14,6.28,17,25.32,24.84,24.6C376.1,200.31,376.28,196.8,374,194.45Z"/>
      <path class="cls-10" d="M388.5,304.5l-12.06,4.77-1.5-2.7c.95.89,9.85-2.63,10.86-4.07l1.22-1.74Z"/>
      <path class="cls-10" d="M376.44,309.27h-6.61s-.39-.91.85-1.31l4.26-1.39Z"/>
      <path class="cls-5" d="M411.54,208.38c-.86,14.93-13,20.78-44.57,19.91C359.18,232,381.25,288,381.25,288"/>
      <path class="cls-8" d="M374.29,232.51c-2.22-2.25-3.82-7.58-6.68-6.76s2.95,6,2,8.12-2.79-2.29-4.18-3.44"/>
      <g>
        <path class="cls-6" d="M353.91,176.85c-2.35-2.84-5.76-3-7.08-2.17l-1,.59s-3-.07-3.32,0-1.79-.21-3-.25c-.53-.76-1.47-2.86-2.93-2.68-.15.11-.25.56-.25.56-.27-.33-1.58-1.17-1.33,0-.62.41-.09.81,1,2.35a18.7,18.7,0,0,1,1.07,1.72l1.28,1.64s2.68,1.34,3.05,1.42,2.67.77,3.26.82c1.17.1,7.24.5,7.9.61C353.23,180.47,353.64,177.37,353.91,176.85Z"/>
        <line class="cls-7" x1="334.81" y1="173.13" x2="337.98" y2="177.98"/>
        <polyline class="cls-8" points="336.41 173.09 338.53 176.59 344.4 177.49"/>
        <path class="cls-6" d="M349.94,174.5a9.17,9.17,0,0,0-3-.83,9.45,9.45,0,0,1-2.92-.81,4.47,4.47,0,0,0-2.26-.56c-.36.34.59,2,1.55,2.33s1.74.44,2.21.68a2.81,2.81,0,0,1,.87.89l5.16,0Z"/>
      </g>
      <path class="cls-6" d="M421.79,196.19c8.66-8.92,14.63-12.5,20.08-17.6.29.06,1.19.17,3.12,2-3.14,6.29-17,25.33-24.84,24.61C419.69,202.05,419.51,198.53,421.79,196.19Z"/>
      <g>
        <path class="cls-6" d="M441.87,178.59c2.35-2.84,5.77-3,7.09-2.18l1,.6s3-.07,3.32,0,1.79-.2,3-.25c.53-.76,1.47-2.86,2.93-2.67a1.47,1.47,0,0,1,.25.56c.26-.33,1.58-1.17,1.33,0,.62.41.08.81-1,2.35-.62.88-1.08,1.71-1.08,1.71l-1.27,1.65s-2.68,1.34-3.05,1.41-2.67.78-3.27.83c-1.17.1-7.23.5-7.89.61C442.56,182.21,442.15,179.11,441.87,178.59Z"/>
        <line class="cls-7" x1="460.97" y1="174.87" x2="457.81" y2="179.72"/>
        <polyline class="cls-8" points="459.37 174.83 457.26 178.33 451.39 179.23"/>
        <path class="cls-6" d="M445.84,176.24a9.23,9.23,0,0,1,3-.83,9.44,9.44,0,0,0,2.91-.82,4.64,4.64,0,0,1,2.27-.56c.36.34-.59,2-1.56,2.33s-1.73.45-2.21.69a2.75,2.75,0,0,0-.86.89l-5.16,0S445.66,176.45,445.84,176.24Z"/>
      </g>
      <g>
        <path class="cls-1" d="M450.3,308.65c-4-11.57-6.37-18.62-6.37-18.62h-7.38l9.73,18.29Z"/>
        <path class="cls-1" d="M386.07,308.65c4-11.57,6.37-18.62,6.37-18.62h7.38l-9.73,18.29Z"/>
        <path class="cls-1" d="M457.4,205.21c-9.2-.44-34.54.38-41.83.77s-15.35,7.29-21.87,22.25-16.31,56.21-8.25,62.74,51.82,2.87,62.55,0,15.34-19.19,18.8-32.62S484,206.47,457.4,205.21Z"/>
        <path class="cls-2" d="M450.32,223c-6.45-.3-24.22.27-29.33.54s-10.76,5.11-15.33,15.61-11.3,38.47-5.65,43,36.33,2,43.85,0,10.76-13.45,13.18-22.87S469,223.87,450.32,223Z"/>
      </g>
      <g>
        <g>
          <path class="cls-17" d="M480.81,281.12c1.17-13.26,3.41-28,7-39.05,5.65-17.38,11.76-23.94,11.76-23.94s2.59,13.09-2.35,32.46c-3.43,13.47-7.15,23.86-9.16,30.53Z"/>
          <path class="cls-1" d="M499.57,218.13S486,251.74,486.28,269.72"/>
          <path class="cls-17" d="M476,281.12A126.34,126.34,0,0,0,472.25,266c-5.65-17.38-11.76-23.94-11.76-23.94s-2.59,13.09,2.35,32.46q.87,3.44,1.76,6.59Z"/>
          <path class="cls-17" d="M484.73,281.12c2.73-17.52,5.22-45.36,3.16-64.75-2.18-20.5-2.91-29.52-2.91-29.52s-7.25,14.35-8,36.9-1.09,37.72-1.82,43.05a112.29,112.29,0,0,0-.19,14.32Z"/>
          <path class="cls-17" d="M469.54,281.12c-2.59-15.56-4.78-38.83-2.81-55.26,2.18-18.15,2.91-26.13,2.91-26.13s7.25,12.7,8,32.66,1.09,33.38,1.81,38.1a72.94,72.94,0,0,1,.27,10.63Z"/>
          <path class="cls-1" d="M469.64,199.73c3,26.89,4.18,37.77,3.39,52-.61,11.2,1.49,21.43,3,29.36"/>
          <path class="cls-1" d="M485,186.85s-.81,40.84-1.57,59.72c-.5,12.42,0,25.08-1.64,34.55"/>
          <path class="cls-1" d="M460.49,242.07s3.41,20.09,8.57,39.05"/>
        </g>
        <path class="cls-2" d="M491.51,283.39c-.36,5.56-.64,16.79-4,22H465c-3.35-5.19-3.63-16.42-4-22h-1a.32.32,0,0,1-.32-.32v-2.15a.33.33,0,0,1,.32-.32h32.56a.32.32,0,0,1,.32.32v2.15a.32.32,0,0,1-.32.32Z"/>
      </g>
      <g>
        <path class="cls-6" d="M405.27,158.15c0,3.57-8.11,17.46-10.56,16.9s.4-14.44.4-16.9v-9.77c3.38,0,6.77-5.61,10.16-5.61Z"/>
        <path class="cls-10" d="M395.11,150.84v-2.46c3.38,0,6.77-5.61,10.16-5.61v4.09c-2.44,6.59-6,7.11-7.26,6.82A4.71,4.71,0,0,1,395.11,150.84Z"/>
        <path class="cls-6" d="M401.52,124.32c-2.45-.33-9.85-1.23-11.3,7.33s-.62,11.61-.16,13.3c.54,1.93,1.64,4.54,4.23,5,5.59.94,8.15-1.12,9.88-2.53,1.36-1.1,3.69-4,4.89-12.57S404,124.75,401.52,124.32Z"/>
        <path class="cls-10" d="M394.86,126.12c-2-.48-4.83,4.2-5.1,8.84-.45-7.91,3.17-13.28,11.77-12.06s9.61,9.11,7.21,15.49c-1.39-3.91-4.31-3.74-6.49-4.9C396.25,130.28,398,126.49,394.86,126.12Z"/>
        <path class="cls-11" d="M401.88,140c-1.16.17-2,.85-1.92,1.53s1.11,1.1,2.26.94,2-.84,1.92-1.53S403,139.79,401.88,140Z"/>
        <path class="cls-10" d="M391.9,135.25a1,1,0,0,1,.71,1.17.89.89,0,0,1-.95.89,1,1,0,0,1-.72-1.16A.91.91,0,0,1,391.9,135.25Z"/>
        <path class="cls-10" d="M399.85,136.48a1,1,0,0,0-1,.9.91.91,0,0,0,.64,1.14,1,1,0,0,0,1-.9A.91.91,0,0,0,399.85,136.48Z"/>
        <path class="cls-8" d="M394.21,133.62c1.66,2.29-.77,4.69-1,6.25s2.74,1.45,2.74,1.45"/>
        <path class="cls-8" d="M398.75,132.9a3,3,0,0,1,2.74,1.3"/>
        <path class="cls-8" d="M393.78,133.1a3,3,0,0,0-3,.05"/>
        <g>
          <path class="cls-6" d="M407.23,138.76a1.54,1.54,0,0,1,1.37-.94c.73,0,2,.53,1.65,2.53s-2.26,3.48-3.28,3.08S407,139.28,407.23,138.76Z"/>
          <path class="cls-11" d="M407.75,143.17a.63.63,0,1,0,.53.72A.63.63,0,0,0,407.75,143.17Z"/>
          <path class="cls-18" d="M407.73,139.86c0-.26,1.2-1.27,1.91-.35"/>
        </g>
        <path class="cls-19" d="M392.7,144c-.27-.17-.28-.74-.11-1s.8-.64,1.13-.46a1.3,1.3,0,0,0,.93.14,1.57,1.57,0,0,1,1.05.51c.61.61.32.66,1.16,1.23a5.36,5.36,0,0,1-2.82-.13"/>
        <path class="cls-8" d="M393.06,145.51a3.65,3.65,0,0,0,3.1.1"/>
      </g>
    </g>
    <path class="cls-10" d="M175,148.74a9.24,9.24,0,1,0-9.24-9.23A9.25,9.25,0,0,0,175,148.74Z"/>
    <g>
      <path class="cls-6" d="M181.4,156.75c0,3.58,4.52,5.23,7,4.68s3.19-2.22,3.19-4.68V147c-3.39,0-6.78-5.61-10.16-5.61Z"/>
      <path class="cls-10" d="M191.56,149.45V147c-3.39,0-6.78-5.61-10.16-5.61v4.09c2.43,6.59,6,7.11,7.26,6.82A4.76,4.76,0,0,0,191.56,149.45Z"/>
      <path class="cls-6" d="M185.14,122.92c2.46-.32,9.85-1.22,11.31,7.34s.61,11.61.15,13.3c-.53,1.93-1.63,4.53-4.22,5-5.59.95-8.15-1.11-9.89-2.52-1.36-1.11-3.68-4-4.88-12.57S182.71,123.36,185.14,122.92Z"/>
      <path class="cls-10" d="M191.8,124.73c2-.49,4.83,4.19,5.1,8.84,3.22-8.11-2.75-14.68-11.38-13.78-2.64.27-6.39.57-10.09,5.21-2.18,2.74-4.89,10.28,3.07,15.63-.23-6.78,3.74-7.37,5.91-8.53C190.41,128.89,188.71,125.1,191.8,124.73Z"/>
      <path class="cls-11" d="M184.79,138.56c1.15.16,2,.85,1.92,1.53s-1.11,1.1-2.27.94-2-.85-1.92-1.53S183.63,138.4,184.79,138.56Z"/>
      <path class="cls-10" d="M194.76,133.86a1,1,0,0,0-.71,1.16.91.91,0,0,0,1,.9,1,1,0,0,0,.71-1.17A.9.9,0,0,0,194.76,133.86Z"/>
      <path class="cls-10" d="M186.81,135.09a1,1,0,0,1,1,.9.91.91,0,0,1-.64,1.14,1,1,0,0,1-1-.9A.91.91,0,0,1,186.81,135.09Z"/>
      <path class="cls-8" d="M192.45,132.23c-1.65,2.29.77,4.68,1,6.25s-2.74,1.45-2.74,1.45"/>
      <path class="cls-8" d="M187.76,132.75a3,3,0,0,0-3,.49"/>
      <path class="cls-8" d="M192.91,132a3,3,0,0,1,3-.43"/>
      <g>
        <path class="cls-6" d="M179.44,137.37a1.54,1.54,0,0,0-1.38-.94c-.73,0-2,.52-1.65,2.53s2.26,3.48,3.28,3.07S179.62,137.89,179.44,137.37Z"/>
        <path class="cls-11" d="M178.91,141.78a.62.62,0,0,1,.72.52.63.63,0,0,1-1.24.2A.62.62,0,0,1,178.91,141.78Z"/>
        <path class="cls-18" d="M178.93,138.46c0-.25-1.19-1.26-1.91-.34"/>
      </g>
      <path class="cls-19" d="M194,142.58a.88.88,0,0,0,.12-1c-.18-.3-.8-.64-1.13-.46a1.39,1.39,0,0,1-.94.14,1.49,1.49,0,0,0-1,.5c-.61.62-.33.66-1.17,1.24a5.36,5.36,0,0,0,2.82-.13"/>
      <path class="cls-8" d="M193.61,144.12a3.65,3.65,0,0,1-3.1.1"/>
    </g>
    <path class="cls-10" d="M191.12,134c-.72,0-6.08,0-8.61,1.29-.36,1.47,1.34,4,1.87,4.19a25.59,25.59,0,0,0,5.83-.7c.86-.17.83-3.32.9-3.74a2.47,2.47,0,0,0,0-.39,2.1,2.1,0,0,1,1.47-.23l.15.36c.2.38,1.13,3.4,2,3.29a8,8,0,0,0,3.22-.71c.44-.36,1.3-3.27.5-4.56a11.75,11.75,0,0,0-6,1,2.37,2.37,0,0,0-1.36.22Zm2.16.05a7.89,7.89,0,0,1,4.49-.74c.64,1.05-.06,3.43-.41,3.72a4.35,4.35,0,0,1-2.17.51c-.71.09-1.47-2.37-1.63-2.69a5.56,5.56,0,0,1-.28-.8Zm-2.88.45a5.78,5.78,0,0,1,0,.85c-.05.35,0,2.92-.73,3.06a20.94,20.94,0,0,1-4.76.57c-.43-.17-1.83-2.22-1.53-3.43C185.43,134.45,189.89,134.48,190.4,134.47Z"/>
  </g>
</svg>
