<svg id="OBJECTS" xmlns="http://www.w3.org/2000/svg" xmlns:xlink="http://www.w3.org/1999/xlink" width="408.67" height="408.67" viewBox="0 0 408.67 408.67">
  <defs>
    <style>
      .cls-1 {
        fill: url(#Degradado_sin_nombre_22);
      }

      .cls-2 {
        fill: url(#Degradado_sin_nombre_41);
      }

      .cls-3 {
        fill: url(#Degradado_sin_nombre_17);
      }

      .cls-4 {
        fill: url(#Degradado_sin_nombre_17-2);
      }

      .cls-5 {
        fill: url(#Degradado_sin_nombre_10);
      }

      .cls-6 {
        fill: #4de6ff;
      }

      .cls-7 {
        fill: #9ffaff;
      }

      .cls-8 {
        fill: #ff8585;
      }

      .cls-9 {
        fill: url(#Degradado_sin_nombre_3);
      }

      .cls-10 {
        fill: url(#Degradado_sin_nombre_3-2);
      }

      .cls-11 {
        fill: none;
      }

      .cls-12 {
        fill: url(#Degradado_sin_nombre_10-2);
      }

      .cls-13 {
        fill: url(#Degradado_sin_nombre_10-3);
      }

      .cls-14 {
        fill: url(#Degradado_sin_nombre_16);
      }

      .cls-15 {
        fill: url(#Degradado_sin_nombre_16-2);
      }

      .cls-16 {
        fill: url(#Degradado_sin_nombre_16-3);
      }

      .cls-17 {
        fill: url(#Degradado_sin_nombre_3-3);
      }

      .cls-18 {
        fill: url(#Degradado_sin_nombre_3-4);
      }

      .cls-19 {
        fill: url(#Degradado_sin_nombre_16-4);
      }

      .cls-20 {
        fill: #fff;
      }

      .cls-21 {
        fill: url(#Degradado_sin_nombre_16-5);
      }

      .cls-22 {
        fill: url(#Degradado_sin_nombre_16-6);
      }

      .cls-23 {
        fill: url(#Degradado_sin_nombre_16-7);
      }

      .cls-24 {
        fill: url(#Degradado_sin_nombre_16-8);
      }
    </style>
    <linearGradient id="Degradado_sin_nombre_22" data-name="Degradado sin nombre 22" x1="33.95" y1="339.52" x2="176.61" y2="232.19" gradientUnits="userSpaceOnUse">
      <stop offset="0" stop-color="#3adae9"/>
      <stop offset="0.69" stop-color="#34c2b7"/>
      <stop offset="1" stop-color="#3be5f2"/>
    </linearGradient>
    <linearGradient id="Degradado_sin_nombre_41" data-name="Degradado sin nombre 41" x1="59.42" y1="373.38" x2="202.08" y2="266.04" gradientUnits="userSpaceOnUse">
      <stop offset="0" stop-color="#3adae9"/>
      <stop offset="1" stop-color="#34c2b7"/>
    </linearGradient>
    <linearGradient id="Degradado_sin_nombre_17" data-name="Degradado sin nombre 17" x1="296.43" y1="110.9" x2="30.03" y2="428.3" gradientTransform="translate(374.47 100.16) rotate(67.5)" gradientUnits="userSpaceOnUse">
      <stop offset="0" stop-color="#3adae9"/>
      <stop offset="0.69" stop-color="#349bb7"/>
      <stop offset="1" stop-color="#3be5f2"/>
    </linearGradient>
    <linearGradient id="Degradado_sin_nombre_17-2" x1="251.65" y1="73.32" x2="-14.75" y2="390.72" gradientTransform="matrix(1, 0, 0, 1, 0, 0)" xlink:href="#Degradado_sin_nombre_17"/>
    <linearGradient id="Degradado_sin_nombre_10" data-name="Degradado sin nombre 10" x1="270.81" y1="333.54" x2="361.34" y2="333.54" gradientUnits="userSpaceOnUse">
      <stop offset="0" stop-color="#ef6870"/>
      <stop offset="1" stop-color="#d34242"/>
    </linearGradient>
    <linearGradient id="Degradado_sin_nombre_3" data-name="Degradado sin nombre 3" x1="82.72" y1="147.44" x2="229.97" y2="147.44" gradientUnits="userSpaceOnUse">
      <stop offset="0" stop-color="#f9d43a"/>
      <stop offset="1" stop-color="#ffec7b"/>
    </linearGradient>
    <linearGradient id="Degradado_sin_nombre_3-2" x1="263.22" y1="219.05" x2="330.64" y2="219.05" xlink:href="#Degradado_sin_nombre_3"/>
    <linearGradient id="Degradado_sin_nombre_10-2" x1="148.37" y1="147.86" x2="243.66" y2="147.86" xlink:href="#Degradado_sin_nombre_10"/>
    <linearGradient id="Degradado_sin_nombre_10-3" x1="243.27" y1="107.67" x2="314.43" y2="107.67" xlink:href="#Degradado_sin_nombre_10"/>
    <linearGradient id="Degradado_sin_nombre_16" data-name="Degradado sin nombre 16" x1="274.32" y1="92.34" x2="7.92" y2="409.74" gradientTransform="matrix(1, 0, 0, 1, 0, 0)" xlink:href="#Degradado_sin_nombre_17"/>
    <linearGradient id="Degradado_sin_nombre_16-2" data-name="Degradado sin nombre 16" x1="390.84" y1="190.14" x2="124.44" y2="507.54" gradientTransform="matrix(1, 0, 0, 1, 0, 0)" xlink:href="#Degradado_sin_nombre_17"/>
    <linearGradient id="Degradado_sin_nombre_16-3" data-name="Degradado sin nombre 16" x1="345.53" y1="152.12" x2="79.13" y2="469.52" gradientTransform="matrix(1, 0, 0, 1, 0, 0)" xlink:href="#Degradado_sin_nombre_17"/>
    <linearGradient id="Degradado_sin_nombre_3-3" x1="377.35" y1="127.57" x2="383.44" y2="127.57" xlink:href="#Degradado_sin_nombre_3"/>
    <linearGradient id="Degradado_sin_nombre_3-4" x1="25.23" y1="247.57" x2="49.05" y2="247.57" xlink:href="#Degradado_sin_nombre_3"/>
    <linearGradient id="Degradado_sin_nombre_16-4" data-name="Degradado sin nombre 16" x1="225.31" y1="51.21" x2="-41.09" y2="368.61" gradientTransform="matrix(1, 0, 0, 1, 0, 0)" xlink:href="#Degradado_sin_nombre_17"/>
    <linearGradient id="Degradado_sin_nombre_16-5" data-name="Degradado sin nombre 16" x1="419.7" y1="214.37" x2="153.3" y2="531.77" gradientTransform="matrix(1, 0, 0, 1, 0, 0)" xlink:href="#Degradado_sin_nombre_17"/>
    <linearGradient id="Degradado_sin_nombre_16-6" data-name="Degradado sin nombre 16" x1="409.64" y1="205.93" x2="143.24" y2="523.33" gradientTransform="matrix(1, 0, 0, 1, 0, 0)" xlink:href="#Degradado_sin_nombre_17"/>
    <linearGradient id="Degradado_sin_nombre_16-7" data-name="Degradado sin nombre 16" x1="381.29" y1="182.12" x2="114.89" y2="499.52" gradientTransform="matrix(1, 0, 0, 1, 0, 0)" xlink:href="#Degradado_sin_nombre_17"/>
    <linearGradient id="Degradado_sin_nombre_16-8" data-name="Degradado sin nombre 16" x1="309.88" y1="122.19" x2="43.48" y2="439.59" gradientTransform="matrix(1, 0, 0, 1, 0, 0)" xlink:href="#Degradado_sin_nombre_17"/>
  </defs>
  <g>
    <g>
      <g>
        <path class="cls-1" d="M90.76,294c-1.13.66-1.48.61-2.41-.32l-2.47-2.47A14.85,14.85,0,0,1,72.3,303l3.59,3.6a1.3,1.3,0,0,1,.28,1.83A42.17,42.17,0,0,0,73.33,314a24.15,24.15,0,0,0,2.66-.33v-.42c0-1,0-2,0-3,0-.52.13-.7.64-.82a22.08,22.08,0,0,0,6-2.49,1,1,0,0,1,.49-.17.79.79,0,0,1,.56.31l2.42,2.42a28.75,28.75,0,0,0,6.6-6.61c-.79-.78-1.55-1.55-2.33-2.31-.48-.5-.5-.68-.16-1.26a22,22,0,0,0,2.37-5.72c.18-.71.3-.81,1.05-.81h3.1l.15,0q.18-.94.27-1.89A40.71,40.71,0,0,0,90.76,294Z"/>
        <path class="cls-2" d="M161.42,321.36c-.29,0-.54,0-.8,0h-5.68c-1.13,0-1.44-.24-1.71-1.3a42.79,42.79,0,0,0-4.75-11.44,1.39,1.39,0,0,1,.29-2.07c1.51-1.52,3-3,4.62-4.6a54.77,54.77,0,0,0-12.71-12.71l-4.34,4.35c-1.09,1.09-1.36,1.13-2.64.37a41.46,41.46,0,0,0-10.87-4.47c-1.37-.35-1.55-.6-1.56-2,0-2,0-4,0-6a1.18,1.18,0,0,0-.07-.22,49.57,49.57,0,0,0-17.89,0v6c0,1.74-.09,1.85-1.76,2.29-.86.22-1.7.47-2.54.74,0,.29,0,.57-.07.86a20.24,20.24,0,0,1-.29,2l-.19,1.14-1.11.28a2.56,2.56,0,0,1-.62.09H94.17a23.63,23.63,0,0,1-2.12,5.13c.33.31.65.63,1,1l.93.92,1.09,1.08L94.16,304a30.53,30.53,0,0,1-7,7l-1.26.88-1.08-1.09-1.89-1.89A24,24,0,0,1,77.8,311c0,.76,0,1.53,0,2.28v1.92l-1.48.27a26.48,26.48,0,0,1-2.82.35c-.29,0-.58,0-.87.05-.51,1.42-1,2.87-1.32,4.34-.2.81-.61,1.09-1.49,1.09-1.93,0-3.85,0-5.76,0h-.88a49.73,49.73,0,0,0,0,18h1.78c1.63,0,3.25,0,4.88,0,.89,0,1.28.29,1.48,1.11a43.12,43.12,0,0,0,4.84,11.73c.47.78.37,1.25-.31,1.94l-4.64,4.63a54.77,54.77,0,0,0,12.66,12.67l.49-.43,4.12-4.13c.79-.77,1.22-.84,2.13-.29a42.52,42.52,0,0,0,11.32,4.69c1.19.3,1.39.59,1.39,1.85v6.35a49.78,49.78,0,0,0,18,0v-.81c0-1.91,0-3.83,0-5.76,0-1,.26-1.35,1.23-1.59A42.89,42.89,0,0,0,134,366.49a1.38,1.38,0,0,1,2,.26l4.63,4.65a55.11,55.11,0,0,0,12.71-12.7l-4.47-4.46c-.93-.93-1-1.29-.32-2.42a41.64,41.64,0,0,0,4.55-11c.34-1.37.59-1.55,2-1.55h6a1.52,1.52,0,0,0,.27-.06A49.8,49.8,0,0,0,161.42,321.36Zm-49.13,37.55A28.61,28.61,0,1,1,140.9,330.3,28.61,28.61,0,0,1,112.29,358.91Z"/>
      </g>
      <circle class="cls-3" cx="112.29" cy="330.3" r="11.44" transform="translate(-235.84 307.64) rotate(-67.5)"/>
      <path class="cls-4" d="M96.87,283.51l-.42,0h-3c-.58,0-.74-.12-.88-.67a22.46,22.46,0,0,0-2.46-5.95.72.72,0,0,1,.14-1.08l2.4-2.39a28.56,28.56,0,0,0-6.6-6.61l-2.26,2.27c-.32.31-.5.46-.71.46a1.48,1.48,0,0,1-.67-.27,21.6,21.6,0,0,0-5.64-2.33c-.72-.18-.81-.31-.82-1v-3.15a.41.41,0,0,0,0-.11,24.82,24.82,0,0,0-4.62-.42,25.43,25.43,0,0,0-4.67.42v3.13c0,.9-.05,1-.92,1.19a22.22,22.22,0,0,0-5.61,2.34,1.27,1.27,0,0,1-.59.24c-.21,0-.39-.13-.66-.4l-2.32-2.33a28.88,28.88,0,0,0-6.62,6.62l.56.52,1.9,1.91a.67.67,0,0,1,.14,1A22.21,22.21,0,0,0,50,282.93c-.1.42-.32.56-.78.56H45.78a26,26,0,0,0,0,9.34h3.46c.46,0,.67.15.77.58a22.21,22.21,0,0,0,2.52,6.09c.24.42.18.66-.17,1L50,302.93a28.39,28.39,0,0,0,6.58,6.59l.25-.22,2.15-2.15a.91.91,0,0,1,.6-.34,1,1,0,0,1,.5.19,22.22,22.22,0,0,0,5.9,2.44c.61.15.72.31.72,1v3.31a26.59,26.59,0,0,0,4.6.42c.7,0,1.39,0,2.08-.09a24.15,24.15,0,0,0,2.66-.33v-.42c0-1,0-2,0-3,0-.52.13-.7.64-.82a22.08,22.08,0,0,0,6-2.49,1,1,0,0,1,.49-.17.79.79,0,0,1,.56.31l2.42,2.42a28.75,28.75,0,0,0,6.6-6.61c-.79-.78-1.55-1.55-2.33-2.31-.48-.5-.5-.68-.16-1.26a22,22,0,0,0,2.37-5.72c.18-.71.3-.81,1.05-.81h3.1l.15,0q.18-.94.27-1.89A26.3,26.3,0,0,0,96.87,283.51ZM85,291A13.94,13.94,0,0,1,72.23,302.1c-.3,0-.61,0-.91,0a14,14,0,1,1,14-14A13.54,13.54,0,0,1,85,291Z"/>
    </g>
    <path class="cls-5" d="M316.1,375.24c-14.13-10.06-27.78-20.16-37.35-34.62-4.59-6.93-8.43-14.25-7.89-22.94.7-11.1,6.41-18.95,16.38-23.44,9.76-4.38,18.88-2.69,27,4.22.59.5,1.15,1,1.82,1.59,4.88-4.63,10.38-7.85,17.27-8a27,27,0,0,1,26.55,35.68c-2.89,8.72-8.16,16-14.18,22.76C337.12,360.14,326.65,367.59,316.1,375.24Z"/>
    <path class="cls-6" d="M243,140.31a1.35,1.35,0,0,1-1.2,1.39h-.36a36.34,36.34,0,0,0-8.51,1.43c-1,.28-1.94.61-2.88,1a34.86,34.86,0,0,0-6.7,3.4l-.33.21c-.64.44-1.27.89-1.88,1.36a35.45,35.45,0,0,0-6.16,6c-.57.72-1.12,1.44-1.64,2.19a33.15,33.15,0,0,0-2.18,3.6c-.32.59-.62,1.17-.89,1.77a1.35,1.35,0,0,1-1.23.8,1.39,1.39,0,0,1-.56-.13,1.36,1.36,0,0,1-.66-1.79c.38-.84.8-1.67,1.24-2.47A38.68,38.68,0,0,1,241.24,139l.37,0A1.36,1.36,0,0,1,243,140.31Z"/>
    <path class="cls-6" d="M254.3,172.58c-1.45,1.23-3.4,1.26-4.69,1.29l-14.75.29-1.21,0h-.14l-1.35,0-17,.34-1.91,0h0a1.35,1.35,0,0,1,0-2.7l2.43,0,5.28-.11,2.71-.06,8.41-.16,2.72,0,8.53-.16,2.71-.06,3.58-.07a4.9,4.9,0,0,0,3-.65c.91-.76.89-2.43.75-4.1a1.2,1.2,0,0,1,.08-.6h0a1.38,1.38,0,0,1,1.14-.86,1.36,1.36,0,0,1,1.47,1.23c0,.33.06.73.08,1.18C256.12,169,255.93,171.19,254.3,172.58Z"/>
    <path class="cls-7" d="M215.62,171.84a11.45,11.45,0,0,0-.26-3.61,16.24,16.24,0,0,0-4.19-7.33,33.15,33.15,0,0,1,2.18-3.6c4.3,4.52,6.77,9.25,7.55,14.43Z"/>
    <path class="cls-6" d="M222.52,174h-.15a1.35,1.35,0,0,1-1.34-1.21c0-.35-.08-.7-.13-1.05-.78-5.18-3.25-9.91-7.55-14.43-.25-.28-.52-.55-.79-.82a1.35,1.35,0,1,1,1.91-1.91c.18.18.36.36.52.54,5,5.13,7.81,10.55,8.62,16.56,0,.28.08.55.1.83A1.34,1.34,0,0,1,222.52,174Z"/>
    <path class="cls-7" d="M232,171.51l-8.41.16c-.81-6-3.63-11.43-8.62-16.56a35.45,35.45,0,0,1,6.16-6C227.55,156.23,231,163.41,232,171.51Z"/>
    <path class="cls-6" d="M234.86,172.72a1.9,1.9,0,0,1,0,.34v0a1.38,1.38,0,0,1-1.2,1.1h-.14a1.35,1.35,0,0,1-1.33-1.16h0a.56.56,0,0,1,0-.07q-.06-.72-.15-1.44c-1-8.1-4.47-15.28-10.87-22.42l-.56-.62a1.35,1.35,0,1,1,2-1.82q.4.42.78.87c6.73,7.58,10.37,15.24,11.38,23.94C234.78,171.87,234.83,172.3,234.86,172.72Z"/>
    <path class="cls-7" d="M243.27,171.3l-8.53.16c-1-8.7-4.65-16.36-11.38-23.94a34.86,34.86,0,0,1,6.7-3.4A42.44,42.44,0,0,1,243.27,171.3Z"/>
    <path class="cls-6" d="M246.05,172.34a1.33,1.33,0,0,1-1.27,1.42h-.08a1.34,1.34,0,0,1-1.34-1.27c0-.39-.05-.8-.09-1.19a42.44,42.44,0,0,0-13.21-27.18c-.2-.19-.4-.38-.61-.56a1.35,1.35,0,0,1,1.8-2c.58.51,1.14,1,1.69,1.59a45.18,45.18,0,0,1,13,28.1C246,171.61,246,172,246.05,172.34Z"/>
    <path class="cls-8" d="M215.62,171.84a14.76,14.76,0,0,1-.46,2.71,10.72,10.72,0,0,1-1.61,3.58c-2.84,3.83-8.16,4-11,4.07l-18.82,0h-3.89l-9,0h-4.27a11.33,11.33,0,0,1-2-.14h-.28a53.13,53.13,0,0,1-8.34-.36,15.32,15.32,0,0,1-8.77-4.75c-3.71-4.32-3.63-10.23-2.91-14.42a34.53,34.53,0,0,1,15.56-23.17c.57-.37,1.15-.72,1.75-1.06a2.25,2.25,0,0,1,2.22,3.92c-.59.33-1.17.68-1.73,1.05a30.06,30.06,0,0,0-13.36,20c-.46,2.65-.82,7.58,1.88,10.73a11,11,0,0,0,6.24,3.27,58,58,0,0,0,7.43.27,7.81,7.81,0,0,1,1.86.13c1.65,0,5.2,0,9.66,0h4.52l22.17,0c2.85-.09,6.06-.34,7.48-2.25a9,9,0,0,0,1.07-6.12,12.32,12.32,0,0,0-10.85-8.93,7.11,7.11,0,0,0-4.72,1.16,3.43,3.43,0,0,0-1.44,3.37,2.08,2.08,0,0,0,1,1.24,1.44,1.44,0,0,0,1.06.14,2.25,2.25,0,0,1,1.51,4.24,5.71,5.71,0,0,1-4.67-.41,6.6,6.6,0,0,1-3.29-4.06,7.88,7.88,0,0,1,3.09-8.11,11.63,11.63,0,0,1,7.68-2.06,16.42,16.42,0,0,1,8.67,3.17,17.35,17.35,0,0,1,2.1,1.82,16.24,16.24,0,0,1,4.19,7.33A11.45,11.45,0,0,1,215.62,171.84Z"/>
    <path class="cls-9" d="M228.53,63.63A121.46,121.46,0,0,0,87.91,217.75a8.62,8.62,0,1,0,4.47-1.24,6.23,6.23,0,0,0-1.06.07A117.85,117.85,0,0,1,204.08,64.77a119.24,119.24,0,0,1,23.73,2.39,1.8,1.8,0,0,0,.72-3.53ZM97.38,225.11a5,5,0,1,1-5-5A5,5,0,0,1,97.38,225.11Z"/>
    <g>
      <path class="cls-8" d="M106.14,157.74a.62.62,0,0,1-.19,0,.89.89,0,0,1-.68-1.07c.26-1.18.55-2.37.86-3.53a.88.88,0,0,1,1.1-.64.89.89,0,0,1,.64,1.09c-.3,1.15-.59,2.32-.85,3.47A.89.89,0,0,1,106.14,157.74Z"/>
      <path class="cls-8" d="M109,147.63a1,1,0,0,1-.3,0,.91.91,0,0,1-.56-1.15c.75-2.18,1.58-4.37,2.49-6.51a.9.9,0,0,1,1.65.71c-.88,2.09-1.7,4.24-2.43,6.38A.9.9,0,0,1,109,147.63Zm5.36-12.7a.85.85,0,0,1-.4-.1.9.9,0,0,1-.4-1.21c1-2.06,2.18-4.11,3.37-6.1a.9.9,0,0,1,1.55.93c-1.17,2-2.29,4-3.31,6A.9.9,0,0,1,114.36,134.93Zm7.1-11.83a.86.86,0,0,1-.51-.16.9.9,0,0,1-.22-1.26c1.32-1.89,2.73-3.76,4.19-5.56a.88.88,0,0,1,1.26-.13.89.89,0,0,1,.14,1.26c-1.43,1.77-2.82,3.61-4.12,5.47A.9.9,0,0,1,121.46,123.1Zm8.69-10.72a.91.91,0,0,1-.62-.24.9.9,0,0,1,0-1.27c1.58-1.69,3.23-3.35,4.92-4.93a.9.9,0,1,1,1.23,1.32c-1.66,1.55-3.29,3.17-4.84,4.83A.87.87,0,0,1,130.15,112.38Zm10.09-9.4a.9.9,0,0,1-.57-1.6c1.8-1.46,3.68-2.86,5.57-4.19a.9.9,0,0,1,1.25.23.89.89,0,0,1-.22,1.25c-1.86,1.3-3.7,2.68-5.46,4.11A.94.94,0,0,1,140.24,103Zm11.31-7.89a.91.91,0,0,1-.77-.44.9.9,0,0,1,.31-1.24c2-1.18,4-2.31,6.1-3.36a.91.91,0,0,1,1.21.4.9.9,0,0,1-.4,1.21c-2,1-4,2.13-6,3.3A.94.94,0,0,1,151.55,95.09Zm12.31-6.22a.91.91,0,0,1-.35-1.74c2.13-.89,4.33-1.72,6.52-2.46a.9.9,0,0,1,.57,1.71c-2.15.72-4.3,1.54-6.39,2.41A.85.85,0,0,1,163.86,88.87Zm13.07-4.42a.9.9,0,0,1-.23-1.77c2.24-.59,4.52-1.1,6.8-1.52a.91.91,0,0,1,1.05.72.9.9,0,0,1-.72,1.05c-2.24.42-4.48.92-6.68,1.49A.83.83,0,0,1,176.93,84.45Zm13.55-2.53a.9.9,0,0,1-.1-1.8c1.14-.13,2.28-.24,3.43-.33s2.34-.17,3.51-.23a.91.91,0,0,1,.94.86.89.89,0,0,1-.85.94c-1.15,0-2.31.13-3.46.22s-2.25.2-3.36.33Zm20.68-.22h-.09c-2.26-.21-4.55-.35-6.83-.4a.89.89,0,0,1-.87-.92.91.91,0,0,1,.92-.88c2.31.05,4.65.19,7,.41a.9.9,0,0,1-.08,1.8Z"/>
      <path class="cls-8" d="M221.59,83.26h-.19c-1.15-.24-2.33-.46-3.5-.66a.9.9,0,0,1,.3-1.78c1.19.21,2.39.43,3.57.67a.9.9,0,0,1-.18,1.78Z"/>
    </g>
    <g>
      <path class="cls-8" d="M301.52,161.26a.9.9,0,0,1-.88-.73c-.22-1.16-.47-2.33-.73-3.49a.9.9,0,0,1,1.75-.4c.27,1.18.52,2.38.75,3.56a.9.9,0,0,1-.72,1.05Z"/>
      <path class="cls-8" d="M271.71,251.6a.87.87,0,0,1-.66-.29.91.91,0,0,1,.05-1.27c1.72-1.58,3.4-3.24,5-4.94a.9.9,0,1,1,1.32,1.23c-1.63,1.73-3.34,3.43-5.09,5A.88.88,0,0,1,271.71,251.6Zm9.7-10.33a.89.89,0,0,1-.56-.2.91.91,0,0,1-.14-1.27c1.47-1.81,2.9-3.7,4.23-5.61a.9.9,0,0,1,1.25-.23.91.91,0,0,1,.23,1.26c-1.36,1.95-2.81,3.87-4.31,5.71A.91.91,0,0,1,281.41,241.27Zm8.11-11.63a.87.87,0,0,1-.46-.13.89.89,0,0,1-.31-1.23c1.19-2,2.32-4.08,3.37-6.17a.9.9,0,0,1,1.61.81c-1.07,2.12-2.22,4.24-3.43,6.28A.91.91,0,0,1,289.52,229.64ZM295.86,217a.83.83,0,0,1-.34-.07.91.91,0,0,1-.49-1.18c.88-2.15,1.7-4.37,2.43-6.59a.9.9,0,0,1,1.14-.57.89.89,0,0,1,.57,1.13c-.74,2.27-1.57,4.53-2.48,6.72A.9.9,0,0,1,295.86,217Zm4.43-13.47-.22,0a.9.9,0,0,1-.65-1.09c.56-2.27,1.05-4.58,1.45-6.88a.9.9,0,0,1,1-.73.91.91,0,0,1,.74,1c-.41,2.34-.91,4.7-1.49,7A.9.9,0,0,1,300.29,203.49Zm2.44-14h-.09a.9.9,0,0,1-.81-1c.24-2.33.39-4.69.46-7a.9.9,0,0,1,.93-.87.89.89,0,0,1,.87.92c-.07,2.37-.23,4.77-.47,7.14A.88.88,0,0,1,302.73,189.51Zm.42-14.17a.89.89,0,0,1-.9-.86c-.1-2.33-.28-4.69-.55-7a.9.9,0,1,1,1.79-.21c.27,2.36.46,4.76.56,7.14a.89.89,0,0,1-.86.93Z"/>
      <path class="cls-8" d="M263.48,258.41a.91.91,0,0,1-.72-.36.9.9,0,0,1,.19-1.26c.94-.7,1.89-1.43,2.82-2.17a.9.9,0,1,1,1.13,1.4c-.95.76-1.92,1.5-2.88,2.21A.9.9,0,0,1,263.48,258.41Z"/>
    </g>
    <path class="cls-8" d="M103.79,177.33a7.7,7.7,0,1,1,7.7-7.7A7.71,7.71,0,0,1,103.79,177.33Zm0-13.59a5.9,5.9,0,1,0,5.9,5.89A5.9,5.9,0,0,0,103.79,163.74Z"/>
    <path class="cls-10" d="M330.64,159.5a8.6,8.6,0,1,0-9.7,8.52,116.86,116.86,0,0,1,.89,14.5A118.37,118.37,0,0,1,264.1,283.85a1.8,1.8,0,0,0,.92,3.35,1.76,1.76,0,0,0,.91-.25,121.34,121.34,0,0,0,59.5-104.43,119.6,119.6,0,0,0-.9-14.79A8.62,8.62,0,0,0,330.64,159.5Zm-8.6,5a5,5,0,1,1,5-5A5,5,0,0,1,322,164.49Z"/>
    <path class="cls-8" d="M180.28,177.73q-.1,1.22-.27,2.43a2.25,2.25,0,0,1-2.22,2h-.3a2.27,2.27,0,0,1-2-2.53c.09-.61.16-1.24.22-1.85a66.81,66.81,0,0,0,.31-9.27c-.08-2-.3-4-1.37-5.19a5,5,0,0,0-4.12-1.34,5.92,5.92,0,0,0-3.65,1.53,3.55,3.55,0,0,0-1.08,3.07,2.29,2.29,0,0,0,1.8,1.82,1.52,1.52,0,0,0,1.57-1.07,2.25,2.25,0,1,1,4.46.57,6,6,0,0,1-6.53,5,6.82,6.82,0,0,1-5.72-5.45,8.09,8.09,0,0,1,2.34-7.13,10.33,10.33,0,0,1,6.44-2.8,9.46,9.46,0,0,1,7.85,2.81c2,2.27,2.4,5.33,2.51,8A71.05,71.05,0,0,1,180.28,177.73Z"/>
    <path class="cls-8" d="M210.19,136.28a7.65,7.65,0,0,1-4,5.87,8.68,8.68,0,0,1-4.27,1.1,8.92,8.92,0,0,1-6.22-2.48c-3.17-3.11-3.32-7.71-3.22-11.78,0-2.15,0-3.86,0-5.68,0-1.31,0-2.64,0-4.13q0-.84,0-1.74a2.29,2.29,0,0,1,2.3-2.2,2.24,2.24,0,0,1,2.19,2.31c0,.42,0,.83,0,1.21,0,1.61,0,3,0,4.47,0,1.78.06,3.62,0,5.87-.08,3.27,0,6.61,1.87,8.46a4.52,4.52,0,0,0,5.13.67,3.16,3.16,0,0,0,1.68-2.33,1.75,1.75,0,0,0-1-1.76,2.25,2.25,0,1,1,1.4-4.27A6.27,6.27,0,0,1,210.19,136.28Z"/>
    <line class="cls-11" x1="162.22" y1="323.74" x2="157.34" y2="353.25"/>
    <g>
      <path class="cls-7" d="M253.38,165.82a1.2,1.2,0,0,0-.08.6c.14,1.67.16,3.34-.75,4.1a4.9,4.9,0,0,1-3,.65l-3.58.07a45.18,45.18,0,0,0-13-28.1,36.34,36.34,0,0,1,8.51-1.43h.36a6.22,6.22,0,0,1,2,.36,8.63,8.63,0,0,1,2.95,1.73l.46.43c2.77,2.73,5.86,8.67,6.17,21.59Z"/>
      <path class="cls-6" d="M256.09,167.08a1.32,1.32,0,0,1,0,.28,1.35,1.35,0,0,1-1.31,1.07h0a1.36,1.36,0,0,1-1.35-1.34c0-.43,0-.85,0-1.27h0c-.31-12.92-3.4-18.86-6.17-21.59l-.46-.43a8.63,8.63,0,0,0-2.95-1.73,6.22,6.22,0,0,0-2-.36h-.36a1.34,1.34,0,0,1-1.34-1.18,1.36,1.36,0,0,1,1.13-1.5h0a7.65,7.65,0,0,1,2.37.19,11,11,0,0,1,4.63,2.35,2.12,2.12,0,0,1,.24.2C253.44,146.07,256,154.58,256.09,167.08Z"/>
    </g>
    <g>
      <path class="cls-12" d="M243.66,139.21a7.65,7.65,0,0,0-2.37-.19h0a38.68,38.68,0,0,0-32.17,20.05,16.42,16.42,0,0,0-8.67-3.17,11.63,11.63,0,0,0-7.68,2.06,7.88,7.88,0,0,0-3.09,8.11,6.6,6.6,0,0,0,3.29,4.06,5.71,5.71,0,0,0,4.67.41,2.25,2.25,0,0,0-1.51-4.24,1.44,1.44,0,0,1-1.06-.14,2.08,2.08,0,0,1-1-1.24,3.43,3.43,0,0,1,1.44-3.37,7.11,7.11,0,0,1,4.72-1.16A12.32,12.32,0,0,1,211,169.33a9,9,0,0,1-1.07,6.12c-1.42,1.91-4.63,2.16-7.48,2.25l-22.17,0a71.05,71.05,0,0,0,.29-9.45c-.11-2.7-.49-5.76-2.51-8a9.46,9.46,0,0,0-7.85-2.81,10.33,10.33,0,0,0-6.44,2.8,8.09,8.09,0,0,0-2.34,7.13,6.82,6.82,0,0,0,5.72,5.45,6,6,0,0,0,6.53-5,2.25,2.25,0,1,0-4.46-.57,1.52,1.52,0,0,1-1.57,1.07,2.29,2.29,0,0,1-1.8-1.82,3.55,3.55,0,0,1,1.08-3.07,5.92,5.92,0,0,1,3.65-1.53,5,5,0,0,1,4.12,1.34c1.07,1.2,1.29,3.2,1.37,5.19a66.81,66.81,0,0,1-.31,9.27c-4.46,0-8,0-9.66,0a7.81,7.81,0,0,0-1.86-.13,58,58,0,0,1-7.43-.27,11,11,0,0,1-6.24-3.27c-2.7-3.15-2.34-8.08-1.88-10.73a30.06,30.06,0,0,1,13.36-20,12.68,12.68,0,0,0,6.52,4,11.64,11.64,0,0,0,2.82.34,12.49,12.49,0,0,0,6.87-2.05,10.05,10.05,0,0,0,4.19-5.38,7.75,7.75,0,0,0-1.38-7.22,6.47,6.47,0,0,0-7.59-1.7,2.25,2.25,0,1,0,2,4,2,2,0,0,1,2.19.6,3.26,3.26,0,0,1,.49,3,5.61,5.61,0,0,1-2.36,2.93,7.83,7.83,0,0,1-11.15-2.67c-1.58-2.79-1.33-6.79.61-10,2.27-3.67,6.08-5.71,8.89-6.77a50.93,50.93,0,0,1,12-2.53q3.27-.41,6.32-.72c0,1.49,0,2.82,0,4.13,0,1.82.06,3.53,0,5.68-.1,4.07,0,8.67,3.22,11.78a8.92,8.92,0,0,0,6.22,2.48,8.68,8.68,0,0,0,4.27-1.1,7.65,7.65,0,0,0,4-5.87,6.27,6.27,0,0,0-4.07-6.41,2.25,2.25,0,1,0-1.4,4.27,1.75,1.75,0,0,1,1,1.76,3.16,3.16,0,0,1-1.68,2.33,4.52,4.52,0,0,1-5.13-.67c-1.88-1.85-1.95-5.19-1.87-8.46,0-2.25,0-4.09,0-5.87,0-1.46,0-2.86,0-4.47,5.73-.48,10.95-.73,16-.74l.31,0c3.68,0,16.65.75,24.42,8.29A20.21,20.21,0,0,1,243.66,139.21Z"/>
      <path class="cls-8" d="M248.29,141.56a11,11,0,0,0-4.63-2.35,20.21,20.21,0,0,0-6-12.92c-7.77-7.54-20.74-8.26-24.42-8.29l-.31,0c-5,0-10.24.26-16,.74q-2.19.18-4.5.42-3,.31-6.32.72a50.93,50.93,0,0,0-12,2.53c-2.81,1.06-6.62,3.1-8.89,6.77-1.94,3.16-2.19,7.16-.61,10a7.83,7.83,0,0,0,11.15,2.67,5.61,5.61,0,0,0,2.36-2.93,3.26,3.26,0,0,0-.49-3,2,2,0,0,0-2.19-.6,2.25,2.25,0,1,1-2-4,6.47,6.47,0,0,1,7.59,1.7,7.75,7.75,0,0,1,1.38,7.22,10.05,10.05,0,0,1-4.19,5.38,12.49,12.49,0,0,1-6.87,2.05,11.64,11.64,0,0,1-2.82-.34,12.68,12.68,0,0,1-6.52-4,12.24,12.24,0,0,1-1.34-1.9,12.09,12.09,0,0,1-.9-2,14.92,14.92,0,0,1,1.6-12.51c2.93-4.75,7.66-7.31,11.12-8.64a55.36,55.36,0,0,1,13.07-2.78,230.93,230.93,0,0,1,26.22-1.9,1.09,1.09,0,0,1,.26,0c.73,0,18.24-.6,28.71,9.54C245.66,127.75,248.19,134,248.29,141.56Z"/>
    </g>
    <path class="cls-13" d="M314.43,101.07v13.19a4.53,4.53,0,0,1-4.53,4.53H290v19.93a4.53,4.53,0,0,1-4.53,4.53h-13.2a4.53,4.53,0,0,1-4.53-4.53V118.79H247.8a4.53,4.53,0,0,1-4.53-4.53V101.07a4.53,4.53,0,0,1,4.53-4.53h19.92V76.61a4.53,4.53,0,0,1,4.53-4.53h13.2A4.53,4.53,0,0,1,290,76.61V96.54H309.9A4.53,4.53,0,0,1,314.43,101.07Z"/>
    <path class="cls-6" d="M297.87,346.47a1.11,1.11,0,0,1-1-1L290,324.2l-2.79,14a1.13,1.13,0,0,1-1,1l-16.49.11H228.8a1.22,1.22,0,0,1-1-1.35V173.56a1.22,1.22,0,0,1,1-1.35c.57,0,1.93.6,1.93,1.35V336.63h39l15.7-.11,3.52-17.66a1,1,0,0,1,2-.05l6.91,21.27,5.91-21.21c.11-.62.51-1.06,1-1a1.16,1.16,0,0,1,1,1.1l4.13,19.11,6.35-25.72a1,1,0,0,1,2,0l6.35,25.72L328.65,319a1.16,1.16,0,0,1,1-1.1c.51,0,.91.4,1,1L336.54,340l6.4-20.57a1.13,1.13,0,0,1,1-1,1.1,1.1,0,0,1,1,1l4,17.17h18.31a1.4,1.4,0,0,1,0,2.7H348.18a1.12,1.12,0,0,1-1-1L344,324.51l-6.49,21a1.12,1.12,0,0,1-1,1h0a1.13,1.13,0,0,1-1-1l-5.68-20-4.06,18.67a1.18,1.18,0,0,1-1,1.1,1.1,1.1,0,0,1-1-1l-6.57-26.68-6.57,26.68a1.13,1.13,0,0,1-1,1,1.17,1.17,0,0,1-1-1.1l-4.06-18.67-5.68,20a1.14,1.14,0,0,1-1,1Z"/>
    <path class="cls-14" d="M203.37,28.43c-84.75,0-153.69,68.94-153.69,153.68A152.48,152.48,0,0,0,66.46,252l2.31-1.42a149.87,149.87,0,0,1-16.39-68.51c0-83.25,67.73-151,151-151s151,67.73,151,151a150,150,0,0,1-11.81,58.64l2.49,1a152.59,152.59,0,0,0,12-59.68C357.05,97.37,288.11,28.43,203.37,28.43Z"/>
    <path class="cls-15" d="M323.41,255h2.08c.27,0,.4.08.45.34a13.63,13.63,0,0,0,1.52,3.66c.14.25.11.39-.1.61l-1.45,1.44a16.83,16.83,0,0,0,3.95,3.95l.15-.13,1.29-1.29c.24-.24.38-.26.66-.09A13,13,0,0,0,335.5,265c.36.1.43.19.43.58v2a14.61,14.61,0,0,0,4,.2,12.34,12.34,0,0,0,1.59-.2v-.24c0-.6,0-1.2,0-1.8,0-.32.08-.42.38-.5a13,13,0,0,0,3.59-1.49.44.44,0,0,1,.64.08l1.44,1.45a17.15,17.15,0,0,0,4-4l-1.4-1.39c-.29-.29-.3-.4-.1-.75a13,13,0,0,0,1.42-3.43c.11-.43.19-.49.63-.49H354l.08,0a11.37,11.37,0,0,0,.16-1.13,15.42,15.42,0,0,0-.16-4.44h-2c-.35,0-.45-.08-.53-.41a13.61,13.61,0,0,0-1.48-3.57c-.17-.27-.14-.41.09-.65l1.44-1.43a17.2,17.2,0,0,0-4-4l-1.35,1.37c-.34.34-.42.35-.83.11a13,13,0,0,0-3.38-1.39c-.44-.11-.49-.19-.5-.63V237s0,0,0-.07a15.39,15.39,0,0,0-5.58,0v1.88c0,.54,0,.58-.55.72a13.06,13.06,0,0,0-3.37,1.4c-.35.21-.45.19-.75-.1l-1.39-1.4a17.24,17.24,0,0,0-4,4l.34.31c.37.39.76.76,1.14,1.15a.39.39,0,0,1,.08.57,13.62,13.62,0,0,0-1.52,3.68c-.05.25-.18.34-.46.34h-2.07A15.5,15.5,0,0,0,323.41,255Zm6.4-2.8a8.92,8.92,0,1,1,9.51,8.9,5.68,5.68,0,0,1-.59,0A8.92,8.92,0,0,1,329.81,252.22Z"/>
    <path class="cls-16" d="M371.89,121.29l-6.38,8.21v.13l10.13-1.31v4.46l-10.13-1.18v.13l6.44,7.89L367.72,142l-4-9.2h-.14l-4.36,9.27-3.83-2.37,6.38-8v-.13l-9.94,1.24v-4.46l9.87,1.25v-.14l-6.31-8,4.1-2.3,4.16,9.13h.13l4.1-9.2Z"/>
    <path class="cls-17" d="M380.4,124.42c-4.06,0-4.06,6.3,0,6.3S384.46,124.42,380.4,124.42Z"/>
    <path class="cls-7" d="M364.86,146.74c-5.79,0-5.8,9,0,9S370.66,146.74,364.86,146.74Z"/>
    <path class="cls-18" d="M45.3,238.31l-6.38,8.21v.13l10.13-1.31v4.47l-10.13-1.19v.13l6.44,7.89L41.13,259l-4-9.19H37l-4.37,9.26-3.83-2.37,6.38-8v-.13l-9.93,1.25v-4.47l9.87,1.25v-.13l-6.32-8,4.1-2.3L37,245.27h.13l4.1-9.19Z"/>
    <g>
      <path class="cls-19" d="M53.4,252.87c-4,0-4.06,6.3,0,6.3S57.46,252.87,53.4,252.87Z"/>
      <path class="cls-20" d="M53.4,252.87c4.06,0,4.05,6.3,0,6.3s-4-6.3,0-6.3m0-2a5,5,0,0,0-5,5.15,5.3,5.3,0,0,0,1.24,3.47,4.89,4.89,0,0,0,3.8,1.68,5.15,5.15,0,0,0,0-10.3Z"/>
    </g>
    <path class="cls-7" d="M38.27,263.76c-5.79,0-5.8,9,0,9S44.07,263.76,38.27,263.76Z"/>
    <path class="cls-21" d="M286.27,378l1.33-6.1,0-.07-5.15,3.33-1.15-2.42,5.79-2,0-.07-5.53-2.6,1.68-2.38,4.56,4,.07,0,0-6.14,2.68.29-1.38,6,0,.07,5.06-3.24,1.16,2.42-5.67,1.87,0,.07,5.49,2.71-1.62,2.3-4.62-3.87-.07,0,.16,6Z"/>
    <g>
      <path class="cls-22" d="M275.26,370.49c3.66-1.74,1-7.43-2.71-5.69S271.6,372.24,275.26,370.49Z"/>
      <path class="cls-20" d="M273.93,364.48c2.88,0,4.51,4.49,1.33,6a3.15,3.15,0,0,1-1.37.33c-2.89,0-4.52-4.5-1.34-6a3.29,3.29,0,0,1,1.38-.32m0-2a5.13,5.13,0,0,0-2.24.52,4.88,4.88,0,0,0-2.74,5.64,5,5,0,0,0,7.17,3.66,4.89,4.89,0,0,0,2.75-5.65,5.23,5.23,0,0,0-4.94-4.17Z"/>
    </g>
    <path class="cls-7" d="M282.8,361.49c5.23-2.49,1.36-10.62-3.87-8.12S277.56,364,282.8,361.49Z"/>
    <path class="cls-23" d="M304.58,274.06l-3.67,4.53v.07l5.82-.72v2.46l-5.82-.65v.07l3.7,4.35-2.43,1.3-2.31-5.07h-.08l-2.51,5.11-2.2-1.31,3.67-4.42v-.07l-5.71.69v-2.46l5.67.68v-.07l-3.63-4.42,2.36-1.27,2.39,5h.08l2.35-5.07Z"/>
    <path class="cls-8" d="M312,271.16c-4.06,0-4.06,6.3,0,6.3S316.1,271.16,312,271.16Z"/>
    <path class="cls-7" d="M305.8,260.29c-5.79,0-5.8,9,0,9S311.6,260.29,305.8,260.29Z"/>
    <path class="cls-24" d="M248.7,245.81a82.87,82.87,0,0,0,39.6-70.45c0-10.66-.62-19.32-3.21-27.5h-3.77c2.75,8,3.38,16.49,3.38,27.5a79.2,79.2,0,0,1-38.87,68,1.79,1.79,0,0,0-.86,1.79L262.12,371h-99.8l12.77-85.82a1.79,1.79,0,0,0-1.74-2.06l-28.14-.57a11.58,11.58,0,0,1-11.46-11.42l-.63-41.78a1.81,1.81,0,0,0-1.8-1.77h-9.53a8.83,8.83,0,0,1-8-12.59l13.62-29.07a1.74,1.74,0,0,0,.16-1,82.75,82.75,0,0,1-.56-9.54,78.93,78.93,0,0,1,78.84-78.84,77.87,77.87,0,0,1,31.67,6.64V99.23a81.48,81.48,0,0,0-31.67-6.31,82.53,82.53,0,0,0-82.44,82.44,85.79,85.79,0,0,0,.53,9.45l-13.41,28.61a12.42,12.42,0,0,0,11.25,17.72h7.76l.48,32.27.12,7.73a15.17,15.17,0,0,0,8.09,13.21,11.33,11.33,0,0,0,1.06.5,14.84,14.84,0,0,0,5.84,1.26l26.09.52-2.47,16.64-3.48,23.38h0l-3.65,24.51-2.67,18-.51,3.38a1.85,1.85,0,0,0,.42,1.44,1.79,1.79,0,0,0,1.37.62h104a1.8,1.8,0,0,0,1.78-2Z"/>
  </g>
</svg>
