<svg xmlns="http://www.w3.org/2000/svg" xmlns:xlink="http://www.w3.org/1999/xlink" width="500" height="500" viewBox="0 0 500 500">
  <defs>
    <style>
      .cls-1, .cls-10, .cls-13, .cls-26 {
        fill: none;
      }

      .cls-2 {
        fill: #5fa29c;
      }

      .cls-3 {
        isolation: isolate;
      }

      .cls-4 {
        fill: #a6dfe2;
      }

      .cls-5 {
        fill: #66aaad;
      }

      .cls-6 {
        fill: #d6a92b;
      }

      .cls-7 {
        fill: #fff;
      }

      .cls-8 {
        fill: #d58136;
      }

      .cls-9 {
        clip-path: url(#clip-path);
      }

      .cls-10 {
        stroke: #77bcb4;
        stroke-width: 1.14px;
      }

      .cls-10, .cls-13, .cls-26 {
        stroke-miterlimit: 10;
      }

      .cls-11 {
        fill: #4e938b;
      }

      .cls-12 {
        clip-path: url(#clip-path-2);
      }

      .cls-13 {
        stroke: #72bfbb;
        stroke-width: 1.22px;
      }

      .cls-14 {
        fill: #243f5e;
      }

      .cls-15 {
        clip-path: url(#clip-path-3);
      }

      .cls-16 {
        fill: #ffdb69;
      }

      .cls-17, .cls-25 {
        fill: #f0d054;
      }

      .cls-17, .cls-20, .cls-23, .cls-29 {
        mix-blend-mode: multiply;
      }

      .cls-18 {
        fill: #599992;
      }

      .cls-19, .cls-23 {
        fill: #cde4ed;
      }

      .cls-21 {
        fill: #72bfbb;
      }

      .cls-22 {
        fill: #a1815d;
      }

      .cls-24 {
        fill: #b0dee3;
      }

      .cls-26 {
        stroke: #fff;
        stroke-width: 1.04px;
      }

      .cls-27 {
        fill: #649de1;
      }

      .cls-28 {
        fill: #87c0ec;
      }

      .cls-29 {
        fill: #5e749c;
        opacity: 0.2;
      }

      .cls-30 {
        fill: #ecb7a1;
      }

      .cls-31 {
        fill: #1b2841;
      }

      .cls-32 {
        fill: #2c635b;
      }

      .cls-33 {
        fill: #37756e;
      }

      .cls-34 {
        fill: #e8e8e8;
      }
    </style>
    <clipPath id="clip-path">
      <path class="cls-1" d="M151.42,389.65c24.29,21,66.86,11.42,66.86,11.42s3.21-43.51-21.08-64.47-66.86-11.43-66.86-11.43S127.14,368.69,151.42,389.65Z"/>
    </clipPath>
    <clipPath id="clip-path-2">
      <path class="cls-1" d="M386.29,343.81c-20,24.69-62.21,23.65-62.21,23.65s-9.68-41.06,10.36-65.74,62.22-23.65,62.22-23.65S406.33,319.13,386.29,343.81Z"/>
    </clipPath>
    <clipPath id="clip-path-3">
      <path class="cls-2" d="M356.91,347.85c-20,7.83-27.65,36-27.65,36S354,399.34,374,391.52s27.65-36,27.65-36S376.9,340,356.91,347.85Z"/>
    </clipPath>
  </defs>
  <g class="cls-3">
    <g id="OBJECTS">
      <g>
        <g>
          <path class="cls-4" d="M129.41,118.8H66.83c-9.44,0-9.43-10.84-1.27-13.7,7.89-2.77,14.82,3.67,14.82,3.67S82.66,82.4,104.2,85.49c17,2.44,16,19.4,16,19.4s3.49-7,12.66-4.34C142.41,103.31,141.38,118.8,129.41,118.8Z"/>
          <path class="cls-4" d="M333.74,58.24h-43.1c-6.5,0-6.58-7.39-.81-8.87a12,12,0,0,1,10.15,2s1.56-18.16,16.4-16c11.7,1.68,11,13.36,11,13.36s2.4-4.8,8.71-3C342.7,47.57,342,58.24,333.74,58.24Z"/>
          <path class="cls-4" d="M431,112.26H348.49c-12.44,0-12.59-14.14-1.55-17A23,23,0,0,1,366.36,99s3-34.77,31.4-30.69c22.39,3.22,21.09,25.57,21.09,25.57s4.61-9.2,16.69-5.72C448.14,91.83,446.77,112.26,431,112.26Z"/>
        </g>
        <g>
          <g>
            <ellipse class="cls-5" cx="122.23" cy="447.44" rx="45.93" ry="9.53"/>
            <ellipse class="cls-5" cx="236.84" cy="460.94" rx="180.87" ry="12.95"/>
          </g>
          <g>
            <ellipse class="cls-6" cx="255.58" cy="133.41" rx="106.3" ry="21.38"/>
            <g>
              <path class="cls-2" d="M238.85,110.28A13.8,13.8,0,0,0,236.21,97l24,3.42-3.42,24a13.84,13.84,0,1,1-2.59,18.18l-3.42,24-54.25-7.72a12.15,12.15,0,0,1-10.31-13.74L194,90.94l24.16,3.43a13.83,13.83,0,1,0,20.72,15.91Z"/>
              <path class="cls-7" d="M270.28,121.77a13.85,13.85,0,0,0-13.34,2.64l3.42-24,24.05,3.42a13.84,13.84,0,1,1,18.18,2.58l24,3.43-7.72,54.24a12.15,12.15,0,0,1-13.73,10.32l-54.25-7.72,3.44-24.16a13.84,13.84,0,1,0,15.91-20.73Z"/>
              <path class="cls-7" d="M250.35,78.84a13.83,13.83,0,0,0,13.33-2.64l-3.42,24-24-3.42A13.84,13.84,0,1,1,218,94.22l-24-3.43,7.72-54.24a12.15,12.15,0,0,1,13.74-10.32L269.69,34l-3.44,24.16a13.84,13.84,0,1,0-15.9,20.73Z"/>
            </g>
            <polygon class="cls-8" points="278.78 150.23 282.25 163.4 326.63 158.82 322.73 139.55 278.78 150.23"/>
            <g>
              <g>
                <g>
                  <path class="cls-2" d="M151.42,389.65c24.29,21,66.86,11.42,66.86,11.42s3.21-43.51-21.08-64.47-66.86-11.43-66.86-11.43S127.14,368.69,151.42,389.65Z"/>
                  <g class="cls-9">
                    <g>
                      <line class="cls-10" x1="220.52" y1="403.15" x2="127.96" y2="323.27"/>
                      <line class="cls-10" x1="202.94" y1="339.87" x2="200.11" y2="385.54"/>
                      <line class="cls-10" x1="170.75" y1="312.08" x2="167.92" y2="357.76"/>
                      <line class="cls-10" x1="183.16" y1="370.91" x2="136.63" y2="372.81"/>
                      <line class="cls-10" x1="161.68" y1="352.22" x2="130.23" y2="353.07"/>
                    </g>
                  </g>
                </g>
                <g>
                  <path class="cls-11" d="M386.29,343.81c-20,24.69-62.21,23.65-62.21,23.65s-9.68-41.06,10.36-65.74,62.22-23.65,62.22-23.65S406.33,319.13,386.29,343.81Z"/>
                  <g class="cls-12">
                    <g>
                      <line class="cls-13" x1="322.26" y1="369.88" x2="398.65" y2="275.79"/>
                      <line class="cls-13" x1="329.45" y1="305.93" x2="339.1" y2="349.13"/>
                      <line class="cls-13" x1="356.02" y1="273.21" x2="365.67" y2="316.41"/>
                      <line class="cls-13" x1="353.09" y1="331.9" x2="397.88" y2="324.88"/>
                      <line class="cls-13" x1="370.8" y1="309.92" x2="401" y2="304.76"/>
                    </g>
                  </g>
                </g>
                <g>
                  <path class="cls-14" d="M356.91,347.85c-20,7.83-27.65,36-27.65,36S354,399.34,374,391.52s27.65-36,27.65-36S376.9,340,356.91,347.85Z"/>
                  <g>
                    <path class="cls-2" d="M356.91,347.85c-20,7.83-27.65,36-27.65,36S354,399.34,374,391.52s27.65-36,27.65-36S376.9,340,356.91,347.85Z"/>
                    <g class="cls-15">
                      <g>
                        <line class="cls-10" x1="327.33" y1="384.53" x2="403.53" y2="354.69"/>
                        <line class="cls-10" x1="370.28" y1="393.89" x2="344.13" y2="377.95"/>
                        <line class="cls-10" x1="396.78" y1="383.52" x2="370.63" y2="367.57"/>
                        <line class="cls-10" x1="358.08" y1="372.49" x2="371.49" y2="344.36"/>
                        <line class="cls-10" x1="375.86" y1="365.61" x2="385.18" y2="346.73"/>
                      </g>
                    </g>
                  </g>
                </g>
              </g>
              <g>
                <path class="cls-16" d="M333.35,306.14l19,140.36H194.13s5.66-35.39,9.64-65.44c1.66-12.61,3-24.28,3.57-32,0-.11,0-.23,0-.34-32.21-2.3-43.72-8.06-43.72-8.06V267l-33.36-9.21s15.53-48.89,14.95-60.4c0-10.93,5.18-63.38,5.18-63.38,14.92,29,219.08,26.68,209.41-4.85C408.36,206.2,346.22,292.33,333.35,306.14Z"/>
                <path class="cls-2" d="M308.89,203.09a48.23,48.23,0,0,0,5.29-.88c1.73-.37,3.42-.88,5.19-1.3a24.39,24.39,0,0,1,2.78-.56,7.7,7.7,0,0,1,3.26.2,5.72,5.72,0,0,1,3,2.17,9.74,9.74,0,0,1,1.4,2.92,45.46,45.46,0,0,1,1.41,11.13,84,84,0,0,1-.45,11,67.55,67.55,0,0,1-2,10.86,32,32,0,0,1-4.87,10.16A28.27,28.27,0,0,1,320.1,253c-.67.65-1.41,1.22-2.12,1.81s-1.46,1.13-2.25,1.61a50.17,50.17,0,0,1-9.71,4.88,82.15,82.15,0,0,0,8.57-6.38,34.08,34.08,0,0,0,6.7-7.83,27.45,27.45,0,0,0,2.22-4.56,35,35,0,0,0,1.52-4.85c.21-.83.34-1.68.51-2.52s.28-1.72.41-2.59c.26-1.73.46-3.46.62-5.21a99,99,0,0,0,.43-10.47c0-1.75-.08-3.5-.2-5.25a28.45,28.45,0,0,0-.58-5,8.22,8.22,0,0,0-.72-2,2.35,2.35,0,0,0-1.15-1.12,5,5,0,0,0-2-.35,25,25,0,0,0-2.55.1c-1.76.17-3.6.3-5.43.32A26.69,26.69,0,0,1,308.89,203.09Z"/>
                <path class="cls-2" d="M180.32,200.29a83,83,0,0,0,10.9,1,38,38,0,0,0,10.29-1.12,26.37,26.37,0,0,0,9.13-4.33,44.57,44.57,0,0,0,7.65-7.59,21.37,21.37,0,0,1-15.71,16,26.91,26.91,0,0,1-11.7.32A27.3,27.3,0,0,1,180.32,200.29Z"/>
                <path class="cls-2" d="M163.64,307.29a68.83,68.83,0,0,0,15,2.47,48.4,48.4,0,0,0,14.64-1.47,44.81,44.81,0,0,0,13.33-6.1,78.21,78.21,0,0,0,11.64-9.86,39.11,39.11,0,0,1-9.62,12.51,36.07,36.07,0,0,1-14.26,7.54,38.21,38.21,0,0,1-16.09.68A37,37,0,0,1,163.64,307.29Z"/>
                <path class="cls-17" d="M296.87,316.22c-20.94,46.87-93.1,64.84-93.1,64.84,1.66-12.61,3-24.28,3.57-32C252.92,348.59,281.83,328.89,296.87,316.22Z"/>
                <path class="cls-2" d="M207.36,348.71A238.83,238.83,0,0,0,240,343.53c5.33-1.28,10.62-2.7,15.78-4.48a120.44,120.44,0,0,0,15.11-6.15c9.73-4.74,18.79-11,25.84-19.15l.68-.75.62-.8,1.24-1.6a18.9,18.9,0,0,0,2.17-3.24,19.89,19.89,0,0,0,1.48-3.6c.37-1.23.66-2.65,1-4,1.37-5.38,2.73-10.75,4.28-16.09-.63,5.52-1.44,11-2.24,16.5-.22,1.38-.39,2.7-.69,4.16a21.79,21.79,0,0,1-1.33,4.2,19.16,19.16,0,0,1-2.18,3.81l-1.21,1.76-.6.88-.67.83c-6.95,9.05-16.4,16-26.55,20.87A115.44,115.44,0,0,1,257,342.86a134,134,0,0,1-16.35,3.9A139.06,139.06,0,0,1,207.36,348.71Z"/>
              </g>
            </g>
          </g>
          <g>
            <g>
              <g>
                <path class="cls-18" d="M222.37,453c0,2.18,2.3,3.93,5.12,3.93h151.9a.73.73,0,0,1,.81.62V462a.74.74,0,0,1-.81.61H212.24c-2.84,0-5.14-1.76-5.14-3.93V430.18c0-2.17,2.3-3.92,5.14-3.92H379.39c.45,0,.81.27.81.61v4.39c0,.33-.36.6-.81.6H227.49c-2.82,0-5.12,1.77-5.12,3.94Z"/>
                <path class="cls-19" d="M220.89,431.87H373.61a0,0,0,0,1,0,0V457a0,0,0,0,1,0,0H220.89a5.39,5.39,0,0,1-5.39-5.39V437.26A5.39,5.39,0,0,1,220.89,431.87Z"/>
                <g class="cls-20">
                  <rect class="cls-19" x="215.5" y="448.36" width="71.25" height="1.81"/>
                </g>
                <g class="cls-20">
                  <rect class="cls-19" x="215.5" y="443.38" width="117.26" height="1.81"/>
                </g>
                <g class="cls-20">
                  <rect class="cls-19" x="215.5" y="438.82" width="148.06" height="1.81"/>
                </g>
                <g class="cls-20">
                  <rect class="cls-19" x="232.28" y="433.96" width="117.52" height="1.81"/>
                </g>
                <g class="cls-20">
                  <rect class="cls-19" x="312.51" y="448.36" width="40.78" height="1.81"/>
                </g>
              </g>
              <g>
                <path class="cls-21" d="M384.8,407.41V424c0,1.26-1.3,2.29-3.95,2.29H209.59c-.42,0-.75-.16-.75-.36v-2.54c0-.2.33-.36.75-.36h157c2.65,0,4.79-1,4.79-2.29v-10c0-1.27-2.14-2.3-4.79-2.3h-157c-.42,0-.75-.16-.75-.35v-2.55c0-.19.33-.36.75-.36H380.85C383.5,405.12,384.8,406.15,384.8,407.41Z"/>
                <path class="cls-19" d="M381.12,413v5.46a4.63,4.63,0,0,1-4.57,4.58H215V408.38H376.55A4.56,4.56,0,0,1,381,412,4.15,4.15,0,0,1,381.12,413Z"/>
                <g class="cls-20">
                  <rect class="cls-19" x="312.95" y="411.97" width="68.18" height="1.81"/>
                </g>
                <g class="cls-20">
                  <rect class="cls-19" x="268.92" y="414.87" width="112.21" height="1.81"/>
                </g>
                <g class="cls-20">
                  <rect class="cls-19" x="224.63" y="417.52" width="156.5" height="1.81"/>
                </g>
                <g class="cls-20">
                  <rect class="cls-19" x="237.79" y="420.35" width="127.28" height="1.81"/>
                </g>
                <g class="cls-20">
                  <rect class="cls-19" x="234.45" y="411.97" width="53.85" height="1.81"/>
                </g>
              </g>
            </g>
            <g>
              <g>
                <polygon class="cls-22" points="188.46 396.13 188.48 416.62 187.43 414.65 186.38 416.62 185.33 414.65 184.29 416.62 183.24 414.65 182.19 416.63 181.14 414.66 180.09 416.63 180.07 396.14 188.46 396.13"/>
                <g>
                  <path class="cls-23" d="M221.81,462.58h-9.57c-2.84,0-5.14-1.76-5.14-3.93V430.18c0-2.17,2.3-3.92,5.14-3.92h-2.65c-.42,0-.75-.16-.75-.36v-2.54c0-.2.33-.36.75-.36H215V408.38h-5.41c-.42,0-.75-.16-.75-.35v-2.55c0-.19.33-.36.75-.36h12.15v3.26l0,14.62v39.58Z"/>
                  <polygon class="cls-24" points="215.53 465.41 168.13 465.46 159.34 465.47 159.29 416.11 159.27 397.56 215.44 397.5 215.53 465.41"/>
                  <rect class="cls-23" x="159.28" y="397.53" width="56.18" height="12.28" transform="translate(-0.45 0.21) rotate(-0.06)"/>
                  <rect class="cls-24" x="157.88" y="396.14" width="58.03" height="12.28" transform="translate(-0.46 0.21) rotate(-0.07)"/>
                  <polygon class="cls-21" points="191.87 396.13 191.89 416.61 190.84 414.65 189.79 416.62 188.74 414.65 187.7 416.62 186.65 414.65 185.6 416.62 184.55 414.65 183.5 416.62 183.48 396.14 191.87 396.13"/>
                </g>
              </g>
              <g>
                <polygon class="cls-23" points="168.16 416.12 168.13 465.46 159.34 465.47 159.29 416.11 168.16 416.12"/>
                <g>
                  <path class="cls-25" d="M113.73,393.32c1.2-6.35,4.83-12.34,10.57-15.56a23.05,23.05,0,0,1,11-3.33,25.37,25.37,0,0,1,9.83,2,22.27,22.27,0,0,1,12.13,11.78,23.86,23.86,0,0,1,.75,14.14c-1,4.55-3.59,9.21-1.91,13.95.48,1.35,1.87,2.83,1.45,4.34-.49,1.8-2.56,2.37-4,3.14q-2.61,1.37-5.2,2.75c-1.24.66-3,2.07-4.54,1.5s-2-2.46-2.82-3.61c-2.28-3-6.28-4.31-9.8-5.18a24.19,24.19,0,0,1-10.8-5.53A21.83,21.83,0,0,1,113.73,393.32Z"/>
                  <path class="cls-26" d="M152.7,425.38s-5.77-11.78-8.29-17.72a26.11,26.11,0,0,1-1.88-5.88c-.33-1.74-.75-5.56,1.72-6,2.92-.48,2.65,3.76,1.44,5.31a7.53,7.53,0,0,1-5.2,2.25c-2.89-.12-5.51-2.67-6.44-5.15a1.88,1.88,0,0,1,3-2c1.37,1.21,3.09,7.38.27,9.11a7,7,0,0,1-5,.77c-3.07-.63-3.78-5.69.13-4.28,2.77,1,5,4,6.49,6.38,4,6.62,7,11.92,10.84,18.62"/>
                  <rect class="cls-27" x="144.79" y="424.93" width="13.28" height="1.31" transform="translate(486.27 728.8) rotate(151.75)"/>
                  <path class="cls-28" d="M147.36,433.66a.76.76,0,0,0-.49-.85l-.11,0a.75.75,0,0,1-.49-.84l0-.21a.77.77,0,0,0-.52-.86.75.75,0,0,1-.53-.83l.09-.59a.68.68,0,0,1,.35-.5l11.63-6.25a.69.69,0,0,1,.61,0l.54.25a.78.78,0,0,1,.4.91.78.78,0,0,0,.42.91l.2.08a.79.79,0,0,1,.43.88l0,.11a.77.77,0,0,0,.44.88l.16.06a.78.78,0,0,1,.44.9l0,.08a1.38,1.38,0,0,1-.67.85l-11.23,6a1.41,1.41,0,0,1-1.09.09l-.08,0a.78.78,0,0,1-.51-.86Z"/>
                  <g>
                    <path class="cls-27" d="M146.31,430.72l-.06-.06a.24.24,0,0,1,.09-.3l5.42-2.91a.22.22,0,0,1,.29.09.21.21,0,0,1-.09.29l-5.42,2.91A.2.2,0,0,1,146.31,430.72Z"/>
                    <path class="cls-27" d="M154.14,426.51l-.06-.06a.24.24,0,0,1,.09-.3l3-1.61a.21.21,0,0,1,.2.38l-3,1.61A.21.21,0,0,1,154.14,426.51Z"/>
                    <path class="cls-27" d="M150.79,430l-.06-.07a.24.24,0,0,1,.09-.3l7.86-4.22a.23.23,0,0,1,.29.09.24.24,0,0,1-.09.3L151,430.05A.23.23,0,0,1,150.79,430Z"/>
                    <path class="cls-27" d="M147,432.06A.18.18,0,0,1,147,432a.21.21,0,0,1,.08-.29l2.32-1.24a.21.21,0,0,1,.29.08.22.22,0,0,1-.09.3l-2.31,1.24A.23.23,0,0,1,147,432.06Z"/>
                    <path class="cls-27" d="M154.37,429.81a.22.22,0,0,1-.06-.07.23.23,0,0,1,.09-.29l4.2-2.26a.22.22,0,0,1,.21.39l-4.2,2.25A.23.23,0,0,1,154.37,429.81Z"/>
                    <path class="cls-27" d="M149.94,432.2a.13.13,0,0,1-.06-.07.2.2,0,0,1,.09-.29l1.68-.91a.22.22,0,0,1,.3.09.23.23,0,0,1-.09.29l-1.69.91A.21.21,0,0,1,149.94,432.2Z"/>
                    <path class="cls-27" d="M152.78,427.25l-.06-.07a.24.24,0,0,1,.09-.3l.61-.32a.2.2,0,0,1,.29.09.21.21,0,0,1-.09.29l-.6.33A.23.23,0,0,1,152.78,427.25Z"/>
                  </g>
                  <g class="cls-20">
                    <path class="cls-25" d="M113.73,393.32c1.2-6.35,4.83-12.34,10.57-15.56.66-.37,1.33-.72,2-1-9,5.55-12.69,17.94-7.17,27.49,4.64,8,11.76,11.7,21.92,10.84a5.47,5.47,0,0,1,5.31,2.13c1.23,1.68,1.65,3.84,3,5.46a1.67,1.67,0,0,0,.74.58,2,2,0,0,0,.88,0,13.85,13.85,0,0,0,6.56-3,2.34,2.34,0,0,1-.07.45c-.49,1.8-2.56,2.37-4,3.14q-2.61,1.37-5.2,2.75c-1.24.66-3,2.07-4.54,1.5s-2-2.46-2.82-3.61c-2.28-3-6.28-4.31-9.8-5.18a24.19,24.19,0,0,1-10.8-5.53A21.83,21.83,0,0,1,113.73,393.32Z"/>
                  </g>
                </g>
                <rect class="cls-24" x="116.22" y="416.58" width="48.45" height="49.44" transform="translate(-301.02 581.24) rotate(-89.93)"/>
              </g>
            </g>
          </g>
        </g>
        <g>
          <path class="cls-29" d="M305.9,132.76c-23.59,1.74-54,22.74-37.73,63.91.16,3.62,2.59,5.94,4.8,5s-.57-7.53-.57-7.53c.36-32,7.06-38.3,19.49-39.58L321,151.21c7.32.25,21,3.82,25.77,28.87l7.4.52C352.7,162.29,344.59,129.91,305.9,132.76Z"/>
          <path class="cls-8" d="M305.48,129.06c-23.58,1.74-54,22.74-37.72,63.92l4.22-2.56c.37-32,7.07-38.29,19.5-39.58l29.12-3.33c7.31.25,21.47,5.13,26.27,30.19l6.9-.79C352.28,158.59,344.17,126.21,305.48,129.06Z"/>
          <path class="cls-30" d="M300.75,130.29l-2.62,8.06s.9,4.27,5.13,3.71,4.57-2.59,4.57-2.59l-.44-8.86Z"/>
          <path class="cls-30" d="M318,121.89c-3.18,7.47-4.7,9.86-9.78,11.5-6.58,2.12-14.64-1.57-12.38-13.16,1.83-9.44,6.32-8.52,10.6-8.66S321.41,113.81,318,121.89Z"/>
          <path class="cls-31" d="M301.54,118.11a2.87,2.87,0,0,0-3.15,1.15,3.58,3.58,0,0,0-.51,3.49,3.1,3.1,0,0,0-2.54,3.56c-1.4-2.46-1.1-5.23-1.62-7.86s-.55-5.55.94-7.78A8.75,8.75,0,0,1,297,108.4a13.43,13.43,0,0,1,12-1.52,7.32,7.32,0,0,0,5.5.34c5-1.81,8.38,1.32,5.66,4.91a4.13,4.13,0,0,1,2.72,1.47.78.78,0,0,1,.11.77.94.94,0,0,1-.44.34,5.6,5.6,0,0,1-2.67.52c.38.25,2.29.16,3,1.2,1.86,2.77-4.36,2-5.32,1.77,1.08.08,4.09,2,3.38,3.6-.15.31-3.64,2.91-8.08-1.21a7.2,7.2,0,0,0-3.67-2,5.41,5.41,0,0,0-3.15.86c-.71.36-2.5,1.74-3.13,1.11S302.83,118.59,301.54,118.11Z"/>
          <path class="cls-30" d="M347.61,177.62c-.64,3.7-1.65,4.17-.32,4.6s2.12-1.69,2.12-1.69l5.95.5s-1.74-3.64-2.7-4S347.61,177.62,347.61,177.62Z"/>
          <path class="cls-30" d="M272,190.42c1,1.8,1.19,1.79,2.5,4,2.52,4.11-1.46,11.51-5.25,4.34a21.25,21.25,0,0,1-1.47-5.73Z"/>
        </g>
        <path class="cls-2" d="M346.19,190.16a12.34,12.34,0,0,0-1.68-12.06l21.32,4.28-4.29,21.33a12.4,12.4,0,1,1-3.24,16.13L354,241.17l-46.34-9.32a12.69,12.69,0,0,1-9.94-14.95L307,170.56l21.43,4.31a12.39,12.39,0,1,0,17.72,15.29Z"/>
        <g>
          <polygon class="cls-30" points="368.36 262.86 365.72 268.15 372.16 270.79 372.84 264.69 368.36 262.86"/>
          <path class="cls-30" d="M372.24,245.63c-14.59,6.35-8.61,21.75.27,19.94,4.32-.88,6.51-14.8,6.51-14.8Z"/>
          <path class="cls-14" d="M377.09,243.44a7.64,7.64,0,0,0-1.73-2.48,2.2,2.2,0,0,0-2.78-.15c-1,.92-.41,2.62.58,3.52-.85.11-1.87-.48-2.5.1s-.31,1.24,0,1.83a8.21,8.21,0,0,0,3,3.43c-.74.42-1.59,1.23-1.15,2,.12.2.33.34.45.54.28.47,0,1.07-.28,1.54-.46.76-.95,1.5-1.48,2.21a1.31,1.31,0,0,1,2.09.37,2.22,2.22,0,0,1-.52,2.35,2.4,2.4,0,0,1-1.18.75c-.4.09-2.17,5.56-.79,6.63,1.71,1.32,7.51.17,8.34-1.32a3.71,3.71,0,0,0,3.28,1.36c1.22-.24,2.15-1.74,1.49-2.79a3.42,3.42,0,0,0,4.12-4.94c.71-.22.86-1.19.67-1.91a4.37,4.37,0,0,0-3-3.1,1.51,1.51,0,0,0,1.37-1.47,3.08,3.08,0,0,0-.82-2c-1.37-1.69-3-2.14-5-2.4S378,245.12,377.09,243.44Z"/>
          <path class="cls-31" d="M363.41,399.65s-8.54,4.09-9.68,5.37c0,0,16.8.76,18.11,0s-2.69-5.36-2.69-5.36Z"/>
          <path class="cls-31" d="M395.17,395s-7.5,5.78-8.36,7.27c0,0,17.72-2.63,17.72-3.79s-3.74-4.68-3.74-4.68Z"/>
          <path class="cls-32" d="M371.67,320.49c-.32,1.73-12,47.88,21.44,75.55l9.69-2.22s-11.28-10.58-16.59-29.61c-5-18-1-19.76,2-29.68,3.33-11,.85-18.93.85-18.93Z"/>
          <path class="cls-33" d="M355.68,320.35c-5.3,12.67-14.4,55.85,5.44,80.17l9.9,0s-7.8-8.55-8.67-28.4,4.17-28.56,7.73-35.1,6.85-17.68,6.85-17.68Z"/>
          <path class="cls-34" d="M348.69,241.79c-2.63,9.28-3.5,26.42,9.69,33.33L367.2,273s-15.91-8.34-12.5-29.42Z"/>
          <path class="cls-7" d="M324.38,237l6.85-.85s-.82,28.76,32.4,31.19C389,269.23,391,316.81,391,316.81c-8.18,5.51-21.9,7.17-39.48,5.91,0,0,1.12-34-1.67-43.24C349.83,279.48,322.23,270.8,324.38,237Z"/>
          <path class="cls-30" d="M316,231.81c-1.16,1.35,3.68,3.05,8.37,5.23l6-.75a24.42,24.42,0,0,0,0-2.45c-.08-1.25-.71-2-1.42-.89s-3.75,1.44-5.18.46S317.17,230.47,316,231.81Z"/>
          <path class="cls-30" d="M348.69,241.79c-2.2-2.17-1.62-2-1.62-2l6.72,1.52s1.48-3.28,2.73-3.37-.94,2.26-.44,3.13-1.38,2.52-1.38,2.52Z"/>
        </g>
      </g>
    </g>
  </g>
</svg>
