<svg id="psychology" xmlns="http://www.w3.org/2000/svg" width="565.06" height="202.62" viewBox="0 0 565.06 202.62">
  <defs>
    <style>
      .cls-1, .cls-15, .cls-24, .cls-25, .cls-26, .cls-9 {
        fill: #fff;
      }

      .cls-2, .cls-37 {
        fill: #141515;
      }

      .cls-10, .cls-11, .cls-12, .cls-13, .cls-14, .cls-15, .cls-16, .cls-18, .cls-2, .cls-21, .cls-24, .cls-27, .cls-28, .cls-29, .cls-3, .cls-30, .cls-31, .cls-32, .cls-33, .cls-34, .cls-35, .cls-39, .cls-4, .cls-5, .cls-9 {
        fill-rule: evenodd;
      }

      .cls-28, .cls-3, .cls-38, .cls-7 {
        fill: #ffe7be;
      }

      .cls-4 {
        fill: #ffefd1;
      }

      .cls-17, .cls-18, .cls-19, .cls-5, .cls-8 {
        fill: none;
      }

      .cls-17, .cls-18, .cls-19, .cls-21, .cls-24, .cls-25, .cls-26, .cls-27, .cls-28, .cls-29, .cls-30, .cls-33, .cls-35, .cls-36, .cls-38, .cls-39, .cls-5, .cls-8, .cls-9 {
        stroke: #141515;
        stroke-width: 1.42px;
      }

      .cls-24, .cls-25, .cls-33, .cls-5, .cls-8 {
        stroke-linecap: round;
      }

      .cls-18, .cls-19, .cls-21, .cls-24, .cls-25, .cls-26, .cls-27, .cls-28, .cls-29, .cls-30, .cls-33, .cls-35, .cls-36, .cls-38, .cls-39, .cls-5, .cls-8, .cls-9 {
        stroke-linejoin: round;
      }

      .cls-13, .cls-27, .cls-33, .cls-36, .cls-6 {
        fill: #fbbc4e;
      }

      .cls-10 {
        fill: #fecf7f;
      }

      .cls-11, .cls-21 {
        fill: #52ccbe;
      }

      .cls-12, .cls-22, .cls-29 {
        fill: #9be3db;
      }

      .cls-14, .cls-20 {
        fill: #f8f9f8;
      }

      .cls-16 {
        fill: #fff9ec;
      }

      .cls-17 {
        stroke-miterlimit: 22.93;
      }

      .cls-23 {
        fill: #b7ece6;
      }

      .cls-30, .cls-31 {
        fill: #ccc;
      }

      .cls-32 {
        fill: #dfdfdf;
      }

      .cls-35 {
        fill: #c48d2f;
      }

      .cls-39 {
        fill: #fefefe;
      }
    </style>
  </defs>
  <g>
    <g>
      <g>
        <ellipse class="cls-1" cx="278.46" cy="98.77" rx="75.77" ry="75.79" transform="translate(-0.1 0.29) rotate(-0.06)"/>
        <path class="cls-2" d="M279.87,173.84l0,1.42h-1.43v-1.42h1.41Zm-2.79,0,0,1.42h-.56l-.49,0h-.38l.06-1.42H276l.49,0h.55Zm-2.8-.1-.09,1.41H274l-.49,0-.48,0-.3,0,.1-1.41.3,0,.47,0,.48,0Zm-2.8-.21-.14,1.41-.21,0-.48,0-.49-.06-.24,0,.16-1.41.24,0,.47.05.47,0,.22,0Zm-2.79-.31-.19,1.41-.25,0-.48-.06-.48-.07-.21,0,.21-1.4.21,0,.47.06.47.07.25,0Zm-2.78-.41-.24,1.39-.27,0-.47-.08-.47-.09-.2,0,.27-1.39.19,0,.46.08.46.08.27.05Zm-2.76-.52-.29,1.38-.27,0-.47-.1-.46-.1-.2,0,.32-1.38.19,0,.45.1.46.1.27.06Zm-2.74-.62-.34,1.37-.26-.06-.46-.12-.45-.12-.22-.06.37-1.36.21.05.45.12.45.11.25.07Zm-2.71-.73-.4,1.36-.22-.06-.46-.14-.45-.13-.24-.08.42-1.35.24.07.44.14.44.13.23.06Zm-2.69-.82-.44,1.34-.19-.06-.44-.15-.45-.15-.28-.1.47-1.34.28.1.43.15.44.14.18.07Zm-2.65-.93-.49,1.33-.14-.05-.44-.17-.43-.17-.33-.12.52-1.32.32.12.43.17.43.16.13.05Zm-2.61-1-.55,1.31-.07,0-.43-.18-.43-.18-.38-.17.57-1.3.37.16.42.18.42.18.08,0ZM247.18,167l-.6,1.29h0l-.42-.2-.42-.19-.42-.2,0,0,.62-1.27h0l.42.2.41.19.41.19Zm-2.53-1.22-.65,1.26-.35-.18-.41-.21-.41-.22-.1-.05.67-1.25.09.05.4.21.4.21.36.18Zm-2.48-1.31-.69,1.23-.28-.15-.4-.23-.4-.23-.17-.09.71-1.23.16.1.4.22.39.22.28.16Zm-2.43-1.41-.74,1.21-.19-.12-.4-.24-.39-.24-.24-.15.76-1.2.23.15.39.24.38.23.2.12Zm-2.38-1.5-.78,1.19-.11-.07-.38-.26-.38-.26-.32-.21.8-1.17.31.21.37.25.38.25.11.07ZM235,160l-.82,1.15h0l-.37-.27-.37-.27-.37-.27,0,0,.85-1.13h0l.36.26.37.27.36.26,0,0Zm-2.26-1.67-.87,1.12-.3-.23-.36-.29-.36-.28-.1-.08.89-1.11.09.08.35.28.36.28.3.23Zm-2.19-1.75-.91,1.09-.21-.18-.36-.3-.35-.3-.17-.15.93-1.07.17.15.34.29.34.29.22.18Zm-2.13-1.83-1,1-.13-.12-.34-.3-.33-.31-.25-.23,1-1,.24.22.34.31.33.3.13.12Zm-2.06-1.92-1,1,0,0-.33-.32-.33-.32-.31-.32,1-1,.31.31.32.31.32.32.05,0Zm-2-2-1,1-.28-.3-.32-.33-.31-.34-.07-.07,1-1,.06.07.31.33.31.32.29.3Zm-1.91-2.06-1.06.94-.21-.23-.3-.34-.3-.35-.14-.15,1.08-.92.13.15.29.34.3.33.21.23Zm-1.84-2.13-1.09.91-.13-.16-.29-.35-.29-.36-.19-.24,1.11-.89.19.24.28.35.29.35.12.15Zm-1.75-2.19-1.12.86-.06-.08-.28-.36-.28-.37-.25-.33,1.15-.84.24.32.27.36.27.36.06.08Zm-1.67-2.26-1.16.82-.26-.37-.26-.38-.26-.38,0,0,1.17-.79,0,0,.25.37.26.38.26.36Zm-1.58-2.32-1.19.78-.19-.3L214,140l-.25-.39-.08-.13,1.2-.75.08.13.24.38.25.38.19.29Zm-1.5-2.37-1.21.73-.14-.23-.23-.39-.24-.4-.12-.22,1.23-.7.12.2.23.4.23.38.13.23Zm-1.4-2.43-1.25.68-.08-.15-.22-.41-.22-.4-.16-.3,1.26-.66.15.29.21.4.22.4.09.15Zm-1.32-2.49-1.27.64,0-.08-.21-.41-.21-.42-.18-.37,1.28-.62.18.37.2.41.2.41,0,.07Zm-1.22-2.53-1.29.6h0l-.2-.43-.19-.42-.18-.43v0l1.3-.56v0l.18.41.19.42.19.41Zm-1.12-2.57-1.31.54-.16-.37-.17-.44-.18-.43,0-.09,1.32-.51,0,.08.17.43.17.42.16.37Zm-1-2.61-1.33.49-.12-.33-.16-.44-.16-.44-.05-.14,1.34-.46.05.13.15.43.16.44.12.32Zm-.93-2.65-1.35.44-.09-.29-.14-.44-.14-.45-.06-.18,1.36-.42.05.18.14.44.14.44.09.28Zm-.82-2.68L205,120l-.07-.25-.13-.45-.12-.46-.06-.21,1.37-.37.06.21.12.45.12.45.08.25Zm-.73-2.72-1.38.34-.05-.23-.11-.46-.11-.46-.06-.24,1.39-.31.05.23.1.45.11.45.06.23Zm-.62-2.73-1.39.28-.05-.22-.09-.47-.09-.47-.05-.24,1.39-.26.05.23.09.46.09.46,0,.23Zm-.52-2.76-1.4.23,0-.23-.08-.48-.07-.47,0-.23,1.41-.21,0,.23.07.46.08.47,0,.23Zm-.42-2.78-1.4.18,0-.26-.06-.48,0-.48,0-.2,1.41-.15,0,.19,0,.47.06.47,0,.26Zm-.31-2.79-1.41.13,0-.3,0-.49,0-.48v-.16l1.41-.1v.15l0,.47,0,.48,0,.3Zm-.21-2.8-1.41.07,0-.36,0-.49,0-.49v-.09l1.42,0v.07l0,.48,0,.49,0,.36Zm-.1-2.81-1.42,0V98.79h1.42v1.4Zm0-2.81-1.42,0V96.8l0-.5v-.38l1.42.06,0,.37v1Zm.1-2.8-1.41-.08v-.15l0-.49,0-.49,0-.3,1.41.11,0,.29,0,.48,0,.48v.15Zm.21-2.8-1.41-.14,0-.21,0-.48.05-.48,0-.25,1.41.16,0,.24-.05.47,0,.48,0,.21ZM204,89l-1.41-.19,0-.25.06-.48.07-.47,0-.22,1.4.22,0,.2-.07.47-.06.47,0,.25Zm.41-2.78L203.06,86l0-.27.08-.47.09-.47,0-.2,1.39.27,0,.19-.08.46-.08.46-.05.27Zm.52-2.76-1.39-.29.06-.27.1-.47.1-.46,0-.2,1.38.32-.05.19-.1.45-.09.46-.06.27Zm.62-2.74-1.37-.34.06-.26.12-.46.12-.46,0-.21,1.37.37-.05.21-.12.45-.12.45-.06.25Zm.73-2.71L205,77.6l.07-.22.13-.46.14-.45.07-.24,1.36.42-.08.23-.13.45-.13.44-.06.23Zm.82-2.69-1.34-.44.06-.19.15-.45.15-.44.1-.28,1.33.47-.09.27-.15.44-.15.44-.06.18Zm.93-2.65-1.33-.49,0-.14.17-.44.16-.43.13-.33,1.32.52-.12.32-.17.42-.16.43-.05.14Zm1-2.61-1.31-.55,0-.08L208,69l.18-.43.17-.37,1.29.57-.16.36-.18.43-.17.42,0,.08Zm1.13-2.58-1.29-.59h0l.19-.43.2-.42.2-.42v0l1.27.63h0l-.2.41-.19.41-.19.42ZM211.43,65l-1.26-.65.19-.36.21-.41.21-.41.05-.09,1.25.67,0,.08-.21.41-.21.4-.19.36Zm1.32-2.48-1.24-.7.16-.27.22-.41.23-.4.1-.16,1.22.71-.09.16-.22.39-.23.4-.15.28Zm1.4-2.44-1.21-.73.12-.2.24-.39.24-.39.15-.24,1.2.76-.14.23-.24.38-.24.39-.12.19Zm1.5-2.37-1.18-.78.07-.12.25-.38.26-.38.21-.31,1.17.8-.21.3-.25.38-.25.37-.07.12Zm1.58-2.32-1.15-.82,0,0,.27-.38.27-.37.27-.37v0l1.13.85h0l-.27.36-.26.37-.27.37,0,0Zm1.67-2.26-1.12-.87.24-.31.28-.36.29-.36.07-.09,1.1.88-.07.09-.28.36-.27.35-.24.31Zm1.75-2.2-1.09-.9.19-.22.29-.36.3-.34.15-.18,1.07.93-.14.17-.3.34-.29.34-.18.22Zm1.83-2.12-1-.95.12-.14.31-.34.31-.33.22-.25,1,1-.22.23-.31.34-.3.33-.12.14Zm1.91-2.06-1-1,0-.05.32-.33.32-.33.31-.31,1,1-.31.31-.31.32-.32.32-.05.06Zm2-2-1-1,.3-.29.33-.32.34-.31.07-.07,1,1-.07,0-.32.31-.33.31-.3.29Zm2.05-1.91-.94-1.06.24-.21.34-.3.35-.3.15-.13.92,1.07-.15.13-.33.29-.34.3-.24.21ZM230.56,41l-.9-1.1.16-.13.35-.29.36-.29.24-.19.88,1.11-.23.18-.35.29-.35.28-.16.14Zm2.2-1.76-.87-1.12L232,38l.37-.27.37-.28.33-.24.84,1.14-.32.23-.36.28-.36.27-.08.06ZM235,37.54l-.82-1.15h0l.38-.27.38-.26.37-.26.05,0,.79,1.17,0,0-.38.26-.37.26-.37.26ZM237.33,36l-.77-1.19.3-.2.38-.25.39-.24.13-.08.75,1.2-.12.07-.38.25-.38.24-.3.2Zm2.38-1.5L239,33.24l.22-.13.4-.24.4-.23.21-.12.7,1.23-.2.11-.39.23-.39.23-.22.14Zm2.43-1.41-.69-1.24.16-.08.4-.23.41-.21.29-.16.66,1.25-.28.15-.4.22-.4.22-.15.08Zm2.48-1.31L244,30.47l.08,0,.42-.21.41-.2.37-.18.62,1.27-.37.18-.4.2-.41.21-.08,0Zm2.53-1.22-.59-1.29h0L247,29l.43-.19.42-.19h0l.56,1.3h0l-.42.18-.41.19-.42.19Zm2.57-1.13-.54-1.31.38-.15.43-.18.43-.17.09,0,.51,1.33-.08,0-.42.17-.43.17-.37.15Zm2.61-1L251.84,27l.33-.12.44-.16.44-.15.14-.05.46,1.34-.13,0-.43.16-.43.15-.33.12Zm2.65-.92-.44-1.35.29-.09.44-.15.45-.14.19-.06.41,1.36-.18,0-.44.14-.43.14-.29.1Zm2.68-.83-.38-1.36.25-.08.45-.12.46-.13.21-.06.37,1.37-.21.06-.45.12-.44.13-.26.07Zm2.72-.73L260,24.51l.23-.06.46-.11.46-.11.24-.05.31,1.38-.23.05-.45.11-.45.11-.23.05Zm2.73-.62-.28-1.39.22,0,.47-.1.47-.09.24-.05.26,1.4-.23,0-.46.09-.46.09-.23.05Zm2.76-.52-.23-1.4.23,0,.47-.07.48-.08.23,0,.21,1.4-.23,0-.46.08-.47.07-.23,0Zm2.78-.42-.18-1.4.26,0,.47-.06.48-.06.21,0,.15,1.41-.2,0-.47.05-.47.06-.25,0Zm2.79-.31-.12-1.41.29,0,.49,0,.48,0h.16l.1,1.42h-.15l-.48,0-.47,0-.3,0Zm2.8-.2-.07-1.42.36,0,.49,0,.49,0h.09l0,1.42h-.08l-.48,0-.48,0-.36,0Zm2.81-.11,0-1.42h1.42v1.42h-1.4Zm2.81,0,0-1.42h1.43l-.06,1.42h-.38l-.48,0h-.54Zm2.8.1.08-1.41h.15l.49,0,.48,0,.31,0-.11,1.41-.3,0-.47,0-.48,0Zm2.8.21.14-1.41.2,0,.48.05.48,0,.26,0-.16,1.4-.25,0-.47-.05-.47,0-.21,0Zm2.79.31.19-1.4.24,0,.48.06.47.07.23,0-.22,1.41-.21,0-.47-.06-.47-.07-.24,0Zm2.78.42.24-1.4.26,0,.47.09.47.08.21,0L292.41,25l-.2,0-.46-.09-.46-.08-.26,0Zm2.76.52.29-1.39.26.05.47.1.46.1.21.05-.32,1.38-.2,0-.45-.1-.46-.1-.26,0Zm2.74.62.34-1.38.25.06.46.12.45.12.23.06-.37,1.37-.22-.06-.45-.12-.45-.11-.24-.06Zm2.71.72.4-1.36.21.06.46.14.45.13.25.08L300.59,27l-.25-.07-.44-.14-.44-.13-.22-.06Zm2.69.83.44-1.35.18.06.44.15.45.15.29.1-.48,1.34-.28-.1-.43-.15-.44-.14-.17-.06Zm2.65.93.49-1.33.13,0,.44.16.43.17.34.13-.52,1.32-.33-.13-.43-.16-.43-.17-.12,0Zm2.61,1,.54-1.31.07,0,.43.18.43.19.39.16-.57,1.3-.38-.16-.42-.18-.42-.18-.07,0Zm2.57,1.13.6-1.29h0l.42.2.42.19.42.21h0L311,31.1h0l-.42-.19-.41-.2-.41-.19Zm2.53,1.22.65-1.27.34.18.41.21.41.22.11.05-.67,1.25-.1,0-.4-.21-.41-.21-.34-.17ZM314.77,33l.69-1.24.27.15.4.23.4.23.18.1L316,33.73l-.17-.09-.39-.23-.39-.22-.27-.15Zm2.43,1.41.74-1.21.18.11.39.24.4.24.25.16-.76,1.2-.24-.16-.39-.24-.39-.23-.18-.11Zm2.38,1.49.78-1.18.1.07.38.25.38.26.33.22-.8,1.17-.32-.22-.38-.25-.37-.25-.1-.07Zm2.32,1.59.82-1.16,0,0,.37.26.37.27.37.27,0,0L323,38.35h0l-.36-.27-.37-.27-.37-.26Zm2.25,1.67.87-1.12.3.22.36.29.36.28.11.09-.89,1.1-.1-.08-.36-.28-.35-.28-.3-.22Zm2.2,1.75.91-1.09.2.17.36.3.34.3.19.16-.93,1.07-.18-.16-.34-.29-.34-.29-.21-.17Zm2.13,1.83.94-1.05.13.11.34.3.33.31.26.24-1,1-.26-.23-.33-.31-.33-.3-.12-.11Zm2.06,1.91,1-1,0,0,.33.32.33.32.32.33-1,1-.32-.32-.32-.31-.32-.32,0,0Zm2,2,1-1,.28.29.32.33.31.34.08.08-1,1-.07-.08-.3-.32L332.8,47l-.28-.29Zm1.91,2.06,1.06-.94.2.22.3.34.3.35.14.16-1.07.92-.14-.15-.3-.34-.29-.34-.2-.22Zm1.83,2.13,1.1-.91.12.15.29.35.29.36.2.25-1.11.88-.2-.24-.28-.35-.29-.35-.12-.14ZM338,53.06l1.12-.86.05.07.28.36.28.37.25.34-1.14.84-.25-.33-.27-.36-.27-.36-.05-.07Zm1.66,2.26,1.16-.82.26.36.26.38.26.38,0,.06-1.17.79,0,0-.26-.37-.25-.37-.26-.36Zm1.59,2.32,1.18-.78.19.29.25.39.25.39.09.14-1.2.75-.09-.14-.24-.38-.25-.38-.18-.28ZM342.76,60l1.22-.73.13.22.23.39.24.4.13.23-1.23.7-.13-.21-.23-.39-.23-.39-.13-.22Zm1.41,2.43,1.24-.68.08.14.22.41.22.4.16.31-1.25.66-.16-.3-.22-.4-.21-.4-.08-.14Zm1.31,2.49,1.27-.64,0,.07.21.41.21.42.18.38-1.27.62-.19-.38-.2-.41-.2-.41,0-.06Zm1.22,2.53,1.29-.6h0l.19.43.19.42.19.43,0,0-1.3.56,0,0-.18-.42-.19-.42-.19-.41ZM347.83,70l1.31-.54.15.36.17.44.18.43,0,.1-1.32.51,0-.09-.17-.43-.17-.42-.15-.36Zm1,2.61,1.33-.49.12.32.16.44.16.44.05.15-1.34.46-.05-.14-.15-.43L349,73l-.12-.31Zm.93,2.65,1.35-.44.09.28.14.44.14.45.06.2-1.35.41-.06-.19L350,76l-.14-.44-.09-.27Zm.83,2.68,1.36-.38.07.24.13.45.12.46.06.23-1.37.36-.06-.22-.12-.45-.12-.44-.07-.25Zm.72,2.72,1.38-.34.05.22.11.46.11.46.06.25-1.38.31-.06-.24-.1-.45-.11-.45-.06-.22Zm.62,2.73,1.39-.28.05.21.09.47.09.47.05.25-1.39.26-.05-.24-.09-.46-.09-.46-.05-.22Zm.52,2.76,1.4-.23,0,.22.08.48.07.47,0,.25-1.41.2,0-.23-.07-.47-.08-.46,0-.23Zm.42,2.78,1.4-.18,0,.25.06.48.05.48,0,.21-1.41.15,0-.2,0-.47-.06-.47,0-.25Zm.31,2.79,1.41-.12,0,.29,0,.48,0,.49v.16l-1.41.1,0-.16,0-.47,0-.48,0-.29Zm.21,2.8,1.41-.07,0,.35,0,.49,0,.49v.1l-1.42,0v-.08l0-.48,0-.48,0-.36Zm.1,2.81,1.42,0v1.43h-1.42V97.36Zm0,2.81,1.42,0v.54l0,.5v.39l-1.42-.06v-.38l0-.48v-.54Zm-.1,2.8,1.41.09v.13l0,.49,0,.49,0,.31-1.41-.1,0-.31,0-.48,0-.48V103Zm-.21,2.8,1.41.14,0,.2,0,.48-.05.48,0,.26-1.41-.16,0-.25.05-.47,0-.48,0-.2Zm-.31,2.8,1.4.18,0,.24-.06.48-.07.47,0,.23-1.4-.21,0-.22.06-.47.07-.47,0-.23Zm-.41,2.77,1.39.24,0,.26-.08.47-.09.47,0,.21-1.39-.27,0-.2.08-.46.08-.46.05-.26ZM352,114.1l1.38.29,0,.26-.1.47-.1.46,0,.21-1.38-.32,0-.2.1-.45.1-.46.06-.26Zm-.62,2.74,1.37.34-.06.25-.12.46-.12.46-.06.22L351,118.2,351,118l.12-.44.11-.46.07-.24Zm-.73,2.71,1.36.4-.06.22-.13.45-.14.45-.08.25-1.35-.42.07-.24.14-.45.13-.44.06-.22Zm-.83,2.69,1.35.44-.06.18-.15.45-.15.44-.1.29-1.34-.47.1-.28.15-.44.15-.43,0-.18Zm-.92,2.65,1.32.49,0,.13L350,126l-.16.44-.13.33-1.32-.52.12-.33.17-.42.16-.43.05-.13Zm-1,2.61,1.31.55,0,.07-.18.43-.18.43-.17.38-1.3-.57.17-.37.17-.42.18-.43,0-.07Zm-1.12,2.58,1.29.59h0l-.19.42-.2.42-.2.42,0,0-1.27-.63v0l.2-.41.19-.41.19-.42Zm-1.22,2.52,1.26.65-.18.35-.21.41-.21.41-.06.1-1.25-.67.05-.09.21-.4.21-.41.18-.35Zm-1.31,2.48,1.23.7-.15.26-.22.41-.23.4-.1.17-1.23-.71.1-.17.22-.39.23-.4.15-.27Zm-1.41,2.44,1.21.73-.11.19-.24.39-.25.39-.15.25-1.2-.76.15-.24.24-.38.24-.39.11-.18Zm-1.5,2.37,1.19.78-.07.11-.25.38-.26.38-.22.32-1.17-.8.21-.31.26-.38.25-.37.06-.11Zm-1.58,2.32,1.16.82,0,0-.27.37-.27.37-.27.37,0,0-1.13-.85v0l.27-.36.26-.37.27-.37v0ZM338,144.47l1.12.87-.23.3-.28.36-.29.36-.08.1-1.1-.89.07-.09.28-.36.28-.35.23-.3Zm-1.75,2.19,1.09.91-.18.21-.29.36-.3.35-.15.18-1.08-.93.15-.18.3-.34.29-.34.17-.22Zm-1.83,2.13,1.05,1-.11.13-.31.34-.31.34-.23.25-1-1,.23-.24.3-.34.31-.33.11-.13Zm-1.91,2.06,1,1,0,0-.32.33-.33.33-.31.32-1-1,.32-.32.31-.32.32-.32,0-.05Zm-2,2,1,1-.29.29-.33.31-.34.31-.07.08-1-1,.06-.06.33-.31.33-.31.3-.28Zm-2.06,1.91.94,1.06-.23.2-.34.3-.35.3-.16.14-.92-1.07.15-.14.34-.29.34-.3.23-.2Zm-2.13,1.83.9,1.1-.15.12-.35.29-.36.29-.25.2-.88-1.11.24-.19.35-.29.35-.28.15-.13Zm-2.2,1.76.87,1.12-.08.06-.36.28-.37.27-.33.25-.85-1.14.33-.24.36-.27.36-.28.07,0ZM321.91,160l.81,1.16-.36.26-.38.26-.38.27-.05,0-.79-1.17,0,0,.38-.26.37-.26.36-.26Zm-2.32,1.59.77,1.19-.29.19-.39.25-.38.25-.14.08-.75-1.2.13-.08.38-.25.38-.24.29-.19Zm-2.38,1.5.73,1.21-.21.13-.4.24-.4.23-.22.13-.7-1.23.21-.12.39-.23.39-.23.21-.13Zm-2.43,1.4.69,1.24-.15.08-.4.23-.41.22-.3.16-.66-1.26.29-.15.4-.22.4-.22.14-.08Zm-2.48,1.32.64,1.26-.07,0-.42.21-.41.2-.38.19-.62-1.28.37-.18.41-.2.41-.2.07,0ZM309.77,167l.59,1.29h0l-.42.19-.43.19-.42.19h0l-.56-1.3h0l.42-.18.41-.19.42-.19Zm-2.57,1.12.54,1.31-.37.16-.43.17-.43.17-.1,0-.51-1.32.09,0,.42-.16.43-.18.36-.15Zm-2.61,1,.49,1.33-.32.12-.44.16-.44.15-.15.06-.46-1.34.14,0,.43-.16.43-.15.32-.12Zm-2.65.93.44,1.35-.28.09-.45.14-.44.14-.2.06-.41-1.36.18-.05.44-.14.44-.14.28-.09Zm-2.68.82.38,1.37-.24.07-.45.13-.46.12-.23.06-.36-1.37.22-.06.45-.12L299,171l.25-.07Zm-2.72.73.34,1.38-.22.05-.46.11-.46.11-.25.06-.31-1.39.24,0,.45-.11.45-.11.22-.05Zm-2.74.62.29,1.39-.21.05-.47.09-.47.09-.25,0-.26-1.39.24-.05.46-.09.46-.09.21-.05Zm-2.75.52.23,1.4-.22,0-.48.07-.47.08-.25,0-.2-1.41.24,0,.46-.08.47-.07.22,0Zm-2.78.42.18,1.4-.25,0-.48.05-.47.06-.22,0-.16-1.41.21,0,.48-.05.47-.06.24,0Zm-2.79.31.12,1.41-.28,0-.49,0-.48,0h-.17l-.1-1.41.16,0,.48,0,.47,0,.29,0Zm-2.8.21.07,1.41-.35,0-.49,0-.49,0h-.1l0-1.42h.09l.48,0,.48,0Z"/>
      </g>
      <g>
        <g>
          <path class="cls-3" d="M278.56,45.53c37.75,0,52.82,49.22,24.54,72.21v34.64a67.72,67.72,0,0,1-40.35,0V129.61c-6.21,0-12.41,1.58-18.62,1.58A5.18,5.18,0,0,1,239,126V107.28l-7.51,0,10.13-25.17C243.4,61.46,257.9,45.53,278.56,45.53Z"/>
          <path class="cls-4" d="M276.78,155.17a71,71,0,0,1-14-2.79V129.61c-6.21,0-12.41,1.58-18.62,1.58A5.18,5.18,0,0,1,239,126V107.28l-7.51,0,10.13-25.17c1.48-17.45,12-31.51,27.68-35.49C294.48,75.67,299.61,121.5,276.78,155.17Z"/>
        </g>
        <path class="cls-5" d="M278.92,44.9c37.75,0,52.82,49.22,24.54,72.21v34.63a67.72,67.72,0,0,1-40.35,0V129c-6.21,0-12.42,1.57-18.62,1.57a5.17,5.17,0,0,1-5.1-5.22V106.64l-7.51,0L242,81.51C243.76,60.82,258.26,44.9,278.92,44.9Z"/>
      </g>
      <g>
        <g>
          <rect class="cls-6" x="276.85" y="24.17" width="23.14" height="35" rx="4.45" transform="translate(108.09 270.59) rotate(-59.99)"/>
          <rect class="cls-7" x="281.3" y="21.6" width="17.21" height="35" rx="4.45" transform="translate(111.06 270.59) rotate(-59.99)"/>
          <rect class="cls-8" x="276.7" y="24.42" width="23.14" height="35" rx="4.45" transform="translate(107.8 270.59) rotate(-59.99)"/>
          <path class="cls-2" d="M284.75,40.05a.84.84,0,0,1,.05.17h0l.79,2.39a3,3,0,0,0,1.31,1.6h0a3,3,0,0,0,2.07.37l17.55-3.68a.71.71,0,1,1,.29,1.38l-14.23,3,.08.24,4.18,12.74a.7.7,0,1,1-1.34.43L291.36,46l-.13-.39L289.3,46a4.37,4.37,0,0,1-3.07-.52l0,0a4.4,4.4,0,0,1-1.95-2.37l-.61-1.88-.26.06L270.07,44a.7.7,0,1,1-.28-1.38l13.29-2.79.1,0L278.65,26a.71.71,0,0,1,1.35-.43Z"/>
        </g>
        <g>
          <path class="cls-6" d="M227.82,28.15H247a3.26,3.26,0,0,1,3.26,3.26V41.87A3.27,3.27,0,0,1,247,45.13H227.82a3.27,3.27,0,0,1-3.27-3.27V31.42A3.27,3.27,0,0,1,227.82,28.15Z" transform="translate(13.49 123.63) rotate(-30.01)"/>
          <path class="cls-7" d="M226.73,28.44h19.16a3.27,3.27,0,0,1,3.27,3.27v6.1a3.27,3.27,0,0,1-3.27,3.27H226.73a3.26,3.26,0,0,1-3.26-3.26v-6.1a3.27,3.27,0,0,1,3.27-3.27Z" transform="translate(14.29 122.84) rotate(-30.01)"/>
          <path class="cls-8" d="M227.93,28.34h19.16a3.27,3.27,0,0,1,3.27,3.27V42.06a3.27,3.27,0,0,1-3.27,3.27H227.93a3.26,3.26,0,0,1-3.26-3.26V31.61a3.27,3.27,0,0,1,3.27-3.27Z" transform="matrix(0.87, -0.5, 0.5, 0.87, 13.42, 123.72)"/>
          <path class="cls-2" d="M235,38.2a.41.41,0,0,1,.16,0h0l1.79.38a2,2,0,0,0,1.39-.25h0a2,2,0,0,0,.9-1.08l4.11-12.51a.71.71,0,1,1,1.34.44l-3.26,9.94,9.59,2a.71.71,0,0,1-.28,1.39l-9.63-2-.12,0-.4,1.21a3.44,3.44,0,0,1-1.54,1.87h0a3.42,3.42,0,0,1-2.39.4l-1.25-.26v0l-3.11,9.47a.7.7,0,1,1-1.34-.43l3.06-9.35-10.23-2.15a.71.71,0,1,1,.29-1.38Z"/>
        </g>
        <g>
          <rect class="cls-6" x="201.27" y="21.61" width="8.42" height="12.73" rx="1.62" transform="translate(78.49 191.92) rotate(-59.99)"/>
          <rect class="cls-7" x="202.89" y="20.68" width="6.26" height="12.73" rx="1.62" transform="translate(79.57 191.92) rotate(-59.99)"/>
          <rect class="cls-8" x="201.21" y="21.71" width="8.42" height="12.73" rx="1.62" transform="translate(78.38 191.92) rotate(-59.99)"/>
          <path class="cls-2" d="M204.56,27.24a.36.36,0,0,1,0,.09l.28.86a.62.62,0,0,0,.26.32h0a.64.64,0,0,0,.44.08L212,27.26a.71.71,0,0,1,.28,1.39l-4.68,1L209,33.87a.71.71,0,1,1-1.34.44l-1.44-4.39-.31.07a2.08,2.08,0,0,1-1.43-.24l-.05,0a2.05,2.05,0,0,1-.88-1.1l-.1-.3-4.53,1a.72.72,0,0,1-.84-.55.71.71,0,0,1,.55-.84L203,27l-1.49-4.55a.7.7,0,1,1,1.34-.43Z"/>
        </g>
      </g>
      <g>
        <path class="cls-9" d="M227.68,68.4a4.36,4.36,0,0,1,.88,0,9.18,9.18,0,0,1-.23-1,7.13,7.13,0,0,1,10.47-7.27,5.47,5.47,0,0,1,10.6,1,5.55,5.55,0,0,1,0,1.68l.25,0a4.88,4.88,0,0,1,1.48,0A7.25,7.25,0,0,1,264,64.34a6.23,6.23,0,0,1,5.22,5.27,6.16,6.16,0,0,1-.11,2.35,2.91,2.91,0,0,1,.66,1.48,3,3,0,0,1-4.56,2.87,6.46,6.46,0,0,1-1.26.32,6.22,6.22,0,0,1-6.06-2.74l-.65,0a7.25,7.25,0,0,1-13.69,3.42,7.26,7.26,0,0,1-1,.23,7.62,7.62,0,0,1-3.66-.37,4.85,4.85,0,0,1-8.89.58,4.58,4.58,0,0,1-.92.22,4.85,4.85,0,0,1-1.37-9.61Z"/>
        <path class="cls-9" d="M293.44,51.83a5.74,5.74,0,0,1,1.17-.06,9,9,0,0,1-.31-1.39,9.49,9.49,0,0,1,13.95-9.67A7.28,7.28,0,0,1,322.36,42a7.37,7.37,0,0,1,0,2.25l.34-.06a6.12,6.12,0,0,1,2,0,9.66,9.66,0,0,1,17.2,2.21,8.27,8.27,0,0,1,7,7,8.38,8.38,0,0,1-.15,3.13,4,4,0,0,1,.88,2,3.93,3.93,0,0,1-6.07,3.82,7.71,7.71,0,0,1-1.67.42,8.24,8.24,0,0,1-8.08-3.65l-.86.06a9.66,9.66,0,0,1-18.24,4.56,10.53,10.53,0,0,1-1.4.3,10.31,10.31,0,0,1-4.87-.48,6.46,6.46,0,0,1-11.85.76,6.22,6.22,0,0,1-1.22.3,6.46,6.46,0,1,1-1.82-12.8Z"/>
      </g>
      <g>
        <g>
          <ellipse class="cls-6" cx="279.37" cy="84.89" rx="20.43" ry="20.44" transform="translate(-0.26 0.85) rotate(-0.17)"/>
          <path class="cls-10" d="M289.28,67a20.43,20.43,0,0,1-2.1,36.76l-.52-.27a20.45,20.45,0,0,1,2.1-36.77Z"/>
          <ellipse class="cls-8" cx="279.13" cy="84.89" rx="20.44" ry="20.43" transform="translate(193.68 363.85) rotate(-89.89)"/>
          <path class="cls-5" d="M279.13,69.22a15.67,15.67,0,1,1-15.67,15.67A15.66,15.66,0,0,1,279.13,69.22Z"/>
        </g>
        <path class="cls-9" d="M281.74,77.27a3.63,3.63,0,0,1,5.13,5.13l-2.5,2.49,2.5,2.5a3.62,3.62,0,1,1-5.13,5.12L279.25,90l-2.49,2.49a3.62,3.62,0,0,1-5.13-5.12l2.5-2.5-2.5-2.49a3.63,3.63,0,0,1,5.13-5.13l2.49,2.5Z"/>
      </g>
    </g>
    <g>
      <g>
        <path class="cls-11" d="M374.36,59.2a15.13,15.13,0,0,1,2.63.23,20.66,20.66,0,0,1-.24-3.17,21.31,21.31,0,0,1,34.08-17.08A16.36,16.36,0,0,1,441,51.5c.26,0,.52,0,.78,0a14.31,14.31,0,0,1,4.36.68A21.68,21.68,0,0,1,483.7,62.55a18.62,18.62,0,0,1,10.47,8,8.65,8.65,0,0,1,4.24-1.09,8.83,8.83,0,0,1,0,17.65,9,9,0,0,1-2.61-.39,18.57,18.57,0,0,1-34.23,1.47c-.65,0-1.29-.07-1.93-.15a21.69,21.69,0,0,1-42,4.36,24.53,24.53,0,0,1-3.22.22A22.91,22.91,0,0,1,403.76,90,14.52,14.52,0,0,1,377.16,88a14.3,14.3,0,0,1-2.8.27,14.52,14.52,0,0,1,0-29Z"/>
        <path class="cls-12" d="M374.36,59.2a15.13,15.13,0,0,1,2.63.23,20.66,20.66,0,0,1-.24-3.17,21.31,21.31,0,0,1,34.08-17.08,16.35,16.35,0,0,1,29.68.94l-.21.72.49,0a16.26,16.26,0,0,1,1,5.69,16.44,16.44,0,0,1-.78,5c.26,0,.52,0,.78,0a14.31,14.31,0,0,1,4.36.68A21.68,21.68,0,0,1,483.7,62.55a18.62,18.62,0,0,1,10.47,8,8.65,8.65,0,0,1,4.24-1.09,8.82,8.82,0,0,1,6.63,3,8.83,8.83,0,0,1-7.37,4,8.69,8.69,0,0,1-2.61-.4,18.56,18.56,0,0,1-34.22,1.48c-.66,0-1.3-.07-1.94-.15a21.69,21.69,0,0,1-42,4.36,24.41,24.41,0,0,1-3.22.22A22.94,22.94,0,0,1,403,79.37a14.51,14.51,0,0,1-26.59-2.06,14.37,14.37,0,0,1-2.8.27,14.52,14.52,0,0,1-13.1-8.26A14.51,14.51,0,0,1,374.36,59.2Z"/>
      </g>
      <path class="cls-5" d="M374,59.32a14.11,14.11,0,0,1,2.62.24,22.25,22.25,0,0,1-.23-3.18A21.31,21.31,0,0,1,410.45,39.3a16.36,16.36,0,0,1,30.21,12.32l.77,0a14.26,14.26,0,0,1,4.36.68,21.68,21.68,0,0,1,37.54,10.39,18.61,18.61,0,0,1,10.46,8A8.82,8.82,0,1,1,498,87.26a9,9,0,0,1-2.61-.39,18.56,18.56,0,0,1-34.22,1.48c-.66,0-1.3-.08-1.94-.16a21.69,21.69,0,0,1-42,4.36,22.89,22.89,0,0,1-13.89-2.4,14.51,14.51,0,0,1-26.59-2.06,14.37,14.37,0,0,1-2.8.27,14.52,14.52,0,1,1,0-29Z"/>
      <path class="cls-2" d="M386.17,73.48a.7.7,0,0,1,.19,1,.72.72,0,0,1-1,.19,22.5,22.5,0,0,1-6.29-6.53,22,22,0,0,1-3.17-8.46.71.71,0,1,1,1.4-.21,20.93,20.93,0,0,0,8.85,14Zm96.13-12a.71.71,0,0,1,.54-.84.69.69,0,0,1,.84.53,27.08,27.08,0,0,1,.47,2.79,26.4,26.4,0,0,1,.18,2.84,16.77,16.77,0,0,1-.3,3.35,18.11,18.11,0,0,1-1,3.29.71.71,0,0,1-1.32-.53,16,16,0,0,0,.91-3,15.56,15.56,0,0,0,.28-3.06c0-.9-.07-1.8-.17-2.7s-.26-1.79-.45-2.64Zm-63,33.88a.71.71,0,1,1-1.24.68,22.39,22.39,0,0,1-1.73-17.23,21.9,21.9,0,0,1,2.85-6,.71.71,0,1,1,1.17.79,21.06,21.06,0,0,0-2.94,16.9A20.47,20.47,0,0,0,419.31,95.32Z"/>
      <g>
        <g>
          <polygon class="cls-13" points="406.42 51.48 388.13 69.77 405.7 69.77 376.38 99.11 437.24 65.1 418.36 65.1 431.98 51.48 406.42 51.48"/>
          <polygon class="cls-3" points="406.42 51.48 388.13 69.77 405.7 69.77 387.55 87.94 422.42 68.45 408.8 68.45 425.77 51.48 406.42 51.48"/>
        </g>
        <polygon class="cls-5" points="406.26 51.48 387.98 69.77 405.55 69.77 376.23 99.11 437.08 65.1 418.21 65.1 431.82 51.48 406.26 51.48"/>
      </g>
      <g>
        <g>
          <polygon class="cls-13" points="477.34 43.03 466.24 54.13 476.91 54.13 459.11 71.93 496.04 51.29 484.59 51.29 492.85 43.03 477.34 43.03"/>
          <polygon class="cls-3" points="477.34 43.03 466.24 54.13 476.91 54.13 465.89 65.15 487.05 53.32 478.79 53.32 489.08 43.03 477.34 43.03"/>
        </g>
        <polygon class="cls-5" points="477.25 43.03 466.15 54.13 476.81 54.13 459.02 71.93 495.95 51.29 484.49 51.29 492.76 43.03 477.25 43.03"/>
      </g>
      <g>
        <g>
          <polygon class="cls-13" points="456.68 29.39 451.64 34.43 456.48 34.43 448.4 42.52 465.17 33.15 459.97 33.15 463.72 29.39 456.68 29.39"/>
          <polygon class="cls-3" points="456.68 29.39 451.64 34.43 456.48 34.43 451.48 39.44 461.09 34.07 457.33 34.07 462.01 29.39 456.68 29.39"/>
        </g>
        <polygon class="cls-5" points="456.63 29.39 451.6 34.43 456.44 34.43 448.36 42.52 465.13 33.15 459.93 33.15 463.68 29.39 456.63 29.39"/>
      </g>
      <g>
        <g>
          <polygon class="cls-13" points="526.32 50.77 520.09 57.01 526.08 57.01 516.08 67.01 536.83 55.41 530.39 55.41 535.03 50.77 526.32 50.77"/>
          <polygon class="cls-3" points="526.32 50.77 520.09 57.01 526.08 57.01 519.88 63.2 531.78 56.55 527.13 56.55 532.92 50.77 526.32 50.77"/>
        </g>
        <polygon class="cls-5" points="526.27 50.77 520.03 57.01 526.02 57.01 516.02 67.01 536.77 55.41 530.34 55.41 534.98 50.77 526.27 50.77"/>
      </g>
    </g>
    <g>
      <g>
        <path class="cls-11" d="M64.06,60a14.65,14.65,0,0,1,2.58.23,21.55,21.55,0,0,1-.23-3.13,21,21,0,0,1,33.53-16.8,16.1,16.1,0,0,1,29.72,12.12l.76,0a13.85,13.85,0,0,1,4.29.67,21.33,21.33,0,0,1,36.93,10.22,18.39,18.39,0,0,1,10.3,7.9,8.68,8.68,0,1,1,4.17,16.3,8.74,8.74,0,0,1-2.57-.39,18.27,18.27,0,0,1-33.68,1.46c-.64,0-1.27-.08-1.9-.16a21.33,21.33,0,0,1-41.31,4.29,22.21,22.21,0,0,1-3.17.22A22.5,22.5,0,0,1,93,90.3a14.29,14.29,0,0,1-26.17-2,14.65,14.65,0,0,1-2.75.26,14.29,14.29,0,1,1,0-28.57Z"/>
        <path class="cls-12" d="M64.06,60a14.65,14.65,0,0,1,2.58.23,21.55,21.55,0,0,1-.23-3.13,21,21,0,0,1,33.53-16.8,16.09,16.09,0,0,1,29.2.92c-.06.24-.13.48-.21.71l.48,0a16,16,0,0,1,1,5.61,16.2,16.2,0,0,1-.76,4.9l.76,0a13.85,13.85,0,0,1,4.29.67,21.33,21.33,0,0,1,36.93,10.22,18.39,18.39,0,0,1,10.3,7.9,8.66,8.66,0,0,1,10.7,1.9,8.67,8.67,0,0,1-9.82,3.52A18.27,18.27,0,0,1,149.14,78c-.64,0-1.27-.08-1.9-.16a21.34,21.34,0,0,1-41.32,4.29,22,22,0,0,1-3.17.22,22.43,22.43,0,0,1-10.49-2.58,14.29,14.29,0,0,1-26.17-2,14.65,14.65,0,0,1-2.75.26,14.29,14.29,0,0,1-12.9-8.13A14.3,14.3,0,0,1,64.06,60Z"/>
      </g>
      <path class="cls-5" d="M63.69,60.09a14.65,14.65,0,0,1,2.58.23A21.45,21.45,0,0,1,66,57.19a21,21,0,0,1,33.53-16.8,16.1,16.1,0,0,1,29.72,12.12l.76,0a14.11,14.11,0,0,1,4.29.67,21.33,21.33,0,0,1,36.93,10.22,18.39,18.39,0,0,1,10.3,7.9,8.68,8.68,0,1,1,4.17,16.3,8.74,8.74,0,0,1-2.57-.39,18.26,18.26,0,0,1-33.67,1.46c-.65,0-1.28-.08-1.9-.16a21.34,21.34,0,0,1-41.32,4.29,22.21,22.21,0,0,1-3.17.23,22.5,22.5,0,0,1-10.5-2.59,14.29,14.29,0,0,1-26.17-2,14.65,14.65,0,0,1-2.75.27,14.29,14.29,0,0,1,0-28.58Z"/>
      <path class="cls-2" d="M170.25,62.17a.71.71,0,0,1,1.38-.3,27.35,27.35,0,0,1,.64,5.54,16.18,16.18,0,0,1-.3,3.29A17.13,17.13,0,0,1,171,74a.71.71,0,0,1-1.32-.54,15.89,15.89,0,0,0,.89-3,15.05,15.05,0,0,0,.28-3,26.38,26.38,0,0,0-.17-2.66,24.31,24.31,0,0,0-.44-2.6ZM75.68,74a.7.7,0,0,1,.19,1,.72.72,0,0,1-1,.19,21.93,21.93,0,0,1-9.31-14.76.7.7,0,0,1,.59-.8.7.7,0,0,1,.81.59A20.25,20.25,0,0,0,69.9,68a20.57,20.57,0,0,0,5.78,6ZM108.29,95.5a.71.71,0,1,1-1.24.68,22.08,22.08,0,0,1,1.1-22.84.71.71,0,0,1,1.18.79,20.35,20.35,0,0,0-2.63,5.5,20.6,20.6,0,0,0,1.59,15.87Z"/>
      <g>
        <g>
          <polygon class="cls-13" points="131.24 62.98 110.65 83.58 130.44 83.58 97.41 116.62 165.95 78.33 144.69 78.33 160.03 62.98 131.24 62.98"/>
          <polygon class="cls-3" points="131.24 62.98 110.65 83.58 130.44 83.58 109.99 104.04 149.27 82.09 133.93 82.09 153.04 62.98 131.24 62.98"/>
        </g>
        <polygon class="cls-5" points="131.07 62.98 110.47 83.58 130.27 83.58 97.24 116.62 165.78 78.33 144.52 78.33 159.86 62.98 131.07 62.98"/>
      </g>
      <g>
        <g>
          <polygon class="cls-13" points="123.58 28.86 112.66 39.78 123.16 39.78 105.65 57.3 141.98 36.99 130.71 36.99 138.84 28.86 123.58 28.86"/>
          <polygon class="cls-3" points="123.58 28.86 112.66 39.78 123.16 39.78 112.31 50.63 133.14 38.99 125.01 38.99 135.13 28.86 123.58 28.86"/>
        </g>
        <polygon class="cls-5" points="123.49 28.86 112.57 39.78 123.06 39.78 105.55 57.3 141.89 36.99 130.62 36.99 138.75 28.86 123.49 28.86"/>
      </g>
      <g>
        <g>
          <polygon class="cls-13" points="183.17 42.94 178.21 47.9 182.98 47.9 175.03 55.85 191.53 46.63 186.41 46.63 190.1 42.94 183.17 42.94"/>
          <polygon class="cls-3" points="183.17 42.94 178.21 47.9 182.98 47.9 178.06 52.82 187.51 47.54 183.82 47.54 188.42 42.94 183.17 42.94"/>
        </g>
        <polygon class="cls-5" points="183.13 42.94 178.17 47.9 182.94 47.9 174.99 55.85 191.48 46.63 186.37 46.63 190.06 42.94 183.13 42.94"/>
      </g>
    </g>
    <g>
      <g>
        <polygon class="cls-13" points="379.88 139.8 389.06 155.93 398.43 171.95 379.88 171.84 361.33 171.95 370.7 155.93 379.88 139.8"/>
        <polygon class="cls-3" points="379.88 171.84 361.33 171.95 370.7 155.93 379.88 139.8 379.88 171.84"/>
        <polygon class="cls-14" points="379.88 145.62 386.57 157.37 393.39 169.03 379.88 168.96 366.37 169.03 373.19 157.37 379.88 145.62"/>
        <polygon class="cls-15" points="379.88 168.96 366.37 169.03 373.19 157.37 379.88 145.62 379.88 168.96"/>
      </g>
      <polygon class="cls-5" points="379.81 139.89 388.99 156.02 398.36 172.04 379.81 171.93 361.25 172.04 370.62 156.02 379.81 139.89"/>
      <polygon class="cls-5" points="379.81 145.71 386.5 157.46 393.32 169.13 379.81 169.05 366.3 169.13 373.12 157.46 379.81 145.71"/>
      <g>
        <g>
          <path class="cls-13" d="M379.78,162.91a1.94,1.94,0,1,1-1.94,1.93,1.92,1.92,0,0,1,1.94-1.93Zm0-11.48h0a1.69,1.69,0,0,1,1.68,1.69v6.66a1.69,1.69,0,0,1-1.68,1.68h0a1.69,1.69,0,0,1-1.69-1.68v-6.66A1.69,1.69,0,0,1,379.78,151.43Z"/>
          <path class="cls-3" d="M379.09,166.65a1.94,1.94,0,1,1,1.25-1.81,1.94,1.94,0,0,1-1.25,1.81Zm0-15.07a1.68,1.68,0,0,1,1,1.54v6.66a1.09,1.09,0,1,1-2,0v-6.66A1.68,1.68,0,0,1,379.09,151.58Z"/>
        </g>
        <path class="cls-5" d="M379.77,166.78a1.94,1.94,0,1,0-1.93-1.94A1.94,1.94,0,0,0,379.77,166.78Z"/>
        <path class="cls-5" d="M379.77,151.43h0a1.69,1.69,0,0,1,1.69,1.69v6.66a1.69,1.69,0,0,1-1.69,1.68h0a1.68,1.68,0,0,1-1.68-1.68v-6.66A1.69,1.69,0,0,1,379.77,151.43Z"/>
      </g>
    </g>
    <g>
      <g>
        <path class="cls-3" d="M345.27,147.2a15.71,15.71,0,1,0-15.71-15.71A15.74,15.74,0,0,0,345.27,147.2Z"/>
        <path class="cls-16" d="M341.7,116.19a15.71,15.71,0,0,1,0,30.6,15.71,15.71,0,0,1,0-30.6Z"/>
        <ellipse class="cls-17" cx="345.55" cy="131.78" rx="15.71" ry="15.71" transform="translate(211.94 476.63) rotate(-89.7)"/>
        <path class="cls-2" d="M334.39,131.51v.42a1,1,0,0,0,.28.69l0,0a1,1,0,0,0,1.34,0,1,1,0,0,0,.28-.69v-.59a2.38,2.38,0,0,1,.7-1.68h0a2.37,2.37,0,0,1,3.36,0h0a2.34,2.34,0,0,1,.7,1.68v3.86a1,1,0,0,0,.29.69l0,0a1,1,0,0,0,.65.25,1,1,0,0,0,1-1v-7.13a2.39,2.39,0,0,1,.7-1.69.1.1,0,0,1,0,0,2.35,2.35,0,0,1,3.31,0h0a2.38,2.38,0,0,1,.7,1.68v7.13a1,1,0,0,0,1.65.69h0a1,1,0,0,0,.28-.69v-3.86a2.38,2.38,0,0,1,.7-1.68h0a2.38,2.38,0,0,1,4.06,1.68v.59a1,1,0,0,0,.29.69h0a1,1,0,0,0,1.36,0h0a1,1,0,0,0,.29-.69v-.36a1.76,1.76,0,0,1,.52-1.25,1.73,1.73,0,0,1,1.25-.53h2.6a.71.71,0,1,1,0,1.42h-2.6a.34.34,0,0,0-.25.11.38.38,0,0,0-.11.23v.38a2.35,2.35,0,0,1-.7,1.69h0a2.38,2.38,0,0,1-3.37,0h0a2.41,2.41,0,0,1-.7-1.69v-.59a1,1,0,0,0-.28-.68,1,1,0,0,0-.68-.28,1,1,0,0,0-.69.28h0a1,1,0,0,0-.28.68v3.86a2.39,2.39,0,0,1-.7,1.69h0a2.39,2.39,0,0,1-4.07-1.69v-7.13a1,1,0,0,0-.28-.69h0a1,1,0,0,0-.69-.28.94.94,0,0,0-.65.25l0,0a1,1,0,0,0-.28.69v7.13a2.38,2.38,0,0,1-4,1.73l0,0a2.35,2.35,0,0,1-.7-1.69v-3.86a1,1,0,0,0-.29-.68h0a1,1,0,0,0-1.36,0h0a1,1,0,0,0-.28.68v.59a2.38,2.38,0,0,1-4,1.73l-.05,0a2.39,2.39,0,0,1-.7-1.69v-.36a.36.36,0,0,0-.1-.25h0a.33.33,0,0,0-.25-.11H330a.71.71,0,0,1,0-1.42h2.6a1.75,1.75,0,0,1,1.26.53h0a1.83,1.83,0,0,1,.52,1.19Zm12.71-5.12v1A.7.7,0,0,0,347.1,126.39Z"/>
        <path class="cls-2" d="M346.11,96.81a.71.71,0,0,1-.05,1.41,33.35,33.35,0,0,0-34.55,34.56.71.71,0,0,1-1.41.05,34.76,34.76,0,0,1,36-36Zm0,12.85A21.94,21.94,0,0,0,323,132.84a.71.71,0,0,0,.74.67.71.71,0,0,0,.67-.75A20.55,20.55,0,0,1,346,111.07a.71.71,0,0,0,.75-.66.71.71,0,0,0-.67-.75Zm0-6.43a28.37,28.37,0,0,0-29.59,29.6.7.7,0,0,0,.73.68.71.71,0,0,0,.68-.74,27,27,0,0,1,28.12-28.13.71.71,0,0,0,.74-.67A.72.72,0,0,0,346.11,103.23Z"/>
      </g>
      <g>
        <g>
          <path class="cls-13" d="M343,158.06a4.24,4.24,0,0,1,2.78,1.05,4.22,4.22,0,0,1,2.77-1.05,4.57,4.57,0,0,1,3.94,2.4c2.48,4.47-3.73,9.56-6.71,11.24-3.08-1.49-8.83-6.37-6.91-10.82A4.59,4.59,0,0,1,343,158.06Z"/>
          <path class="cls-3" d="M344.29,158.27a4.39,4.39,0,0,1,1.48.85,4.36,4.36,0,0,1,1.3-.79,4.66,4.66,0,0,1,2.46,2.13c2.13,3.85-2.16,8.15-5.3,10.35-3.1-2.06-7-6.15-5.37-9.93a4.7,4.7,0,0,1,2.65-2.55,4.29,4.29,0,0,1,1.31.79A4.25,4.25,0,0,1,344.29,158.27Z"/>
          <path class="cls-18" d="M343,158.06a4.24,4.24,0,0,1,2.78,1.05,4.22,4.22,0,0,1,2.77-1.05,4.57,4.57,0,0,1,3.94,2.4c2.48,4.47-3.73,9.56-6.71,11.24-3.08-1.49-8.83-6.37-6.91-10.82A4.59,4.59,0,0,1,343,158.06Z"/>
        </g>
        <path class="cls-2" d="M347.06,175.37l.16,1.41h-1.49v-1.42h-.56l-.07,1.41h.63l1.33-1.5Zm-1.33.08h1.33l-1.33.08Zm-1.89-.15-.23,1.4h-.18l-.08,0h-.08l-.08,0-.08,0H343l-.08,0-.08,0h-.07l-.08,0-.08,0-.08,0-.08,0-.07,0-.08,0-.08,0-.08,0h0l.39-1.36h0l.07,0,.07,0,.07,0,.07,0h.07l.07,0,.07,0h.07l.07,0,.06,0h.08l.07,0h.14l.07,0h.23Zm-2.56-.73-.55,1.3-.06,0-.07,0-.07,0-.07,0-.07,0-.08,0-.07,0-.07,0-.07,0-.07,0-.07,0-.07,0-.07,0-.07,0-.07,0-.07,0-.07,0-.07,0-.07,0h0l.7-1.23h0l0,0,.07,0,.06,0,.06,0,.06,0,.06,0,.07,0,.06,0,.06,0,.06,0,.07,0,.06,0,.07,0,.06,0,.06,0,.07,0,.06,0,.07,0,0,0ZM339,173.26l-.84,1.15,0,0-.07,0-.06,0-.06,0-.06-.05-.07,0-.06-.05-.06,0-.06-.05-.06-.05-.06,0-.06-.05-.06,0-.06-.05-.06-.05-.06,0-.05-.05-.06,0-.06-.05,0,0,1-1,0,0,.05,0,.06,0,.05.05.05,0,0,.05.06,0,.05.05.05,0,.06,0,.05.05,0,0,.06,0,.05.05.06,0,.05,0,.06,0,.05,0,.06.05,0,0Zm-2-1.8-1.07.93h0l-.05-.06-.05-.06-.05-.06-.05-.06,0-.06-.05-.06-.05-.06,0-.06,0-.06-.05-.06-.05-.07,0-.06-.05-.06,0-.06,0-.07-.05-.06,0-.06-.05-.07,0-.06h0l1.18-.79h0l0,.05,0,.06,0,.06,0,.06,0,.05,0,.06,0,.05,0,.06.05.06,0,.05,0,.05,0,.06.05,0,0,.06,0,.05.05,0,0,.06.05.05,0,0Zm-1.5-2.2-1.26.66,0,0,0-.07,0-.08,0-.07,0-.07,0-.07,0-.07,0-.07,0-.07,0-.07,0-.07,0-.08,0-.07,0-.07,0-.08,0-.07,0-.07,0-.08,0-.07v0l1.33-.5h0l0,.07,0,.06,0,.07,0,.06,0,.07,0,.06,0,.06,0,.07,0,.06,0,.07,0,.06,0,.07,0,.06,0,.06,0,.06,0,.07,0,.06,0,.06,0,0Zm-1-2.48-1.38.34v-.07l0-.08,0-.08,0-.07,0-.08,0-.08v-.08l0-.08,0-.08v-.08l0-.08v-.16l0-.08v-.16l0-.08v-.13l1.4-.18v.46l0,.07v.14l0,.08v.07l0,.07v.07l0,.07,0,.07v.07l0,.07,0,.07Zm-.36-2.64-1.42,0v-1.5l1.41.14v1.34Zm.24-2.66-1.38-.3v-.07l0-.08,0-.08,0-.08,0-.07,0-.08,0-.08,0-.08,0-.08,0-.07,0-.08,0-.08,0-.07,0-.08,0-.08,0-.07,0-.08,0-.08,0,0,1.35.45,0,.05,0,.07,0,.07,0,.06,0,.07,0,.07,0,.07,0,.07,0,.07,0,.06v.07l0,.07,0,.07,0,.07v.07l0,.07,0,.07v.07l0,.07Zm.85-2.53-1.28-.6v0l0-.08,0-.07,0-.07,0-.07,0-.07,0-.07,0-.07,0-.07,0-.07,0-.07,0-.06,0-.07,0-.07,0-.07,0-.06,0-.07,0-.07,0-.07,0-.05,1.2.75,0,.05,0,.06,0,.06,0,.06,0,.06,0,.06,0,.06,0,.06,0,.06,0,.06,0,.06,0,.06,0,.07,0,.06,0,.06,0,.06,0,.07,0,.06,0,.06v0Zm1.41-2.26-1.11-.88h0l.05-.06.05-.07,0-.06.05-.06.05-.05.05-.06.05-.06,0-.06.06-.06.05-.06.05-.06.05-.05.05-.06.06-.06.05,0,.06-.06.05-.06.05-.05.06-.06h0l1,1h0l-.05.05-.05.05,0,0-.05.05-.05,0-.05.05,0,.06-.05.05-.05,0,0,.05-.05,0,0,.05,0,.06-.05,0,0,.05-.05.06,0,.05,0,0-.05.06Zm1.89-1.88-.88-1.12,0,0,.06,0,.07-.05.06,0,.06-.05.06,0,.07,0,.06,0,.06,0,.07-.05.06,0,.07-.05.06,0,.06-.05.07,0,.07,0,.06,0,.07,0,.06,0,.05,0,.74,1.21,0,0-.06,0-.05,0-.06,0-.06,0-.06,0-.06,0-.06,0-.05,0-.06,0-.06,0,0,0-.06,0-.06,0-.05,0-.06,0-.05,0-.06,0-.05,0,0,0Zm2.26-1.41-.6-1.28h0l.07,0,.08,0,.07,0,.07,0,.07,0,.07,0,.08,0,.07,0,.07,0,.08,0,.07,0,.08,0,.07,0,.07,0,.08,0,.07,0,.08,0,.07,0,.06,0,.44,1.35h0l-.07,0-.07,0-.06,0-.07,0-.06,0-.07,0-.07,0-.06,0-.07,0-.06,0-.07,0-.06,0-.07,0-.06,0-.07,0-.06,0-.06,0-.07,0Zm2.53-.84-.28-1.39h.12l.08,0h.08l.08,0h.08l.08,0h.32l.08,0h.55l.13,1.41h-.85l-.07,0h-.21l-.07,0h-.12Zm2.66-.24,0-1.42h1.49l-.19,1.41H346Zm2.63.37.37-1.37h0l.08,0,.07,0,.08,0,.08,0,.07,0,.08,0,.08,0,.07,0,.08,0,.07,0,.08,0,.08,0,.07,0,.08,0,.07,0,.07,0,.08,0,.07,0h0l-.52,1.32h0l-.06,0-.07,0-.07,0-.06,0-.07,0-.07,0-.06,0-.07,0-.07,0-.07,0-.06,0-.07,0-.07,0-.07,0-.07,0-.07,0-.06,0-.07,0Zm2.49,1,.67-1.25.05,0,.07,0,.06,0,.07,0,.07,0,.07,0,.07,0,.06,0,.07,0,.07,0,.07,0,.06,0,.07,0,.06,0,.07,0,.06,0,.07,0,.07.05.06,0,0,0-.81,1.16h0l-.06,0-.06,0-.05,0-.06,0-.06,0-.06,0-.06,0-.06,0-.06,0-.06,0-.06,0-.06,0-.06,0-.06,0-.06,0-.06,0-.06,0-.06,0-.05,0Zm2.19,1.51.94-1.06,0,0,.06,0,.06.05.06.05.05.06.06,0,.06.05.05.06.06,0,.06.05.05.06.06,0,0,.06.06.05.05.06.05.06.06,0,.05.06,0,.06.05,0-1.05,1,0,0-.05-.06,0-.05,0,0-.05-.05-.05,0-.05-.05-.05-.05,0,0-.05,0,0-.05-.06-.05-.05,0,0,0-.05,0-.05-.05-.05,0-.05-.05,0,0,0,0Zm1.8,2,1.15-.82,0,.06.05.06,0,.06.05.07,0,.06,0,.07.05.06,0,.07,0,.06,0,.07.05.07,0,.06,0,.07,0,.07,0,.07,0,.06,0,.07,0,.07,0,.07v0l-1.24.68h0l0-.06,0-.06,0-.06,0-.06,0-.06,0-.06,0-.06,0-.06,0-.06,0-.06,0-.06,0-.06,0-.05,0-.06,0-.06,0-.06,0-.06,0-.05,0-.06Zm1.3,2.33,1.31-.53,0,0,0,.07,0,.07,0,.08,0,.07,0,.07,0,.08,0,.07,0,.08,0,.07,0,.08,0,.07,0,.08,0,.08,0,.07,0,.08,0,.08,0,.07,0,.08h0l-1.37.38h0l0-.07,0-.07,0-.07,0-.07,0-.06,0-.07,0-.07,0-.07,0-.06,0-.07,0-.07,0-.06,0-.07,0-.07,0-.06,0-.07,0-.06,0-.07,0,0Zm.72,2.57,1.4-.23v1.49l-1.41.06V162Zm.12,2.66,1.42.1h0v1.14l0,.08v.08l0,.08v.1l-1.4-.27h0v-.21l0-.07v-1Zm-.49,2.62,1.36.42h0l0,.08,0,.08,0,.07,0,.08,0,.07,0,.08,0,.07,0,.08,0,.07,0,.08,0,.07,0,.07,0,.08,0,.07,0,.07,0,.08,0,.07,0,.07,0,0-1.29-.57,0-.05,0-.06,0-.06,0-.07,0-.06,0-.07,0-.06,0-.07,0-.07,0-.06,0-.07,0-.07,0-.06,0-.07,0-.07,0-.06,0-.07,0-.07,0-.07Zm-1.07,2.44,1.22.72h0l0,.07,0,.07,0,.06,0,.07-.05.07,0,.06,0,.07,0,.06-.05.07,0,.06,0,.07-.05.06,0,.07-.05.06,0,.06,0,.07,0,.06-.05.06-.05.06-1.13-.85,0-.06,0-.05.05-.06,0-.05,0-.06,0-.06,0-.06,0-.05,0-.06,0-.06,0,0,0-.06,0-.06,0-.06,0-.06,0-.06,0-.06,0-.06,0-.06Zm-1.61,2.12,1,1,0,.05-.05,0L355,173l0,.05-.06.06-.05,0-.06.06-.06.05-.05.06-.06,0-.06.05-.05.05-.06.06-.06,0-.06.05-.06,0-.06.05-.06.05-.06,0,0,0-.91-1.1h0l.05-.05.05,0,.05-.05.06,0,0-.05.05,0,.05,0,.05,0,.05-.05,0,0,.05,0,.06,0,0-.05.05,0,0-.05L354,172l.05,0,.05-.05,0,0Zm-2,1.71.77,1.19h0l-.07,0-.06,0-.07,0-.06,0-.07,0-.07,0-.07,0-.06,0-.07,0-.07,0-.07,0-.07,0-.06,0-.07,0-.07,0-.07,0-.07,0-.07,0-.06,0-.63-1.27.05,0,.06,0,.06,0,.07,0,.06,0,.06,0,.06,0,.06,0,.06,0,.06,0,.06,0,.06,0,.06,0,.06,0,.06,0,.06,0,.06,0,.06,0,.06,0Zm-2.38,1.19.47,1.33h0l-.08,0-.07,0-.08,0-.08,0-.07,0-.08,0-.07,0-.08,0-.08,0-.07,0-.08,0-.08,0-.07,0-.08,0-.08,0-.08,0-.08,0-.07,0h0l-.32-1.38h0l.07,0,.07,0h.07l.07,0,.07,0,.06,0,.07,0,.07,0,.07,0,.07,0,.07,0,.06,0,.07,0,.07,0,.07,0,.06,0,.07,0,.07,0Z"/>
      </g>
    </g>
    <g>
      <path class="cls-13" d="M507.2,116.11A24.29,24.29,0,1,1,474,125,24.3,24.3,0,0,1,507.2,116.11Z"/>
      <path class="cls-3" d="M480.09,156.29a24.3,24.3,0,0,1,24.05-41.67,24.3,24.3,0,0,1-24.05,41.67Z"/>
      <ellipse class="cls-19" cx="495.2" cy="137.24" rx="24.29" ry="24.3" transform="matrix(1, -0.01, 0.01, 1, -0.69, 2.53)"/>
      <ellipse class="cls-20" cx="495.2" cy="137.24" rx="17.08" ry="17.07" transform="translate(355.37 631.71) rotate(-89.7)"/>
      <path class="cls-15" d="M507.25,125.14a17.08,17.08,0,0,1-16.5,28.59,17.08,17.08,0,0,1,16.5-28.59Z"/>
      <path class="cls-18" d="M503.74,122.44a17.08,17.08,0,1,1-23.33,6.26A17.1,17.1,0,0,1,503.74,122.44Z"/>
      <path class="cls-21" d="M496.34,135.26a2.28,2.28,0,1,1-3.12.83A2.29,2.29,0,0,1,496.34,135.26Z"/>
      <path class="cls-2" d="M501,125.76a.7.7,0,0,1,1.22.7l-4.31,7.47a.71.71,0,1,1-1.22-.71Z"/>
      <path class="cls-2" d="M502,124.13a.7.7,0,0,1,1-.26.69.69,0,0,1,.26,1l-.9,1.57a.71.71,0,0,1-1.23-.7l.91-1.57Zm3.16,2.19a.71.71,0,0,1,1,1l-1.28,1.28a.71.71,0,0,1-1,0,.7.7,0,0,1,0-1l1.28-1.29Zm4.81,10.21a.71.71,0,1,1,0,1.41h-1.81a.71.71,0,1,1,0-1.41Zm-14,15.44a.71.71,0,0,1-1.42,0v-1.82a.71.71,0,0,1,1.42,0V152Zm-13.62-15.44a.71.71,0,0,1,0,1.42h-1.82a.71.71,0,0,1,0-1.42Zm13.61-12.21a.7.7,0,0,1-.7.71.71.71,0,0,1-.71-.71v-1.81a.71.71,0,0,1,.71-.71.7.7,0,0,1,.7.71v1.81Zm10.21,22.83a.71.71,0,0,1-1,1l-1.28-1.28a.71.71,0,0,1,1-1l1.28,1.28Zm-20.54-1.28a.7.7,0,0,1,1,0,.71.71,0,0,1,0,1l-1.28,1.28a.7.7,0,0,1-1,0,.71.71,0,0,1,0-1l1.29-1.28Zm1-18.26a.7.7,0,1,1-1,1l-1.29-1.28a.71.71,0,0,1,0-1,.7.7,0,0,1,1,0l1.28,1.29Zm21,1.65a.7.7,0,0,1,1,.26.69.69,0,0,1-.26,1l-1.57.91a.7.7,0,0,1-1-.26.69.69,0,0,1,.26-1l1.57-.91Zm2,11.11a.7.7,0,1,1-.37,1.36l-1.75-.47a.7.7,0,1,1,.36-1.36l1.76.47Zm-17.54,11.28a.71.71,0,0,1-.87.5.72.72,0,0,1-.5-.87l.47-1.75a.71.71,0,0,1,1.37.36l-.47,1.76Zm-9.16-18.44a.71.71,0,0,1-.36,1.37l-1.76-.47a.71.71,0,0,1,.37-1.37l1.75.47ZM499.22,125a.7.7,0,1,1-1.36-.37l.47-1.76a.7.7,0,1,1,1.36.37l-.47,1.76Zm3.95,24.69a.7.7,0,1,1-1.22.7l-.91-1.57a.71.71,0,0,1,1.23-.7l.9,1.57Zm-19.5-6.56a.7.7,0,0,1,1,.26.69.69,0,0,1-.26,1l-1.57.91a.71.71,0,0,1-.71-1.22l1.58-.91Zm5.68-17.38a.7.7,0,0,1-1.22.7l-.91-1.57a.71.71,0,0,1,1.23-.7l.9,1.57Zm19.89,7a.71.71,0,0,1,.36,1.37l-1.75.47a.71.71,0,1,1-.36-1.37l1.75-.47Zm-9.55,18.54a.7.7,0,1,1-1.36.37l-.47-1.76a.7.7,0,1,1,1.36-.36l.47,1.75ZM482.55,139.9a.69.69,0,0,1,.86.5.7.7,0,0,1-.5.86l-1.75.47a.71.71,0,0,1-.87-.5.72.72,0,0,1,.5-.87l1.76-.46Zm10-15.32a.71.71,0,0,1-.5.87.72.72,0,0,1-.87-.5l-.47-1.76a.71.71,0,0,1,1.37-.36l.47,1.75ZM508.3,144a.7.7,0,1,1-.7,1.22L506,144.3a.69.69,0,0,1-.26-1,.7.7,0,0,1,1-.26l1.57.91Zm-20.17,4.08a.71.71,0,0,1,1.23.7l-.91,1.57a.7.7,0,1,1-1.22-.7l.9-1.57Zm-3.76-17.9a.7.7,0,0,1,.26,1,.71.71,0,0,1-1,.26l-1.57-.91a.71.71,0,0,1,.71-1.22Z"/>
      <path class="cls-2" d="M498.45,146.65a.7.7,0,1,1-1.36.37l-1.48-5.52a.71.71,0,0,1,1.37-.36Z"/>
    </g>
    <g>
      <g>
        <g>
          <g>
            <rect class="cls-6" x="409.52" y="100.69" width="51.21" height="77.53" rx="6"/>
            <rect class="cls-7" x="409.52" y="100.69" width="43.84" height="77.53" rx="6"/>
          </g>
          <g>
            <rect class="cls-22" x="409.06" y="113.15" width="51.21" height="53.53"/>
            <rect class="cls-23" x="409.06" y="113.15" width="44.63" height="53.53"/>
          </g>
          <rect class="cls-8" x="409.06" y="100.69" width="51.21" height="77.53" rx="6"/>
          <rect class="cls-8" x="409.06" y="113.15" width="51.21" height="53.53"/>
          <path class="cls-24" d="M434.43,175a2.77,2.77,0,1,0-2.77-2.77A2.77,2.77,0,0,0,434.43,175Z"/>
          <rect class="cls-25" x="423.5" y="105.93" width="23.07" height="2.77" rx="1.38"/>
        </g>
        <g>
          <g>
            <rect class="cls-26" x="418.86" y="118.65" width="25.99" height="25.23" rx="4.04"/>
            <path class="cls-27" d="M431.86,129.9c5.4,0,9.81,5.5,9.81,12.25a15.11,15.11,0,0,1-.09,1.66,3.94,3.94,0,0,1-.77.07H422.9a3.94,3.94,0,0,1-.77-.07,15.11,15.11,0,0,1-.09-1.66C422,135.4,426.45,129.9,431.86,129.9Z"/>
            <path class="cls-28" d="M431.86,122.46a4.76,4.76,0,1,1-4.76,4.76A4.76,4.76,0,0,1,431.86,122.46Z"/>
            <path class="cls-2" d="M426.36,137.11a.71.71,0,1,1,1.41,0v6.77a.71.71,0,1,1-1.41,0v-6.77Zm9.61,0a.71.71,0,1,1,1.42,0v6.77a.71.71,0,0,1-1.42,0Z"/>
          </g>
          <g>
            <rect class="cls-26" x="433.69" y="143.96" width="18" height="17.47" rx="2.8"/>
            <path class="cls-21" d="M442.69,151.74c3.74,0,6.79,3.81,6.79,8.49a10.93,10.93,0,0,1-.06,1.15,3.07,3.07,0,0,1-.53.05h-12.4a3.07,3.07,0,0,1-.53-.05,10.92,10.92,0,0,1-.07-1.15C435.89,155.55,439,151.74,442.69,151.74Z"/>
            <path class="cls-29" d="M442.69,146.6a3.3,3.3,0,1,1-3.3,3.29A3.29,3.29,0,0,1,442.69,146.6Z"/>
            <path class="cls-2" d="M438.66,156.74a.71.71,0,1,1,1.42,0v4.69a.71.71,0,0,1-1.42,0v-4.69Zm6.66,0a.71.71,0,0,1,1.42,0v4.69a.71.71,0,0,1-1.42,0Z"/>
          </g>
          <g>
            <rect class="cls-26" x="418.5" y="146.89" width="12.47" height="12.1" rx="1.94"/>
            <path class="cls-30" d="M424.73,152.28c2.59,0,4.71,2.64,4.71,5.88a7.16,7.16,0,0,1-.05.8,2.22,2.22,0,0,1-.37,0h-8.59l-.36,0a7.16,7.16,0,0,1-.05-.8C420,154.92,422.14,152.28,424.73,152.28Z"/>
            <path class="cls-30" d="M424.73,148.71a2.29,2.29,0,1,1-2.28,2.29A2.29,2.29,0,0,1,424.73,148.71Z"/>
            <path class="cls-2" d="M421.72,156.32a.71.71,0,0,1,1.42,0V159a.71.71,0,1,1-1.42,0v-2.67Zm4.61,0a.71.71,0,1,1,1.42,0V159a.71.71,0,0,1-1.42,0Z"/>
          </g>
        </g>
      </g>
      <g>
        <polygon class="cls-28" points="411.11 136.99 390.83 136.99 390.83 149.92 400.02 149.92 403.5 155.16 406.56 159.77 406.56 149.92 411.11 149.92 411.11 136.99"/>
        <path class="cls-2" d="M393.73,141.85h14.48v1.42H393.73v-1.42Zm0-2.21h14.48v1.41H393.73v-1.41Zm0,4.42h14.48v1.42H393.73v-1.42Zm0,2.21h14.48v1.42H393.73Z"/>
      </g>
      <g>
        <g>
          <g>
            <path class="cls-31" d="M373.25,117.18a14.17,14.17,0,1,1,10.22,17.24A14.18,14.18,0,0,1,373.25,117.18Z"/>
            <path class="cls-32" d="M399.64,127a14.16,14.16,0,0,1-26.82-6.86A14.16,14.16,0,0,1,399.64,127Z"/>
          </g>
          <path class="cls-18" d="M373.47,117.38a14.17,14.17,0,1,1,10.22,17.24A14.18,14.18,0,0,1,373.47,117.38Z"/>
          <path class="cls-30" d="M403.56,123a3.72,3.72,0,1,1,2.68,4.53A3.71,3.71,0,0,1,403.56,123Z"/>
          <path class="cls-30" d="M413.08,124.19a1.71,1.71,0,1,1,1.23,2.08A1.71,1.71,0,0,1,413.08,124.19Z"/>
        </g>
        <g>
          <path class="cls-5" d="M387.29,128.68a7.89,7.89,0,1,0-7.89-7.89A7.9,7.9,0,0,0,387.29,128.68Z"/>
          <path class="cls-5" d="M387.29,125.32a4.53,4.53,0,1,0-4.53-4.53A4.53,4.53,0,0,0,387.29,125.32Z"/>
          <path class="cls-33" d="M387.29,122.47a1.68,1.68,0,1,0-1.68-1.68A1.68,1.68,0,0,0,387.29,122.47Z"/>
        </g>
      </g>
      <g>
        <polygon class="cls-9" points="447.78 111.18 479.4 111.18 479.4 131.34 465.06 131.34 459.63 139.52 454.86 146.71 454.86 131.34 447.78 131.34 447.78 111.18"/>
        <path class="cls-2" d="M474.88,127.47H452.3v-1.42h22.58v1.42Zm0-10.35H452.3V115.7h22.58v1.42Zm0,3.45H452.3v-1.42h22.58v1.42Zm0,3.45H452.3V122.6h22.58Z"/>
      </g>
    </g>
    <g>
      <g>
        <g>
          <path class="cls-13" d="M513,111.22a2.11,2.11,0,1,1-3,.14,2.11,2.11,0,0,1,3-.14Zm8.4-9.21a1.83,1.83,0,0,0-2.58.12l-4.88,5.35a1.83,1.83,0,0,0,.12,2.59h0a1.84,1.84,0,0,0,2.58-.12l4.88-5.35a1.83,1.83,0,0,0-.12-2.59Z"/>
          <path class="cls-3" d="M509.66,113.73a2.11,2.11,0,1,1,2.33-.54,2.11,2.11,0,0,1-2.33.54Zm11.05-12.1a1.84,1.84,0,0,1-.33,2l-4.88,5.35a1.19,1.19,0,1,1-1.6-1.46l4.88-5.35A1.83,1.83,0,0,1,520.71,101.63Z"/>
        </g>
        <path class="cls-5" d="M513,111.22a2.1,2.1,0,1,1-3,.14A2.1,2.1,0,0,1,513,111.22Z"/>
        <path class="cls-5" d="M521.36,102h0a1.84,1.84,0,0,1,.12,2.59l-4.88,5.34a1.83,1.83,0,0,1-2.59.12h0a1.84,1.84,0,0,1-.12-2.59l4.88-5.34A1.83,1.83,0,0,1,521.36,102Z"/>
      </g>
      <g>
        <g>
          <path class="cls-13" d="M504.49,100.57a3.71,3.71,0,1,1-2.63,4.55,3.7,3.7,0,0,1,2.63-4.55Zm-5.7-21.28h0a3.25,3.25,0,0,1,4,2.29l3.31,12.35a3.24,3.24,0,0,1-2.29,4h0a3.24,3.24,0,0,1-4-2.29L496.5,83.25A3.24,3.24,0,0,1,498.79,79.29Z"/>
          <path class="cls-3" d="M505.07,107.85a3.71,3.71,0,1,1,1.42-4,3.71,3.71,0,0,1-1.42,4ZM497.59,79.9a3.24,3.24,0,0,1,2.61,2.36l3.31,12.35a2.1,2.1,0,1,1-3.7,1L496.5,83.25A3.24,3.24,0,0,1,497.59,79.9Z"/>
        </g>
        <path class="cls-5" d="M504.48,100.57a3.72,3.72,0,1,1-2.63,4.55A3.72,3.72,0,0,1,504.48,100.57Z"/>
        <path class="cls-5" d="M498.78,79.29h0a3.24,3.24,0,0,1,4,2.29l3.31,12.35a3.24,3.24,0,0,1-2.29,4h0a3.24,3.24,0,0,1-4-2.29l-3.31-12.35A3.24,3.24,0,0,1,498.78,79.29Z"/>
      </g>
      <g>
        <g>
          <path class="cls-13" d="M513.23,95.27a1.51,1.51,0,1,1-1.79,1.15,1.51,1.51,0,0,1,1.79-1.15Zm1.9-8.68h0a1.3,1.3,0,0,1,1,1.55l-1.1,5a1.3,1.3,0,0,1-1.56,1h0a1.3,1.3,0,0,1-1-1.55l1.1-5A1.3,1.3,0,0,1,515.13,86.59Z"/>
          <path class="cls-3" d="M512.09,98a1.5,1.5,0,1,1,1.24-1.17A1.51,1.51,0,0,1,512.09,98Zm2.49-11.41a1.29,1.29,0,0,1,.5,1.33L514,93a.85.85,0,1,1-1.51-.33l1.1-5A1.3,1.3,0,0,1,514.58,86.59Z"/>
        </g>
        <path class="cls-5" d="M513.22,95.27a1.5,1.5,0,1,1-.64,2.93,1.5,1.5,0,0,1,.64-2.93Z"/>
        <path class="cls-5" d="M515.12,86.59h0a1.31,1.31,0,0,1,1,1.55l-1.1,5a1.31,1.31,0,0,1-1.56,1h0a1.31,1.31,0,0,1-1-1.55l1.11-5A1.3,1.3,0,0,1,515.12,86.59Z"/>
      </g>
    </g>
    <g>
      <g>
        <path class="cls-13" d="M155.61,113.6c.11.46.21.93.28,1.41A15.09,15.09,0,1,1,126,119.52a14.16,14.16,0,0,1-.15-1.43Z"/>
        <path class="cls-3" d="M140.91,132.37A15.1,15.1,0,0,1,126,119.52a14.16,14.16,0,0,1-.15-1.43l25.15-3.8a13,13,0,0,1,.28,1.41A15.1,15.1,0,0,1,140.91,132.37Z"/>
        <polygon class="cls-13" points="156.21 115.87 162.23 115.05 162.44 115.88 161.78 118.92 160.97 120.43 159.25 122.25 157.43 123.39 153.91 124.7 155.36 122.23 157.47 121.31 158.85 119.63 159.91 117.48 159.38 117.38 155.18 118.19 156.21 115.87"/>
        <path class="cls-18" d="M155.61,113.6c.11.46.21.93.28,1.41A15.09,15.09,0,1,1,126,119.52a14.16,14.16,0,0,1-.15-1.43Z"/>
        <path class="cls-12" d="M140.19,112.67c8.2-1.24,15.07-.82,15.33.93s-6.17,4.18-14.37,5.42-15.07.82-15.33-.93S132,113.91,140.19,112.67Z"/>
        <path class="cls-11" d="M155.07,114.58c-1.6,1.59-7.16,3.42-13.92,4.44s-12.61.92-14.61-.13c1.6-1.6,7.16-3.42,13.92-4.45S153.07,113.53,155.07,114.58Z"/>
        <ellipse class="cls-19" cx="140.76" cy="115.83" rx="15.02" ry="3.21" transform="translate(-15.73 22.33) rotate(-8.59)"/>
        <path class="cls-2" d="M156.16,115.17l4.47-.68.41-.06c.84-.14,1.27-.21,1.67.19s.34.86.23,1.84l0,.27v0c0,.18,0,.37-.08.54s-.07.37-.11.56a8.72,8.72,0,0,1-2.78,4.69,13.88,13.88,0,0,1-5.58,2.83L154,124a12.36,12.36,0,0,0,5-2.53,7.37,7.37,0,0,0,2.35-3.94c0-.15.07-.31.1-.48l.06-.47v0l0-.26c.06-.53.27-.6.18-.69s-.08.14-.45.2l-.42.07-4.47.68Z"/>
        <path class="cls-2" d="M156.17,117.11l2.36-.36h.05l.24,0h0c1-.16,1.49-.24,1.73.59h0a1.52,1.52,0,0,1,0,.64,3.18,3.18,0,0,1-.14.53,7.07,7.07,0,0,1-.41.83,8.93,8.93,0,0,1-.56.85,7.79,7.79,0,0,1-1.66,1.63,9.62,9.62,0,0,1-2.16,1.15l-.5-1.33a7.56,7.56,0,0,0,1.83-1,6.57,6.57,0,0,0,1.36-1.32c.16-.23.33-.47.47-.71s.17-.33.25-.5h0l-.23,0h-.06l-2.36.36Z"/>
        <path class="cls-34" d="M136.43,110.69h0a6.2,6.2,0,0,1,1.27,1.66h0a6.46,6.46,0,0,1,.66,2,6.27,6.27,0,0,1,0,2.12v0a6.19,6.19,0,0,1-.71,1.93.71.71,0,0,1-1.23-.7,4.76,4.76,0,0,0,.55-1.49v0a5.42,5.42,0,0,0,0-1.66,5.07,5.07,0,0,0-.52-1.58h0a4.54,4.54,0,0,0-1-1.25v0a5.82,5.82,0,0,1-1.27-1.66l0-.06a6.43,6.43,0,0,1-.63-2,6.6,6.6,0,0,1,0-2.13,6.14,6.14,0,0,1,.72-2,.71.71,0,1,1,1.22.71,4.7,4.7,0,0,0-.55,1.51,4.85,4.85,0,0,0,0,1.66,5.07,5.07,0,0,0,.48,1.53l0,0a4.54,4.54,0,0,0,1,1.25Zm3.74-3a5.77,5.77,0,0,1-1.16-1.54,6.13,6.13,0,0,1-.62-1.94,6,6,0,0,1,0-2v0a5.68,5.68,0,0,1,.67-1.82.71.71,0,1,0-1.22-.72,7,7,0,0,0-.84,2.28v0a8.1,8.1,0,0,0,0,2.51,7.57,7.57,0,0,0,.78,2.38,7.21,7.21,0,0,0,1.49,2l0,0a5.77,5.77,0,0,1,1.16,1.54,6.19,6.19,0,0,1,.6,4,5.47,5.47,0,0,1-.68,1.85.7.7,0,0,0,.26,1,.69.69,0,0,0,1-.26,6.88,6.88,0,0,0,.85-2.31,7.47,7.47,0,0,0,0-2.5,7.73,7.73,0,0,0-.77-2.38,6.91,6.91,0,0,0-1.5-2l0,0Zm4.05,2.73h0a6.25,6.25,0,0,1-1.27-1.67,6.4,6.4,0,0,1-.66-2,6.54,6.54,0,0,1,0-2.12,6,6,0,0,1,.72-2,.7.7,0,0,1,1-.25.69.69,0,0,1,.26,1,4.87,4.87,0,0,0-.57,3.17,5,5,0,0,0,.5,1.58,4.54,4.54,0,0,0,.95,1.25h0a6.41,6.41,0,0,1,1.27,1.67,6.65,6.65,0,0,1,.65,2,6.54,6.54,0,0,1,0,2.12h0a6.19,6.19,0,0,1-.72,2,.71.71,0,1,1-1.22-.71,4.79,4.79,0,0,0,.55-1.51h0a4.85,4.85,0,0,0,0-1.66,5.14,5.14,0,0,0-.51-1.58A4.72,4.72,0,0,0,144.22,110.45Z"/>
      </g>
      <g>
        <path class="cls-13" d="M202.56,138q-.13,1.4-.39,2.79a29.53,29.53,0,1,1-58-11c.17-.93.4-1.85.65-2.75Z"/>
        <path class="cls-3" d="M163.28,163.12a29.54,29.54,0,0,1-19.14-33.34c.17-.93.4-1.85.65-2.75l48.89,9.27c-.09.92-.22,1.86-.39,2.79A29.54,29.54,0,0,1,163.28,163.12Z"/>
        <polygon class="cls-13" points="202.2 142.57 213.84 144.95 213.69 146.62 210.5 151.8 208.03 154.06 203.69 156.3 199.6 157.23 192.25 157.37 196.51 153.75 201 153.41 204.65 151.21 208 147.93 207.07 147.41 198.8 146.18 202.2 142.57"/>
        <path class="cls-18" d="M202.56,138q-.13,1.4-.39,2.79a29.53,29.53,0,1,1-58-11c.17-.93.4-1.85.65-2.75Z"/>
        <path class="cls-18" d="M202.56,138h0c-.69,3.39-14.12,3.7-30,.68s-28.31-8.21-27.71-11.62Z"/>
        <path class="cls-12" d="M174.7,126.29c15.94,3,28.34,8.23,27.7,11.64s-14.09,3.72-30,.7S144,130.4,144.66,127,158.75,123.27,174.7,126.29Z"/>
        <path class="cls-11" d="M200.93,139.44c-4,1.9-15.43,1.68-28.57-.81s-23.87-6.47-26.88-9.7c4-1.9,15.43-1.68,28.57.81S197.92,136.21,200.93,139.44Z"/>
        <path class="cls-18" d="M174.86,126.32c15.95,3,28.35,8.23,27.7,11.64s-14.09,3.72-30,.7-28.35-8.23-27.7-11.64S158.92,123.3,174.86,126.32Z"/>
        <path class="cls-2" d="M202.43,141.9l8.68,1.64.82.15c1.41.25,2.14.39,2.47,1.06s0,1.42-.77,3l-.23.47c-.17.35-.33.67-.49,1s-.35.61-.55.92a16.43,16.43,0,0,1-7.86,6.58,26.18,26.18,0,0,1-11.81,1.57l.1-1.41A24.87,24.87,0,0,0,204,155.35a15.13,15.13,0,0,0,7.2-6c.16-.27.33-.55.5-.86s.32-.6.46-.89l.22-.47a9.25,9.25,0,0,0,.77-1.74,12,12,0,0,0-1.44-.29l-.83-.15-8.68-1.64Z"/>
        <path class="cls-2" d="M201.19,145.48l4.6.87.55.11c1.49.26,2.34.42,2.27,1.52a2.05,2.05,0,0,1-.28.91,4.17,4.17,0,0,1-.53.76,10.63,10.63,0,0,1-1.21,1.21,16.64,16.64,0,0,1-1.53,1.16,14.62,14.62,0,0,1-3.93,1.84,17.55,17.55,0,0,1-4.54.69l0-1.41a16.26,16.26,0,0,0,4.18-.64,12.87,12.87,0,0,0,3.55-1.66,13.34,13.34,0,0,0,1.39-1.05,9.46,9.46,0,0,0,1.05-1,2.78,2.78,0,0,0,.37-.52.68.68,0,0,0,.11-.32c0-.15-.4.07-1.11-.05l-.56-.11-4.6-.87Z"/>
        <path class="cls-35" d="M147.91,130.72c5.37-.87,14.87-.33,25.47,1.67,10.84,2.06,20,5.12,24.61,8-5.36.87-14.86.33-25.46-1.68C161.69,136.61,152.49,133.55,147.91,130.72Z"/>
        <path class="cls-34" d="M168.43,120.51l0,0a11.14,11.14,0,0,1,1.2,3.68,12.14,12.14,0,0,1-1.45,7.62,11.16,11.16,0,0,1-2.45,3,.71.71,0,1,1-.92-1.07,9.74,9.74,0,0,0,2.14-2.61,10.27,10.27,0,0,0,1.19-3.25,10.43,10.43,0,0,0,.09-3.47,10,10,0,0,0-1-3.15l0,0a11.4,11.4,0,0,1-1.2-3.67,12.18,12.18,0,0,1,1.45-7.63,11.32,11.32,0,0,1,2.45-3,.71.71,0,0,1,1,.08.7.7,0,0,1-.08,1,9.74,9.74,0,0,0-2.14,2.61,10.66,10.66,0,0,0-1.27,6.73,9.63,9.63,0,0,0,1,3.14Zm8.84-3,0,0a13.07,13.07,0,0,1,1.42,4.36,14.15,14.15,0,0,1-.11,4.67,14.32,14.32,0,0,1-1.6,4.38,13.48,13.48,0,0,1-2.92,3.54.7.7,0,0,1-1-.08.69.69,0,0,1,.08-1,12.06,12.06,0,0,0,2.6-3.17,12.76,12.76,0,0,0,1.44-4,12.93,12.93,0,0,0,.1-4.2,11.81,11.81,0,0,0-1.23-3.82v0a13.09,13.09,0,0,1-1.42-4.35,14.4,14.4,0,0,1,1.71-9.06,13.4,13.4,0,0,1,2.91-3.53.71.71,0,1,1,.92,1.07,12.17,12.17,0,0,0-2.6,3.16,13,13,0,0,0-1.54,8.16,12.13,12.13,0,0,0,1.22,3.82Zm6.89,7,0,0a11.36,11.36,0,0,1-1.19-3.68,11.58,11.58,0,0,1,.09-3.93,11.79,11.79,0,0,1,1.35-3.69,11.2,11.2,0,0,1,2.45-3,.71.71,0,1,1,.92,1.07,9.73,9.73,0,0,0-2.14,2.6,10.66,10.66,0,0,0-1.27,6.73,9.93,9.93,0,0,0,1,3.15l0,0a11.08,11.08,0,0,1,1.2,3.67,12.18,12.18,0,0,1-1.45,7.63,11.32,11.32,0,0,1-2.45,3,.71.71,0,1,1-.92-1.08,9.54,9.54,0,0,0,2.14-2.6,10.76,10.76,0,0,0,1.28-6.73A9.89,9.89,0,0,0,184.16,124.48Z"/>
      </g>
    </g>
    <g>
      <rect class="cls-36" x="50.79" y="106.45" width="37.13" height="37.55"/>
      <rect class="cls-36" x="48.8" y="104.87" width="37.13" height="37.55"/>
      <rect class="cls-36" x="44.77" y="103.27" width="37.13" height="37.55"/>
      <path class="cls-28" d="M42.4,103.26H79.53c.15,11.3-.15,22.6-2,33.9H40.39A192,192,0,0,0,42.4,103.26Z"/>
      <path class="cls-21" d="M50.44,93.88l29.92-1.47,4.92,1.64a4,4,0,0,1,2.5,1.54,4.45,4.45,0,0,1,.82,2.58v9.65l-5.27-1.53-36.9-.62v-7.5A4.25,4.25,0,0,1,50.44,93.88Z"/>
      <path class="cls-29" d="M45.18,92.28H79.31a4.17,4.17,0,0,1,4,4.28v9.65H41.16V96.56A4.17,4.17,0,0,1,45.18,92.28Z"/>
      <rect class="cls-37" x="83.22" y="105.94" width="1.42" height="36.09"/>
      <path class="cls-9" d="M48.8,110.18h1.34a1.53,1.53,0,0,1,1.48,1.65l-.07,2.06a1.68,1.68,0,0,1-1.61,1.64H48.59a1.54,1.54,0,0,1-1.48-1.64l.08-2.06A1.68,1.68,0,0,1,48.8,110.18Z"/>
      <path class="cls-9" d="M56.31,110.18h1.35a1.53,1.53,0,0,1,1.48,1.65l-.08,2.06a1.67,1.67,0,0,1-1.6,1.64H56.11a1.53,1.53,0,0,1-1.48-1.64l.08-2.06A1.67,1.67,0,0,1,56.31,110.18Z"/>
      <path class="cls-9" d="M63.83,110.18h1.35a1.54,1.54,0,0,1,1.48,1.65l-.08,2.06A1.68,1.68,0,0,1,65,115.53H63.63a1.52,1.52,0,0,1-1.48-1.64l.07-2.06A1.68,1.68,0,0,1,63.83,110.18Z"/>
      <path class="cls-9" d="M71.35,110.18H72.7a1.53,1.53,0,0,1,1.48,1.65l-.08,2.06a1.67,1.67,0,0,1-1.6,1.64H71.15a1.53,1.53,0,0,1-1.48-1.64l.08-2.06A1.68,1.68,0,0,1,71.35,110.18Z"/>
      <path class="cls-9" d="M48.46,119h1.35a1.53,1.53,0,0,1,1.48,1.65l-.08,2a1.67,1.67,0,0,1-1.6,1.65H48.26a1.53,1.53,0,0,1-1.48-1.65l.08-2A1.67,1.67,0,0,1,48.46,119Z"/>
      <path class="cls-9" d="M56,119h1.35a1.54,1.54,0,0,1,1.48,1.65l-.08,2a1.68,1.68,0,0,1-1.61,1.65H55.78a1.53,1.53,0,0,1-1.48-1.65l.07-2A1.68,1.68,0,0,1,56,119Z"/>
      <path class="cls-9" d="M63.49,119h1.35a1.53,1.53,0,0,1,1.48,1.65l-.08,2a1.67,1.67,0,0,1-1.6,1.65H63.29a1.53,1.53,0,0,1-1.48-1.65l.08-2A1.68,1.68,0,0,1,63.49,119Z"/>
      <path class="cls-9" d="M71,119h1.35a1.53,1.53,0,0,1,1.48,1.65l-.08,2a1.68,1.68,0,0,1-1.6,1.65H70.82a1.53,1.53,0,0,1-1.48-1.65l.08-2A1.67,1.67,0,0,1,71,119Z"/>
      <path class="cls-9" d="M48.14,127.59h1.35A1.54,1.54,0,0,1,51,129.23l-.08,2.06a1.68,1.68,0,0,1-1.61,1.65H47.94a1.53,1.53,0,0,1-1.48-1.65l.07-2.06A1.68,1.68,0,0,1,48.14,127.59Z"/>
      <path class="cls-9" d="M55.65,127.59H57a1.52,1.52,0,0,1,1.48,1.64l-.08,2.06a1.67,1.67,0,0,1-1.6,1.65H55.45A1.53,1.53,0,0,1,54,131.29l.08-2.06A1.67,1.67,0,0,1,55.65,127.59Z"/>
      <path class="cls-9" d="M63.17,127.59h1.35A1.53,1.53,0,0,1,66,129.23l-.08,2.06a1.68,1.68,0,0,1-1.6,1.65H63a1.53,1.53,0,0,1-1.48-1.65l.08-2.06A1.67,1.67,0,0,1,63.17,127.59Z"/>
      <path class="cls-9" d="M70.69,127.59H72a1.52,1.52,0,0,1,1.48,1.64l-.07,2.06a1.68,1.68,0,0,1-1.61,1.65H70.49A1.53,1.53,0,0,1,69,131.29l.08-2.06A1.68,1.68,0,0,1,70.69,127.59Z"/>
    </g>
    <g>
      <rect class="cls-38" x="107.24" y="115.15" width="14.37" height="10.4" transform="translate(-38.17 185.86) rotate(-69.68)"/>
      <rect class="cls-38" x="104.97" y="118.75" width="15.49" height="21.4" transform="translate(-18.7 19.03) rotate(-8.91)"/>
      <rect class="cls-38" x="102.99" y="128.35" width="33.63" height="24.34" transform="translate(-31.49 246.39) rotate(-84.53)"/>
      <g>
        <rect class="cls-38" x="95.24" y="129.67" width="27.89" height="38.52" transform="translate(-14.52 11.82) rotate(-5.81)"/>
        <path class="cls-2" d="M121,160.37l-4.73.48-.13-1.4,4.72-.49.14,1.41Zm-9.46-23.86L97.18,138l-.14-1.4,14.36-1.46.14,1.4Zm.32,3.13L97.49,141.1l-.13-1.41,14.36-1.46.14,1.41Zm.32,3.13-14.37,1.46-.14-1.41L112,141.36l.14,1.41Zm.31,3.12-14.36,1.46L98,146l14.37-1.46.13,1.4Zm6-10.09-4.72.48-.14-1.4,4.72-.48.14,1.4Zm.32,3.13-4.73.48L114,138l4.72-.49.14,1.41Zm.32,3.13-4.73.48-.14-1.41,4.73-.48.14,1.41Zm.31,3.12-4.72.48-.14-1.4,4.73-.48.13,1.4Zm-6.37,6.52-14.36,1.46-.14-1.4L113,150.29l.13,1.41Zm.32,3.13L99,156.29l-.14-1.41,14.36-1.46.14,1.41Zm.32,3.12-14.36,1.46-.14-1.4,14.36-1.46.14,1.4Zm.32,3.13-14.36,1.46-.14-1.4,14.36-1.47.14,1.41Zm6-10.09-4.73.48-.14-1.4,4.73-.49.14,1.41Zm.31,3.13-4.72.48-.14-1.41,4.73-.48.13,1.41Zm.32,3.12-4.72.48-.14-1.4,4.72-.48Z"/>
      </g>
      <g>
        <rect class="cls-38" x="95.78" y="138.92" width="43.07" height="31.18" transform="translate(-51.49 250.12) rotate(-82.32)"/>
        <path class="cls-2" d="M127.2,170l-5.27-.71.19-1.4,5.27.71-.19,1.4Zm-4.07-28.41-16-2.16.19-1.4,16,2.16-.19,1.4Zm-.47,3.48.19-1.4-16-2.16-.19,1.4,16,2.16Zm-.47,3.48-16-2.16.19-1.4,16,2.16-.19,1.4Zm-.47,3.48.19-1.4-16-2.15-.19,1.4,16,2.15Zm9.17-9.4-5.27-.71.19-1.4,5.26.71-.18,1.4Zm-.47,3.48-5.27-.71.19-1.4,5.26.71-.18,1.4Zm-.47,3.49-5.27-.71.19-1.4,5.26.71-.18,1.4Zm-.47,3.48-5.27-.71.19-1.4,5.27.71-.19,1.4Zm-8.63,5.42-16-2.16.19-1.4,16,2.16-.19,1.4Zm-.47,3.48.19-1.4-16-2.15-.19,1.4,16,2.15Zm-.47,3.49-16-2.16.19-1.4,16,2.16-.19,1.4Zm-.47,3.48.19-1.4-16-2.16-.19,1.4,16,2.16Zm9.17-9.4-5.27-.71.19-1.4,5.26.71-.18,1.4Zm-.47,3.48-5.27-.71.19-1.4,5.26.71-.18,1.4Zm-.47,3.48-5.27-.71.19-1.4,5.26.71Z"/>
      </g>
    </g>
    <g>
      <g>
        <polygon class="cls-13" points="39.77 24.2 24.9 39.08 39.19 39.08 15.35 62.93 64.83 35.28 49.48 35.28 60.55 24.2 39.77 24.2"/>
        <polygon class="cls-3" points="39.77 24.2 24.9 39.08 39.19 39.08 24.43 53.85 52.79 38 41.71 38 55.51 24.2 39.77 24.2"/>
      </g>
      <polygon class="cls-5" points="39.65 24.2 24.78 39.08 39.07 39.08 15.22 62.93 64.71 35.28 49.36 35.28 60.43 24.2 39.65 24.2"/>
    </g>
    <path class="cls-2" d="M361.76,44a.71.71,0,1,1-1.07-.92l17.38-20.22a.71.71,0,1,1,1.07.92L361.76,44ZM179.43,29.77a.71.71,0,1,1-1.07-.92l1.43-1.67a.71.71,0,0,1,1-.08.72.72,0,0,1,.08,1l-1.44,1.67ZM524.89,152.88a.71.71,0,1,1-1.07-.92l12-14a.69.69,0,0,1,1-.08.7.7,0,0,1,.08,1l-12,14ZM35.58,148.79a.7.7,0,0,1,1-.08.71.71,0,0,1,.07,1l-1.33,1.55a.72.72,0,0,1-1,.08.71.71,0,0,1-.07-1l1.33-1.55ZM151.66,46.52a.71.71,0,0,1-1.08-.91l15.86-18.46a.71.71,0,0,1,1-.08.72.72,0,0,1,.08,1L151.66,46.52ZM531.41,176.64a.71.71,0,0,1-1,.07.7.7,0,0,1-.07-1l6.15-7.17a.71.71,0,0,1,1.08.92l-6.16,7.17ZM24.19,154.58a.7.7,0,0,1-1,.08.71.71,0,0,1-.08-1l9.2-10.7a.71.71,0,1,1,1.07.92l-9.2,10.7ZM74.53,172a.71.71,0,0,1-1,.08.72.72,0,0,1-.08-1L82.15,161l12.17-14.16a.71.71,0,1,1,1.07.92L83.22,161.91,74.53,172ZM530.91,41.72a.71.71,0,0,1-1.08-.92l1.44-1.67a.7.7,0,0,1,1-.07.69.69,0,0,1,.08,1l-1.43,1.67ZM389.28,28.94A.71.71,0,0,1,388.2,28l6.09-7.08a.71.71,0,1,1,1.07.92l-6.08,7.08ZM490.2,30.71a.72.72,0,0,1-1,.08.71.71,0,0,1-.08-1l6.09-7.08a.71.71,0,1,1,1.07.92l-6.08,7.08Zm-461,142a.7.7,0,0,1-1,.08.71.71,0,0,1-.08-1l4.71-5.48a.71.71,0,0,1,1-.08.72.72,0,0,1,.08,1l-4.72,5.48Zm112.35,1.39a.71.71,0,0,1-1,.07.7.7,0,0,1-.08-1l8.88-10.33a.71.71,0,1,1,1.07.92l-8.87,10.33ZM529.15,32.48a.71.71,0,0,1-1.08-.92l6.09-7.08a.71.71,0,1,1,1.07.92l-6.08,7.08Zm-170.86-.94a.71.71,0,1,1-1.08-.92L358.65,29a.71.71,0,1,1,1.07.92l-1.43,1.67Zm-203.6-5.26a.71.71,0,1,1-1.07-.92l8.24-9.58a.69.69,0,0,1,1-.08.7.7,0,0,1,.08,1l-8.24,9.59ZM540.1,145.59a.7.7,0,0,1,1-.08.71.71,0,0,1,.08,1l-1.74,2a.71.71,0,1,1-1.08-.92l1.75-2Zm-498.81,23a.71.71,0,0,1-1.08-.92l6.47-7.53,9.06-10.54a.71.71,0,1,1,1.07.92L47.76,161l-6.47,7.53Zm463.49-121a.71.71,0,1,1-1.07-.92L519.8,27.9a.71.71,0,0,1,1.07.92Z"/>
    <path class="cls-2" d="M19.49,95.65l1.08.93-.93,1.07-1.07-.92.92-1.08ZM546.28,61.37l1.07.92-.92,1.08-1.08-.93.93-1.07Zm-1.85,2.15,1.08.92-.93,1.08-1.07-.93.92-1.07Zm-1.85,2.15,1.08.92-.93,1.08-1.07-.93.92-1.07Zm-1.85,2.15,1.08.92-.92,1.08-1.08-.93.92-1.07ZM538.89,70l1.07.92L539,72,538,71l.93-1.07ZM537,72.12l1.07.92-.92,1.08-1.07-.93.92-1.07Zm-1.85,2.15,1.08.92-.93,1.08-1.07-.93.92-1.07Zm-1.85,2.15,1.08.92-.92,1.08-1.08-.93.92-1.07Zm-1.84,2.15,1.07.92-.92,1.08-1.08-.93.93-1.07Zm-1.85,2.15,1.07.92-.92,1.07-1.07-.92.92-1.07Zm-1.85,2.15,1.08.92L528,84.86l-1.07-.92.92-1.07ZM526,85l1.08.92L526.11,87,525,86.09,526,85Zm-1.84,2.15,1.07.92-.92,1.07-1.08-.92.93-1.07ZM40.51,73.37,40,74l-1.07-.92.54-.63,1.08.92ZM38,74.15l1.07.93-.92,1.07L37,75.23,38,74.15ZM36.12,76.3l1.07.93-.92,1.07-1.07-.92.92-1.08Zm-1.85,2.15,1.08.93-.93,1.07-1.07-.92.92-1.08Zm-1.85,2.16,1.08.92-.92,1.07-1.08-.92.92-1.07Zm-1.84,2.14,1.07.93-.92,1.07-1.08-.92.93-1.08ZM28.73,84.9l1.08.93-.93,1.07L27.81,86l.92-1.08Zm-1.85,2.15L28,88,27,89.05,26,88.13l.92-1.08ZM25,89.2l1.07.93-.92,1.07-1.08-.92L25,89.2Zm-1.85,2.15,1.07.93-.92,1.07-1.08-.92.93-1.08ZM21.34,93.5l1.08.93-.93,1.07-1.07-.92Z"/>
    <g>
      <path class="cls-11" d="M367.82,110.13c2.68-1.53,3-5.34,2.76-7-1.62-.33-5.3,0-6.89,2.52C362,108.33,365.16,111.65,367.82,110.13Z"/>
      <path class="cls-12" d="M369.6,103c-1.82,0-4.59.56-5.91,2.62a3,3,0,0,0,0,3.33,2.9,2.9,0,0,0,3.06.13C369,107.8,369.61,104.9,369.6,103Z"/>
      <path class="cls-18" d="M367.82,110.13c2.68-1.53,3-5.34,2.76-7-1.62-.33-5.3,0-6.89,2.52C362,108.33,365.16,111.65,367.82,110.13Z"/>
      <path class="cls-39" d="M365.53,108.21a1.86,1.86,0,0,0,.69-1.76,1.8,1.8,0,0,0-1.72.63A.8.8,0,0,0,365.53,108.21Z"/>
    </g>
    <g>
      <g>
        <g>
          <path class="cls-11" d="M18.1,141.15c2.47-1.41,2.74-4.9,2.54-6.44-1.49-.3-4.86,0-6.32,2.31C12.73,139.5,15.66,142.54,18.1,141.15Z"/>
          <path class="cls-12" d="M19.74,134.62c-1.67,0-4.21.51-5.42,2.4a2.76,2.76,0,0,0,0,3.07,2.65,2.65,0,0,0,2.81.11C19.23,139,19.75,136.35,19.74,134.62Z"/>
          <path class="cls-18" d="M18.1,141.15c2.47-1.41,2.74-4.9,2.54-6.44-1.49-.3-4.86,0-6.32,2.31C12.73,139.5,15.66,142.54,18.1,141.15Z"/>
          <path class="cls-39" d="M16,139.38a1.68,1.68,0,0,0,.64-1.61,1.66,1.66,0,0,0-1.58.58A.73.73,0,0,0,16,139.38Z"/>
        </g>
        <g>
          <path class="cls-11" d="M31.67,113.2c4.21-2.4,4.67-8.37,4.34-11-2.55-.51-8.31.06-10.81,4C22.48,110.38,27.5,115.59,31.67,113.2Z"/>
          <path class="cls-12" d="M34.47,102c-2.86-.06-7.2.88-9.27,4.11a4.7,4.7,0,0,0,.05,5.24,4.52,4.52,0,0,0,4.8.19C33.59,109.55,34.48,105,34.47,102Z"/>
          <path class="cls-18" d="M31.67,113.2c4.21-2.4,4.67-8.37,4.34-11-2.55-.51-8.31.06-10.81,4C22.48,110.38,27.5,115.59,31.67,113.2Z"/>
          <path class="cls-39" d="M28.08,110.18a2.86,2.86,0,0,0,1.08-2.74,2.81,2.81,0,0,0-2.69,1A1.24,1.24,0,0,0,28.08,110.18Z"/>
        </g>
      </g>
      <g>
        <path class="cls-11" d="M213.43,172.64c3.35-1.91,3.73-6.67,3.46-8.76-2-.41-6.62.05-8.61,3.15C206.11,170.39,210.11,174.54,213.43,172.64Z"/>
        <path class="cls-12" d="M215.66,163.75c-2.28-.05-5.73.7-7.38,3.28a3.74,3.74,0,0,0,0,4.17,3.59,3.59,0,0,0,3.82.15C215,169.73,215.67,166.11,215.66,163.75Z"/>
        <path class="cls-18" d="M213.43,172.64c3.35-1.91,3.73-6.67,3.46-8.76-2-.41-6.62.05-8.61,3.15C206.11,170.39,210.11,174.54,213.43,172.64Z"/>
        <path class="cls-39" d="M210.57,170.24a2.32,2.32,0,0,0,.87-2.19,2.25,2.25,0,0,0-2.15.78A1,1,0,0,0,210.57,170.24Z"/>
      </g>
    </g>
  </g>
</svg>
