<svg id="Layer_1" data-name="Layer 1" xmlns="http://www.w3.org/2000/svg" width="1783.74" height="1027.36" viewBox="0 0 1783.74 1027.36">
  <defs>
    <style>
      .cls-1 {
        fill: #efcb5d;
      }

      .cls-2 {
        fill: #3eb8c7;
      }

      .cls-3 {
        fill: #229c9d;
      }

      .cls-4 {
        fill: #6d4850;
      }

      .cls-5 {
        fill: #f3f0e9;
      }
    </style>
  </defs>
  <g>
    <path class="cls-1" d="M792.15,106.51s116.34,11.14,131,74.07,67.52,94.94,98,82c63.33-26.81,112.79-83.05,113.3-137.11C1135.3,30.51,792.15,106.51,792.15,106.51Z"/>
    <path class="cls-2" d="M248.3,567.92c0,163.23,144.61,219.45,349.31,219.45,263.39,0,279.41,160.72,443.44,154.8,311.19-11.23,381.69-170.37,381.69-340.2,0-209.84-164.25-322.77-283.57-322.77-110.81,0-261.79,94.79-261.79,0,0-216.6-465.15-264.94-465.15-27.3C412.23,449.88,248.3,481.77,248.3,567.92Z"/>
    <g>
      <g>
        <path class="cls-3" d="M1173.32,628c-10.81-80.22-121.3-72.35-133.69-1.9-7.68,43.64,9.73,81.47,40.33,101.59C1137,723,1181.74,690.48,1173.32,628Z"/>
        <path class="cls-4" d="M1079,731.24l-1-.67c-33.37-21.94-49.41-62.22-41.86-105.12a67.89,67.89,0,0,1,27.33-43.93A77.52,77.52,0,0,1,1110.43,567c16.06.32,31.22,5.74,42.71,15.25,12.93,10.72,21.1,26.36,23.65,45.24,3.58,26.61-1.88,49.15-16.24,67-16.75,20.8-45.27,33.83-80.31,36.67ZM1109,574c-28.36,0-59.75,17.89-65.87,52.67-7,39.67,7.49,76.87,37.81,97.4,32.54-2.88,58.86-14.92,74.21-34,13.11-16.27,18.07-37,14.75-61.66h0c-5.3-39.35-34.24-53.91-59.56-54.42Z"/>
      </g>
      <path class="cls-4" d="M1093.67,670.46l-42.81-72.92,4.32-2.53,41,69.89c29.64-5.73,76.82-19.21,77.3-19.35l1.38,4.81c-.49.14-49.76,14.22-79.49,19.78Z"/>
      <path class="cls-4" d="M1082.53,702.11l-42.8-72.93,4.31-2.53,41,69.9c29.64-5.73,76.83-19.21,77.31-19.35l1.38,4.8c-.5.15-49.76,14.23-79.49,19.79Z"/>
      <polygon class="cls-4" points="1106.81 639.13 1072.08 579.96 1076.39 577.43 1109.23 633.37 1170.97 618 1172.18 622.86 1106.81 639.13"/>
      <path class="cls-4" d="M1094.64,833.11c-1.2-.69-29.2-18-18.7-99.09,8.5-65.71,55.22-155.91,55.69-156.82l6.2,3.24c-.46.89-46.61,90-54.95,154.47-9.8,75.72,15.06,92,15.31,92.17Z"/>
    </g>
    <g>
      <path class="cls-3" d="M1003.25,481.54a23.81,23.81,0,1,1,23.8-23.8A23.83,23.83,0,0,1,1003.25,481.54Zm0-44.18a20.38,20.38,0,1,0,20.38,20.38A20.4,20.4,0,0,0,1003.25,437.36Z"/>
      <path class="cls-3" d="M1041.67,464.45V451.59l-6.88-1.5a32,32,0,0,0-3.61-8.88l3.9-6.1L1026,426l-6.06,3.88a32.33,32.33,0,0,0-8.66-3.62l-1.59-7.25H996.82l-1.59,7.25a32.31,32.31,0,0,0-8.42,3.48l-6.47-4.14-9.09,9.09,4.12,6.43a32,32,0,0,0-3.48,8.21L964.26,451v12.86l7.48,1.64a32.23,32.23,0,0,0,3.31,8.27l-4.2,6.57,9.09,9.09,6.34-4.06a32.21,32.21,0,0,0,8.34,3.63l1.63,7.42h12.86l1.56-7.11a32.27,32.27,0,0,0,8.72-3.45l6.2,4,9.09-9.1-3.83-6a31.8,31.8,0,0,0,3.79-8.8Zm-38.42,18.89a25.61,25.61,0,1,1,25.61-25.6A25.61,25.61,0,0,1,1003.25,483.34Z"/>
    </g>
    <g>
      <g>
        <path class="cls-2" d="M1324,766.26c64.16,0,79.68-75.65,63.18-118.36a408.33,408.33,0,0,0-22.33-48.81,15.85,15.85,0,0,0-23.38-5.07c-25.47,19-76.66,60.54-81,89.61C1254.64,722.48,1279.72,766.24,1324,766.26Z"/>
        <path class="cls-3" d="M1324,770.94h0a65,65,0,0,1-49.84-23c-14.95-17.34-21.79-41.66-18.31-65,4.49-30.14,53.82-71,82.83-92.67a20.5,20.5,0,0,1,30.27,6.57,415.51,415.51,0,0,1,22.59,49.37c9.86,25.53,9.56,66.37-10.11,95C1368.06,760.67,1348.21,770.94,1324,770.94Zm0-9.35h0c21,0,38.18-8.86,49.69-25.63,17.83-26,18.07-63.13,9.1-86.38a406.86,406.86,0,0,0-22.08-48.24,11.15,11.15,0,0,0-16.48-3.57c-22.43,16.75-75,58.73-79.17,86.55-3,20.42,3.14,42.48,16.14,57.56A55.09,55.09,0,0,0,1324,761.59Z"/>
      </g>
      <path class="cls-3" d="M1215.08,870.58l-1.82,0,.19-6.54c18.08.53,33.72-7.07,47.76-23.17,15.2-17.43,28.22-45,38.7-82,6.44-22.77,14.46-43.65,22.21-63.83,13.82-36,26.87-69.93,25.73-104l6.54-.22c1.18,35.39-12.1,70-26.16,106.55-7.7,20.05-15.67,40.78-22,63.27-10.74,37.94-24.22,66.39-40.06,84.56C1251.41,862,1234.24,870.57,1215.08,870.58Z"/>
      <path class="cls-3" d="M1350.5,654.54a14.69,14.69,0,0,1-4.25-.63c-17.85-5.33-24.24-42.11-24.91-46.29l6.46-1c1.65,10.23,8.5,37.53,20.32,41.07,10.44,3.13,22.76-16.24,26.63-23.95l5.85,2.92C1379.06,629.69,1366.14,654.54,1350.5,654.54Z"/>
      <path class="cls-3" d="M1339.7,691.09a17.28,17.28,0,0,1-6.87-1.34c-19.39-8.27-31.63-57.86-33-63.49l6.37-1.5c3.41,14.4,15.29,53.06,29.15,59,14.24,6.07,41.58-21.79,50.92-33l5,4.18C1388,658.93,1360.62,691.09,1339.7,691.09Z"/>
      <path class="cls-3" d="M1335.67,728.63a49.68,49.68,0,0,1-22.12-5.34c-30.08-14.79-34.44-74.11-34.61-76.63l6.52-.44c0,.58,4.27,58.07,31,71.2,17.09,8.41,34.63,5.55,52.12-8.5a107,107,0,0,0,21.89-24.59l5.6,3.39a112.17,112.17,0,0,1-23.26,26.19C1360.66,723.69,1348.1,728.63,1335.67,728.63Z"/>
    </g>
    <g>
      <g>
        <path class="cls-2" d="M1212.82,763.51c-31.42-20.85-14.41-63,7.56-78.51a240.67,240.67,0,0,1,26.81-16.64,9.31,9.31,0,0,1,13.09,5.12c6.29,17.61,17.86,54.58,10.52,70.23C1261,764.61,1234.49,777.88,1212.82,763.51Z"/>
        <path class="cls-3" d="M1232.48,774.19a40,40,0,0,1-22.24-6.79h0c-12.43-8.24-19.11-20.27-19.33-34.79-.32-21.09,13.22-41.84,26.77-51.42a246.32,246.32,0,0,1,27.33-17,14,14,0,0,1,19.67,7.68c8.86,24.83,17.85,57.78,10.35,73.78a50.23,50.23,0,0,1-31.33,26.93A41.44,41.44,0,0,1,1232.48,774.19Zm-17.07-14.57a30.5,30.5,0,0,0,25.76,4c10.75-3,20.48-11.4,25.4-21.9,4.66-9.94.67-34.86-10.69-66.67a4.64,4.64,0,0,0-6.52-2.55,236.35,236.35,0,0,0-26.28,16.31c-11.55,8.18-23.1,25.8-22.83,43.66.18,11.46,5.28,20.59,15.16,27.15Z"/>
      </g>
      <path class="cls-3" d="M1164.7,871.27a72.39,72.39,0,0,1-11.43-1.18l1-6.46c19.94,3.16,38.78,6.16,67.74-97.42,3.1-11.07,5.5-21.87,7.82-32.31,5.53-24.88,10.75-48.38,24-67l5.32,3.79c-12.51,17.55-17.36,39.37-23,64.64-2.33,10.52-4.75,21.41-7.9,32.65-13.65,48.81-26.24,78.12-39.62,92.23C1180.33,869.06,1172.26,871.27,1164.7,871.27Z"/>
      <path class="cls-3" d="M1241.32,703a11.24,11.24,0,0,1-3.27-.47c-11.32-3.45-9.17-23.69-8.89-26l6.49.8-3.24-.4,3.24.4c-.67,5.54-.51,17.47,4.3,18.93,5.27,1.61,16-6.7,21.93-13.12l4.8,4.44C1265.1,689.3,1252.12,703,1241.32,703Z"/>
      <path class="cls-3" d="M1235.28,724.67a11.65,11.65,0,0,1-2.16-.19c-14.31-2.65-18-33.76-18.41-37.3l6.5-.69c1.33,12.34,6.26,30.29,13.1,31.56,7.27,1.36,23.65-11,32.29-19.06l4.47,4.78C1268.67,706,1248.33,724.67,1235.28,724.67Z"/>
      <path class="cls-3" d="M1234.44,747.36a20.71,20.71,0,0,1-2.72-.18c-25.13-3.26-30.61-31.28-30-45.64l6.53.28c-.06,1.45-1.14,35.57,24.31,38.88,13.78,1.79,31.43-16.92,37.08-24.28l5.19,4C1274,721.55,1253.93,747.36,1234.44,747.36Z"/>
    </g>
    <rect class="cls-5" x="560.46" y="242.05" width="4.3" height="2.64"/>
    <circle class="cls-3" cx="531.53" cy="747.22" r="70.74" transform="translate(-153.24 137.34) rotate(-12.88)"/>
    <circle class="cls-3" cx="1172.51" cy="862.65" r="45.21"/>
    <polygon class="cls-1" points="573.76 736.66 542.25 736.66 542.25 704.99 521.13 704.99 521.13 736.66 489.3 736.66 489.3 757.78 521.13 757.78 521.13 789.45 542.25 789.45 542.25 757.78 573.76 757.78 573.76 736.66"/>
    <g>
      <g>
        <path class="cls-3" d="M1385.93,369.15a23.81,23.81,0,1,1,23.8-23.81A23.84,23.84,0,0,1,1385.93,369.15Zm0-44.19a20.38,20.38,0,1,0,20.37,20.38A20.41,20.41,0,0,0,1385.93,325Z"/>
        <path class="cls-3" d="M1424.35,352.06V339.2l-6.88-1.51a32.4,32.4,0,0,0-3.62-8.87l3.91-6.1-9.09-9.09-6.06,3.88a32.23,32.23,0,0,0-8.67-3.63l-1.58-7.24H1379.5l-1.59,7.24a32.19,32.19,0,0,0-8.42,3.49l-6.47-4.15-9.09,9.1,4.11,6.42a32.59,32.59,0,0,0-3.47,8.21l-7.64,1.68v12.86l7.48,1.64a32.62,32.62,0,0,0,3.32,8.27l-4.21,6.57,9.09,9.09L1369,373a32.42,32.42,0,0,0,8.35,3.63l1.62,7.42h12.86l1.56-7.11a32.27,32.27,0,0,0,8.72-3.45l6.2,4,9.1-9.09-3.83-6a32.54,32.54,0,0,0,3.79-8.8ZM1385.93,371a25.61,25.61,0,1,1,25.6-25.61A25.61,25.61,0,0,1,1385.93,371Z"/>
      </g>
      <g>
        <path class="cls-3" d="M1477.84,470a57.6,57.6,0,1,1,57.6-57.6A57.67,57.67,0,0,1,1477.84,470Zm0-107a49.39,49.39,0,1,0,49.4,49.39A49.45,49.45,0,0,0,1477.84,363Z"/>
        <path class="cls-3" d="M1490.05,448.39h-24.17V424.44H1441.8V400.26h24.08V376.31h24.17v23.95h23.83v24.18h-23.83Zm-16-8.21h7.76V416.23h23.84v-7.76h-23.84v-24h-7.76v24H1450v7.76h24.07Z"/>
      </g>
    </g>
    <polygon class="cls-5" points="1199.5 855.9 1179.36 855.9 1179.36 835.66 1165.87 835.66 1165.87 855.9 1145.53 855.9 1145.53 869.4 1165.87 869.4 1165.87 889.64 1179.36 889.64 1179.36 869.4 1199.5 869.4 1199.5 855.9"/>
    <g>
      <path class="cls-3" d="M1132.57,525.41a41.2,41.2,0,1,1,41.2-41.2A41.25,41.25,0,0,1,1132.57,525.41Zm0-74.2a33,33,0,1,0,33,33A33,33,0,0,0,1132.57,451.21Z"/>
      <polygon class="cls-3" points="1153.79 478.9 1137.95 478.9 1137.95 462.99 1127.34 462.99 1127.34 478.9 1111.35 478.9 1111.35 489.51 1127.34 489.51 1127.34 505.43 1137.95 505.43 1137.95 489.51 1153.79 489.51 1153.79 478.9"/>
    </g>
    <g>
      <g>
        <path class="cls-3" d="M408.42,616.39a42.28,42.28,0,0,1-4.69-.25c-25.89-2.87-47.15-18.53-63.17-46.54C327.64,547,321.48,521.88,319,508.91h0a7.67,7.67,0,0,1,11.58-8c26.6,16.48,47.26,21.7,63.86,25.9,15.76,4,28.2,7.13,39.28,17.73,22.72,21.74,21.87,38.34,17.16,48.43C443.77,608.14,424.36,616.39,408.42,616.39ZM325.83,507.57c2.44,12.55,8.39,36.84,20.81,58.55,14.85,26,34.32,40.45,57.86,43.06,14.26,1.58,33.73-5.73,40-19.14,5.38-11.5,0-25.47-15.65-40.41-9.74-9.32-21.4-12.27-36.16-16-17.07-4.32-38.31-9.69-65.83-26.75a.64.64,0,0,0-.74,0,.61.61,0,0,0-.28.67Z"/>
        <path class="cls-3" d="M507.17,623.64c-34.6,0-74.48-17.12-125.52-53.88-29.17-21-58.75-62.19-60-63.93l5.69-4.07c.3.42,30.16,42,58.39,62.32,49.11,35.37,88.83,52.56,121.43,52.56,71.47,0,111.48-24.94,111.87-25.2l3.77,5.9C621.13,598.42,580.85,623.64,507.17,623.64Z"/>
        <rect class="cls-3" x="385.7" y="598.29" width="37.78" height="5" transform="translate(-213.91 223.83) rotate(-24.68)"/>
        <rect class="cls-3" x="372.38" y="591.17" width="39.78" height="5" transform="translate(-211.94 217.84) rotate(-24.66)"/>
        <rect class="cls-3" x="361.59" y="582.67" width="39.98" height="5" transform="translate(-209.31 212.51) rotate(-24.65)"/>
        <rect class="cls-3" x="354.05" y="575.32" width="36.2" height="5" transform="translate(-207.16 208) rotate(-24.66)"/>
        <rect class="cls-3" x="347.56" y="567.29" width="32.5" height="5" transform="translate(-204.57 203.79) rotate(-24.66)"/>
        <rect class="cls-3" x="342.45" y="559.64" width="28.59" height="5" transform="translate(-202.02 200.13) rotate(-24.66)"/>
        <rect class="cls-3" x="337.79" y="551.2" width="25.86" height="5" transform="translate(-199.05 196.86) rotate(-24.66)"/>
        <rect class="cls-3" x="333.82" y="542.79" width="22.3" height="5" transform="translate(-196.19 193.88) rotate(-24.68)"/>
        <rect class="cls-3" x="329.79" y="534.32" width="19.14" height="5" transform="translate(-193.04 190.57) rotate(-24.66)"/>
      </g>
      <g>
        <g>
          <path class="cls-1" d="M472.21,295.29c-17.81-51.17-89.22-31.24-87.94,16.62.8,29.65,17.28,52.14,40,61.24C461.07,362.5,486.09,335.17,472.21,295.29Z"/>
          <path class="cls-3" d="M424.3,376.65a3.45,3.45,0,0,1-1.3-.25c-25.25-10.1-41.43-34.78-42.23-64.4-.73-27.29,20.5-45.52,41.84-49.42,18.18-3.32,42.95,2.94,52.91,31.56,6,17.29,5.42,33.11-1.76,47-8.36,16.16-25.57,28.72-48.48,35.36A3.62,3.62,0,0,1,424.3,376.65Zm7.55-107.92a44.6,44.6,0,0,0-8,.73c-18.41,3.37-36.73,19-36.1,42.36.71,26.34,14.74,48.3,36.73,57.63,20.45-6.17,35.71-17.33,43-31.51,6.27-12.13,6.73-26.1,1.37-41.5h0C461.76,275.91,446.24,268.73,431.85,268.73Z"/>
        </g>
        <path class="cls-3" d="M426.11,334.32a2.48,2.48,0,0,1-1.86-.83l-37-41.23a2.5,2.5,0,0,1,3.73-3.34l35.85,39.92c18.66-7.77,47.22-22.61,47.51-22.77a2.5,2.5,0,1,1,2.31,4.44c-.3.16-30.77,16-49.56,23.63A2.57,2.57,0,0,1,426.11,334.32Z"/>
        <path class="cls-3" d="M423,356.57a2.52,2.52,0,0,1-1.87-.83l-37-41.24a2.5,2.5,0,1,1,3.72-3.34l35.86,39.92c18.65-7.76,47.21-22.61,47.51-22.76a2.5,2.5,0,0,1,2.31,4.43c-.31.16-30.77,16-49.56,23.63A2.43,2.43,0,0,1,423,356.57Z"/>
        <path class="cls-3" d="M430.49,312a2.51,2.51,0,0,1-1.86-.83l-29.85-33.24a2.5,2.5,0,0,1,3.72-3.34l28.6,31.85L469,288.33a2.5,2.5,0,0,1,2.15,4.51l-39.57,18.87A2.47,2.47,0,0,1,430.49,312Z"/>
        <path class="cls-3" d="M449.53,469.86a3.47,3.47,0,0,1-2.89-1.54c-.65-1-16.08-24.32-25.25-90.14-6.18-44.31,14.73-108.35,15.62-111.06a3.5,3.5,0,0,1,6.65,2.2c-.21.64-21.29,65.2-15.34,107.9,8.9,63.86,24,87,24.12,87.18a3.51,3.51,0,0,1-2.91,5.46Z"/>
      </g>
      <g>
        <g>
          <path class="cls-5" d="M338.73,357.71a7.43,7.43,0,0,0-11,8.47c17.84,59.6,2.76,98.48,16.85,140.58,9.31,27.82,53.61,63.4,96.47,23.31C505,470.21,385.46,386.72,338.73,357.71Z"/>
          <path class="cls-4" d="M400.4,551.54a53.77,53.77,0,0,1-13.28-1.67c-22.83-5.78-40.36-25.5-45.88-42-6.81-20.35-7-40.06-7.16-60.92-.2-22.83-.43-48.71-9.72-79.77a10.93,10.93,0,0,1,16.22-12.44h0c19.39,12,47.68,31.13,72.37,53.78,30.72,28.17,47.45,54.2,49.73,77.36,1.72,17.45-4.76,33.18-19.26,46.75C427.78,547.26,412.7,551.54,400.4,551.54ZM334.84,360.07a4.09,4.09,0,0,0-2.39.83,3.85,3.85,0,0,0-1.38,4.27c9.58,32,9.8,58.42,10,81.72.18,21.17.34,39.46,6.8,58.76,4.92,14.7,20.57,32.27,40.95,37.43,17.08,4.33,34.3-1.06,49.81-15.56,12.83-12,18.57-25.78,17.08-40.95C450.78,436.46,371,381.84,336.89,360.68h0A3.89,3.89,0,0,0,334.84,360.07Z"/>
        </g>
        <path class="cls-4" d="M591.54,614.53c-29.62,0-59.49-9.36-89.39-28.07-45-28.15-80.5-71.29-106.41-105.72-19.56-26-67.6-116.1-69.63-119.92l6.18-3.29c.49.93,49.81,93.44,69,119,25.55,34,60.52,76.46,104.54,104,55.8,34.92,111.45,35.86,165.4,2.8l3.66,6C647.48,606.12,619.62,614.53,591.54,614.53Z"/>
        <rect class="cls-4" x="354.84" y="369.06" width="5" height="42.58"/>
        <rect class="cls-4" x="370.44" y="379.63" width="5" height="58.74"/>
        <rect class="cls-4" x="386.78" y="390.35" width="5" height="74.69"/>
        <rect class="cls-4" x="404.28" y="405.79" width="5" height="84.98"/>
        <rect class="cls-4" x="422.42" y="427.53" width="5" height="84.98"/>
        <rect class="cls-4" x="439.75" y="442.7" width="5" height="84.98"/>
      </g>
      <g>
        <g>
          <path class="cls-1" d="M548.88,415.48c-2.51-57-75-68.29-88.3-1.41C455.08,441.69,470.47,480,491,491,526.79,484.83,550.65,455.53,548.88,415.48Z"/>
          <path class="cls-4" d="M490.38,494.64l-1.06-.57c-22-11.8-37.93-51.76-32.17-80.68,7.59-38.19,32.62-50,51.79-48.57,19.92,1.52,42,18,43.44,50.5,1.8,40.77-22.64,72.56-60.81,79.12ZM505.85,371.7c-15.9,0-35.48,11.1-41.84,43.05-5.05,25.4,8.79,61.46,27.58,72.57,34.36-6.46,55.44-34.47,53.8-71.69h0c-1.25-28.27-20-42.54-37-43.83C507.57,371.74,506.71,371.7,505.85,371.7Z"/>
        </g>
        <path class="cls-4" d="M521.58,597.09c-.43-.43-10.67-10.78-19.91-30.44-8.47-18-17.66-47.72-13.25-86.6,4.72-41.7,22.8-111,23-111.67l6.77,1.78c-.18.69-18.13,69.48-22.8,110.67-8,71,30.77,110.92,31.16,111.31Z"/>
        <path class="cls-4" d="M504.81,420.48a10.79,10.79,0,0,1-2.91-.37c-12.34-3.48-25-35.87-26.38-39.56l4.68-1.77c4.94,13,15.58,34.41,23.06,36.52s28.94-11.51,40.7-20.58l3.06,3.95C543.94,401.05,518.35,420.48,504.81,420.48Z"/>
        <path class="cls-4" d="M503.07,445.17A16.69,16.69,0,0,1,496.8,444c-15.41-6.14-29.95-45.23-31.56-49.66l4.71-1.7c4.15,11.47,17.41,42.22,28.7,46.72,13.47,5.37,39.34-17.35,48.17-26.56l3.61,3.46C549.18,417.59,522.5,445.17,503.07,445.17Z"/>
        <path class="cls-4" d="M497.41,470.15a16.55,16.55,0,0,1-6.18-1.11c-15.41-6.14-32.25-51.14-34.12-56.25l4.69-1.72c4.87,13.31,20,48.82,31.28,53.33,13.53,5.38,42.16-18.11,52.06-27.62l3.46,3.6C547.21,441.72,517.39,470.15,497.41,470.15Z"/>
      </g>
    </g>
    <g>
      <g>
        <circle class="cls-1" cx="1134.41" cy="361.63" r="59.07" transform="translate(-55.91 389.7) rotate(-19.03)"/>
        <path class="cls-5" d="M1134.41,423.19A61.57,61.57,0,1,1,1196,361.63,61.63,61.63,0,0,1,1134.41,423.19Zm0-118.13A56.57,56.57,0,1,0,1191,361.63,56.63,56.63,0,0,0,1134.41,305.06Z"/>
      </g>
      <g>
        <path class="cls-2" d="M1137.84,378.45h-10c0-9,4.09-17.55,11.51-24.13,4.45-3.95,6-7,6-8.41,0-6.81-6.85-9.28-11.45-9.28a12,12,0,0,0-7.52,2.38,8.34,8.34,0,0,0-3,6.86h-10a18.14,18.14,0,0,1,6.65-14.62,21.87,21.87,0,0,1,13.83-4.62c10.4,0,21.45,6.76,21.45,19.28,0,5-3.16,10.35-9.39,15.88C1140.74,366.46,1137.84,372.37,1137.84,378.45Z"/>
        <rect class="cls-2" x="1127.7" y="388.15" width="11.11" height="11.18"/>
      </g>
    </g>
    <g>
      <g>
        <circle class="cls-4" cx="1226.55" cy="433.93" r="39.85"/>
        <path class="cls-5" d="M1226.54,476.28a42.35,42.35,0,1,1,42.35-42.35A42.4,42.4,0,0,1,1226.54,476.28Zm0-79.7a37.35,37.35,0,1,0,37.35,37.35A37.39,37.39,0,0,0,1226.54,396.58Z"/>
      </g>
      <g>
        <path class="cls-5" d="M1230.49,445.28h-10a23.37,23.37,0,0,1,8.31-17.5c2.74-2.44,3.48-4.09,3.52-4.48,0-3.64-4-4.6-6.1-4.6a6.57,6.57,0,0,0-4,1.23,3.93,3.93,0,0,0-1.39,3.37h-10a14,14,0,0,1,5.09-11.13,16.39,16.39,0,0,1,10.35-3.47c7.8,0,16.1,5.13,16.1,14.63,0,3.86-2.32,7.88-6.88,11.93A13.49,13.49,0,0,0,1230.49,445.28Z"/>
        <rect class="cls-5" x="1220.39" y="450.19" width="10.75" height="10.79"/>
      </g>
    </g>
    <g>
      <g>
        <circle class="cls-2" cx="1209.51" cy="545.27" r="39.85"/>
        <path class="cls-5" d="M1209.51,587.62a42.35,42.35,0,1,1,42.35-42.35A42.4,42.4,0,0,1,1209.51,587.62Zm0-79.69a37.35,37.35,0,1,0,37.35,37.34A37.39,37.39,0,0,0,1209.51,507.93Z"/>
      </g>
      <g>
        <path class="cls-4" d="M1213.45,556.62h-10a23.38,23.38,0,0,1,8.31-17.49c2.75-2.44,3.48-4.1,3.52-4.49,0-3.63-4-4.6-6.1-4.6a6.48,6.48,0,0,0-4,1.24,3.91,3.91,0,0,0-1.4,3.36h-10a14,14,0,0,1,5.09-11.12,16.42,16.42,0,0,1,10.35-3.48c7.81,0,16.1,5.13,16.1,14.63,0,3.87-2.31,7.88-6.88,11.93A13.55,13.55,0,0,0,1213.45,556.62Z"/>
        <rect class="cls-4" x="1203.36" y="561.54" width="10.75" height="10.79"/>
      </g>
    </g>
    <g>
      <circle class="cls-2" cx="355.7" cy="686.75" r="44.4"/>
      <path class="cls-4" d="M355.7,733.65h-.13v-5h.13a42.31,42.31,0,0,0,9.47-1.07l1.12,4.87A47.5,47.5,0,0,1,355.7,733.65ZM348,733a46.79,46.79,0,0,1-10.39-3l1.93-4.61a42,42,0,0,0,9.27,2.66Zm25.49-2.87-1.9-4.63a41.74,41.74,0,0,0,8.45-4.67l2.91,4.06A46.77,46.77,0,0,1,373.51,730.15Zm-42.61-3.59a47.08,47.08,0,0,1-8.44-6.73L326,716.3a42,42,0,0,0,7.55,6ZM388.75,720l-3.52-3.55a42.06,42.06,0,0,0,6-7.54l4.24,2.65A47.58,47.58,0,0,1,388.75,720Zm-71.18-6a46.74,46.74,0,0,1-5.25-9.45l4.62-1.9a42.52,42.52,0,0,0,4.69,8.44Zm81.4-9.18-4.61-1.94a41.37,41.37,0,0,0,2.68-9.27l4.93.82A46.3,46.3,0,0,1,399,704.87Zm-89-7.49a47.28,47.28,0,0,1-1.21-10.63l5-.09v.17a42.34,42.34,0,0,0,1.08,9.42Zm92.59-10.45h-5v-.18a42.17,42.17,0,0,0-1.1-9.59l4.87-1.14a47.1,47.1,0,0,1,1.23,10.73Zm-88.24-7-4.94-.81a47.3,47.3,0,0,1,3-10.39l4.62,1.92A41.39,41.39,0,0,0,314.36,679.92Zm80.07-9.2a41.93,41.93,0,0,0-4.7-8.43l4-2.92a46.41,46.41,0,0,1,5.27,9.43Zm-74.32-6.09L315.86,662a47.63,47.63,0,0,1,6.72-8.45l3.54,3.54A42,42,0,0,0,320.11,664.63Zm65.23-7.5a42.08,42.08,0,0,0-7.56-6l2.64-4.25a46.81,46.81,0,0,1,8.46,6.72Zm-54.06-4.43-2.92-4.06a46.92,46.92,0,0,1,9.44-5.26l1.91,4.63A41.67,41.67,0,0,0,331.28,652.7ZM371.77,648a41.69,41.69,0,0,0-9.28-2.65l.8-4.93a46.44,46.44,0,0,1,10.4,3Zm-25.62-2.1L345,641.07a47.22,47.22,0,0,1,10.68-1.22l.05,5h-.05A41.88,41.88,0,0,0,346.15,645.94Z"/>
    </g>
    <path class="cls-4" d="M359.52,699.39h-10c0-7.1,3.22-13.87,9.07-19.06,3.35-3,4.11-4.94,4.11-5.39,0-4.54-4.81-5.74-7.36-5.74a7.81,7.81,0,0,0-4.87,1.51,5,5,0,0,0-1.77,4.19h-10A15,15,0,0,1,344.16,663a17.71,17.71,0,0,1,11.18-3.75c8.42,0,17.36,5.52,17.36,15.74,0,4.13-2.51,8.46-7.47,12.86C361.55,691.07,359.52,695.19,359.52,699.39Z"/>
    <rect class="cls-4" x="349.42" y="705.44" width="10.83" height="10.88"/>
    <g>
      <circle class="cls-2" cx="1042.44" cy="158.22" r="36.78" transform="translate(193.44 783.46) rotate(-45)"/>
      <path class="cls-5" d="M1042.42,197.51a39.74,39.74,0,0,1-8.84-1l1.13-4.88a34.36,34.36,0,0,0,7.72.88h0l1.25,0,.18,5c-.47,0-.95,0-1.43,0Zm8.63-.95-1.09-4.88a34,34,0,0,0,8.46-3.12l2.34,4.43A39.6,39.6,0,0,1,1051.05,196.56Zm-24.35-2.33a39.37,39.37,0,0,1-8.84-5.36L1021,185a34.55,34.55,0,0,0,7.72,4.67Zm40.13-5.21-3.11-3.91a34.47,34.47,0,0,0,6.28-6.49l4,3A39.73,39.73,0,0,1,1066.83,189Zm-54.17-5.18a39,39,0,0,1-5.66-8.65l4.51-2.16a34.19,34.19,0,0,0,4.93,7.55Zm65.11-8.43-4.49-2.19a34,34,0,0,0,2.84-8.56l4.91.93A39.09,39.09,0,0,1,1077.77,175.41Zm-73.29-7a39.47,39.47,0,0,1-1.32-10.17l5-.07v.07a34.34,34.34,0,0,0,1.15,8.88Zm77.24-10h-5v-.16a34.45,34.45,0,0,0-1.18-8.94l4.83-1.3a39.17,39.17,0,0,1,1.35,10.24Zm-73-6.52-4.91-.93a39,39,0,0,1,3.24-9.81l4.5,2.17A34.09,34.09,0,0,0,1008.74,151.86Zm64.6-8.5a34.21,34.21,0,0,0-4.95-7.54l3.78-3.27a38.83,38.83,0,0,1,5.67,8.64Zm-58.5-5.48-4-3a38.88,38.88,0,0,1,7.17-7.44l3.11,3.91A34.67,34.67,0,0,0,1014.84,137.88Zm49-6.45a34.57,34.57,0,0,0-7.73-4.66l2-4.58a39.68,39.68,0,0,1,8.85,5.33Zm-37.44-3.51-2.34-4.42a39.11,39.11,0,0,1,9.69-3.59l1.11,4.87A34.2,34.2,0,0,0,1026.39,127.92Zm23.71-3.12a34.37,34.37,0,0,0-7.65-.86c-.4,0-.89,0-1.33,0l-.2-5,1.53,0a39.47,39.47,0,0,1,8.76,1Z"/>
    </g>
    <path class="cls-5" d="M1046.46,168.7h-10a22,22,0,0,1,7.8-16.44c2.39-2.11,3.06-3.53,3.13-3.9,0-3.77-5.2-3.81-5.25-3.81a5.65,5.65,0,0,0-3.5,1,3.27,3.27,0,0,0-1.14,2.81h-10a13.31,13.31,0,0,1,4.84-10.57,15.53,15.53,0,0,1,9.8-3.29c7.39,0,15.24,4.87,15.24,13.89,0,3.68-2.18,7.48-6.48,11.3A12.11,12.11,0,0,0,1046.46,168.7Z"/>
    <rect class="cls-5" x="1036.38" y="172.85" width="10.69" height="10.73"/>
    <g>
      <path class="cls-5" d="M953,414.78a34.72,34.72,0,1,1,34.72-34.72A34.75,34.75,0,0,1,953,414.78Zm0-64.44a29.72,29.72,0,1,0,29.72,29.72A29.75,29.75,0,0,0,953,350.34Z"/>
      <path class="cls-5" d="M953,368.83a11.23,11.23,0,1,0,11.24,11.23A11.25,11.25,0,0,0,953,368.83Z"/>
      <path class="cls-5" d="M1009.06,389.86V371.1l-10-2.19A46.67,46.67,0,0,0,993.75,356l5.7-8.9-13.26-13.26-8.83,5.66a47.19,47.19,0,0,0-12.64-5.29l-2.32-10.57H943.65l-2.32,10.57a47.42,47.42,0,0,0-12.28,5.08l-9.43-6-13.27,13.26,6,9.38a46.87,46.87,0,0,0-5.07,12l-11.13,2.44V389l10.91,2.4a47.12,47.12,0,0,0,4.83,12.06l-6.14,9.58L919,426.32l9.24-5.92a47.07,47.07,0,0,0,12.17,5.29l2.37,10.83h18.76l2.27-10.38a47.21,47.21,0,0,0,12.72-5l9,5.79,13.26-13.26-5.58-8.71a47.24,47.24,0,0,0,5.53-12.84Zm-56,27.55a37.35,37.35,0,1,1,37.35-37.35A37.35,37.35,0,0,1,953,417.41Z"/>
    </g>
    <g>
      <path class="cls-4" d="M882.22,466.36c-6.1,2.82-27.08,8.5-20,19.33s5.57,13-1.1,15.88c-3.34,1.46,1.2,2.32,3.27,5.87s2,8.83-4.35,11.34c-5.36,2.12-16.9,4.93-9.85,19.72,7.61,16-3.81,37.53-36.25,32-27.31-4.67-29.08-6.46-38.84-5.46-8.38.85-16.1,5-24.75,24.35-8.72,19.51-24.29,41.47-28,46.68-10,14.23-28.43,53.43-38.2,56.16-38.51,10.74-136.43-66.35-136.43-120.74,0-8.76,13.64-4.37,20.29-11.78,23.6-26.3,27-39.93,21.26-57.76-21.46-66.65-39-115.07-41-152.32-2.51-46.44,15-75.95,29.73-92.82C619,210,701.6,178.29,802.13,240.36c68.2,43.07,63.85,122.05,64.1,130.26a21.36,21.36,0,0,1-2.05,8.76,43.9,43.9,0,0,0-1.48,31.43,3.38,3.38,0,0,1,.11.34c4.32,12.52,12.59,25.62,19.84,33.32C893.58,456.1,890.16,462.69,882.22,466.36Z"/>
      <path class="cls-5" d="M850,436.81c-6.1,2.82-27.08,8.5-20,19.33s5.57,13-1.1,15.87c-3.34,1.46,1.19,2.33,3.26,5.87s2,8.84-4.34,11.35c-5.37,2.11-16.9,4.92-9.85,19.72,7.6,16-3.82,37.53-36.25,32-27.31-4.68-29-5.68-38.85-5.46-13.25.3-18.26,9.59-26.91,28.9-8.72,19.5-24.11,37.18-27.78,42.39-10,14.23-26.45,53.17-36.21,55.89-33.27,9.28-97.7-45.75-114.6-96a43.35,43.35,0,0,1,3.72-35.6c9.2-15.76,22.38-42.73,16-58.69-26-65-39-115.07-41-152.32-2.51-46.44,15.47-75.54,29.73-92.82C575.55,191.15,671.52,142.53,772,204.6c68.21,43.07,61.75,128.26,62,136.47a21.4,21.4,0,0,1-2,8.76,43.82,43.82,0,0,0-1.48,31.42,3.38,3.38,0,0,0,.11.34c4.32,12.52,12.58,25.62,19.83,33.33C861.39,426.54,858,433.13,850,436.81Z"/>
      <path class="cls-4" d="M780.06,240.26c-12.18-17.33-47.57-46.61-98.52-46.61-38.12,0-73.66,10.26-91.4,18.64-25.38,12-39.62,39.87-47.34,63-11.32,34-20.82,74.39-2.91,84.31,19.51,10.8,88.33,2.25,127.12-5,34.83-6.53,38.42-27.58,46.27-38.07,5.47-7.31,46.8-16.33,65.43-27.91S794.57,260.9,780.06,240.26Z"/>
      <g>
        <path class="cls-1" d="M663.57,243.36v4a12.67,12.67,0,0,1-25.34,0v-4H615.11v19.3h-4.83a12.66,12.66,0,1,0,0,25.32h4.83v19.31h23.13v-4a12.67,12.67,0,0,1,25.34,0v4h23V288h4.83a12.66,12.66,0,1,0,0-25.32h-4.83v-19.3h-23Z"/>
        <path class="cls-5" d="M690.35,311h-30.5V303.3a8.94,8.94,0,0,0-17.88,0V311h-30.6V291.72h-1.09a16.4,16.4,0,1,1,0-32.8h1.09v-19.3H642l0,7.74a8.94,8.94,0,1,0,17.87,0v-7.73h30.52v19.3h1.09a16.4,16.4,0,1,1,0,32.8h-1.09Zm-23-7.48h15.55V284.24h8.57a8.92,8.92,0,1,0,0-17.84h-8.57V247.1H667.31v.25a16.41,16.41,0,0,1-32.82,0v-.25H618.85v19.3h-8.57a8.92,8.92,0,1,0,0,17.84h8.57v19.31H634.5v-.25a16.41,16.41,0,0,1,32.82,0Z"/>
      </g>
      <path class="cls-5" d="M577.43,263.76A16.44,16.44,0,0,1,561,247.35v-.25H547.74v-7.48h20.77l0,7.74a8.94,8.94,0,1,0,17.87,0l0-7.72h25V196.92h7.48v50.19h-25v.26A16.42,16.42,0,0,1,577.43,263.76Z"/>
      <path class="cls-5" d="M618.85,362.07h-7.48v-10.4l.67-3.37h7.07a8.94,8.94,0,0,0,0-17.87l-7.24,0-.49-3.74V311H591.64v.27a16.42,16.42,0,0,1-32.83,0V311H531.53v-7.48H566.3v7.74a8.94,8.94,0,0,0,17.87,0l0-7.74h34.66V323h.26a16.42,16.42,0,0,1,0,32.83h-.25Z"/>
      <path class="cls-5" d="M690.35,348.05h-7.48v-44.5h24.68v-.26a16.41,16.41,0,0,1,32.82,0v4h-7.48v-4a8.94,8.94,0,0,0-17.87,0l0,7.73H690.35Z"/>
      <path class="cls-5" d="M761.52,307.29H754v-23l7.73,0a8.94,8.94,0,0,0,0-17.87l-7.73,0V207.84h7.48v51.08h.26a16.42,16.42,0,1,1,0,32.83h-.25Z"/>
      <path class="cls-5" d="M722.88,263.76a16.43,16.43,0,0,1-16.41-16.41v-.25h-23.6V229.42h-.26a16.42,16.42,0,0,1,0-32.83h.25v-5.44h7.48v12.94l-7.75,0a8.94,8.94,0,0,0,0,17.87l7.73,0v17.67H714l0,7.74a8.94,8.94,0,0,0,17.88,0l0-7.72h66.09v7.48H739.29v.25A16.42,16.42,0,0,1,722.88,263.76Z"/>
      <path class="cls-4" d="M755,345.83s36.29-10.85,46.39-10.48,35.17,0,35.54,10.87-7.19,16.49-8,14.91c-4.35-8.53-18.93-17.92-28.29-17.55S755,345.83,755,345.83Z"/>
      <path class="cls-4" d="M774.1,373.91c21-10.56,27.36-9.71,27.36-9.71,1.71,5,1.2,16.51,6.09,17.61l-20.27-1.57Z"/>
      <path class="cls-4" d="M812.43,380.57a11.85,11.85,0,0,1-4.8,3.22,20.81,20.81,0,0,1-5.6,1.26,30,30,0,0,1-5.61-.06,22.62,22.62,0,0,1-5.37-1.13c-3.47-1.18-6.54-3.35-9.74-4.83a56.15,56.15,0,0,0-10-3.48l-3.37-.88,3.33-2.38,3.16-2.26c1.06-.73,2.16-1.44,3.28-2.1a57.72,57.72,0,0,1,7.1-3.36,37.89,37.89,0,0,1,7.76-2.31,24.56,24.56,0,0,1,4.26-.37,20.2,20.2,0,0,1,2.28.14c.38,0,.81.12,1.22.19l.68.16.38.11.21.06.35.13-2.49,6.89.13.06h-.35c-.21,0-.4,0-.65,0-.45,0-1,.06-1.47.1s-1,.1-1.59.2-1.08.15-1.63.25c-2.21.38-4.51.81-6.82,1.38-1.16.27-2.31.62-3.47.93s-2.32.71-3.51,1-2.38.64-3.58,1l-3.62,1,0-3.26a27,27,0,0,0,9.35,4.31c3.37.81,7,.66,10.31,1,1.67.17,3.29.5,4.89.82s3.21.59,4.8.86a39.06,39.06,0,0,0,9.9.61Z"/>
    </g>
    <g>
      <g>
        <path class="cls-4" d="M549.35,162.86a31.54,31.54,0,1,1,31.54-31.54A31.58,31.58,0,0,1,549.35,162.86Zm0-58.53a27,27,0,1,0,27,27A27,27,0,0,0,549.35,104.33Z"/>
        <path class="cls-4" d="M600.26,140.22v-17l-9.12-2a42.41,42.41,0,0,0-4.79-11.76l5.18-8.08-12-12-8,5.14A42.82,42.82,0,0,0,560,89.64L557.87,80h-17l-2.1,9.6a43.17,43.17,0,0,0-11.16,4.62L519,88.77l-12,12,5.45,8.51a42.44,42.44,0,0,0-4.6,10.88l-10.12,2.22v17l9.92,2.17a42.61,42.61,0,0,0,4.39,11l-5.58,8.7,12.05,12.05,8.4-5.38a42.28,42.28,0,0,0,11,4.81l2.16,9.83h17l2.07-9.42a42.52,42.52,0,0,0,11.55-4.57l8.22,5.27,12-12-5.07-7.91a42.82,42.82,0,0,0,5-11.66Zm-50.91,25a33.92,33.92,0,1,1,33.93-33.92A33.92,33.92,0,0,1,549.35,165.24Z"/>
      </g>
      <g>
        <path class="cls-5" d="M504.47,180.58a20.07,20.07,0,1,0,20.07,20.07A20.06,20.06,0,0,0,504.47,180.58Z"/>
        <path class="cls-5" d="M539.38,206.75V195.07l-6.25-1.37a29.09,29.09,0,0,0-3.29-8.06l3.55-5.54-8.26-8.26-5.5,3.52a29.73,29.73,0,0,0-7.87-3.29l-1.44-6.58H498.63l-1.44,6.58a29.26,29.26,0,0,0-7.65,3.16l-5.88-3.76-8.26,8.26,3.74,5.84A29.51,29.51,0,0,0,476,193l-6.94,1.52v11.68l6.8,1.49a29.44,29.44,0,0,0,3,7.51l-3.82,6,8.26,8.26,5.76-3.69a29.34,29.34,0,0,0,7.58,3.3l1.47,6.74H509.8l1.41-6.46a29.35,29.35,0,0,0,7.92-3.13l5.64,3.61,8.26-8.26-3.48-5.43a29.31,29.31,0,0,0,3.44-8Zm-34.91,17.16a23.26,23.26,0,1,1,23.26-23.26A23.27,23.27,0,0,1,504.47,223.91Z"/>
      </g>
    </g>
    <path class="cls-4" d="M1372.55,603.24V582.58l-11-2.42a51.48,51.48,0,0,0-5.81-14.25l6.28-9.79-14.61-14.61-9.73,6.23a51.54,51.54,0,0,0-13.92-5.82l-2.55-11.64H1300.5L1298,541.92a51.91,51.91,0,0,0-13.52,5.59L1274,540.86l-14.61,14.61,6.61,10.32a52.08,52.08,0,0,0-5.58,13.19l-12.26,2.69v20.65l12,2.64a52,52,0,0,0,5.33,13.28l-6.76,10.55,14.61,14.61,10.18-6.52a51.83,51.83,0,0,0,13.41,5.83l2.61,11.92h20.65l2.51-11.42a51.67,51.67,0,0,0,14-5.54l10,6.38,14.61-14.61-6.14-9.59a52,52,0,0,0,6.08-14.14Zm-61.72,30.34A41.13,41.13,0,1,1,1352,592.45,41.13,41.13,0,0,1,1310.83,633.58Z"/>
    <g>
      <g>
        <path class="cls-3" d="M807.87,852a23.81,23.81,0,1,1,23.81-23.8A23.82,23.82,0,0,1,807.87,852Zm0-44.18a20.38,20.38,0,1,0,20.38,20.38A20.41,20.41,0,0,0,807.87,807.77Z"/>
        <path class="cls-3" d="M846.29,834.87V822l-6.88-1.51a31.94,31.94,0,0,0-3.61-8.87l3.9-6.1-9.09-9.1-6.06,3.88a32.33,32.33,0,0,0-8.66-3.62l-1.59-7.25H801.44l-1.59,7.25a32.31,32.31,0,0,0-8.42,3.48L785,796l-9.09,9.09,4.12,6.43a32.1,32.1,0,0,0-3.48,8.21l-7.63,1.67v12.86l7.48,1.64a32.09,32.09,0,0,0,3.31,8.27l-4.2,6.57,9.09,9.09,6.34-4.05a32.36,32.36,0,0,0,8.34,3.63l1.63,7.42h12.86l1.56-7.11A32.27,32.27,0,0,0,824,856.3l6.2,4,9.09-9.09-3.82-6a32.34,32.34,0,0,0,3.79-8.79Zm-38.42,18.88a25.61,25.61,0,1,1,25.61-25.6A25.6,25.6,0,0,1,807.87,853.75Z"/>
      </g>
      <g>
        <path class="cls-1" d="M876.3,845.25a15.52,15.52,0,1,1,15.51-15.51A15.53,15.53,0,0,1,876.3,845.25Zm0-28.79a13.28,13.28,0,1,0,13.28,13.28A13.29,13.29,0,0,0,876.3,816.46Z"/>
        <path class="cls-1" d="M876.3,824.72a5,5,0,1,0,5,5A5,5,0,0,0,876.3,824.72Z"/>
        <path class="cls-1" d="M901.34,834.11v-8.38l-4.49-1A21.22,21.22,0,0,0,894.5,819l2.54-4-5.92-5.92-4,2.53a20.73,20.73,0,0,0-5.65-2.36l-1-4.73h-8.38l-1,4.73a20.86,20.86,0,0,0-5.49,2.27l-4.21-2.7-5.93,5.92,2.69,4.19a21,21,0,0,0-2.27,5.35l-5,1.09v8.38l4.87,1.07a21.11,21.11,0,0,0,2.16,5.39l-2.74,4.28,5.93,5.93,4.13-2.65a21.17,21.17,0,0,0,5.44,2.37l1.05,4.83h8.39l1-4.63a21.12,21.12,0,0,0,5.68-2.25l4,2.59,5.93-5.93-2.49-3.89a21.05,21.05,0,0,0,2.47-5.73Zm-25,12.31A16.69,16.69,0,1,1,893,829.74,16.68,16.68,0,0,1,876.3,846.42Z"/>
      </g>
      <g>
        <circle class="cls-3" cx="855.22" cy="899.7" r="26.99"/>
        <path class="cls-3" d="M902.15,907.91V892.2l-8.4-1.84a39.49,39.49,0,0,0-4.42-10.84l4.78-7.45L883,861l-7.4,4.74A39.29,39.29,0,0,0,865,861.28l-1.94-8.86H847.36l-1.94,8.86a39.26,39.26,0,0,0-10.28,4.25l-7.9-5.06-11.11,11.11,5,7.85a39.63,39.63,0,0,0-4.25,10l-9.32,2v15.71l9.13,2a39.62,39.62,0,0,0,4,10.1l-5.14,8,11.11,11.11,7.74-5a39.89,39.89,0,0,0,10.2,4.44l2,9.06h15.71l1.9-8.69a39.46,39.46,0,0,0,10.65-4.21l7.57,4.85,11.11-11.11-4.67-7.29a39.6,39.6,0,0,0,4.63-10.75ZM855.22,931A31.28,31.28,0,1,1,886.5,899.7,31.27,31.27,0,0,1,855.22,931Z"/>
      </g>
    </g>
    <g>
      <g>
        <path class="cls-1" d="M1122,695.18c38.87-37.74,93.76,12.1,71.15,54.3-14,26.15-38.83,38.85-63.25,36.78C1101.85,760.25,1091.75,724.6,1122,695.18Z"/>
        <path class="cls-4" d="M1135.14,790c-1.82,0-3.66-.08-5.5-.24l-1.2-.1-.88-.82c-17.5-16.2-27.25-35.15-27.47-53.34-.18-15.66,6.38-30.06,19.51-42.82,21.74-21.11,46.69-15.6,61.45-4.48,17.32,13.07,28.12,38.88,15.22,62.95C1183.23,775.48,1160.16,790,1135.14,790Zm-3.71-7.12c23.82,1.5,46.23-11.82,58.67-35,11-20.59,1.68-42.78-13.27-54.05-13.15-9.91-33.81-14.09-52.35,3.92h0c-11.7,11.36-17.55,24-17.39,37.7C1107.28,751.36,1115.91,768.17,1131.43,782.87Z"/>
      </g>
      <path class="cls-4" d="M1146.14,751.48l-1.16-1.32c-13.37-15.25-33.49-43.07-33.7-43.35l4.06-2.93c.19.27,19.06,26.35,32.25,41.66l50-19.6,1.83,4.66Z"/>
      <path class="cls-4" d="M1138.91,772.75l-1.16-1.33c-13.37-15.25-33.49-43.07-33.69-43.35l4-2.93c.19.27,19.06,26.35,32.25,41.66l50-19.6,1.82,4.66Z"/>
      <polygon class="cls-4" points="1152.15 729.57 1124.1 693.48 1128.05 690.41 1153.81 723.55 1193.65 707.92 1195.48 712.57 1152.15 729.57"/>
      <path class="cls-4" d="M1067.29,861.31l-3.42-6.11c.23-.13,24.06-14,60.66-67.11,24.46-35.48,34.58-102.64,34.68-103.31l6.93,1c-.42,2.82-10.46,69.43-35.85,106.27C1092.57,846.78,1068.3,860.74,1067.29,861.31Z"/>
    </g>
    <g>
      <path class="cls-5" d="M887.75,668.94a356.65,356.65,0,0,1-22.59-30.56c-4.42-6.84,2.08-20,2.08-20,13.86-.06,43.47,42.49,43.47,42.49Z"/>
      <path class="cls-5" d="M897.53,636.38c-10.17-12.3-30.18-34.18-33.9-40-4.41-6.85,2-20.68,2-20.68,12.74,1.13,45.57,43.75,45.57,43.75Z"/>
      <path class="cls-5" d="M943.52,637.23s-32.91-37.74-37.65-43c-10.16-11.27,1.49-25,1.49-25,11,5.63,28.84,28,39.89,37.59s19.92,28.3,34.79,42.51c22.84,21.82,18.07,31.26,18.09,42.89,0,19.71,15.78,53.74,19.63,75.94s10.36,26.15,17.77,31.23c19.23,13.2,31.56,54.25,31.56,83.83,0,30.2-17,37.29-34.15,37.29-21.64,0-33.11-56.39-38-66.09-5.06-10-78.62-155.77-78.62-155.77Z"/>
      <path class="cls-2" d="M975.55,754.94c-13.25,12.17-42.7-31.33-42.7-31.33l3-45.15,42.24-4.36s3.35,25.4-4,44.22C965.47,740.45,980.83,750.09,975.55,754.94Z"/>
      <path class="cls-4" d="M898.12,611.44l0,7.85a24.94,24.94,0,1,1-49.87.15v-7.85l-45.5.13.11,38-9.49,0a24.91,24.91,0,1,0,.15,49.81l9.49,0,.12,38,45.5-.13,0-7.85a24.94,24.94,0,0,1,49.87-.15l0,7.85,45.31-.14-.11-38,9.49,0a24.9,24.9,0,1,0-.15-49.8l-9.49,0-.12-38-45.3.14Z"/>
      <path class="cls-5" d="M996.9,854.41c-9.72-20.7-26.39-34.28-33.6-37.94-37-18.8-45.06-42.18-47.07-48.81-7.7-25.45-18.48-102.28-18.48-102.28-2.71-20.65,20.53-25.9,27-3.85,0,0,10.84,47.17,12.33,52.38S946.45,729,952.73,733c8,5.18,29.11,21.57,34.35,33.22C995.45,784.86,996.9,854.41,996.9,854.41Z"/>
      <path class="cls-2" d="M914.1,672.27l-3.42.54c-3.49.56-7.46-1.85-8-5.34l-1.39-13c-.25-3.78,1.86-6.79,5.35-7.35l3.42-.54a6.62,6.62,0,0,1,7.35,5.35l2.72,13C920.66,668.42,917.59,671.72,914.1,672.27Z"/>
      <path class="cls-2" d="M924.87,585.16h0a6.33,6.33,0,0,1-8.93,0l-8-8a6.33,6.33,0,0,1,0-8.93h0a6.34,6.34,0,0,1,8.94,0l8,8A6.34,6.34,0,0,1,924.87,585.16Z"/>
    </g>
    <g>
      <g>
        <circle class="cls-2" cx="994.63" cy="554.79" r="37.66" transform="translate(-100.98 865.8) rotate(-45)"/>
        <path class="cls-5" d="M994.61,595a40.35,40.35,0,0,1-9-1l1.13-4.87a35.55,35.55,0,0,0,7.92.89h0c.43,0,.86,0,1.28,0l.18,5A12.21,12.21,0,0,1,994.61,595Zm8.83-1-1.1-4.88a35.37,35.37,0,0,0,8.68-3.2l2.34,4.42A40.53,40.53,0,0,1,1003.44,594Zm-24.9-2.39a40.51,40.51,0,0,1-9-5.47l3.13-3.9a35.14,35.14,0,0,0,7.92,4.79Zm41-5.32-3.11-3.92a35,35,0,0,0,6.44-6.65l4,3A40.65,40.65,0,0,1,1019.56,586.28ZM964.18,581a40.59,40.59,0,0,1-5.79-8.84L962.9,570a35.09,35.09,0,0,0,5.07,7.75Zm66.57-8.62-4.49-2.19a35.17,35.17,0,0,0,2.91-8.77l4.91.93A39.82,39.82,0,0,1,1030.75,572.36Zm-74.93-7.17a40.44,40.44,0,0,1-1.36-10.4l5-.08v.08a35.62,35.62,0,0,0,1.19,9.1Zm79-10.24h-5v-.21a35.2,35.2,0,0,0-1.21-9.12l4.83-1.3a40.07,40.07,0,0,1,1.38,10.47Zm-74.72-6.69-4.91-.92a39.45,39.45,0,0,1,3.31-10l4.5,2.18A34.82,34.82,0,0,0,960.07,548.26Zm66.25-8.72a35.24,35.24,0,0,0-5.08-7.73l3.78-3.27a40,40,0,0,1,5.8,8.83Zm-60-5.61-4-3a40.64,40.64,0,0,1,7.33-7.61l3.11,3.92A35.53,35.53,0,0,0,966.32,533.93Zm50.24-6.62a35.1,35.1,0,0,0-7.92-4.78l2-4.58a40.27,40.27,0,0,1,9.05,5.45Zm-38.39-3.6-2.34-4.42a39.79,39.79,0,0,1,9.91-3.67l1.1,4.87A35,35,0,0,0,978.17,523.71Zm24.32-3.2a35.66,35.66,0,0,0-9.22-.86l-.19-5a40.43,40.43,0,0,1,10.52,1Z"/>
      </g>
      <polygon class="cls-4" points="1017.11 549.17 1000.33 549.17 1000.33 532.31 989.09 532.31 989.09 549.17 972.14 549.17 972.14 560.41 989.09 560.41 989.09 577.28 1000.33 577.28 1000.33 560.41 1017.11 560.41 1017.11 549.17"/>
    </g>
    <path class="cls-1" d="M781.41,882c-90-24.5-123,58.24-171.5,18.51-20.07-16.45-21-38-14.53-64.51,7-28.61,60.18-22.66,74-19C722.41,831,781.41,882,781.41,882Z"/>
    <g>
      <path class="cls-4" d="M984.36,230.05a19.78,19.78,0,1,1,19.77-19.77A19.8,19.8,0,0,1,984.36,230.05Zm0-36.7a16.93,16.93,0,1,0,16.92,16.93A16.94,16.94,0,0,0,984.36,193.35Z"/>
      <path class="cls-4" d="M1016.27,215.86V205.17l-5.71-1.25a26.77,26.77,0,0,0-3-7.37l3.25-5.06-7.55-7.56-5,3.23a26.58,26.58,0,0,0-7.2-3l-1.32-6H979l-1.32,6a26.78,26.78,0,0,0-7,2.89l-5.37-3.44-7.55,7.55,3.42,5.34a26.62,26.62,0,0,0-2.89,6.82L952,204.7v10.68l6.21,1.36a26.58,26.58,0,0,0,2.76,6.87l-3.5,5.46,7.55,7.55,5.27-3.37a27.18,27.18,0,0,0,6.93,3l1.35,6.16h10.68l1.3-5.91a26.81,26.81,0,0,0,7.24-2.86l5.15,3.3,7.55-7.56-3.17-5a26.45,26.45,0,0,0,3.14-7.31Zm-31.91,15.68a21.27,21.27,0,1,1,21.27-21.26A21.26,21.26,0,0,1,984.36,231.54Z"/>
    </g>
    <g>
      <path class="cls-1" d="M1275.57,924.56c104.18-3.17,85.58-41.21,104.79-70,61.52-92.14,158.29,76.81,51.81,91.55S1275.57,924.56,1275.57,924.56Z"/>
      <path class="cls-3" d="M1422.74,929.62a41.2,41.2,0,1,1,41.2-41.2A41.24,41.24,0,0,1,1422.74,929.62Zm0-74.19a33,33,0,1,0,33,33A33,33,0,0,0,1422.74,855.43Z"/>
      <polygon class="cls-3" points="1443.96 883.11 1428.12 883.11 1428.12 867.2 1417.51 867.2 1417.51 883.11 1401.52 883.11 1401.52 893.72 1417.51 893.72 1417.51 909.64 1428.12 909.64 1428.12 893.72 1443.96 893.72 1443.96 883.11"/>
    </g>
  </g>
</svg>
