<svg id="Слой_1" data-name="Слой 1" xmlns="http://www.w3.org/2000/svg" width="3200" height="1150" viewBox="0 0 3200 1150">
  <defs>
    <style>
      .cls-1 {
        fill: #ebf3fa;
      }

      .cls-2 {
        fill: #2e3552;
      }

      .cls-3 {
        fill: #c8dbf4;
      }

      .cls-4 {
        fill: #d4e4f8;
      }

      .cls-5 {
        fill: #9fc1f4;
      }

      .cls-6 {
        fill: #f9ddbf;
      }

      .cls-7 {
        fill: #d39e7a;
      }

      .cls-8 {
        fill: #efcbab;
      }

      .cls-9 {
        fill: #eac3a0;
      }

      .cls-10 {
        fill: #f4a269;
      }

      .cls-11 {
        fill: #ffb27d;
      }

      .cls-12 {
        fill: #163560;
      }

      .cls-13 {
        fill: #1c468a;
      }

      .cls-14 {
        fill: #fff;
      }

      .cls-15 {
        fill: #ebeef2;
      }

      .cls-16 {
        fill: #dfebfb;
      }

      .cls-17 {
        fill: #b1cbef;
      }

      .cls-18 {
        fill: #cde3fd;
      }

      .cls-19 {
        fill: #bbd3f4;
      }

      .cls-20 {
        fill: #c65447;
      }

      .cls-21 {
        fill: #b5453c;
      }

      .cls-22 {
        fill: #f99746;
      }

      .cls-23 {
        fill: #ed7d2b;
      }

      .cls-24 {
        fill: #cde0fb;
      }

      .cls-25 {
        fill: #b0d4ff;
      }

      .cls-26 {
        fill: #d2e3fc;
      }

      .cls-27 {
        fill: #8bb9ef;
      }

      .cls-28 {
        fill: #77a4e5;
      }

      .cls-29 {
        fill: #9fc3f7;
      }

      .cls-30 {
        fill: #8bb3ee;
      }

      .cls-31 {
        fill: #1f426d;
      }

      .cls-32 {
        fill: #ed985f;
      }

      .cls-33 {
        fill: #2b478b;
      }

      .cls-34 {
        fill: #afcdfb;
      }

      .cls-35 {
        fill: #233862;
      }

      .cls-36 {
        fill: #ed975d;
      }

      .cls-37 {
        fill: #82b378;
      }

      .cls-38 {
        fill: #a8d29f;
      }

      .cls-39 {
        fill: #ffac6e;
      }

      .cls-40 {
        fill: #dfedfb;
      }
    </style>
  </defs>
  <g>
    <path class="cls-1" d="M2989.18,1062.53s218.65-294.73-74.63-565c-569.78-525-1132.07,58.22-1380.89-161.45-411.59-363.37-1293.18-244-1222.83,276C341.88,841.52,15,841.6,215.26,1063Z"/>
    <path class="cls-2" d="M139,1059.63v1.07a3.25,3.25,0,0,0,3.34,3.12h2937.4a3.24,3.24,0,0,0,3.33-3.12v-1.07a3.25,3.25,0,0,0-3.33-3.13H142.37A3.26,3.26,0,0,0,139,1059.63Z"/>
    <g>
      <g>
        <path class="cls-3" d="M950.63,873.49s-28.77-33.56-1.77-54.88c0,0,19.71-11.94,35.79-11,0,0-22.78,38.2-15.41,42s22.32-44.4,22.32-44.4,44.86-4.35,59.3,2.59c0,0-38.36,31.39-30.28,33.26s49.51-28.94,49.51-28.94,41.76,7.11,39.53,32.58-16.61,33.34-22.94,32.67-43.32-14.8-44.12-9.62,21.46,22.12,37.06,22.91c0,0-29.45,32.47-49,23.1s-21.24-24.23-33.44-29.8-22.61-5.56-17.57.13,27.11,11.2,34.08,23.54,13.24,20.66-7,17.61-53.15-17.86-54.6-34.82Z"/>
        <g>
          <path class="cls-3" d="M1089.1,845.42s-113.42-4.37-138.47,28.07c0,0-5.54,16.59-22.59,31.7l-2.65,7.24s19.65-20.73,26.68-22C952.07,890.45,941.08,850.26,1089.1,845.42Z"/>
          <path class="cls-3" d="M928,905.19s-24.34,18-26,50.17l4.42.4s7.77-33.27,21.82-46.28S928,905.19,928,905.19Z"/>
        </g>
      </g>
      <g>
        <path class="cls-3" d="M850.05,831.28s45.76-25.63,24.41-60.4c0,0-17.09-21.36-35.39-26.85,0,0,9.76,51.86,0,53.08s-6.72-58.57-6.72-58.57-48.2-23.19-67.11-21.36c0,0,29.89,50.64,20.13,49.42s-43.32-52.47-43.32-52.47S692.63,705,684.7,734.27s4.88,43.93,12.2,45.76,54.3,1.22,53.08,7.32S717,803.21,699.34,797.72c0,0,19.53,48.2,45.15,45.76s33.56-18.3,49.42-19.52,27.46,3,19.53,7.32-34.78,1.4-47.59,12.29-23.19,17.61.61,22.49,66.5,1.83,75-16.48Z"/>
        <g>
          <path class="cls-3" d="M707.27,743.42s128.14,41.49,142.78,87.86c0,0-.61,20.75,12.2,44.54V885s-13.42-31.11-20.74-35.39C841.51,849.58,870.18,809.31,707.27,743.42Z"/>
          <path class="cls-3" d="M862.25,875.82s19.76,30,8.5,66.54L865.66,941s4.94-40.23-5.4-60.47S862.25,875.82,862.25,875.82Z"/>
        </g>
      </g>
      <g>
        <path class="cls-4" d="M922.85,795.94s-60.32-33.78-32.17-79.63c0,0,22.52-28.15,46.65-35.39,0,0-12.87,68.37,0,70s8.85-77.22,8.85-77.22,63.54-30.56,88.47-28.15c0,0-39.41,66.76-26.54,65.15s57.1-69.17,57.1-69.17,65.15-12.06,75.61,26.54-6.44,57.91-16.09,60.33-71.58,1.61-70,9.65,43.43,20.91,66.75,13.67c0,0-25.73,63.54-59.51,60.32s-44.24-24.13-65.15-25.73-36.2,4-25.74,9.65,45.85,1.84,62.74,16.2,30.56,23.21-.81,29.64-87.67,2.42-98.93-21.71Z"/>
        <g>
          <path class="cls-4" d="M1111.06,680.12s-168.9,54.69-188.21,115.82c0,0,.81,27.34-16.08,58.71v12.07s17.69-41,27.34-46.65C934.11,820.07,896.31,767,1111.06,680.12Z"/>
          <path class="cls-4" d="M906.77,854.65s-26,39.56-11.2,87.71l6.7-1.81s-6.51-53,7.12-79.7S906.77,854.65,906.77,854.65Z"/>
        </g>
      </g>
      <path class="cls-4" d="M920.82,1046.77A118.16,118.16,0,0,0,1039,928.61H802.66A118.16,118.16,0,0,0,920.82,1046.77Z"/>
      <path class="cls-4" d="M1040.61,1052.78H801a14.57,14.57,0,0,1,14.57-14.58H1026a14.57,14.57,0,0,1,14.57,14.58Z"/>
      <rect class="cls-5" x="798.77" y="928.61" width="242.9" height="3.63"/>
    </g>
    <g>
      <path class="cls-6" d="M963.92,966c-8.7,55.78-65.62,91.3-124,91.3H724.28l9.05-325.1s110.33-35.42,138-1.73C895.64,760,961.48,876.82,964.94,946A97.26,97.26,0,0,1,963.92,966Z"/>
      <path class="cls-7" d="M657,766.64S813,687,842.5,739c15.69,27.62,58.86,137.79,62,206.93,3.1,67.18-55.1,111.36-115,111.36H683.23Z"/>
      <path class="cls-8" d="M686.29,810.8c-1.31,6.77-13.94,13.05-32.68,18.6q-5,1.47-10.45,2.88c-63.79,16.29-176.78,25.38-187.55,20.58C440.73,846.22,349.4,521.7,349.4,521.7s87.18-3.27,156.42-4.87c23.69-.54,45.27-.89,60.55-.84a39.64,39.64,0,0,1,5.26.36,25,25,0,0,1,15.4,7.89c11.15,12,13.92,35.64,24.24,61.8,10.2,25.86,22.73,58.14,34.61,90.17,3.06,8.25,6.08,16.49,9,24.6.83,2.29,1.64,4.57,2.46,6.83C674.89,756.77,688.41,799.84,686.29,810.8Z"/>
      <path class="cls-9" d="M963.92,966c-8.7,55.78-65.62,91.3-124,91.3H783.2C821,1031.68,855.22,952.67,963.92,966Z"/>
      <path class="cls-8" d="M872.87,1007.37c-22.33,31-56.56,50.89-94.7,50.27l-164,.09-78.55,0L624,766.68s223.69-22.25,251.28,7.43c12.8,13.77,20,76.17,24,139.07C901.61,948.64,891.29,981.79,872.87,1007.37Z"/>
      <path class="cls-7" d="M872.87,1007.37c-22.33,31-56.56,50.89-94.7,50.27l-164,.09c19.29-16.2,80-62.16,144.94-60C808.4,999.4,847.5,998.69,872.87,1007.37Z"/>
      <g>
        <path class="cls-10" d="M659.32,553.9s20.62,12.91,44.88,48.52c21.25,31.18,32.25,41.29,44.32,44.27s71.23,1.37,71.23,1.37l.14,10.43s-77.8,22.49-91.48,13.88-77.18-67.17-82.12-84.93S659.32,553.9,659.32,553.9Z"/>
        <g>
          <path class="cls-11" d="M867.81,1005.66c-.72,7.82,10.18,9.73,22.8,10.35s8.8,3.22,26.1,6.35,24.22-1.6,25.48-3.94c1.11-2.07-6.93-5.31-15.5-9-1.08-.45-2.16-.93-3.24-1.4-9.64-4.24-15.05-12.89-22.57-20.91-7.12-7.59-13.89-31.91-13.89-31.91l-23.5-5s6.6,21.89,8.89,31.23c1.35,5.5-.64,11.64-2.4,16.32A30.33,30.33,0,0,0,867.81,1005.66Z"/>
          <path class="cls-12" d="M890.61,1016c12.62.63,8.8,3.22,26.1,6.35s24.22-1.6,25.48-3.94c1.11-2.07-6.93-5.31-15.5-9l-.13.15a49.23,49.23,0,0,1-26.2.31c-11.44-3.11-22.5-9.94-30.38-12.15a30.33,30.33,0,0,0-2.17,7.91C867.09,1013.48,878,1015.39,890.61,1016Z"/>
        </g>
        <path class="cls-12" d="M633.78,727s156.17-11.75,185.57,6.8,76.56,234.69,76.56,234.69-2.91,2.34-9.41,3c-6,.65-19.36-2.9-19.36-2.9s-67.77-96.71-72.54-121.07-3.61-46.1-14.48-46.68S633.76,817.31,613.26,781.2s-3.55-71.84-3.55-71.84Z"/>
        <g>
          <path class="cls-11" d="M808.06,1030.74c-.73,7.83,10.17,9.73,22.79,10.36s8.81,3.21,26.1,6.34,24.23-1.6,25.48-3.93c1.11-2.08-6.93-5.32-15.5-9l-3.24-1.41c-9.64-4.24-15.05-12.88-22.57-20.9-7.12-7.6-13.88-31.92-13.88-31.92l-23.51-5s6.6,21.89,8.89,31.23c1.35,5.5-.64,11.65-2.4,16.32A30.81,30.81,0,0,0,808.06,1030.74Z"/>
          <path class="cls-12" d="M830.85,1041.1c12.62.63,8.81,3.21,26.1,6.34s24.23-1.6,25.48-3.93c1.11-2.08-6.93-5.32-15.5-9l-.13.14a49.29,49.29,0,0,1-26.2.32c-11.44-3.11-22.5-10-30.38-12.16a30.81,30.81,0,0,0-2.16,7.91C807.33,1038.57,818.23,1040.47,830.85,1041.1Z"/>
        </g>
        <path class="cls-13" d="M603.19,736.64s138.74,6.57,167.39,26.25,67.36,237.49,67.36,237.49-3,2.22-9.52,2.67c-6.06.42-19.23-3.65-19.23-3.65s-64-99.27-67.77-123.8-1.81-46.21-12.65-47.21-146.89,10.76-166-26.12S603.19,736.64,603.19,736.64Z"/>
        <path class="cls-12" d="M637.65,428.56c-6.66-3.16-14.35-3-19.69-2.27a9.06,9.06,0,0,1,3.95-2.25c-3.36-.25-10.54,3.6-10.54,3.6-47.56-14.38-50.56,49.35-47.63,70,4.12,29-18.53,30.72-30.42,55.15-30.5,62.64,39.45,109.83,39.45,109.83.37.18,46.76-88.63,76-111.11,6.68-11.59,7.89-31.26,8-32.81-.15,15.54-2.15,24.4-4.15,29.45C676.91,522.23,655.32,436.93,637.65,428.56Z"/>
        <path class="cls-11" d="M597.36,539.73a157.08,157.08,0,0,1,25.84,0,83.17,83.17,0,0,1,22.42,5.63c12.23,5.11,11,26.76-14.71,22.75S595.56,546.15,597.36,539.73Z"/>
        <path class="cls-11" d="M644.54,555.52c.15.08,3.66,18.62-13.14,17.88-11-.49-34.81-13.83-32.71-23.27,1-4.49,9.33-16.13,11-42.72l2,.54L645.46,517s-1.5,10.71-2.2,20.85C642.67,546.37,642.65,554.48,644.54,555.52Z"/>
        <path class="cls-10" d="M645.46,517s-1.5,10.71-2.2,20.85c-19.1-1.82-28.06-20-31.56-29.91Z"/>
        <path class="cls-12" d="M604.07,506.68s-11.2-15.09-14.62-28.46c-2.43-9.54-.17-45.76,36.24-43.27a49.11,49.11,0,0,1,20.86,6.17c8.22,4.7,20.35,15.27,10.05,47.48l-2.49,10.81Z"/>
        <path class="cls-11" d="M649.67,523.5s-45.21,4.1-47.34-24.09-9.39-46.65,19.39-50.46,35.2,6.52,38.2,15.76S661.37,521.7,649.67,523.5Z"/>
        <path class="cls-12" d="M642.28,446.73s-9.93,34-28.59,40.3-27.29,1.82-27.29,1.82a54.05,54.05,0,0,0,15.26-33.13S631.77,431.68,642.28,446.73Z"/>
        <path class="cls-12" d="M639.41,449.64s9.8,6.7,12.59,13.71,4.91,21.72,9.18,20.89c0,0,7.66-23.17-3.77-35.11C645.28,436.47,639.41,449.64,639.41,449.64Z"/>
        <path class="cls-14" d="M696.57,729.32c-3.67,4.39-15.12,5.73-27.37,7.75-9.63,1.59-19.75,3.58-27,7.81-16.34,9.6-69.74,42-85.39,40.55-6.07-.57-4.93-12.15-1.26-27.52,5.79-24.27,17.9-58,17.9-72.64,0-8,2.66-26.92,6.21-48.56.29-1.75.59-3.51.88-5.28,7-42.08,16.77-91.69,16.77-91.69s10.86,23.69,32,23.69,16.24-18.07,16.24-18.07,19.31,2.27,23.87,7.19,16.13,26.15,18.42,31.94c0,0,.47,7.37-17.78,10.88,0,0,4.45,20,5,33.34.39,9.85-6.73,40.68-8.77,59.86-.73,6.79-.82,12.12.28,14.54,1.41,3.1,6,6.18,11.17,9.21C688.11,718.33,700.93,724.1,696.57,729.32Z"/>
        <path class="cls-15" d="M677.79,712.32c11.71,20-31.76,26-39,30.2-16.34,9.6-66.32,44.39-82,42.91-6.07-.57-4.93-12.15-1.26-27.52,5.79-24.27,17.9-58,17.9-72.64,0-8,2.66-26.92,6.21-48.56l18.84-18.09s20.19,52.17,39.43,60.72a161.92,161.92,0,0,0,28.36,9.23c-.73,6.79-.82,12.12.28,14.54C668,706.21,672.6,709.29,677.79,712.32Z"/>
        <path class="cls-11" d="M591.57,555.35s-16.11-9.78-31.68,8.78S571,715.33,594,722.14c25.64,7.57,102.54,7.18,102.54,7.18l-2.5-9.25s-80.61-25.83-83.89-30S599.76,557.49,591.57,555.35Z"/>
        <path class="cls-14" d="M597.36,539.73s-33.08,3-42.68,13.87S542.26,594,542.26,594s29.13,23.51,64.23,14.39Z"/>
        <path class="cls-10" d="M850.87,656.66a22.41,22.41,0,0,0-4.09,0c4.55-2.19,9.13-4.57,9.13-4.57s-2.08-2.08-9.91.83a5.93,5.93,0,0,1-2.65.33l11-5.12c-2-1.74-7.26-.25-11.35,1.31a9.09,9.09,0,0,1-8.72-1.2l-.12-.1.54-.06c6.43-1,8-4.74,6.23-4.3s-12.56,1.38-12.56,1.38c-4.88-.21-14.5,3.65-14.5,3.65l5.55,9.91S835,661.41,839,660.1c.33-.1.71-.25,1.15-.42h0l14.11-1.12S854,657,850.87,656.66Z"/>
        <path class="cls-11" d="M692.36,720.52s20.26-5.48,25.76-4.4,16.17,6.9,17.79,9.49-12.29,2.23-20.06,2-10.43,2.65-13.82,2.16a34.84,34.84,0,0,0-5.46-.41Z"/>
      </g>
      <path class="cls-6" d="M737,968.94c-9.38,54.1-60.84,88.38-113.58,88.38H517.08l8.32-325.1s101.46-35.42,126.94-1.73C674.67,760,735.21,876.82,738.4,946A105.42,105.42,0,0,1,737,968.94Z"/>
      <path class="cls-9" d="M737,968.94c-9.38,54.1-60.84,88.38-113.58,88.38h-85.1C578.16,1030.32,631.79,955.73,737,968.94Z"/>
      <path class="cls-7" d="M572.15,1057.08l-2.39.16c-1.68.09-3.37.15-5.06.17h-108v-.05l-6.14.08c-10.95.13-22.39.26-33,.35l-5.25,0h-1.91c-10.48.07-19.75.1-26.36.06a176.11,176.11,0,0,1-26.3-2,117.75,117.75,0,0,1-29.31-8.38,97,97,0,0,1-9.32-4.74,91.58,91.58,0,0,1-11.53-7.86A104.1,104.1,0,0,1,283,1006.1a157.64,157.64,0,0,1-12.75-27.77,268.09,268.09,0,0,1-11.18-44.58C255,909.85,252.67,882,252,849.83q-.42-19.46-.06-41,.56-34.5,3.07-74.72c2.34-37.69,5.91-79.28,10.63-125.05,4.31-41.8,9.27-71,16.49-77.69,10.66-9.82,32.88-13.77,48.33-15.35h0c9.59-1,16.56-1.06,16.56-1.06,18.89,0,35.67,13.56,41.73,33.71,12.35,41,34.38,114.37,57.31,191.09l.34,1.15,4,13.25c.2.68.41,1.35.61,2l4-1.79.14-.06c5.49-2.44,11.72-5.11,18.43-7.83h0c3.48-1.41,7.09-2.84,10.81-4.26,10.49-4,21.82-8,33.3-11.42,5.09-1.53,10.22-2.95,15.32-4.21,6.55-1.62,13-3,19.38-4l.55-.09,2.24-.34c27.3-4,51-1.23,60.8,16.07,15.69,27.69,58.85,138.19,62,207.53C680.94,1009.68,628.65,1052.84,572.15,1057.08Z"/>
      <path class="cls-6" d="M401.57,769.15S347,546.79,343.05,528.1c-1.76-8.33-7.17-11.34-12.62-12.11,9.6-1,16.58-1.06,16.58-1.06,18.88,0,35.66,13.52,41.72,33.61C402,592.35,426.29,673.15,451,755.45,449.7,755.42,401.57,769.15,401.57,769.15Z"/>
    </g>
    <g>
      <path class="cls-16" d="M1144.12,966c8.7,55.78,65.62,91.3,124,91.3h115.63l-9-325.1s-110.33-35.42-138-1.73C1212.39,760,1146.56,876.82,1143.1,946A97.26,97.26,0,0,0,1144.12,966Z"/>
      <path class="cls-17" d="M1451.07,766.64S1295.08,687,1265.54,739c-15.69,27.62-58.86,137.79-62,206.93-3.1,67.18,55.11,111.36,115,111.36h106.34Z"/>
      <path class="cls-18" d="M1421.74,810.8c1.32,6.77,14,13.05,32.69,18.6q5,1.47,10.45,2.88c63.79,16.29,176.77,25.38,187.54,20.58,14.88-6.64,106.22-331.16,106.22-331.16s-87.19-3.27-156.43-4.87c-23.69-.54-45.27-.89-60.55-.84a39.37,39.37,0,0,0-5.25.36,25,25,0,0,0-15.41,7.89c-11.14,12-13.91,35.64-24.23,61.8-10.2,25.86-22.73,58.14-34.61,90.17-3.06,8.25-6.08,16.49-9,24.6l-2.45,6.83C1433.14,756.77,1419.62,799.84,1421.74,810.8Z"/>
      <path class="cls-17" d="M1144.12,966c8.7,55.78,65.62,91.3,124,91.3h56.72C1287,1031.68,1252.82,952.67,1144.12,966Z"/>
      <path class="cls-18" d="M1235.17,1007.37c22.32,31,56.56,50.89,94.7,50.27l164,.09,78.55,0L1484,766.68s-223.7-22.25-251.28,7.43c-12.81,13.77-20,76.17-24,139.07C1206.42,948.64,1216.74,981.79,1235.17,1007.37Z"/>
      <path class="cls-19" d="M1235.17,1007.37c22.32,31,56.56,50.89,94.7,50.27l164,.09c-19.3-16.2-80-62.16-144.94-60C1299.64,999.4,1260.53,998.69,1235.17,1007.37Z"/>
      <g>
        <g>
          <path class="cls-11" d="M1355.38,992c4.28,6.59-4.48,13.35-15.36,19.77s-6.3,7-20.15,17.77-22.19,9.85-24.38,8.37c-2-1.32,3.65-7.93,9.53-15.16.75-.91,1.48-1.83,2.22-2.75,6.56-8.24,7.33-18.41,10.25-29,2.77-10-2.56-34.71-2.56-34.71l18.47-15.38s4.34,22.44,6.66,31.78c1.37,5.49,6,10,9.72,13.33A30.63,30.63,0,0,1,1355.38,992Z"/>
          <path class="cls-20" d="M1340,1011.79c-10.88,6.43-6.3,7-20.15,17.77s-22.19,9.85-24.38,8.37c-2-1.32,3.65-7.93,9.53-15.16l.19.06a49.18,49.18,0,0,0,23.33-11.91c8.68-8.07,15.29-19.27,21.24-24.89a30.63,30.63,0,0,1,5.6,6C1359.66,998.61,1350.9,1005.37,1340,1011.79Z"/>
        </g>
        <path class="cls-12" d="M1427,705.1s-111.88,6.06-127.74,23.39c-23,25.11,14.1,251.09,14.1,251.09s26.05-2.21,31.58-11c0,0,35-145.94,17.14-169.82s127.82-24.64,124-56.35S1427,705.1,1427,705.1Z"/>
        <path class="cls-10" d="M1423.83,559.8s-.39-4.56-1.86,38.5c-.93,27.42.66,52.89-7,62.67-13,16.63-31.21,47.67-31.21,47.67l9.64,4.38s37.26-25.41,46.28-38.82,22.86-85.77,20.19-104S1423.83,559.8,1423.83,559.8Z"/>
        <g>
          <path class="cls-11" d="M1297.6,1012.58c.72,7.82-10.17,9.72-22.79,10.35s-8.81,3.22-26.1,6.35-24.23-1.6-25.48-3.94c-1.11-2.07,6.93-5.31,15.5-9l3.23-1.4c9.65-4.24,15.06-12.89,22.58-20.91,7.12-7.59,13.88-31.91,13.88-31.91l23.5-5s-6.59,21.89-8.89,31.23c-1.34,5.5.65,11.64,2.41,16.32A30.7,30.7,0,0,1,1297.6,1012.58Z"/>
          <path class="cls-20" d="M1274.81,1022.93c-12.62.63-8.81,3.22-26.1,6.35s-24.23-1.6-25.48-3.94c-1.11-2.07,6.93-5.31,15.5-9l.13.15a49.23,49.23,0,0,0,26.2.31c11.44-3.11,22.5-9.94,30.38-12.15a30.7,30.7,0,0,1,2.16,7.91C1298.32,1020.4,1287.43,1022.3,1274.81,1022.93Z"/>
        </g>
        <path class="cls-13" d="M1502.47,718.48s-138.74,6.56-167.39,26.25-67.37,237.49-67.37,237.49,3,2.22,9.53,2.67c6.06.42,19.23-3.65,19.23-3.65s64-99.27,67.77-123.8,1.81-46.21,12.65-47.22,146.89,10.77,166-26.11S1502.47,718.48,1502.47,718.48Z"/>
        <path class="cls-21" d="M1449.31,550.44c31.39,19.42,47-34.69,70.4,16.34,0,0,58-20.19,43.69-62-8.77-25.72-31-18.21-29.53-34,2.64-28.69-22.65-81.58-68.52-62.47,0,0-11.47-1.7-19.59,5.47-39.35,34.78-5.11,68.43-19.89,82.29C1406.84,513.86,1414.76,549.17,1449.31,550.44Z"/>
        <path class="cls-11" d="M1508.3,521.57a155.81,155.81,0,0,0-25.84,0A82.7,82.7,0,0,0,1460,527.2c-12.23,5.11-11,26.75,14.71,22.75S1510.1,528,1508.3,521.57Z"/>
        <path class="cls-11" d="M1461.12,537.36c-.15.08-3.66,18.62,13.14,17.88,11-.49,34.81-13.83,32.71-23.28-1-4.48-9.33-16.13-11-42.71l-2,.54-33.76,9s1.5,10.71,2.2,20.85C1463,528.21,1463,536.32,1461.12,537.36Z"/>
        <path class="cls-10" d="M1460.2,498.84s1.5,10.71,2.2,20.85c19.1-1.81,28-20,31.56-29.9Z"/>
        <path class="cls-21" d="M1497.94,487.9s9.62-16.15,11.67-29.79c1.46-9.74-4.44-45.54-40.41-39.39a49,49,0,0,0-20.14,8.24c-7.7,5.5-18.7,17.24-5.21,48.25l3.57,10.51Z"/>
        <path class="cls-11" d="M1454.27,509.23s45.39-.47,44.66-28.73,4.64-47.36-24.37-48.26-34.36,10-36.42,19.53S1442.44,508.63,1454.27,509.23Z"/>
        <path class="cls-21" d="M1453.88,432.11s13.31,32.82,32.51,37.21,24.55,16.16,24.55,16.16-4.63-39.23-8.21-59.43C1502.73,426.05,1462.82,416.07,1453.88,432.11Z"/>
        <path class="cls-21" d="M1457,434.71s-9.08,7.66-11.15,14.91-7,21.72-7,21.72-10-22.29.21-35.32C1449.86,422.2,1457,434.71,1457,434.71Z"/>
        <path class="cls-22" d="M1409.08,711.15c3.67,4.39,15.13,5.74,27.37,7.75,9.64,1.59,19.76,3.59,27,7.82,16.34,9.59,69.74,42,85.39,40.55,6.06-.58,4.93-12.16,1.25-27.53-5.78-24.27-17.89-58-17.89-72.63,0-8-2.66-26.93-6.22-48.57q-.43-2.61-.88-5.28c-7-42.07-16.76-91.69-16.76-91.69s-10.86,23.7-32,23.7S1460,527.2,1460,527.2s-19.31,2.27-23.87,7.18-16.13,26.15-18.43,31.94c0,0-.47,7.37,17.78,10.88,0,0-4.44,20-5,33.34-.39,9.86,6.72,40.69,8.77,59.87.72,6.79.82,12.12-.28,14.54-1.41,3.09-6,6.18-11.18,9.21C1417.55,700.16,1404.73,705.94,1409.08,711.15Z"/>
        <path class="cls-23" d="M1427.86,694.16c-11.71,20,31.77,26,39,30.2,16.35,9.59,66.33,44.38,82,42.91,6.06-.58,4.93-12.16,1.25-27.53-5.78-24.27-17.89-58-17.89-72.63,0-8-2.66-26.93-6.22-48.57l-18.84-18.09s-20.18,52.18-39.42,60.73a163,163,0,0,1-28.36,9.23c.72,6.79.82,12.12-.28,14.54C1437.63,688,1433.06,691.13,1427.86,694.16Z"/>
        <path class="cls-11" d="M1514.09,537.19s16.1-9.78,31.68,8.77-11.07,151.2-34.15,158c-25.63,7.57-81.69,20.21-81.69,20.21l-2.14-8.23s64.41-39.87,67.68-44.08S1505.9,539.33,1514.09,537.19Z"/>
        <path class="cls-22" d="M1508.3,521.57s33.08,3,42.68,13.86,12.42,40.37,12.42,40.37-29.13,23.51-64.23,14.39Z"/>
        <path class="cls-10" d="M1383.75,708.64s-14.09,8.15-16.73,15.54-1.51,18,0,18.7,13.84-9.49,16.73-12.48-1.63,7.2,1.76,6.82,7.88-24.2,7.88-24.2Z"/>
        <path class="cls-11" d="M1427.79,716s-11.13-.88-14.81,0-22.75,12.78-19.59,15,17.6.85,20.72-1.41,12.58-4.67,15.82-5.4S1427.79,716,1427.79,716Z"/>
      </g>
      <path class="cls-16" d="M1371,968.94c9.38,54.1,60.83,88.38,113.58,88.38H1591l-8.32-325.1s-101.46-35.42-127-1.73c-22.32,29.51-82.87,146.33-86,215.48A104.8,104.8,0,0,0,1371,968.94Z"/>
      <path class="cls-24" d="M1371,968.94c9.38,54.1,60.83,88.38,113.58,88.38h85.09C1529.88,1030.32,1476.25,955.73,1371,968.94Z"/>
      <path class="cls-17" d="M1535.89,1057.08l2.39.16c1.68.09,3.36.15,5.06.17h108v-.05l6.14.08c11,.13,22.38.26,33,.35l5.26,0h1.91c10.48.07,19.75.1,26.36.06a176.32,176.32,0,0,0,26.3-2,117.55,117.55,0,0,0,29.3-8.38,94.74,94.74,0,0,0,9.32-4.74,91,91,0,0,0,11.54-7.86A104.1,104.1,0,0,0,1825,1006.1a156.91,156.91,0,0,0,12.74-27.77A268.05,268.05,0,0,0,1849,933.75c4.09-23.9,6.42-51.74,7.13-83.92q.42-19.46.06-41-.57-34.5-3.08-74.72c-2.33-37.69-5.91-79.28-10.63-125.05-4.3-41.8-9.26-71-16.49-77.69-10.65-9.82-32.87-13.77-48.33-15.35h0c-9.6-1-16.57-1.06-16.57-1.06-18.88,0-35.67,13.56-41.73,33.71-12.34,41-34.37,114.37-57.3,191.09-.12.38-.23.77-.35,1.15q-2,6.61-4,13.25c-.19.68-.4,1.35-.61,2-1.28-.57-2.62-1.18-4-1.79l-.14-.06c-5.5-2.44-11.72-5.11-18.44-7.83h0c-3.49-1.41-7.09-2.84-10.81-4.26-10.49-4-21.82-8-33.3-11.42-5.09-1.53-10.23-2.95-15.33-4.21-6.54-1.62-13-3-19.37-4l-.55-.09-2.24-.34c-27.31-4-51-1.23-60.8,16.07-15.69,27.69-58.86,138.19-62,207.53C1427.09,1009.68,1479.38,1052.84,1535.89,1057.08Z"/>
      <path class="cls-16" d="M1706.47,769.15s54.58-222.36,58.52-241c1.75-8.33,7.16-11.34,12.61-12.11-9.59-1-16.57-1.06-16.57-1.06-18.88,0-35.67,13.52-41.73,33.61-13.22,43.81-37.56,124.61-62.21,206.91C1658.33,755.42,1706.47,769.15,1706.47,769.15Z"/>
    </g>
    <g>
      <path class="cls-25" d="M1997.19,812.62c3.17,6.71,33.69,12.93,79,18.44,8,1,16.42,1.92,25.25,2.85,154.14,16.15,576.32,25.17,602.34,20.41,36-6.58,41.55-331.92,41.55-331.92s-144.72.34-312-1.25c-57.24-.53-256.34-1.88-293.26-1.88C2082.83,519.27,1992.06,801.75,1997.19,812.62Z"/>
      <path class="cls-26" d="M2055.5,771.32s64.68-220.46,69.35-239c2.08-8.26,8.49-11.24,15-12-11.37-1-19.64-1.05-19.64-1.05-22.38,0-42.27,13.4-49.45,33.32C2055,596,2026.2,676.14,1997,757.74,1998.46,757.71,2055.5,771.32,2055.5,771.32Z"/>
      <path class="cls-26" d="M1663.46,966.52c10.31,55.3,77.77,90.52,147,90.52h137L1936.73,734.7S1806,699.59,1773.14,733c-28.77,29.26-106.79,145.09-110.89,213.64A81.09,81.09,0,0,0,1663.46,966.52Z"/>
      <path class="cls-27" d="M1663.46,966.52c10.31,55.3,77.77,90.52,147,90.52h67.22C1832.81,1031.62,1792.28,953.29,1663.46,966.52Z"/>
      <path class="cls-28" d="M2027.23,768.84s-184.86-78.94-219.88-27.38c-18.59,27.38-69.75,136.62-73.53,205.17-3.67,66.61,65.31,110.41,136.26,110.41h126Z"/>
      <path class="cls-29" d="M1783.66,1003.21q3.06,2.19,6.29,4.3c26.7,17.52,61.53,31.45,101.37,40.09a447,447,0,0,0,97.54,9.76h60.73l283.65.07,162.59,0h2.4v-.06l5.64-26.26,56.33-262.28s-717.48-22.07-775.41,7.36c-26.9,13.66-42,75.52-50.47,137.88C1729.83,947.33,1748.92,978.5,1783.66,1003.21Z"/>
      <path class="cls-30" d="M1783.66,1003.21q3.06,2.19,6.29,4.3c26.7,17.52,61.53,31.45,101.37,40.09a447,447,0,0,0,97.54,9.76h60.73l283.65.07,162.59,0,2.41-.06,5.64-26.26c-99.65-17.13-237.55-34.54-381.4-33.19C1985.1,999.26,1870.08,999.1,1783.66,1003.21Z"/>
      <g>
        <path class="cls-12" d="M2170.75,1050.39c0,2.32-.11,4.52-.23,6.5,0,.18,0,.36,0,.54-.24,3.6-.62,6.46-.86,8.1H2054.89a18.15,18.15,0,0,1,4.73-8.13l.5-.51c10.63-10.27,32.73-12.41,40.48-16,6.69-3.08,19.14-22.66,26.38-34.8,1.6-2.67,2.95-5,3.91-6.68,1.1-1.91,1.73-3.06,1.73-3.06l12.74,1.13,18.59,1.64s.08.7.23,1.92c.32,2.51.94,7.22,1.75,12.82h0c.93,6.4,2.14,13.95,3.46,20.66A80.26,80.26,0,0,1,2170.75,1050.39Z"/>
        <path class="cls-11" d="M2421.85,552.21s-61,167.28-73.1,166.37c-26.3-2-36.1,4.36-41.12,4.15s23.3,8.55,32.09,7.29,75.79-3.3,75.79-3.3l40.59-143.26Z"/>
        <path class="cls-31" d="M2271,1056.89c0,.2,0,.37,0,.55-.27,3.59-.62,6.45-.87,8.09H2155.38a18.31,18.31,0,0,1,4.7-8.11l.54-.53a35.23,35.23,0,0,1,10.13-6.5c11-5,24.6-6.84,30.35-9.48,6.56-3,18.62-14.9,25.88-22.44,3.62-3.75,6.05-6.43,6.05-6.43l7.9-1.82,10.25-2.35,13.8-3.16s.22,1.73.64,4.63c.35,2.49.86,5.86,1.49,9.75.76,4.62,1.69,10,2.78,15.46A89.41,89.41,0,0,1,2271,1056.89Z"/>
        <path class="cls-13" d="M2114.69,996.86s11.52,10.08,18.54,12.41c11.06,3.69,42.07,5.22,42.07,5.22S2213.85,909.4,2225,883.58c10.53-24.48,20.84-76.51,20.84-76.51,8-.43,76.19,7.65,129,1.94,28.1-3,51.86-10,59.92-24.16,23.2-40.88-33-54.09-33-54.09s-167-20.64-200.33.37S2114.69,996.86,2114.69,996.86Z"/>
        <path class="cls-12" d="M2245.79,807.07c8-.43,76.19,7.65,129,1.94,14.33-26.07,33.16-60.43,33.16-60.43S2311.23,737.64,2245.79,807.07Z"/>
        <path class="cls-13" d="M2220.05,1016s3.4,2.51,10.78,3c6.87.48,44,0,44,0s41.13-88.13,57.13-130.79c7.49-20,7.65-47.2,9.39-60,.54-4,1.23-6.56,2.35-7.06h0a5.64,5.64,0,0,1,1.06-.32h0c17.79-3.88,165.75,11.49,186.81-29.23a35.44,35.44,0,0,0,4.19-19c-2.2-32.2-39.48-41.85-39.48-41.85s-167.52-6-200,16.29S2220.05,1016,2220.05,1016Z"/>
        <path class="cls-12" d="M2133.23,1009.27c11.06,3.69,42.07,5.22,42.07,5.22S2213.85,909.4,2225,883.58c10.53-24.48,20.84-76.51,20.84-76.51S2165.1,990.23,2133.23,1009.27Z"/>
        <path class="cls-12" d="M2344.77,820.87c17.79-3.88,165.75,11.49,186.81-29.23a35.44,35.44,0,0,0,4.19-19l-34.13-37.68s-2.68,53.6-47.07,59.63C2413.54,800.14,2353.6,818.17,2344.77,820.87Z"/>
        <path class="cls-12" d="M2230.83,1019c6.87.48,44,0,44,0s41.13-88.13,57.13-130.79c7.49-20,7.65-47.2,9.39-60C2325.09,862.81,2256.12,1007.09,2230.83,1019Z"/>
        <path class="cls-11" d="M2572.09,518.78c-17.8,22-51.43,58.39-73.8,50.18-7.51-2.75-70.61-25-36.55-46.18,8.63-5.37,24.21-12.35,37.13-13.65-.33-4.08-.52-7.6-.64-10.51-.26-6.35-.12-9.81-.12-9.81l25.64-18.74,0,0,1.19.38L2539.3,475c.14,1.58.32,3.13.55,4.65a81.91,81.91,0,0,0,9.94,28.88,19.6,19.6,0,0,0,15.81,9.78C2567.86,518.46,2570,518.62,2572.09,518.78Z"/>
        <path class="cls-32" d="M2539.85,479.65c-6.19,11.28-17.91,16.21-41.62,19-.26-6.35-.12-9.81-.12-9.81l25.64-18.74h0l1.19.37L2539.3,475C2539.44,476.58,2539.62,478.13,2539.85,479.65Z"/>
        <path class="cls-11" d="M2489.2,491.19s50.37,8.84,55.39-22.62,14.9-51.49-17.05-58.46-40.13,4-44.36,14.12S2476.22,488.08,2489.2,491.19Z"/>
        <path class="cls-33" d="M2539.3,480.62s4.12-9.94-.09-18c0,0,5.77-9.39,2.34-12.49s-7.28,5.16-8.66,3.17-7.33-11.25-7.54-21.88-36.42-10.61-40.77-10.24-14.23-10.09-14.8-15.94c0,0,8.59-3,13-6s35.12-22.66,61.89-4.55,25.83,33.6,19.9,45.07S2552.81,480.83,2539.3,480.62Z"/>
        <path class="cls-22" d="M2392.89,711.32c1.76,4.54,5.94,8.68,40.29,24.41,49,22.45,109.86,44.9,121.5,34.84,9.06-7.83,13.39-61.39,15.41-117.18,2.41-66.13.34-134.74.34-134.74s-39.84,21.62-60.17,12.8c-20-8.7-13.84-21.66-13.58-22.09l-51.84,50.9S2388.63,700.29,2392.89,711.32Z"/>
        <path class="cls-23" d="M2433.18,735.73c49,22.45,109.86,44.9,121.5,34.84,9.06-7.83,13.39-61.39,15.41-117.18-2.2-31.51-5.21-56.32-5.21-56.32s-23.39,54.68-46,69.88C2465.7,702.75,2395.42,687.25,2433.18,735.73Z"/>
        <path class="cls-11" d="M2618.7,577.38s-10.92,102.21-29,142.77c0,0-53.82,12.2-143.54,0l2.15-17s111.56-22.21,111.56-25.65,7.6-124,7.23-131.71S2618.7,577.38,2618.7,577.38Z"/>
        <path class="cls-22" d="M2556.37,595.5c11.67,3,23.2,2.31,33.3.14A104.54,104.54,0,0,0,2622.88,582s-2.58-24.85-7.75-42.76c-1.75-6.09-7.34-10.5-14-13.66-12.82-6.14-30.75-6.93-30.75-6.93S2522.52,586.84,2556.37,595.5Z"/>
        <path class="cls-22" d="M2496.68,509.36s-34.23.3-52,13.24a154.29,154.29,0,0,0-29.14,27.86s4.26,22.81,21,26.76S2496.68,509.36,2496.68,509.36Z"/>
      </g>
      <g>
        <path class="cls-26" d="M2245.77,969.41c11.12,53.64,72.09,87.63,134.6,87.63h126l-9.86-322.34s-120.24-35.11-150.44-1.71c-26.46,29.26-98.2,145.09-102,213.64A87.51,87.51,0,0,0,2245.77,969.41Z"/>
        <path class="cls-34" d="M2245.77,969.41c11.12,53.64,72.09,87.63,134.6,87.63h100.84C2434,1030.27,2370.45,956.31,2245.77,969.41Z"/>
        <path class="cls-28" d="M2820.58,851.31c-.84,31.91-3.6,59.51-8.45,83.21a230.82,230.82,0,0,1-13.25,44.19,144.13,144.13,0,0,1-15.1,27.54,110.75,110.75,0,0,1-29.07,28.57,112.4,112.4,0,0,1-13.67,7.8q-5.34,2.58-11,4.69a160.49,160.49,0,0,1-34.74,8.31,246.66,246.66,0,0,1-31.16,2c-7.84,0-18.83,0-31.25-.05l-2.26,0-6.22,0c-12.58-.09-26.13-.23-39.11-.35l-7.28-.08v.05H2452c-.67,0-1.34,0-2,0-2,0-4-.07-6-.16-.94,0-1.89-.09-2.83-.15-67-4.21-128.93-47-125.43-110.4,3.77-68.75,55.48-177.94,73.52-205.77,18.74-28.9,79.18-24.88,80.08-24.76.18,0,134.06.38,134.2,0,27.18-76.06,40.37-122.52,55-163.2,7.19-20,27.08-33.41,49.46-33.41,0,0,8.26.07,19.63,1.05h0c5.39.46,11.49,1.13,17.72,2.08,14.92,2.3,30.65,6.28,39.57,13.14,8.56,6.6,14.43,35.58,19.53,77,5.59,45.38,9.83,86.61,12.6,124q2.94,39.93,3.65,74.09Q2821.08,832,2820.58,851.31Z"/>
        <path class="cls-26" d="M2745.31,522.4h0s-34,1.06-40.83,29.8-48.32,166.37-48.32,166.37-31.71-3.85-52.66-2.7c27.18-76.06,40.37-122.52,55-163.2,7.19-20,27.08-33.41,49.46-33.41,0,0,8.26.07,19.63,1.05h0C2733,520.78,2739.08,521.45,2745.31,522.4Z"/>
      </g>
      <path class="cls-11" d="M1818,996.37s-2.45,14.66-5.66,23.74-6.09,33.7,1.67,35.39,22-21.38,23.81-29.6,10.55-30.31,6.58-33.66S1818,996.37,1818,996.37Z"/>
      <path class="cls-21" d="M1846,998.1a15.58,15.58,0,0,1,1.42,16.5c-4.64,9.25-10.13,21.11-13.19,28.41s-15.16,14.58-20.23,12.49-4.6-20.62-4.6-20.62,10.85,5,15.36,1.06,11.33-12.85,15-20.85A126.66,126.66,0,0,0,1846,998.1Z"/>
      <path class="cls-14" d="M2150,586.88s-59.49-12.62-102.17,8.24c0,0-17.9,56.52-17.06,66.51s.89,54-7.73,69.73,79.16,43.64,95,33.91S2152.56,597.71,2150,586.88Z"/>
      <path class="cls-12" d="M1864.71,748s-27,94-46.68,248.34c0,0,26,8.17,37.33-5,0,0,14.5-39.5,33.31-75.23,25.9-49.22,58.14-101,55.37-120.52C1941.52,778,1888.66,705.69,1864.71,748Z"/>
      <path class="cls-11" d="M2013.83,1001.73s4,14.33,4.87,23.91,8.66,33.14,16.42,31.4,11-28.66,9.13-36.87-3.2-31.94-8.22-33.31S2013.83,1001.73,2013.83,1001.73Z"/>
      <path class="cls-12" d="M1878,736s18.2-10.43,59.56-1.45,75.2,30.46,75.2,30.46l-105.47,4.38Z"/>
      <path class="cls-21" d="M2040,991.5a15.59,15.59,0,0,1,8.23,14.37c-.31,10.34-.29,23.41,0,31.32s-7.62,19.61-13.09,19.85-12.86-16.77-12.86-16.77,12,0,14.38-5.5,4.87-16.43,4.87-25.25A126.08,126.08,0,0,0,2040,991.5Z"/>
      <path class="cls-11" d="M2133.5,586.73s26.39-4.83,30.05,16.65.43,151.21-19.78,157.75-99.72-17.58-99.72-17.58v-7.84s77-3.66,79.84-4.86S2133.5,586.73,2133.5,586.73Z"/>
      <path class="cls-13" d="M1913.61,751.62s28.71,105.52,89.4,248.76c0,0,21.53,6.47,37-8.88,0,0-12.74-212-33.85-238.7C1995.06,738.81,1913,703,1913.61,751.62Z"/>
      <path class="cls-14" d="M2120.92,583.42s34.29.21,40.69,7.75c14.66,17.23,11.18,96.08,11.18,96.08s-13.78-3.7-26.15-.86-28.66,0-28.66,0Z"/>
      <path class="cls-11" d="M2048,605.6l-2.38,2.19c-12.38,11.34-69.29,62.86-80.88,62.48-13-.43-63.42-14-63.42-14l-1.85,9.14s61.42,33.33,79.42,29.93,59.56-33.12,59.56-33.12Z"/>
      <path class="cls-14" d="M2075.75,586.07s-31.83,6.65-40.19,16.39-34.32,40.09-34.32,40.09,6.79,5.38,15.63,20.78c8.6,15,32.84,11.86,32.84,11.86Z"/>
      <path class="cls-11" d="M1901.36,656.25s-6.23-5.49-12.08-5.67-12.27-1.9-11.89,0,8.68,3.59,7.17,4a60.1,60.1,0,0,1-11.7,0c-2.08-.38-7.17-2.45-7.17-.38s12.83,9.63,19.06,10.38,14.76.84,14.76.84Z"/>
      <path class="cls-11" d="M2044.05,735.71s-16.82-3.69-19.52-3.24c-3.31.56-16,6.17-16,10.41s46.37,3.8,46.37,3.8Z"/>
      <path class="cls-13" d="M1922.62,731.26s31.32-28.11,159.12,32.43l-104.95,1.58Z"/>
      <g>
        <path class="cls-35" d="M2093.44,528.15s22.18,12.14,5.08,36.38c0,0,19.27,2.78,24.29-2.64a15.51,15.51,0,0,1-1.69,3.57s18.79-1.92,25.7-8.83-11.35-101.9-61.77-84c0,0-44.46,2.8-33.28,53.13s-5.44,52.65-5.44,52.65,4.94,1.64,7.17,1.33c0,0,3.09-1.7,3.48-3.59,0,0-.25,2.92-1,3.94,0,0,18.17-.8,26.18-8.81S2097.46,538.3,2093.44,528.15Z"/>
        <path class="cls-35" d="M2101.27,553.47s12.07-17,15.53-31.92c2.48-10.65,15.9-54.4-24.42-50.77,0,0-28.48,4.18-39.8,11-9,5.41-22.2,17.42-10,52.91l3,11.93Z"/>
        <path class="cls-11" d="M2075.3,604.56c3,2.19,16.15,4.9,26.69-.32,9.91-4.9,14.44-15.52,13-19.85s-6.07-5.81-11.09-32l-1.92.79-32.4,13.24s2.84,10.46,4.81,20.44C2076,595.24,2073.55,603.29,2075.3,604.56Z"/>
        <path class="cls-36" d="M2069.53,566.41s2.84,10.46,4.81,20.44c18.75-4.21,25.36-23.35,27.59-33.68Z"/>
        <path class="cls-11" d="M2065.08,577.1s44.76-8,39.36-35.76-3.24-47.55-32.05-43.63-32.28,15.59-32.73,25.3S2053.3,578.46,2065.08,577.1Z"/>
        <path class="cls-35" d="M2053,491.12s22,37.14,43.73,39.62,26.72-7,26.72-7-17.85-10.54-24.29-32.37C2099.17,491.38,2060.9,472.34,2053,491.12Z"/>
        <path class="cls-35" d="M2056.81,493.61s-9.07,9.56-10.46,17.82-.24,24.69-5.06,24.8c0,0-13.73-23.34-4.12-39C2047.37,480.7,2056.81,493.61,2056.81,493.61Z"/>
        <path class="cls-35" d="M2055.08,495.11s15,36.81,43.18,45.36c0,0-29.7-19.77-35.45-44.66S2055.08,495.11,2055.08,495.11Z"/>
        <path class="cls-35" d="M2146.82,556.63c-6.9,6.91-25.7,8.84-25.7,8.84a15.7,15.7,0,0,0,1.69-3.58c-9.85,7.53-33.32,1.2-33.32,1.2,19-3.63,13.63-31,7.25-32.35-3.16-20.63-9.85-46.38-13-58,.84-.11,1.31-.14,1.31-.14C2135.47,454.73,2153.73,549.73,2146.82,556.63Z"/>
      </g>
    </g>
    <g>
      <g>
        <path class="cls-37" d="M2777,892.63s26.3-30.67,1.62-50.16c0,0-18-10.91-32.72-10,0,0,20.83,34.92,14.09,38.4s-20.4-40.59-20.4-40.59-41-4-54.21,2.37c0,0,35.06,28.69,27.68,30.4s-45.25-26.45-45.25-26.45-38.18,6.49-36.14,29.78,15.19,30.48,21,29.86,39.6-13.53,40.33-8.79-19.62,20.21-33.87,20.94c0,0,26.91,29.68,44.8,21.11s19.41-22.14,30.56-27.24,20.67-5.08,16.06.12-24.78,10.24-31.15,21.52-12.1,18.88,6.4,16.1,48.59-16.33,49.91-31.83Z"/>
        <g>
          <path class="cls-37" d="M2650.44,867s103.68-4,126.58,25.65c0,0,5.06,15.17,20.65,29l2.42,6.62s-18-19-24.39-20.09C2775.7,908.14,2785.75,871.4,2650.44,867Z"/>
          <path class="cls-37" d="M2797.67,921.61s22.25,16.46,23.79,45.86l-4,.36s-7.11-30.4-20-42.29S2797.67,921.61,2797.67,921.61Z"/>
        </g>
      </g>
      <g>
        <path class="cls-38" d="M2869,854.05s-41.83-23.42-22.31-55.21c0,0,15.62-19.52,32.35-24.54,0,0-8.93,47.4,0,48.52s6.13-53.54,6.13-53.54,44.06-21.2,61.35-19.52c0,0-27.33,46.29-18.4,45.17s39.59-48,39.59-48,45.18-8.37,52.43,18.4-4.46,40.16-11.15,41.83-49.64,1.12-48.53,6.7,30.12,14.5,46.29,9.48c0,0-17.84,44.06-41.27,41.83s-30.67-16.73-45.17-17.85-25.1,2.79-17.85,6.69,31.79,1.28,43.5,11.24,21.2,16.09-.55,20.55-60.8,1.68-68.6-15.06Z"/>
        <g>
          <path class="cls-37" d="M2999.46,773.74s-117.12,37.93-130.5,80.31c0,0,.56,19-11.16,40.72v8.36s12.27-28.44,19-32.35C2876.77,870.78,2850.55,834,2999.46,773.74Z"/>
          <path class="cls-37" d="M2857.8,894.77s-18.06,27.42-7.76,60.81l4.65-1.25s-4.52-36.77,4.93-55.27S2857.8,894.77,2857.8,894.77Z"/>
        </g>
      </g>
      <g>
        <path class="cls-38" d="M2802.41,821.75s55.14-30.88,29.41-72.79c0,0-20.59-25.73-42.64-32.34,0,0,11.76,62.49,0,64s-8.09-70.58-8.09-70.58-58.08-27.94-80.87-25.73c0,0,36,61,24.26,59.55s-52.2-63.23-52.2-63.23-59.55-11-69.1,24.26,5.88,52.94,14.7,55.14,65.43,1.47,64,8.82-39.7,19.12-61,12.5c0,0,23.53,58.08,54.4,55.14s40.44-22.05,59.55-23.53,33.09,3.68,23.53,8.83-41.91,1.68-57.34,14.81-27.94,21.21.73,27.09,80.14,2.21,90.43-19.85Z"/>
        <g>
          <path class="cls-37" d="M2630.38,715.88s154.39,50,172,105.87c0,0-.73,25,14.7,53.67v11s-16.17-37.49-25-42.64C2792.12,843.8,2826.67,795.28,2630.38,715.88Z"/>
          <path class="cls-37" d="M2817.11,875.42s23.81,36.15,10.24,80.16l-6.13-1.64s6-48.48-6.51-72.86S2817.11,875.42,2817.11,875.42Z"/>
        </g>
      </g>
      <path class="cls-22" d="M2804.27,1051a108,108,0,0,1-108-108h216A108,108,0,0,1,2804.27,1051Z"/>
      <path class="cls-39" d="M2836.17,1050.2A108.14,108.14,0,0,1,2714.74,943h26.84A108,108,0,0,0,2836.17,1050.2Z"/>
      <path class="cls-23" d="M2694.77,1056.52h219a13.33,13.33,0,0,0-13.33-13.33H2708.09a13.32,13.32,0,0,0-13.32,13.33Z"/>
      <rect class="cls-23" x="2693.8" y="943.01" width="222.02" height="3.31" transform="translate(5609.63 1889.34) rotate(180)"/>
    </g>
    <path class="cls-11" d="M2448.28,702.94s-29.83-2.67-32.4-2-24.54,18.56-25.3,20.13-3.57,11.72-.72,12.08c8.58,1.1,16.74-10.22,30-11.48,7.7-.74,26.74-5.52,26.74-5.52Z"/>
    <path class="cls-18" d="M1987.45,372.23c2.78-69-55.07-99.7-114.23-99.7s-123.54,15.33-129.12,107.12C1740.51,438.7,1772,475,1862.64,475c30.57,0,54.32-4.82,72.52-13.42l45.31,40.27-22.26-55.66C1977.93,427.88,1986.24,402,1987.45,372.23Z"/>
    <path class="cls-18" d="M724.29,345.1c-3-74.75,59.63-108,123.68-108s133.77,16.59,139.81,116c3.89,63.94-30.2,103.28-128.35,103.28-33.1,0-58.82-5.22-78.53-14.53l-49.06,43.6L756,425.22C734.59,405.36,725.59,377.35,724.29,345.1Z"/>
    <path class="cls-40" d="M1373.11,372.1c2.41-59.75-47.67-86.29-98.88-86.29s-106.93,13.26-111.76,92.72c-3.1,51.11,24.14,82.56,102.6,82.56,26.47,0,47-4.17,62.78-11.62l39.22,34.85-19.27-48.17C1364.87,420.28,1372.07,397.89,1373.11,372.1Z"/>
  </g>
</svg>
