<svg xmlns="http://www.w3.org/2000/svg" width="1184" height="728" viewBox="0 0 1184 728">
  <defs>
    <style>
      .cls-1 {
        fill: #e4e4e4;
      }

      .cls-2 {
        fill: #eac1a4;
      }

      .cls-3 {
        fill: #897f78;
      }

      .cls-4 {
        fill: #2f2f35;
      }

      .cls-5 {
        fill: #f1f1f1;
      }

      .cls-6 {
        fill: #7db5db;
      }

      .cls-7 {
        fill: #3b455a;
      }

      .cls-8 {
        fill: #305399;
      }

      .cls-9 {
        fill: #d9a3a3;
      }

      .cls-10 {
        fill: #587bc9;
      }
    </style>
  </defs>
  <g id="Object">
    <g>
      <path class="cls-1" d="M551,581.41c-29.11.08-58.22.76-87.27,3.89-11,1.18-21.69,3.77-32.67,4.82-21.93,2.09-43.47,6-65.48,7.79-17.73,1.45-35.53,2.31-53.21,4.15A193.7,193.7,0,0,1,261,600.54c-12.18-2.11-24.41-3.3-36.38-6.69-13.38-3.78-27.93-6.49-41.88-6.4-19.89.14-39.26.16-58.3,6.85-6.68,2.35-14.86,6.21-19.94,11.14-11.62,11.28-13.19,39.43-1.59,51.13,19.54,19.69,61.23,27.42,88.62,27.78,30,.4,59.16-1.75,89.21-3,27.92-1.18,55.78-2.86,83.75-2.8,57.13.12,114.26,0,171.29-3.7,53.57-3.47,107.28-2.28,161-2.28,55.06,0,109.75.42,164.41,7.51,23.82,3.09,48.08,4.17,72,6.33,21.44,1.94,42,0,63.39-1.83a155.07,155.07,0,0,0,52-13.5c12.89-6,35.88-24.51,39.83-38.75,11.09-39.94-156.22-39-181.9-38.89-28.74.11-57.7,1-86.42,0-12.08-.45-24-2.73-35.77-5.24s-23.57-1.86-35.48-2.91c-49.65-4.37-99.42-3.73-149.23-3.73C583.46,581.5,567.24,581.36,551,581.41Z"/>
      <g>
        <polygon class="cls-1" points="251.03 229.15 288.71 249.63 311.42 241.85 369.53 177.97 354.09 164.01 292.42 212.22 243.87 191.04 251.03 229.15"/>
        <path class="cls-2" d="M363.08,156.67l6.07-4.08,6.94,3.08,3.46,6.47-2.45,4.92-6.21,2.74,2.15.83-.6,1.77-9.63,3.17c-2-2.55-9.2-5.13-10.24-6.49l6.71-4.6Z"/>
        <g>
          <polygon class="cls-3" points="234.84 393.85 167.57 369.11 181.44 486.95 173.4 588.62 173.19 589.3 173.35 589.32 173.33 589.54 186.6 590.8 186.6 590.79 187.1 590.85 216.72 500.26 232.41 403.78 232.41 403.78 234.84 393.85"/>
          <polygon class="cls-4" points="185.91 595.44 172.15 595.09 168.63 606.7 168.98 606.8 168.89 606.82 191.64 620.3 202.46 621.5 203.84 609.13 200.91 607 185.91 595.44"/>
        </g>
        <g>
          <polygon class="cls-3" points="280.66 395.87 260.47 597.64 247.16 598.25 233.78 489.3 210.59 380.8 280.66 395.87"/>
          <polygon class="cls-4" points="260.44 602.33 278.07 612.33 276.42 620.65 244.91 615.9 246.76 603.91 260.44 602.33"/>
        </g>
        <path class="cls-5" d="M312.2,446.55c4.26-3,4.35-8.11,4.34-13.26,0-9.68-1.75-19.57-4-29-4.23-17.64-9-38.89-11.12-61.76-5.44-59.09-24.1-98.74-24.1-98.74l-6-16.06c-1.19-2.08-2.43-4.15-3.73-6.18-7.52-11.8-20.58-31.86-34.54-35.14l-.88-.2c-14.69-3.22-33.5-1.73-46.77,5.41a46.65,46.65,0,0,0-7,5c-6.49,5.24-11.78,8.07-14.58,16-2.42,6.92-3,14.48-4.33,21.65-2.72,14.58-4.34,29.34-6.51,44-4.08,27.5-7.54,55.09-11.89,82.55-2.25,14.13-4.51,28.29-5.56,42.57-.94,12.62-12.33,25.44-18.73,36.76-2.23,3.93,29.76,14.14,32.62,14.8,13.27,3.09,27.39,2.3,41.07,2.37q45,.2,89.86-2.78c9.94-.65,22.19-2.55,31-7.5A9.47,9.47,0,0,0,312.2,446.55Z"/>
        <path class="cls-6" d="M215.7,184.61s-16.88-4.55-19.21,33.54-6.22,134.51-11.67,161-13.6,78.28-13.6,78.28l51.7,1.8L282,454.51s-20.21-37.32-23.32-63.75,2.33-126-10.89-163.28S231.81,185.28,215.7,184.61Z"/>
        <g>
          <g>
            <path class="cls-7" d="M239.25,154.43c2.56,7.67-1.14,15.85-4.39,22.84-2.87,6.2-3.88,10.28,3.43,11.95,4.12.95,11.42,2.7,15-.45,2.73-2.39,1.19-9.76-.14-12.69-1-2.24-3.7-3.37-4.66-5.64a7.89,7.89,0,0,1-.46-3,40.9,40.9,0,0,1,1.69-12.24c.8-2.7,1.88-5.34,2.12-8.14.35-4.06-2.52-8.79-4-12.51-2.8-6.94-12.57-16.24-20.74-10.8-1.86,1.24-3,3.34-3.85,5.38a9.88,9.88,0,0,0-1.08,3.83c-.06,5.33,4.8,6.23,8.16,8.76A26.67,26.67,0,0,1,239.25,154.43Z"/>
            <path class="cls-2" d="M223.7,184.36c7.09-1.67,12.64-7.62,15.3-14.4s2.81-14.3,2.07-21.55c-2.45-24.12-32.46-22.57-42.62-4.08C189.6,160.44,203.08,189.22,223.7,184.36Z"/>
          </g>
          <path class="cls-2" d="M223.7,181.76l-.36,8.25a1.26,1.26,0,0,1-1.63,1.45l-6.72-.24a7.13,7.13,0,0,1-3.24-.61c-2.14-1.15-2.58-4.05-2.24-6.46s1.2-4.83.69-7.21c4.63,2.28,9-2.87,13.64-.59Z"/>
        </g>
        <path class="cls-7" d="M214,106.6c-7.88,2.67-12.93,10.64-20.62,13.82-4.41,1.83-9.62,2.06-13.22,5.19-8.06,7-1.58,21.77-8.21,30.17-1.37,1.75-3.23,3.07-4.61,4.81-3,3.75-3.38,8.88-3.64,13.67a15.49,15.49,0,0,0,.11,3.33c1,11.06,17.09,10.36,23.47,9.65,7-.78,4.66-4.67,4.66-4.67l-.25-.31a13.41,13.41,0,0,1,4.7-12.14c1.31-1.06,2.86-1.9,3.78-3.31,2.07-3.17.1-7.36.4-11.13,1.23-15.18,26.71-11.93,33.9-22.74C243.31,119.68,228.9,101.54,214,106.6Z"/>
      </g>
      <g>
        <g>
          <polygon class="cls-2" points="815.37 191.5 806.51 186.55 804.21 177.89 802.13 177.45 801.48 179.99 797.51 173.35 791.6 171.25 784.76 176.03 782.21 184.28 787.68 190.57 797.06 193.8 808.89 201.11 815.37 191.5"/>
          <polygon class="cls-1" points="816.21 185.87 802.92 201.6 852.12 249.33 865.38 253.61 921.87 208.56 906.76 177.71 864.63 213.52 816.21 185.87"/>
        </g>
        <g>
          <g>
            <polygon class="cls-7" points="1009.03 604.43 1011 613.48 995.37 626.37 984.59 619.24 991.42 608.27 1007.05 595.38 1009.03 604.43"/>
            <polygon class="cls-7" points="954.36 326.19 971.8 366.41 973.45 479.58 1009.31 601.32 992.64 608.71 919.45 467.37 911.12 422.6 907.8 328.31 954.36 326.19"/>
          </g>
          <g>
            <polygon class="cls-7" points="869.9 335.2 868.53 453.81 890.88 606.73 908.07 606.73 918.92 465.63 942.44 324.52 869.9 335.2"/>
            <polygon class="cls-7" points="907.97 604.68 907.97 613.98 889.38 623.27 880.09 613.98 889.38 604.68 907.97 604.68"/>
          </g>
        </g>
        <path class="cls-5" d="M903.75,174.6l45.65-1.69s27.31,24,41.42,86.23c14.37,63.4-2.65,154.68-2.65,154.68S865.69,397.5,845.61,395l30.64-125.18Z"/>
        <g>
          <path class="cls-2" d="M920.11,179.27l16-1.57a80.28,80.28,0,0,0-.85-12.77c4.44-1.56,9.58-3.89,10.36-8.53a13.24,13.24,0,0,0-.25-4.43q-1.56-9.06-3.11-18.13a16.1,16.1,0,0,0-1.88-6c-2-3.15-5.85-4.53-9.52-5.17-9.36-1.63-19.55.38-26.82,6.5a14.47,14.47,0,0,0-4.53,6c-1.32,3.67-.35,7.72.64,11.49L902.87,157c1,4,2.55,8.56,6.41,10.06,2,.8,4.46.57,6.31,1.75C918.86,170.93,918.41,175.79,920.11,179.27Z"/>
          <path class="cls-7" d="M868,118.86a51.51,51.51,0,0,1,1.31-12.11c1.42-6.49,9.08-9.41,15.71-9.87,14.32-1,28.14-7.49,42.13-2.48,8,2.87,18.73,3.56,26,7.59a21.42,21.42,0,0,1,7.31,7.23,32.19,32.19,0,0,1,0,34,45.35,45.35,0,0,1-5,6.3c-3.78,4.09-8.3,9.14-13.49,10.65-.12-4.65,4.13-19.28.57-23.09-5.65-6.05-18.45-4-25.47-2.48-7.66,1.61-14.49,7-22.08,8.17-5.47.83-12.44-1.86-17.08-4.69C870.64,133.68,868.21,126.35,868,118.86Z"/>
        </g>
        <path class="cls-8" d="M916.34,180.25l-48,192-3.94,25.18,59.79,7.87s-2.36-91.93-1.57-104.19,9.66-38.76,11-67.32c.78-16.52,6-46.2,2.36-55.86Z"/>
      </g>
      <path class="cls-9" d="M372.58,337.71a14,14,0,0,1,2.14,7.75,14,14,0,0,0-2.09-8.91c-5.74-9.2-9.41-19.42-9.36-29.06C362.91,317.47,366.62,328.13,372.58,337.71Z"/>
      <path class="cls-9" d="M438.09,310.08c-.45,9.26-5.1,18.06-10.18,26.95a14,14,0,0,0-1.87,7.11,14,14,0,0,1,1.83-5.93C433.16,328.94,438,319.77,438.09,310.08Z"/>
      <polygon class="cls-6" points="523.66 357.07 523.66 357.07 523.66 359.45 523.66 359.45 523.66 358.3 523.66 357.07"/>
      <g>
        <polygon class="cls-5" points="956.6 209.46 898.18 264.61 811.53 238.78 805.33 258.27 900.57 301.84 925.63 301.84 978.58 256.79 956.6 209.46"/>
        <polygon class="cls-2" points="805.89 256.52 790.81 256.79 781.6 243.79 805.01 230.78 811.53 238.78 805.89 256.52"/>
      </g>
      <g>
        <polygon class="cls-2" points="321.17 289.51 320.89 298.3 336.4 303.94 345.35 297.17 345.35 286.94 336.72 286.45 336.45 284.2 333.62 282.39 321.17 289.51"/>
        <path class="cls-5" d="M191.68,223.74l64,54.49,68,1.32s-2.76,29.2-2.73,26.77-75.26,7.28-75.26,7.28l-66.8-47.21Z"/>
      </g>
      <path class="cls-10" d="M508.38,507.33a18.33,18.33,0,0,0-5.51,1.95c-5.77,3.14-11.27,6.12-16.83,8-8.36,2.85-17,3.29-26.19-1.74-18.82-10.23-25.79-35.55-14.93-54,13.38-22.75,37.72-19.95,57.4-7.67a14.22,14.22,0,0,0,21.34-8.79V359.45h0v-2.38h-.39V359H436.49A14.26,14.26,0,0,1,426,344.14a14,14,0,0,1,1.87-7.11c5.08-8.89,9.73-17.69,10.18-26.95a29.84,29.84,0,0,0-3.82-14.81c-10.22-18.83-35.54-25.81-54-15-11.69,6.88-16.63,16.65-17,27.19,0,9.64,3.62,19.86,9.36,29.06a14,14,0,0,1,2.09,8.91A14.27,14.27,0,0,1,364,359H288.53c-.25.38-.51.75-.75,1.14-6.51,10.64-5.17,18.56,4.55,25.26,6.22,4.29,12.79,8,18.24,13.54,8.33,8.49,8.87,13.51,2.51,24-7.15,11.82-7.11,12.31,3.88,20.71,3,2.26,6.07,3.95,1.93,8.22-6.1,6.28-3.92,12.41,1.33,17,7.37,6.42,8.48,14.66,7.09,23.88-1.2,8-3,16-4.49,24-4.06,21.55,1.59,31.55,21.06,37.21,20.33,5.91,40.55.79,60.82-1.16,13.58-1.31,26.95-6,40.85-2.6,9,2.23,14,7.75,15.16,17.85,1.69,14.74,6.08,28.82,8.58,43.32,2,11.82,7.2,15.52,17.85,15,8.92-.4,21.69-.59,36.5-.65V518.16A14.26,14.26,0,0,0,508.38,507.33Z"/>
      <path class="cls-8" d="M684.67,626.41c12.71-.69,6.54-8.63.68-20.95-47.57-100,9.09-180.58,18.37-191.86a202.23,202.23,0,0,0,32-54.15H682a14.2,14.2,0,0,0-7.34,20.9c12.26,19.69,15.05,44-7.71,57.4-18.45,10.85-43.77,3.87-54-15-8.41-15.48-1.51-29.1,6.4-42.94a14.21,14.21,0,0,0-7.49-20.4H524.05v82.34a14.49,14.49,0,0,1-.39,3.27v.35A14.22,14.22,0,0,1,502.37,454c-19.69-12.27-44-15.06-57.4,7.69-10.85,18.45-2.82,43.34,16,53.56,9.1,5,17.14,4.64,25.07,2a99.77,99.77,0,0,0,16.76-8.11,14,14,0,0,1,5.58-1.81c7.24-1.28,13.64,2.73,15.27,10.58v.25a14.35,14.35,0,0,1,.4,3.31V625.72C581.38,625.51,669,627.26,684.67,626.41Z"/>
      <path class="cls-7" d="M597.13,156.32a14.2,14.2,0,0,0,22.79,3.59C636.21,143.4,659.23,135,677.54,154c14.84,15.42,13.94,41.67-2,56-7.82,7-16.28,8.6-25.08,7.77-5.83-.5-11.87-2.13-18.21-3.84a18,18,0,0,0-5.82-.62,14.24,14.24,0,0,0-12.33,14.08L625.94,277h0l7.86,33h0l.28,1.18.27,1.12.38-.09,85.44-20.39a14.21,14.21,0,0,1,12,18.1c-4.48,15.3-8,30.16,3.75,43.26,14.31,15.94,40.55,16.85,56,2,19-18.29,10.67-41.32-5.83-57.62a14.22,14.22,0,0,1,2.28-22L840.59,263a180.67,180.67,0,0,0-.57-56c-9-45.72-26.78-81.08-54.81-106.76C727.7,47.57,661.34,33.16,590.88,44.36a168.55,168.55,0,0,0-19.46,4.31l13.63,57.09Z"/>
      <path class="cls-6" d="M602.41,215.62C589,192.87,564.68,195.67,545,208a14.21,14.21,0,0,1-21.33-8.79,14.49,14.49,0,0,1-.4-3.27V88.5c-29.33,1.32-57.86,10.16-85.24,23.58-7.36,3.61-14.6,7.56-21.77,11.62-50.34,28.51-78.35,72.28-76,136.42,1.34,36-14.69,62.19-38.36,84.21-4.29,4-8.54,7.94-12.05,12.72-.46.63-.9,1.28-1.34,1.94H364a14.27,14.27,0,0,0,10.73-13.53,14,14,0,0,0-2.14-7.75c-6-9.58-9.68-20.24-9.31-30.22.38-10.54,5.32-20.31,17-27.19,18.45-10.84,43.77-3.86,54,15a29.84,29.84,0,0,1,3.82,14.81c-.1,9.69-4.93,18.86-10.22,28.13a14,14,0,0,0-1.83,5.93A14.26,14.26,0,0,0,436.49,359h86.78V275.57A14.3,14.3,0,0,1,539,261.43a14,14,0,0,1,5.58,1.81,99.31,99.31,0,0,0,16.75,8.11c8.37,2.85,17,3.29,26.2-1.74C606.3,259.38,613.26,234.06,602.41,215.62Z"/>
    </g>
  </g>
</svg>
